%TF.GenerationSoftware,KiCad,Pcbnew,(5.1.7)-1*%
%TF.CreationDate,2020-11-11T21:59:56+01:00*%
%TF.ProjectId,rgb_ctrl_board,7267625f-6374-4726-9c5f-626f6172642e,rev?*%
%TF.SameCoordinates,Original*%
%TF.FileFunction,Copper,L2,Bot*%
%TF.FilePolarity,Positive*%
%FSLAX46Y46*%
G04 Gerber Fmt 4.6, Leading zero omitted, Abs format (unit mm)*
G04 Created by KiCad (PCBNEW (5.1.7)-1) date 2020-11-11 21:59:56*
%MOMM*%
%LPD*%
G01*
G04 APERTURE LIST*
%TA.AperFunction,ComponentPad*%
%ADD10O,1.000000X1.000000*%
%TD*%
%TA.AperFunction,ComponentPad*%
%ADD11R,1.000000X1.000000*%
%TD*%
%TA.AperFunction,SMDPad,CuDef*%
%ADD12R,1.540000X1.800000*%
%TD*%
%TA.AperFunction,ComponentPad*%
%ADD13C,1.200000*%
%TD*%
%TA.AperFunction,ViaPad*%
%ADD14C,0.800000*%
%TD*%
%TA.AperFunction,Conductor*%
%ADD15C,0.300000*%
%TD*%
%TA.AperFunction,Conductor*%
%ADD16C,0.500000*%
%TD*%
%TA.AperFunction,Conductor*%
%ADD17C,0.254000*%
%TD*%
%TA.AperFunction,Conductor*%
%ADD18C,0.100000*%
%TD*%
G04 APERTURE END LIST*
D10*
%TO.P,J3,10*%
%TO.N,/RESET*%
X117120000Y-110970000D03*
%TO.P,J3,9*%
%TO.N,GND*%
X117120000Y-109700000D03*
%TO.P,J3,8*%
%TO.N,N/C*%
X118390000Y-110970000D03*
%TO.P,J3,7*%
X118390000Y-109700000D03*
%TO.P,J3,6*%
X119660000Y-110970000D03*
%TO.P,J3,5*%
%TO.N,GND*%
X119660000Y-109700000D03*
%TO.P,J3,4*%
%TO.N,/SYS_SWCLK*%
X120930000Y-110970000D03*
%TO.P,J3,3*%
%TO.N,GND*%
X120930000Y-109700000D03*
%TO.P,J3,2*%
%TO.N,/SYS_SWDIO*%
X122200000Y-110970000D03*
D11*
%TO.P,J3,1*%
%TO.N,+3V3*%
X122200000Y-109700000D03*
%TD*%
D12*
%TO.P,Y1,4*%
%TO.N,GND*%
X120560000Y-127100000D03*
%TO.P,Y1,3*%
%TO.N,Net-(C16-Pad1)*%
X123240000Y-127100000D03*
%TO.P,Y1,2*%
%TO.N,GND*%
X123240000Y-124300000D03*
%TO.P,Y1,1*%
%TO.N,Net-(C15-Pad1)*%
X120560000Y-124300000D03*
%TD*%
%TO.P,C16,1*%
%TO.N,Net-(C16-Pad1)*%
%TA.AperFunction,SMDPad,CuDef*%
G36*
G01*
X125937500Y-126700000D02*
X125462500Y-126700000D01*
G75*
G02*
X125225000Y-126462500I0J237500D01*
G01*
X125225000Y-125862500D01*
G75*
G02*
X125462500Y-125625000I237500J0D01*
G01*
X125937500Y-125625000D01*
G75*
G02*
X126175000Y-125862500I0J-237500D01*
G01*
X126175000Y-126462500D01*
G75*
G02*
X125937500Y-126700000I-237500J0D01*
G01*
G37*
%TD.AperFunction*%
%TO.P,C16,2*%
%TO.N,GND*%
%TA.AperFunction,SMDPad,CuDef*%
G36*
G01*
X125937500Y-124975000D02*
X125462500Y-124975000D01*
G75*
G02*
X125225000Y-124737500I0J237500D01*
G01*
X125225000Y-124137500D01*
G75*
G02*
X125462500Y-123900000I237500J0D01*
G01*
X125937500Y-123900000D01*
G75*
G02*
X126175000Y-124137500I0J-237500D01*
G01*
X126175000Y-124737500D01*
G75*
G02*
X125937500Y-124975000I-237500J0D01*
G01*
G37*
%TD.AperFunction*%
%TD*%
%TO.P,C15,1*%
%TO.N,Net-(C15-Pad1)*%
%TA.AperFunction,SMDPad,CuDef*%
G36*
G01*
X118062500Y-123500000D02*
X118537500Y-123500000D01*
G75*
G02*
X118775000Y-123737500I0J-237500D01*
G01*
X118775000Y-124337500D01*
G75*
G02*
X118537500Y-124575000I-237500J0D01*
G01*
X118062500Y-124575000D01*
G75*
G02*
X117825000Y-124337500I0J237500D01*
G01*
X117825000Y-123737500D01*
G75*
G02*
X118062500Y-123500000I237500J0D01*
G01*
G37*
%TD.AperFunction*%
%TO.P,C15,2*%
%TO.N,GND*%
%TA.AperFunction,SMDPad,CuDef*%
G36*
G01*
X118062500Y-125225000D02*
X118537500Y-125225000D01*
G75*
G02*
X118775000Y-125462500I0J-237500D01*
G01*
X118775000Y-126062500D01*
G75*
G02*
X118537500Y-126300000I-237500J0D01*
G01*
X118062500Y-126300000D01*
G75*
G02*
X117825000Y-126062500I0J237500D01*
G01*
X117825000Y-125462500D01*
G75*
G02*
X118062500Y-125225000I237500J0D01*
G01*
G37*
%TD.AperFunction*%
%TD*%
D13*
%TO.P,J1,20*%
%TO.N,SCL1*%
X112000000Y-129000000D03*
%TO.P,J1,18*%
%TO.N,SCL2*%
X112000000Y-127000000D03*
%TO.P,J1,16*%
%TO.N,SCL3*%
X112000000Y-125000000D03*
%TO.P,J1,14*%
%TO.N,SCL4*%
X112000000Y-123000000D03*
%TO.P,J1,12*%
%TO.N,SCL5*%
X112000000Y-121000000D03*
%TO.P,J1,10*%
%TO.N,LED4*%
X112000000Y-119000000D03*
%TO.P,J1,8*%
%TO.N,LED2*%
X112000000Y-117000000D03*
%TO.P,J1,6*%
%TO.N,GND*%
X112000000Y-115000000D03*
%TO.P,J1,4*%
X112000000Y-113000000D03*
%TO.P,J1,2*%
%TO.N,+3V3*%
X112000000Y-111000000D03*
%TO.P,J1,19*%
%TO.N,SDA1*%
X114000000Y-129000000D03*
%TO.P,J1,17*%
%TO.N,SDA2*%
X114000000Y-127000000D03*
%TO.P,J1,15*%
%TO.N,SDA3*%
X114000000Y-125000000D03*
%TO.P,J1,13*%
%TO.N,SDA4*%
X114000000Y-123000000D03*
%TO.P,J1,11*%
%TO.N,SDA5*%
X114000000Y-121000000D03*
%TO.P,J1,9*%
%TO.N,LED5*%
X114000000Y-119000000D03*
%TO.P,J1,7*%
%TO.N,LED3*%
X114000000Y-117000000D03*
%TO.P,J1,5*%
%TO.N,LED1*%
X114000000Y-115000000D03*
%TO.P,J1,3*%
%TO.N,GND*%
X114000000Y-113000000D03*
%TO.P,J1,1*%
%TO.N,+3V3*%
%TA.AperFunction,ComponentPad*%
G36*
G01*
X113649999Y-110400000D02*
X114350001Y-110400000D01*
G75*
G02*
X114600000Y-110649999I0J-249999D01*
G01*
X114600000Y-111350001D01*
G75*
G02*
X114350001Y-111600000I-249999J0D01*
G01*
X113649999Y-111600000D01*
G75*
G02*
X113400000Y-111350001I0J249999D01*
G01*
X113400000Y-110649999D01*
G75*
G02*
X113649999Y-110400000I249999J0D01*
G01*
G37*
%TD.AperFunction*%
%TD*%
D14*
%TO.N,GND*%
X123500000Y-116300000D03*
X122200000Y-122800000D03*
X118500000Y-127700000D03*
X142500000Y-123800000D03*
X129400000Y-125400000D03*
X143000000Y-109000000D03*
X143000000Y-114000000D03*
X146000000Y-116000000D03*
X124000000Y-108000000D03*
X128000000Y-108000000D03*
X132000000Y-108000000D03*
X119000000Y-113000000D03*
X113000000Y-109000000D03*
X117000000Y-116000000D03*
X132000000Y-120000000D03*
X113000000Y-131000000D03*
X116000000Y-131000000D03*
X119000000Y-131000000D03*
X126000000Y-132000000D03*
X131000000Y-132000000D03*
X136000000Y-132000000D03*
X136000000Y-126000000D03*
X140000000Y-132000000D03*
X144000000Y-132000000D03*
X147000000Y-132000000D03*
X139700000Y-121500000D03*
X128000000Y-110800000D03*
X147000000Y-108000000D03*
X131500000Y-113200000D03*
X131862500Y-115837500D03*
X127200000Y-121800000D03*
X129700000Y-123700000D03*
X132200000Y-125800000D03*
X136300000Y-116800000D03*
%TO.N,Net-(C1-Pad1)*%
X134900000Y-124500000D03*
X134900000Y-119800000D03*
X138000000Y-130500000D03*
X137600000Y-121200000D03*
%TO.N,+3V3*%
X133400000Y-112900000D03*
X133950000Y-113450000D03*
X133347500Y-129447500D03*
X124800000Y-129100000D03*
X122732487Y-129310599D03*
%TO.N,/RESET*%
X125100000Y-127600000D03*
X115899990Y-123400000D03*
%TO.N,SCL4*%
X128380721Y-119780721D03*
%TO.N,SCL5*%
X132100000Y-117100000D03*
%TO.N,LED4*%
X127835326Y-116415139D03*
%TO.N,LED2*%
X125175000Y-116700000D03*
%TO.N,SDA4*%
X128300000Y-121000000D03*
%TO.N,SDA5*%
X131300000Y-117900000D03*
%TO.N,LED5*%
X126784110Y-118284110D03*
%TO.N,LED3*%
X126700000Y-116500000D03*
%TO.N,LED1*%
X125500000Y-113600000D03*
%TO.N,Net-(R2-Pad2)*%
X133000000Y-124400000D03*
X130700000Y-130600000D03*
%TO.N,Net-(R6-Pad1)*%
X138015686Y-124484314D03*
X138015686Y-128384314D03*
%TO.N,/USART1_Rx*%
X130075000Y-122675000D03*
X131300000Y-128200000D03*
%TO.N,/USART1_TX*%
X130400000Y-127100000D03*
X130400000Y-124600000D03*
%TO.N,Net-(C15-Pad1)*%
X124000000Y-122100000D03*
%TO.N,Net-(C16-Pad1)*%
X124599980Y-125472810D03*
%TD*%
D15*
%TO.N,GND*%
X120840000Y-127400000D02*
X120840000Y-127270000D01*
%TO.N,Net-(C1-Pad1)*%
X134900000Y-124500000D02*
X134900000Y-119800000D01*
D16*
X138000000Y-130500000D02*
X139100000Y-129400000D01*
X139100000Y-129400000D02*
X139100000Y-124200000D01*
X139100000Y-124200000D02*
X137600000Y-122700000D01*
X137600000Y-122700000D02*
X137600000Y-121200000D01*
%TO.N,+3V3*%
X112000000Y-111000000D02*
X114000000Y-111000000D01*
X114000000Y-111000000D02*
X114200000Y-111000000D01*
X121600000Y-108600000D02*
X122200000Y-109200000D01*
X122200000Y-109200000D02*
X122200000Y-109700000D01*
X116600000Y-108600000D02*
X121600000Y-108600000D01*
X114200000Y-111000000D02*
X116600000Y-108600000D01*
X133400000Y-112900000D02*
X133950000Y-113450000D01*
X133352500Y-129447500D02*
X133347500Y-129447500D01*
X133950000Y-128850000D02*
X133352500Y-129447500D01*
X133950000Y-113450000D02*
X133950000Y-128850000D01*
D15*
X124589401Y-129310599D02*
X124800000Y-129100000D01*
X122732487Y-129310599D02*
X124589401Y-129310599D01*
%TO.N,/RESET*%
X115899990Y-125499990D02*
X115899990Y-123400000D01*
X115899990Y-126899990D02*
X115899990Y-125499990D01*
X117900000Y-128900000D02*
X115899990Y-126899990D01*
X121900000Y-128900000D02*
X117900000Y-128900000D01*
X122289402Y-128510598D02*
X121900000Y-128900000D01*
X124189402Y-128510598D02*
X122289402Y-128510598D01*
X125100000Y-127600000D02*
X124189402Y-128510598D01*
%TO.N,SCL4*%
X127711453Y-120449989D02*
X128380721Y-119780721D01*
X118814355Y-121599978D02*
X119964344Y-120449989D01*
X117842780Y-121599978D02*
X118814355Y-121599978D01*
X117442758Y-122000000D02*
X117842780Y-121599978D01*
X113000000Y-122000000D02*
X117442758Y-122000000D01*
X112000000Y-123000000D02*
X113000000Y-122000000D01*
X119964344Y-120449989D02*
X127711453Y-120449989D01*
%TO.N,SCL5*%
X112000000Y-121000000D02*
X113000000Y-120000000D01*
X113000000Y-120000000D02*
X118500000Y-120000000D01*
X119150033Y-119349967D02*
X126902257Y-119349967D01*
X126902257Y-119349967D02*
X129152224Y-117100000D01*
X118500000Y-120000000D02*
X119150033Y-119349967D01*
X129152224Y-117100000D02*
X132100000Y-117100000D01*
%TO.N,LED4*%
X127249990Y-117250010D02*
X128100000Y-116400000D01*
X127835326Y-116415139D02*
X127835326Y-116664674D01*
X127500000Y-117000000D02*
X127249990Y-117250010D01*
X127835326Y-116664674D02*
X127500000Y-117000000D01*
X115372112Y-118249945D02*
X125686889Y-118249945D01*
X115122167Y-118000000D02*
X115372112Y-118249945D01*
X113000000Y-118000000D02*
X115122167Y-118000000D01*
X112000000Y-119000000D02*
X113000000Y-118000000D01*
X126468417Y-117468417D02*
X127031583Y-117468417D01*
X127031583Y-117468417D02*
X127249990Y-117250010D01*
X125686889Y-118249945D02*
X126468417Y-117468417D01*
%TO.N,LED2*%
X125175000Y-116800000D02*
X124600000Y-116800000D01*
X113000000Y-116000000D02*
X112000000Y-117000000D01*
X124250077Y-117149923D02*
X116249923Y-117149923D01*
X115100000Y-116000000D02*
X113000000Y-116000000D01*
X124600000Y-116800000D02*
X124250077Y-117149923D01*
X116249923Y-117149923D02*
X115100000Y-116000000D01*
%TO.N,SDA4*%
X128300000Y-121000000D02*
X120192166Y-121000000D01*
X117620592Y-122599999D02*
X114400001Y-122599999D01*
X114400001Y-122599999D02*
X114000000Y-123000000D01*
X120192166Y-121000000D02*
X119042177Y-122149989D01*
X119042177Y-122149989D02*
X118070602Y-122149989D01*
X118070602Y-122149989D02*
X117620592Y-122599999D01*
%TO.N,SDA5*%
X129130057Y-117900000D02*
X127130079Y-119899978D01*
X131300000Y-117900000D02*
X129130057Y-117900000D01*
X127130079Y-119899978D02*
X119500022Y-119899978D01*
X119500022Y-119899978D02*
X118400000Y-121000000D01*
X118400000Y-121000000D02*
X114000000Y-121000000D01*
%TO.N,LED5*%
X126268264Y-118799956D02*
X126784110Y-118284110D01*
X114200044Y-118799956D02*
X126268264Y-118799956D01*
X114000000Y-119000000D02*
X114200044Y-118799956D01*
%TO.N,LED3*%
X126859002Y-116300000D02*
X125459068Y-117699934D01*
X114900000Y-117000000D02*
X114000000Y-117000000D01*
X125459068Y-117699934D02*
X115599934Y-117699934D01*
X126900000Y-116300000D02*
X126859002Y-116300000D01*
X115599934Y-117699934D02*
X114900000Y-117000000D01*
%TO.N,LED1*%
X124100000Y-115000000D02*
X114000000Y-115000000D01*
X125500000Y-113600000D02*
X124100000Y-115000000D01*
%TO.N,Net-(R2-Pad2)*%
X133000000Y-124400000D02*
X133000000Y-128300000D01*
X133000000Y-128300000D02*
X131200000Y-130100000D01*
X131200000Y-130100000D02*
X130700000Y-130600000D01*
%TO.N,Net-(R6-Pad1)*%
X138015686Y-124484314D02*
X138015686Y-128384314D01*
%TO.N,/USART1_Rx*%
X131300000Y-124600000D02*
X131300000Y-123200000D01*
X131300000Y-124600000D02*
X131300000Y-128200000D01*
X130775000Y-122675000D02*
X130075000Y-122675000D01*
X131300000Y-123200000D02*
X130775000Y-122675000D01*
%TO.N,/USART1_TX*%
X130400000Y-124500000D02*
X130400000Y-124600000D01*
X130400000Y-127100000D02*
X130400000Y-124600000D01*
%TO.N,Net-(C15-Pad1)*%
X118400000Y-124037500D02*
X120322500Y-124037500D01*
X120360000Y-124300000D02*
X120360000Y-122440000D01*
X120360000Y-122440000D02*
X121000000Y-121800000D01*
X123700000Y-121800000D02*
X124000000Y-122100000D01*
X121000000Y-121800000D02*
X123700000Y-121800000D01*
%TO.N,Net-(C16-Pad1)*%
X124300000Y-127100000D02*
X123040000Y-127100000D01*
X124599980Y-125472810D02*
X124372790Y-125700000D01*
X124372790Y-125700000D02*
X123600000Y-125700000D01*
X123240000Y-126060000D02*
X123240000Y-127100000D01*
X123600000Y-125700000D02*
X123240000Y-126060000D01*
X125262500Y-126600000D02*
X125700000Y-126162500D01*
X124800000Y-126600000D02*
X125262500Y-126600000D01*
X124800000Y-126600000D02*
X124300000Y-127100000D01*
%TD*%
D17*
%TO.N,GND*%
X147548000Y-132548000D02*
X111452000Y-132548000D01*
X111452000Y-129869000D01*
X111513533Y-129910115D01*
X111700435Y-129987533D01*
X111898849Y-130027000D01*
X112101151Y-130027000D01*
X112299565Y-129987533D01*
X112486467Y-129910115D01*
X112654674Y-129797723D01*
X112797723Y-129654674D01*
X112910115Y-129486467D01*
X112987533Y-129299565D01*
X113000000Y-129236889D01*
X113012467Y-129299565D01*
X113089885Y-129486467D01*
X113202277Y-129654674D01*
X113345326Y-129797723D01*
X113513533Y-129910115D01*
X113700435Y-129987533D01*
X113898849Y-130027000D01*
X114101151Y-130027000D01*
X114299565Y-129987533D01*
X114486467Y-129910115D01*
X114654674Y-129797723D01*
X114797723Y-129654674D01*
X114910115Y-129486467D01*
X114987533Y-129299565D01*
X115027000Y-129101151D01*
X115027000Y-128898849D01*
X114987533Y-128700435D01*
X114910115Y-128513533D01*
X114797723Y-128345326D01*
X114654674Y-128202277D01*
X114486467Y-128089885D01*
X114299565Y-128012467D01*
X114236889Y-128000000D01*
X114299565Y-127987533D01*
X114486467Y-127910115D01*
X114654674Y-127797723D01*
X114797723Y-127654674D01*
X114910115Y-127486467D01*
X114987533Y-127299565D01*
X115027000Y-127101151D01*
X115027000Y-126898849D01*
X114987533Y-126700435D01*
X114910115Y-126513533D01*
X114797723Y-126345326D01*
X114654674Y-126202277D01*
X114486467Y-126089885D01*
X114299565Y-126012467D01*
X114236889Y-126000000D01*
X114299565Y-125987533D01*
X114486467Y-125910115D01*
X114654674Y-125797723D01*
X114797723Y-125654674D01*
X114910115Y-125486467D01*
X114987533Y-125299565D01*
X115027000Y-125101151D01*
X115027000Y-124898849D01*
X114987533Y-124700435D01*
X114910115Y-124513533D01*
X114797723Y-124345326D01*
X114654674Y-124202277D01*
X114486467Y-124089885D01*
X114299565Y-124012467D01*
X114236889Y-124000000D01*
X114299565Y-123987533D01*
X114486467Y-123910115D01*
X114654674Y-123797723D01*
X114797723Y-123654674D01*
X114910115Y-123486467D01*
X114987533Y-123299565D01*
X115011913Y-123176999D01*
X115101147Y-123176999D01*
X115072990Y-123318548D01*
X115072990Y-123481452D01*
X115104772Y-123641227D01*
X115167113Y-123791731D01*
X115257618Y-123927181D01*
X115322991Y-123992554D01*
X115322990Y-125528325D01*
X115322991Y-125528335D01*
X115322990Y-126871659D01*
X115320200Y-126899990D01*
X115331339Y-127013101D01*
X115336875Y-127031349D01*
X115364333Y-127121865D01*
X115417911Y-127222104D01*
X115490016Y-127309964D01*
X115512028Y-127328029D01*
X117471965Y-129287967D01*
X117490026Y-129309974D01*
X117512033Y-129328035D01*
X117512035Y-129328037D01*
X117528107Y-129341227D01*
X117577885Y-129382079D01*
X117678124Y-129435657D01*
X117786888Y-129468650D01*
X117871664Y-129477000D01*
X117871670Y-129477000D01*
X117899999Y-129479790D01*
X117928328Y-129477000D01*
X121871669Y-129477000D01*
X121900000Y-129479790D01*
X121922499Y-129477574D01*
X121937269Y-129551826D01*
X121999610Y-129702330D01*
X122090115Y-129837780D01*
X122205306Y-129952971D01*
X122340756Y-130043476D01*
X122491260Y-130105817D01*
X122651035Y-130137599D01*
X122813939Y-130137599D01*
X122973714Y-130105817D01*
X123124218Y-130043476D01*
X123259668Y-129952971D01*
X123325040Y-129887599D01*
X124540379Y-129887599D01*
X124558773Y-129895218D01*
X124718548Y-129927000D01*
X124881452Y-129927000D01*
X125041227Y-129895218D01*
X125191731Y-129832877D01*
X125327181Y-129742372D01*
X125442372Y-129627181D01*
X125532877Y-129491731D01*
X125595218Y-129341227D01*
X125627000Y-129181452D01*
X125627000Y-129018548D01*
X125595218Y-128858773D01*
X125532877Y-128708269D01*
X125442372Y-128572819D01*
X125327181Y-128457628D01*
X125258427Y-128411688D01*
X125341227Y-128395218D01*
X125491731Y-128332877D01*
X125627181Y-128242372D01*
X125742372Y-128127181D01*
X125832877Y-127991731D01*
X125895218Y-127841227D01*
X125927000Y-127681452D01*
X125927000Y-127518548D01*
X125895218Y-127358773D01*
X125832877Y-127208269D01*
X125779955Y-127129066D01*
X125937500Y-127129066D01*
X126067541Y-127116258D01*
X126192584Y-127078327D01*
X126307824Y-127016729D01*
X126408833Y-126933833D01*
X126491729Y-126832824D01*
X126553327Y-126717584D01*
X126591258Y-126592541D01*
X126604066Y-126462500D01*
X126604066Y-125862500D01*
X126591258Y-125732459D01*
X126553327Y-125607416D01*
X126491729Y-125492176D01*
X126441009Y-125430374D01*
X126469202Y-125415305D01*
X126549448Y-125349448D01*
X126615305Y-125269202D01*
X126664240Y-125177650D01*
X126694375Y-125078310D01*
X126704550Y-124975000D01*
X126702000Y-124592250D01*
X126570250Y-124460500D01*
X125723000Y-124460500D01*
X125723000Y-124480500D01*
X125677000Y-124480500D01*
X125677000Y-124460500D01*
X124829750Y-124460500D01*
X124698000Y-124592250D01*
X124697622Y-124649030D01*
X124681432Y-124645810D01*
X124537654Y-124645810D01*
X124537000Y-124454750D01*
X124405250Y-124323000D01*
X123263000Y-124323000D01*
X123263000Y-124343000D01*
X123217000Y-124343000D01*
X123217000Y-124323000D01*
X122074750Y-124323000D01*
X121943000Y-124454750D01*
X121940450Y-125200000D01*
X121950625Y-125303310D01*
X121980760Y-125402650D01*
X122029695Y-125494202D01*
X122095552Y-125574448D01*
X122175798Y-125640305D01*
X122267350Y-125689240D01*
X122366690Y-125719375D01*
X122470000Y-125729550D01*
X122765768Y-125728324D01*
X122757921Y-125737886D01*
X122740257Y-125770934D01*
X122470000Y-125770934D01*
X122386293Y-125779178D01*
X122305804Y-125803595D01*
X122231624Y-125843245D01*
X122166605Y-125896605D01*
X122113245Y-125961624D01*
X122073595Y-126035804D01*
X122049178Y-126116293D01*
X122040934Y-126200000D01*
X122040934Y-127989154D01*
X121967287Y-128028519D01*
X121879428Y-128100624D01*
X121861365Y-128122634D01*
X121835739Y-128148260D01*
X121849375Y-128103310D01*
X121859550Y-128000000D01*
X121857000Y-127254750D01*
X121725250Y-127123000D01*
X120583000Y-127123000D01*
X120583000Y-127143000D01*
X120537000Y-127143000D01*
X120537000Y-127123000D01*
X119394750Y-127123000D01*
X119263000Y-127254750D01*
X119260450Y-128000000D01*
X119270625Y-128103310D01*
X119300760Y-128202650D01*
X119349695Y-128294202D01*
X119373329Y-128323000D01*
X118139002Y-128323000D01*
X116476990Y-126660989D01*
X116476990Y-126300000D01*
X117295450Y-126300000D01*
X117305625Y-126403310D01*
X117335760Y-126502650D01*
X117384695Y-126594202D01*
X117450552Y-126674448D01*
X117530798Y-126740305D01*
X117622350Y-126789240D01*
X117721690Y-126819375D01*
X117825000Y-126829550D01*
X118145250Y-126827000D01*
X118277000Y-126695250D01*
X118277000Y-125785500D01*
X118323000Y-125785500D01*
X118323000Y-126695250D01*
X118454750Y-126827000D01*
X118775000Y-126829550D01*
X118878310Y-126819375D01*
X118977650Y-126789240D01*
X119069202Y-126740305D01*
X119149448Y-126674448D01*
X119215305Y-126594202D01*
X119261503Y-126507770D01*
X119263000Y-126945250D01*
X119394750Y-127077000D01*
X120537000Y-127077000D01*
X120537000Y-125804750D01*
X120583000Y-125804750D01*
X120583000Y-127077000D01*
X121725250Y-127077000D01*
X121857000Y-126945250D01*
X121859550Y-126200000D01*
X121849375Y-126096690D01*
X121819240Y-125997350D01*
X121770305Y-125905798D01*
X121704448Y-125825552D01*
X121624202Y-125759695D01*
X121532650Y-125710760D01*
X121433310Y-125680625D01*
X121330000Y-125670450D01*
X120714750Y-125673000D01*
X120583000Y-125804750D01*
X120537000Y-125804750D01*
X120405250Y-125673000D01*
X119790000Y-125670450D01*
X119686690Y-125680625D01*
X119587350Y-125710760D01*
X119495798Y-125759695D01*
X119415552Y-125825552D01*
X119349695Y-125905798D01*
X119302512Y-125994073D01*
X119302000Y-125917250D01*
X119170250Y-125785500D01*
X118323000Y-125785500D01*
X118277000Y-125785500D01*
X117429750Y-125785500D01*
X117298000Y-125917250D01*
X117295450Y-126300000D01*
X116476990Y-126300000D01*
X116476990Y-123992553D01*
X116542362Y-123927181D01*
X116632867Y-123791731D01*
X116695208Y-123641227D01*
X116726990Y-123481452D01*
X116726990Y-123318548D01*
X116698833Y-123176999D01*
X117592261Y-123176999D01*
X117620592Y-123179789D01*
X117648923Y-123176999D01*
X117648928Y-123176999D01*
X117678637Y-123174073D01*
X117716329Y-123170361D01*
X117692176Y-123183271D01*
X117591167Y-123266167D01*
X117508271Y-123367176D01*
X117446673Y-123482416D01*
X117408742Y-123607459D01*
X117395934Y-123737500D01*
X117395934Y-124337500D01*
X117408742Y-124467541D01*
X117446673Y-124592584D01*
X117508271Y-124707824D01*
X117558991Y-124769626D01*
X117530798Y-124784695D01*
X117450552Y-124850552D01*
X117384695Y-124930798D01*
X117335760Y-125022350D01*
X117305625Y-125121690D01*
X117295450Y-125225000D01*
X117298000Y-125607750D01*
X117429750Y-125739500D01*
X118277000Y-125739500D01*
X118277000Y-125719500D01*
X118323000Y-125719500D01*
X118323000Y-125739500D01*
X119170250Y-125739500D01*
X119302000Y-125607750D01*
X119304550Y-125225000D01*
X119294375Y-125121690D01*
X119264240Y-125022350D01*
X119215305Y-124930798D01*
X119149448Y-124850552D01*
X119069202Y-124784695D01*
X119041009Y-124769626D01*
X119091729Y-124707824D01*
X119141612Y-124614500D01*
X119360934Y-124614500D01*
X119360934Y-125200000D01*
X119369178Y-125283707D01*
X119393595Y-125364196D01*
X119433245Y-125438376D01*
X119486605Y-125503395D01*
X119551624Y-125556755D01*
X119625804Y-125596405D01*
X119706293Y-125620822D01*
X119790000Y-125629066D01*
X121330000Y-125629066D01*
X121413707Y-125620822D01*
X121494196Y-125596405D01*
X121568376Y-125556755D01*
X121633395Y-125503395D01*
X121686755Y-125438376D01*
X121726405Y-125364196D01*
X121750822Y-125283707D01*
X121759066Y-125200000D01*
X121759066Y-123400000D01*
X121940450Y-123400000D01*
X121943000Y-124145250D01*
X122074750Y-124277000D01*
X123217000Y-124277000D01*
X123217000Y-123004750D01*
X123085250Y-122873000D01*
X122470000Y-122870450D01*
X122366690Y-122880625D01*
X122267350Y-122910760D01*
X122175798Y-122959695D01*
X122095552Y-123025552D01*
X122029695Y-123105798D01*
X121980760Y-123197350D01*
X121950625Y-123296690D01*
X121940450Y-123400000D01*
X121759066Y-123400000D01*
X121750822Y-123316293D01*
X121726405Y-123235804D01*
X121686755Y-123161624D01*
X121633395Y-123096605D01*
X121568376Y-123043245D01*
X121494196Y-123003595D01*
X121413707Y-122979178D01*
X121330000Y-122970934D01*
X120937000Y-122970934D01*
X120937000Y-122679001D01*
X121239001Y-122377000D01*
X123219600Y-122377000D01*
X123267123Y-122491731D01*
X123357628Y-122627181D01*
X123472819Y-122742372D01*
X123608269Y-122832877D01*
X123702059Y-122871726D01*
X123394750Y-122873000D01*
X123263000Y-123004750D01*
X123263000Y-124277000D01*
X124405250Y-124277000D01*
X124537000Y-124145250D01*
X124537839Y-123900000D01*
X124695450Y-123900000D01*
X124698000Y-124282750D01*
X124829750Y-124414500D01*
X125677000Y-124414500D01*
X125677000Y-123504750D01*
X125723000Y-123504750D01*
X125723000Y-124414500D01*
X126570250Y-124414500D01*
X126702000Y-124282750D01*
X126704550Y-123900000D01*
X126694375Y-123796690D01*
X126664240Y-123697350D01*
X126615305Y-123605798D01*
X126549448Y-123525552D01*
X126469202Y-123459695D01*
X126377650Y-123410760D01*
X126278310Y-123380625D01*
X126175000Y-123370450D01*
X125854750Y-123373000D01*
X125723000Y-123504750D01*
X125677000Y-123504750D01*
X125545250Y-123373000D01*
X125225000Y-123370450D01*
X125121690Y-123380625D01*
X125022350Y-123410760D01*
X124930798Y-123459695D01*
X124850552Y-123525552D01*
X124784695Y-123605798D01*
X124735760Y-123697350D01*
X124705625Y-123796690D01*
X124695450Y-123900000D01*
X124537839Y-123900000D01*
X124539550Y-123400000D01*
X124529375Y-123296690D01*
X124499240Y-123197350D01*
X124450305Y-123105798D01*
X124384448Y-123025552D01*
X124304202Y-122959695D01*
X124212650Y-122910760D01*
X124193024Y-122904806D01*
X124241227Y-122895218D01*
X124391731Y-122832877D01*
X124527181Y-122742372D01*
X124642372Y-122627181D01*
X124664844Y-122593548D01*
X129248000Y-122593548D01*
X129248000Y-122756452D01*
X129279782Y-122916227D01*
X129342123Y-123066731D01*
X129432628Y-123202181D01*
X129547819Y-123317372D01*
X129683269Y-123407877D01*
X129833773Y-123470218D01*
X129993548Y-123502000D01*
X130156452Y-123502000D01*
X130316227Y-123470218D01*
X130466731Y-123407877D01*
X130601695Y-123317697D01*
X130723001Y-123439002D01*
X130723001Y-123838654D01*
X130641227Y-123804782D01*
X130481452Y-123773000D01*
X130318548Y-123773000D01*
X130158773Y-123804782D01*
X130008269Y-123867123D01*
X129872819Y-123957628D01*
X129757628Y-124072819D01*
X129667123Y-124208269D01*
X129604782Y-124358773D01*
X129573000Y-124518548D01*
X129573000Y-124681452D01*
X129604782Y-124841227D01*
X129667123Y-124991731D01*
X129757628Y-125127181D01*
X129823001Y-125192554D01*
X129823000Y-126507447D01*
X129757628Y-126572819D01*
X129667123Y-126708269D01*
X129604782Y-126858773D01*
X129573000Y-127018548D01*
X129573000Y-127181452D01*
X129604782Y-127341227D01*
X129667123Y-127491731D01*
X129757628Y-127627181D01*
X129872819Y-127742372D01*
X130008269Y-127832877D01*
X130158773Y-127895218D01*
X130318548Y-127927000D01*
X130481452Y-127927000D01*
X130521219Y-127919090D01*
X130504782Y-127958773D01*
X130473000Y-128118548D01*
X130473000Y-128281452D01*
X130504782Y-128441227D01*
X130567123Y-128591731D01*
X130657628Y-128727181D01*
X130772819Y-128842372D01*
X130908269Y-128932877D01*
X131058773Y-128995218D01*
X131218548Y-129027000D01*
X131381452Y-129027000D01*
X131475758Y-129008241D01*
X130710999Y-129773000D01*
X130618548Y-129773000D01*
X130458773Y-129804782D01*
X130308269Y-129867123D01*
X130172819Y-129957628D01*
X130057628Y-130072819D01*
X129967123Y-130208269D01*
X129904782Y-130358773D01*
X129873000Y-130518548D01*
X129873000Y-130681452D01*
X129904782Y-130841227D01*
X129967123Y-130991731D01*
X130057628Y-131127181D01*
X130172819Y-131242372D01*
X130308269Y-131332877D01*
X130458773Y-131395218D01*
X130618548Y-131427000D01*
X130781452Y-131427000D01*
X130941227Y-131395218D01*
X131091731Y-131332877D01*
X131227181Y-131242372D01*
X131342372Y-131127181D01*
X131432877Y-130991731D01*
X131495218Y-130841227D01*
X131527000Y-130681452D01*
X131527000Y-130589001D01*
X132531541Y-129584460D01*
X132552282Y-129688727D01*
X132614623Y-129839231D01*
X132705128Y-129974681D01*
X132820319Y-130089872D01*
X132955769Y-130180377D01*
X133106273Y-130242718D01*
X133266048Y-130274500D01*
X133428952Y-130274500D01*
X133588727Y-130242718D01*
X133739231Y-130180377D01*
X133874681Y-130089872D01*
X133989872Y-129974681D01*
X134080377Y-129839231D01*
X134142718Y-129688727D01*
X134161099Y-129596324D01*
X134405201Y-129352222D01*
X134431027Y-129331027D01*
X134456848Y-129299565D01*
X134515628Y-129227941D01*
X134578492Y-129110330D01*
X134617204Y-128982715D01*
X134630275Y-128850000D01*
X134627000Y-128816748D01*
X134627000Y-125282057D01*
X134658773Y-125295218D01*
X134818548Y-125327000D01*
X134981452Y-125327000D01*
X135141227Y-125295218D01*
X135291731Y-125232877D01*
X135427181Y-125142372D01*
X135542372Y-125027181D01*
X135632877Y-124891731D01*
X135695218Y-124741227D01*
X135727000Y-124581452D01*
X135727000Y-124418548D01*
X135695218Y-124258773D01*
X135632877Y-124108269D01*
X135542372Y-123972819D01*
X135477000Y-123907447D01*
X135477000Y-121118548D01*
X136773000Y-121118548D01*
X136773000Y-121281452D01*
X136804782Y-121441227D01*
X136867123Y-121591731D01*
X136923001Y-121675358D01*
X136923000Y-122666755D01*
X136919726Y-122700000D01*
X136923000Y-122733245D01*
X136923000Y-122733251D01*
X136931729Y-122821876D01*
X136932796Y-122832714D01*
X136971508Y-122960329D01*
X137034372Y-123077940D01*
X137081739Y-123135656D01*
X137118973Y-123181026D01*
X137144800Y-123202222D01*
X137673495Y-123730917D01*
X137623955Y-123751437D01*
X137488505Y-123841942D01*
X137373314Y-123957133D01*
X137282809Y-124092583D01*
X137220468Y-124243087D01*
X137188686Y-124402862D01*
X137188686Y-124565766D01*
X137220468Y-124725541D01*
X137282809Y-124876045D01*
X137373314Y-125011495D01*
X137438686Y-125076867D01*
X137438687Y-127791760D01*
X137373314Y-127857133D01*
X137282809Y-127992583D01*
X137220468Y-128143087D01*
X137188686Y-128302862D01*
X137188686Y-128465766D01*
X137220468Y-128625541D01*
X137282809Y-128776045D01*
X137373314Y-128911495D01*
X137488505Y-129026686D01*
X137623955Y-129117191D01*
X137774459Y-129179532D01*
X137934234Y-129211314D01*
X138097138Y-129211314D01*
X138256913Y-129179532D01*
X138407417Y-129117191D01*
X138423000Y-129106779D01*
X138423000Y-129119577D01*
X137857418Y-129685160D01*
X137758773Y-129704782D01*
X137608269Y-129767123D01*
X137472819Y-129857628D01*
X137357628Y-129972819D01*
X137267123Y-130108269D01*
X137204782Y-130258773D01*
X137173000Y-130418548D01*
X137173000Y-130581452D01*
X137204782Y-130741227D01*
X137267123Y-130891731D01*
X137357628Y-131027181D01*
X137472819Y-131142372D01*
X137608269Y-131232877D01*
X137758773Y-131295218D01*
X137918548Y-131327000D01*
X138081452Y-131327000D01*
X138241227Y-131295218D01*
X138391731Y-131232877D01*
X138527181Y-131142372D01*
X138642372Y-131027181D01*
X138732877Y-130891731D01*
X138795218Y-130741227D01*
X138814840Y-130642582D01*
X139555205Y-129902217D01*
X139581026Y-129881027D01*
X139602218Y-129855205D01*
X139602224Y-129855199D01*
X139665628Y-129777941D01*
X139728492Y-129660330D01*
X139767204Y-129532715D01*
X139771759Y-129486467D01*
X139777000Y-129433252D01*
X139777000Y-129433245D01*
X139780274Y-129400000D01*
X139777000Y-129366755D01*
X139777000Y-124233241D01*
X139780274Y-124199999D01*
X139777000Y-124166757D01*
X139777000Y-124166748D01*
X139767204Y-124067285D01*
X139728492Y-123939670D01*
X139665628Y-123822059D01*
X139581027Y-123718973D01*
X139555196Y-123697774D01*
X138277000Y-122419578D01*
X138277000Y-121675357D01*
X138332877Y-121591731D01*
X138395218Y-121441227D01*
X138427000Y-121281452D01*
X138427000Y-121118548D01*
X138395218Y-120958773D01*
X138332877Y-120808269D01*
X138242372Y-120672819D01*
X138127181Y-120557628D01*
X137991731Y-120467123D01*
X137841227Y-120404782D01*
X137681452Y-120373000D01*
X137518548Y-120373000D01*
X137358773Y-120404782D01*
X137208269Y-120467123D01*
X137072819Y-120557628D01*
X136957628Y-120672819D01*
X136867123Y-120808269D01*
X136804782Y-120958773D01*
X136773000Y-121118548D01*
X135477000Y-121118548D01*
X135477000Y-120392553D01*
X135542372Y-120327181D01*
X135632877Y-120191731D01*
X135695218Y-120041227D01*
X135727000Y-119881452D01*
X135727000Y-119718548D01*
X135695218Y-119558773D01*
X135632877Y-119408269D01*
X135542372Y-119272819D01*
X135427181Y-119157628D01*
X135291731Y-119067123D01*
X135141227Y-119004782D01*
X134981452Y-118973000D01*
X134818548Y-118973000D01*
X134658773Y-119004782D01*
X134627000Y-119017943D01*
X134627000Y-113925357D01*
X134682877Y-113841731D01*
X134745218Y-113691227D01*
X134777000Y-113531452D01*
X134777000Y-113368548D01*
X134745218Y-113208773D01*
X134682877Y-113058269D01*
X134592372Y-112922819D01*
X134477181Y-112807628D01*
X134341731Y-112717123D01*
X134194049Y-112655951D01*
X134132877Y-112508269D01*
X134042372Y-112372819D01*
X133927181Y-112257628D01*
X133791731Y-112167123D01*
X133641227Y-112104782D01*
X133481452Y-112073000D01*
X133318548Y-112073000D01*
X133158773Y-112104782D01*
X133008269Y-112167123D01*
X132872819Y-112257628D01*
X132757628Y-112372819D01*
X132667123Y-112508269D01*
X132604782Y-112658773D01*
X132573000Y-112818548D01*
X132573000Y-112981452D01*
X132604782Y-113141227D01*
X132667123Y-113291731D01*
X132757628Y-113427181D01*
X132872819Y-113542372D01*
X133008269Y-113632877D01*
X133155951Y-113694049D01*
X133217123Y-113841731D01*
X133273000Y-113925357D01*
X133273001Y-123617943D01*
X133241227Y-123604782D01*
X133081452Y-123573000D01*
X132918548Y-123573000D01*
X132758773Y-123604782D01*
X132608269Y-123667123D01*
X132472819Y-123757628D01*
X132357628Y-123872819D01*
X132267123Y-124008269D01*
X132204782Y-124158773D01*
X132173000Y-124318548D01*
X132173000Y-124481452D01*
X132204782Y-124641227D01*
X132267123Y-124791731D01*
X132357628Y-124927181D01*
X132423000Y-124992553D01*
X132423001Y-128060998D01*
X132108241Y-128375758D01*
X132127000Y-128281452D01*
X132127000Y-128118548D01*
X132095218Y-127958773D01*
X132032877Y-127808269D01*
X131942372Y-127672819D01*
X131877000Y-127607447D01*
X131877000Y-123228328D01*
X131879790Y-123199999D01*
X131877000Y-123171670D01*
X131877000Y-123171664D01*
X131868650Y-123086888D01*
X131835657Y-122978124D01*
X131782079Y-122877885D01*
X131709974Y-122790026D01*
X131687967Y-122771965D01*
X131203039Y-122287038D01*
X131184974Y-122265026D01*
X131097115Y-122192921D01*
X130996876Y-122139343D01*
X130926257Y-122117921D01*
X130888111Y-122106349D01*
X130833045Y-122100926D01*
X130803336Y-122098000D01*
X130803331Y-122098000D01*
X130775000Y-122095210D01*
X130746669Y-122098000D01*
X130667553Y-122098000D01*
X130602181Y-122032628D01*
X130466731Y-121942123D01*
X130316227Y-121879782D01*
X130156452Y-121848000D01*
X129993548Y-121848000D01*
X129833773Y-121879782D01*
X129683269Y-121942123D01*
X129547819Y-122032628D01*
X129432628Y-122147819D01*
X129342123Y-122283269D01*
X129279782Y-122433773D01*
X129248000Y-122593548D01*
X124664844Y-122593548D01*
X124732877Y-122491731D01*
X124795218Y-122341227D01*
X124827000Y-122181452D01*
X124827000Y-122018548D01*
X124795218Y-121858773D01*
X124732877Y-121708269D01*
X124645166Y-121577000D01*
X127707447Y-121577000D01*
X127772819Y-121642372D01*
X127908269Y-121732877D01*
X128058773Y-121795218D01*
X128218548Y-121827000D01*
X128381452Y-121827000D01*
X128541227Y-121795218D01*
X128691731Y-121732877D01*
X128827181Y-121642372D01*
X128942372Y-121527181D01*
X129032877Y-121391731D01*
X129095218Y-121241227D01*
X129127000Y-121081452D01*
X129127000Y-120918548D01*
X129095218Y-120758773D01*
X129032877Y-120608269D01*
X128942372Y-120472819D01*
X128898757Y-120429204D01*
X128907902Y-120423093D01*
X129023093Y-120307902D01*
X129113598Y-120172452D01*
X129175939Y-120021948D01*
X129207721Y-119862173D01*
X129207721Y-119699269D01*
X129175939Y-119539494D01*
X129113598Y-119388990D01*
X129023093Y-119253540D01*
X128907902Y-119138349D01*
X128787896Y-119058163D01*
X129369059Y-118477000D01*
X130707447Y-118477000D01*
X130772819Y-118542372D01*
X130908269Y-118632877D01*
X131058773Y-118695218D01*
X131218548Y-118727000D01*
X131381452Y-118727000D01*
X131541227Y-118695218D01*
X131691731Y-118632877D01*
X131827181Y-118542372D01*
X131942372Y-118427181D01*
X132032877Y-118291731D01*
X132095218Y-118141227D01*
X132127000Y-117981452D01*
X132127000Y-117927000D01*
X132181452Y-117927000D01*
X132341227Y-117895218D01*
X132491731Y-117832877D01*
X132627181Y-117742372D01*
X132742372Y-117627181D01*
X132832877Y-117491731D01*
X132895218Y-117341227D01*
X132927000Y-117181452D01*
X132927000Y-117018548D01*
X132895218Y-116858773D01*
X132832877Y-116708269D01*
X132742372Y-116572819D01*
X132627181Y-116457628D01*
X132491731Y-116367123D01*
X132341227Y-116304782D01*
X132181452Y-116273000D01*
X132018548Y-116273000D01*
X131858773Y-116304782D01*
X131708269Y-116367123D01*
X131572819Y-116457628D01*
X131507447Y-116523000D01*
X129180555Y-116523000D01*
X129152224Y-116520210D01*
X129123893Y-116523000D01*
X129123888Y-116523000D01*
X129097110Y-116525637D01*
X129039112Y-116531349D01*
X128975006Y-116550796D01*
X128930348Y-116564343D01*
X128830109Y-116617921D01*
X128742250Y-116690026D01*
X128724185Y-116712038D01*
X127524853Y-117911370D01*
X127516987Y-117892379D01*
X127479590Y-117836411D01*
X128126215Y-117189786D01*
X128227057Y-117148016D01*
X128362507Y-117057511D01*
X128477698Y-116942320D01*
X128568203Y-116806870D01*
X128630544Y-116656366D01*
X128640734Y-116605136D01*
X128668651Y-116513112D01*
X128679791Y-116400000D01*
X128668651Y-116286889D01*
X128635656Y-116178124D01*
X128620694Y-116150131D01*
X128568203Y-116023408D01*
X128477698Y-115887958D01*
X128362507Y-115772767D01*
X128227057Y-115682262D01*
X128076553Y-115619921D01*
X127916778Y-115588139D01*
X127753874Y-115588139D01*
X127594099Y-115619921D01*
X127443595Y-115682262D01*
X127308145Y-115772767D01*
X127244566Y-115836346D01*
X127222115Y-115817921D01*
X127121876Y-115764343D01*
X127013112Y-115731350D01*
X127002952Y-115730349D01*
X126941227Y-115704782D01*
X126781452Y-115673000D01*
X126618548Y-115673000D01*
X126458773Y-115704782D01*
X126308269Y-115767123D01*
X126172819Y-115857628D01*
X126057628Y-115972819D01*
X125967123Y-116108269D01*
X125904782Y-116258773D01*
X125897905Y-116293345D01*
X125817372Y-116172819D01*
X125702181Y-116057628D01*
X125566731Y-115967123D01*
X125416227Y-115904782D01*
X125256452Y-115873000D01*
X125093548Y-115873000D01*
X124933773Y-115904782D01*
X124783269Y-115967123D01*
X124647819Y-116057628D01*
X124532628Y-116172819D01*
X124493987Y-116230650D01*
X124486888Y-116231349D01*
X124422782Y-116250796D01*
X124378124Y-116264343D01*
X124277885Y-116317921D01*
X124190026Y-116390026D01*
X124171957Y-116412043D01*
X124011076Y-116572923D01*
X116488924Y-116572923D01*
X115528039Y-115612038D01*
X115509974Y-115590026D01*
X115494102Y-115577000D01*
X124071669Y-115577000D01*
X124100000Y-115579790D01*
X124128331Y-115577000D01*
X124128336Y-115577000D01*
X124158045Y-115574074D01*
X124213111Y-115568651D01*
X124257770Y-115555103D01*
X124321876Y-115535657D01*
X124422115Y-115482079D01*
X124509974Y-115409974D01*
X124528039Y-115387962D01*
X125489002Y-114427000D01*
X125581452Y-114427000D01*
X125741227Y-114395218D01*
X125891731Y-114332877D01*
X126027181Y-114242372D01*
X126142372Y-114127181D01*
X126232877Y-113991731D01*
X126295218Y-113841227D01*
X126327000Y-113681452D01*
X126327000Y-113518548D01*
X126295218Y-113358773D01*
X126232877Y-113208269D01*
X126142372Y-113072819D01*
X126027181Y-112957628D01*
X125891731Y-112867123D01*
X125741227Y-112804782D01*
X125581452Y-112773000D01*
X125418548Y-112773000D01*
X125258773Y-112804782D01*
X125108269Y-112867123D01*
X124972819Y-112957628D01*
X124857628Y-113072819D01*
X124767123Y-113208269D01*
X124704782Y-113358773D01*
X124673000Y-113518548D01*
X124673000Y-113610998D01*
X123860999Y-114423000D01*
X114849623Y-114423000D01*
X114797723Y-114345326D01*
X114654674Y-114202277D01*
X114486467Y-114089885D01*
X114405760Y-114056455D01*
X114413459Y-114054278D01*
X114611195Y-113953358D01*
X114646895Y-113929504D01*
X114691154Y-113723681D01*
X114000000Y-113032527D01*
X113308846Y-113723681D01*
X113353105Y-113929504D01*
X113546873Y-114037847D01*
X113598645Y-114054630D01*
X113513533Y-114089885D01*
X113345326Y-114202277D01*
X113202277Y-114345326D01*
X113089885Y-114513533D01*
X113056455Y-114594240D01*
X113054278Y-114586541D01*
X112953358Y-114388805D01*
X112929504Y-114353105D01*
X112723681Y-114308846D01*
X112032527Y-115000000D01*
X112046669Y-115014142D01*
X112014142Y-115046669D01*
X112000000Y-115032527D01*
X111985858Y-115046669D01*
X111953331Y-115014142D01*
X111967473Y-115000000D01*
X111953331Y-114985858D01*
X111985858Y-114953331D01*
X112000000Y-114967473D01*
X112691154Y-114276319D01*
X112646895Y-114070496D01*
X112520334Y-113999731D01*
X112611195Y-113953358D01*
X112646895Y-113929504D01*
X112691154Y-113723681D01*
X112000000Y-113032527D01*
X111985858Y-113046669D01*
X111953331Y-113014142D01*
X111967473Y-113000000D01*
X112032527Y-113000000D01*
X112723681Y-113691154D01*
X112929504Y-113646895D01*
X113000269Y-113520334D01*
X113046642Y-113611195D01*
X113070496Y-113646895D01*
X113276319Y-113691154D01*
X113967473Y-113000000D01*
X114032527Y-113000000D01*
X114723681Y-113691154D01*
X114929504Y-113646895D01*
X115037847Y-113453127D01*
X115106305Y-113241946D01*
X115132249Y-113021468D01*
X115114682Y-112800165D01*
X115054278Y-112586541D01*
X114953358Y-112388805D01*
X114929504Y-112353105D01*
X114723681Y-112308846D01*
X114032527Y-113000000D01*
X113967473Y-113000000D01*
X113276319Y-112308846D01*
X113070496Y-112353105D01*
X112999731Y-112479666D01*
X112953358Y-112388805D01*
X112929504Y-112353105D01*
X112723681Y-112308846D01*
X112032527Y-113000000D01*
X111967473Y-113000000D01*
X111953331Y-112985858D01*
X111985858Y-112953331D01*
X112000000Y-112967473D01*
X112691154Y-112276319D01*
X112646895Y-112070496D01*
X112453127Y-111962153D01*
X112401355Y-111945370D01*
X112486467Y-111910115D01*
X112654674Y-111797723D01*
X112775397Y-111677000D01*
X113058508Y-111677000D01*
X113085377Y-111727269D01*
X113169828Y-111830172D01*
X113272731Y-111914623D01*
X113390132Y-111977375D01*
X113474423Y-112002945D01*
X113388805Y-112046642D01*
X113353105Y-112070496D01*
X113308846Y-112276319D01*
X114000000Y-112967473D01*
X114691154Y-112276319D01*
X114646895Y-112070496D01*
X114525904Y-112002845D01*
X114609868Y-111977375D01*
X114727269Y-111914623D01*
X114830172Y-111830172D01*
X114914623Y-111727269D01*
X114977375Y-111609868D01*
X115016018Y-111482480D01*
X115029066Y-111350001D01*
X115029066Y-111128356D01*
X116146001Y-110011422D01*
X116164678Y-110076952D01*
X116256574Y-110256083D01*
X116378974Y-110410468D01*
X116298504Y-110530901D01*
X116228624Y-110699604D01*
X116193000Y-110878699D01*
X116193000Y-111061301D01*
X116228624Y-111240396D01*
X116298504Y-111409099D01*
X116399952Y-111560928D01*
X116529072Y-111690048D01*
X116680901Y-111791496D01*
X116849604Y-111861376D01*
X117028699Y-111897000D01*
X117211301Y-111897000D01*
X117390396Y-111861376D01*
X117559099Y-111791496D01*
X117710928Y-111690048D01*
X117755000Y-111645976D01*
X117799072Y-111690048D01*
X117950901Y-111791496D01*
X118119604Y-111861376D01*
X118298699Y-111897000D01*
X118481301Y-111897000D01*
X118660396Y-111861376D01*
X118829099Y-111791496D01*
X118980928Y-111690048D01*
X119025000Y-111645976D01*
X119069072Y-111690048D01*
X119220901Y-111791496D01*
X119389604Y-111861376D01*
X119568699Y-111897000D01*
X119751301Y-111897000D01*
X119930396Y-111861376D01*
X120099099Y-111791496D01*
X120250928Y-111690048D01*
X120295000Y-111645976D01*
X120339072Y-111690048D01*
X120490901Y-111791496D01*
X120659604Y-111861376D01*
X120838699Y-111897000D01*
X121021301Y-111897000D01*
X121200396Y-111861376D01*
X121369099Y-111791496D01*
X121520928Y-111690048D01*
X121565000Y-111645976D01*
X121609072Y-111690048D01*
X121760901Y-111791496D01*
X121929604Y-111861376D01*
X122108699Y-111897000D01*
X122291301Y-111897000D01*
X122470396Y-111861376D01*
X122639099Y-111791496D01*
X122790928Y-111690048D01*
X122920048Y-111560928D01*
X123021496Y-111409099D01*
X123091376Y-111240396D01*
X123127000Y-111061301D01*
X123127000Y-110878699D01*
X123091376Y-110699604D01*
X123021496Y-110530901D01*
X123003216Y-110503542D01*
X123003395Y-110503395D01*
X123056755Y-110438376D01*
X123096405Y-110364196D01*
X123120822Y-110283707D01*
X123129066Y-110200000D01*
X123129066Y-109200000D01*
X123120822Y-109116293D01*
X123096405Y-109035804D01*
X123056755Y-108961624D01*
X123003395Y-108896605D01*
X122938376Y-108843245D01*
X122864196Y-108803595D01*
X122783707Y-108779178D01*
X122725751Y-108773470D01*
X122681026Y-108718973D01*
X122655200Y-108697778D01*
X122102226Y-108144804D01*
X122081027Y-108118973D01*
X121977941Y-108034372D01*
X121860330Y-107971508D01*
X121732715Y-107932796D01*
X121633252Y-107923000D01*
X121633245Y-107923000D01*
X121600000Y-107919726D01*
X121566755Y-107923000D01*
X116633252Y-107923000D01*
X116600000Y-107919725D01*
X116566748Y-107923000D01*
X116467285Y-107932796D01*
X116339670Y-107971508D01*
X116222059Y-108034372D01*
X116118973Y-108118973D01*
X116097778Y-108144799D01*
X114271644Y-109970934D01*
X113649999Y-109970934D01*
X113517520Y-109983982D01*
X113390132Y-110022625D01*
X113272731Y-110085377D01*
X113169828Y-110169828D01*
X113085377Y-110272731D01*
X113058508Y-110323000D01*
X112775397Y-110323000D01*
X112654674Y-110202277D01*
X112486467Y-110089885D01*
X112299565Y-110012467D01*
X112101151Y-109973000D01*
X111898849Y-109973000D01*
X111700435Y-110012467D01*
X111513533Y-110089885D01*
X111452000Y-110131000D01*
X111452000Y-107452000D01*
X147548001Y-107452000D01*
X147548000Y-132548000D01*
%TA.AperFunction,Conductor*%
D18*
G36*
X147548000Y-132548000D02*
G01*
X111452000Y-132548000D01*
X111452000Y-129869000D01*
X111513533Y-129910115D01*
X111700435Y-129987533D01*
X111898849Y-130027000D01*
X112101151Y-130027000D01*
X112299565Y-129987533D01*
X112486467Y-129910115D01*
X112654674Y-129797723D01*
X112797723Y-129654674D01*
X112910115Y-129486467D01*
X112987533Y-129299565D01*
X113000000Y-129236889D01*
X113012467Y-129299565D01*
X113089885Y-129486467D01*
X113202277Y-129654674D01*
X113345326Y-129797723D01*
X113513533Y-129910115D01*
X113700435Y-129987533D01*
X113898849Y-130027000D01*
X114101151Y-130027000D01*
X114299565Y-129987533D01*
X114486467Y-129910115D01*
X114654674Y-129797723D01*
X114797723Y-129654674D01*
X114910115Y-129486467D01*
X114987533Y-129299565D01*
X115027000Y-129101151D01*
X115027000Y-128898849D01*
X114987533Y-128700435D01*
X114910115Y-128513533D01*
X114797723Y-128345326D01*
X114654674Y-128202277D01*
X114486467Y-128089885D01*
X114299565Y-128012467D01*
X114236889Y-128000000D01*
X114299565Y-127987533D01*
X114486467Y-127910115D01*
X114654674Y-127797723D01*
X114797723Y-127654674D01*
X114910115Y-127486467D01*
X114987533Y-127299565D01*
X115027000Y-127101151D01*
X115027000Y-126898849D01*
X114987533Y-126700435D01*
X114910115Y-126513533D01*
X114797723Y-126345326D01*
X114654674Y-126202277D01*
X114486467Y-126089885D01*
X114299565Y-126012467D01*
X114236889Y-126000000D01*
X114299565Y-125987533D01*
X114486467Y-125910115D01*
X114654674Y-125797723D01*
X114797723Y-125654674D01*
X114910115Y-125486467D01*
X114987533Y-125299565D01*
X115027000Y-125101151D01*
X115027000Y-124898849D01*
X114987533Y-124700435D01*
X114910115Y-124513533D01*
X114797723Y-124345326D01*
X114654674Y-124202277D01*
X114486467Y-124089885D01*
X114299565Y-124012467D01*
X114236889Y-124000000D01*
X114299565Y-123987533D01*
X114486467Y-123910115D01*
X114654674Y-123797723D01*
X114797723Y-123654674D01*
X114910115Y-123486467D01*
X114987533Y-123299565D01*
X115011913Y-123176999D01*
X115101147Y-123176999D01*
X115072990Y-123318548D01*
X115072990Y-123481452D01*
X115104772Y-123641227D01*
X115167113Y-123791731D01*
X115257618Y-123927181D01*
X115322991Y-123992554D01*
X115322990Y-125528325D01*
X115322991Y-125528335D01*
X115322990Y-126871659D01*
X115320200Y-126899990D01*
X115331339Y-127013101D01*
X115336875Y-127031349D01*
X115364333Y-127121865D01*
X115417911Y-127222104D01*
X115490016Y-127309964D01*
X115512028Y-127328029D01*
X117471965Y-129287967D01*
X117490026Y-129309974D01*
X117512033Y-129328035D01*
X117512035Y-129328037D01*
X117528107Y-129341227D01*
X117577885Y-129382079D01*
X117678124Y-129435657D01*
X117786888Y-129468650D01*
X117871664Y-129477000D01*
X117871670Y-129477000D01*
X117899999Y-129479790D01*
X117928328Y-129477000D01*
X121871669Y-129477000D01*
X121900000Y-129479790D01*
X121922499Y-129477574D01*
X121937269Y-129551826D01*
X121999610Y-129702330D01*
X122090115Y-129837780D01*
X122205306Y-129952971D01*
X122340756Y-130043476D01*
X122491260Y-130105817D01*
X122651035Y-130137599D01*
X122813939Y-130137599D01*
X122973714Y-130105817D01*
X123124218Y-130043476D01*
X123259668Y-129952971D01*
X123325040Y-129887599D01*
X124540379Y-129887599D01*
X124558773Y-129895218D01*
X124718548Y-129927000D01*
X124881452Y-129927000D01*
X125041227Y-129895218D01*
X125191731Y-129832877D01*
X125327181Y-129742372D01*
X125442372Y-129627181D01*
X125532877Y-129491731D01*
X125595218Y-129341227D01*
X125627000Y-129181452D01*
X125627000Y-129018548D01*
X125595218Y-128858773D01*
X125532877Y-128708269D01*
X125442372Y-128572819D01*
X125327181Y-128457628D01*
X125258427Y-128411688D01*
X125341227Y-128395218D01*
X125491731Y-128332877D01*
X125627181Y-128242372D01*
X125742372Y-128127181D01*
X125832877Y-127991731D01*
X125895218Y-127841227D01*
X125927000Y-127681452D01*
X125927000Y-127518548D01*
X125895218Y-127358773D01*
X125832877Y-127208269D01*
X125779955Y-127129066D01*
X125937500Y-127129066D01*
X126067541Y-127116258D01*
X126192584Y-127078327D01*
X126307824Y-127016729D01*
X126408833Y-126933833D01*
X126491729Y-126832824D01*
X126553327Y-126717584D01*
X126591258Y-126592541D01*
X126604066Y-126462500D01*
X126604066Y-125862500D01*
X126591258Y-125732459D01*
X126553327Y-125607416D01*
X126491729Y-125492176D01*
X126441009Y-125430374D01*
X126469202Y-125415305D01*
X126549448Y-125349448D01*
X126615305Y-125269202D01*
X126664240Y-125177650D01*
X126694375Y-125078310D01*
X126704550Y-124975000D01*
X126702000Y-124592250D01*
X126570250Y-124460500D01*
X125723000Y-124460500D01*
X125723000Y-124480500D01*
X125677000Y-124480500D01*
X125677000Y-124460500D01*
X124829750Y-124460500D01*
X124698000Y-124592250D01*
X124697622Y-124649030D01*
X124681432Y-124645810D01*
X124537654Y-124645810D01*
X124537000Y-124454750D01*
X124405250Y-124323000D01*
X123263000Y-124323000D01*
X123263000Y-124343000D01*
X123217000Y-124343000D01*
X123217000Y-124323000D01*
X122074750Y-124323000D01*
X121943000Y-124454750D01*
X121940450Y-125200000D01*
X121950625Y-125303310D01*
X121980760Y-125402650D01*
X122029695Y-125494202D01*
X122095552Y-125574448D01*
X122175798Y-125640305D01*
X122267350Y-125689240D01*
X122366690Y-125719375D01*
X122470000Y-125729550D01*
X122765768Y-125728324D01*
X122757921Y-125737886D01*
X122740257Y-125770934D01*
X122470000Y-125770934D01*
X122386293Y-125779178D01*
X122305804Y-125803595D01*
X122231624Y-125843245D01*
X122166605Y-125896605D01*
X122113245Y-125961624D01*
X122073595Y-126035804D01*
X122049178Y-126116293D01*
X122040934Y-126200000D01*
X122040934Y-127989154D01*
X121967287Y-128028519D01*
X121879428Y-128100624D01*
X121861365Y-128122634D01*
X121835739Y-128148260D01*
X121849375Y-128103310D01*
X121859550Y-128000000D01*
X121857000Y-127254750D01*
X121725250Y-127123000D01*
X120583000Y-127123000D01*
X120583000Y-127143000D01*
X120537000Y-127143000D01*
X120537000Y-127123000D01*
X119394750Y-127123000D01*
X119263000Y-127254750D01*
X119260450Y-128000000D01*
X119270625Y-128103310D01*
X119300760Y-128202650D01*
X119349695Y-128294202D01*
X119373329Y-128323000D01*
X118139002Y-128323000D01*
X116476990Y-126660989D01*
X116476990Y-126300000D01*
X117295450Y-126300000D01*
X117305625Y-126403310D01*
X117335760Y-126502650D01*
X117384695Y-126594202D01*
X117450552Y-126674448D01*
X117530798Y-126740305D01*
X117622350Y-126789240D01*
X117721690Y-126819375D01*
X117825000Y-126829550D01*
X118145250Y-126827000D01*
X118277000Y-126695250D01*
X118277000Y-125785500D01*
X118323000Y-125785500D01*
X118323000Y-126695250D01*
X118454750Y-126827000D01*
X118775000Y-126829550D01*
X118878310Y-126819375D01*
X118977650Y-126789240D01*
X119069202Y-126740305D01*
X119149448Y-126674448D01*
X119215305Y-126594202D01*
X119261503Y-126507770D01*
X119263000Y-126945250D01*
X119394750Y-127077000D01*
X120537000Y-127077000D01*
X120537000Y-125804750D01*
X120583000Y-125804750D01*
X120583000Y-127077000D01*
X121725250Y-127077000D01*
X121857000Y-126945250D01*
X121859550Y-126200000D01*
X121849375Y-126096690D01*
X121819240Y-125997350D01*
X121770305Y-125905798D01*
X121704448Y-125825552D01*
X121624202Y-125759695D01*
X121532650Y-125710760D01*
X121433310Y-125680625D01*
X121330000Y-125670450D01*
X120714750Y-125673000D01*
X120583000Y-125804750D01*
X120537000Y-125804750D01*
X120405250Y-125673000D01*
X119790000Y-125670450D01*
X119686690Y-125680625D01*
X119587350Y-125710760D01*
X119495798Y-125759695D01*
X119415552Y-125825552D01*
X119349695Y-125905798D01*
X119302512Y-125994073D01*
X119302000Y-125917250D01*
X119170250Y-125785500D01*
X118323000Y-125785500D01*
X118277000Y-125785500D01*
X117429750Y-125785500D01*
X117298000Y-125917250D01*
X117295450Y-126300000D01*
X116476990Y-126300000D01*
X116476990Y-123992553D01*
X116542362Y-123927181D01*
X116632867Y-123791731D01*
X116695208Y-123641227D01*
X116726990Y-123481452D01*
X116726990Y-123318548D01*
X116698833Y-123176999D01*
X117592261Y-123176999D01*
X117620592Y-123179789D01*
X117648923Y-123176999D01*
X117648928Y-123176999D01*
X117678637Y-123174073D01*
X117716329Y-123170361D01*
X117692176Y-123183271D01*
X117591167Y-123266167D01*
X117508271Y-123367176D01*
X117446673Y-123482416D01*
X117408742Y-123607459D01*
X117395934Y-123737500D01*
X117395934Y-124337500D01*
X117408742Y-124467541D01*
X117446673Y-124592584D01*
X117508271Y-124707824D01*
X117558991Y-124769626D01*
X117530798Y-124784695D01*
X117450552Y-124850552D01*
X117384695Y-124930798D01*
X117335760Y-125022350D01*
X117305625Y-125121690D01*
X117295450Y-125225000D01*
X117298000Y-125607750D01*
X117429750Y-125739500D01*
X118277000Y-125739500D01*
X118277000Y-125719500D01*
X118323000Y-125719500D01*
X118323000Y-125739500D01*
X119170250Y-125739500D01*
X119302000Y-125607750D01*
X119304550Y-125225000D01*
X119294375Y-125121690D01*
X119264240Y-125022350D01*
X119215305Y-124930798D01*
X119149448Y-124850552D01*
X119069202Y-124784695D01*
X119041009Y-124769626D01*
X119091729Y-124707824D01*
X119141612Y-124614500D01*
X119360934Y-124614500D01*
X119360934Y-125200000D01*
X119369178Y-125283707D01*
X119393595Y-125364196D01*
X119433245Y-125438376D01*
X119486605Y-125503395D01*
X119551624Y-125556755D01*
X119625804Y-125596405D01*
X119706293Y-125620822D01*
X119790000Y-125629066D01*
X121330000Y-125629066D01*
X121413707Y-125620822D01*
X121494196Y-125596405D01*
X121568376Y-125556755D01*
X121633395Y-125503395D01*
X121686755Y-125438376D01*
X121726405Y-125364196D01*
X121750822Y-125283707D01*
X121759066Y-125200000D01*
X121759066Y-123400000D01*
X121940450Y-123400000D01*
X121943000Y-124145250D01*
X122074750Y-124277000D01*
X123217000Y-124277000D01*
X123217000Y-123004750D01*
X123085250Y-122873000D01*
X122470000Y-122870450D01*
X122366690Y-122880625D01*
X122267350Y-122910760D01*
X122175798Y-122959695D01*
X122095552Y-123025552D01*
X122029695Y-123105798D01*
X121980760Y-123197350D01*
X121950625Y-123296690D01*
X121940450Y-123400000D01*
X121759066Y-123400000D01*
X121750822Y-123316293D01*
X121726405Y-123235804D01*
X121686755Y-123161624D01*
X121633395Y-123096605D01*
X121568376Y-123043245D01*
X121494196Y-123003595D01*
X121413707Y-122979178D01*
X121330000Y-122970934D01*
X120937000Y-122970934D01*
X120937000Y-122679001D01*
X121239001Y-122377000D01*
X123219600Y-122377000D01*
X123267123Y-122491731D01*
X123357628Y-122627181D01*
X123472819Y-122742372D01*
X123608269Y-122832877D01*
X123702059Y-122871726D01*
X123394750Y-122873000D01*
X123263000Y-123004750D01*
X123263000Y-124277000D01*
X124405250Y-124277000D01*
X124537000Y-124145250D01*
X124537839Y-123900000D01*
X124695450Y-123900000D01*
X124698000Y-124282750D01*
X124829750Y-124414500D01*
X125677000Y-124414500D01*
X125677000Y-123504750D01*
X125723000Y-123504750D01*
X125723000Y-124414500D01*
X126570250Y-124414500D01*
X126702000Y-124282750D01*
X126704550Y-123900000D01*
X126694375Y-123796690D01*
X126664240Y-123697350D01*
X126615305Y-123605798D01*
X126549448Y-123525552D01*
X126469202Y-123459695D01*
X126377650Y-123410760D01*
X126278310Y-123380625D01*
X126175000Y-123370450D01*
X125854750Y-123373000D01*
X125723000Y-123504750D01*
X125677000Y-123504750D01*
X125545250Y-123373000D01*
X125225000Y-123370450D01*
X125121690Y-123380625D01*
X125022350Y-123410760D01*
X124930798Y-123459695D01*
X124850552Y-123525552D01*
X124784695Y-123605798D01*
X124735760Y-123697350D01*
X124705625Y-123796690D01*
X124695450Y-123900000D01*
X124537839Y-123900000D01*
X124539550Y-123400000D01*
X124529375Y-123296690D01*
X124499240Y-123197350D01*
X124450305Y-123105798D01*
X124384448Y-123025552D01*
X124304202Y-122959695D01*
X124212650Y-122910760D01*
X124193024Y-122904806D01*
X124241227Y-122895218D01*
X124391731Y-122832877D01*
X124527181Y-122742372D01*
X124642372Y-122627181D01*
X124664844Y-122593548D01*
X129248000Y-122593548D01*
X129248000Y-122756452D01*
X129279782Y-122916227D01*
X129342123Y-123066731D01*
X129432628Y-123202181D01*
X129547819Y-123317372D01*
X129683269Y-123407877D01*
X129833773Y-123470218D01*
X129993548Y-123502000D01*
X130156452Y-123502000D01*
X130316227Y-123470218D01*
X130466731Y-123407877D01*
X130601695Y-123317697D01*
X130723001Y-123439002D01*
X130723001Y-123838654D01*
X130641227Y-123804782D01*
X130481452Y-123773000D01*
X130318548Y-123773000D01*
X130158773Y-123804782D01*
X130008269Y-123867123D01*
X129872819Y-123957628D01*
X129757628Y-124072819D01*
X129667123Y-124208269D01*
X129604782Y-124358773D01*
X129573000Y-124518548D01*
X129573000Y-124681452D01*
X129604782Y-124841227D01*
X129667123Y-124991731D01*
X129757628Y-125127181D01*
X129823001Y-125192554D01*
X129823000Y-126507447D01*
X129757628Y-126572819D01*
X129667123Y-126708269D01*
X129604782Y-126858773D01*
X129573000Y-127018548D01*
X129573000Y-127181452D01*
X129604782Y-127341227D01*
X129667123Y-127491731D01*
X129757628Y-127627181D01*
X129872819Y-127742372D01*
X130008269Y-127832877D01*
X130158773Y-127895218D01*
X130318548Y-127927000D01*
X130481452Y-127927000D01*
X130521219Y-127919090D01*
X130504782Y-127958773D01*
X130473000Y-128118548D01*
X130473000Y-128281452D01*
X130504782Y-128441227D01*
X130567123Y-128591731D01*
X130657628Y-128727181D01*
X130772819Y-128842372D01*
X130908269Y-128932877D01*
X131058773Y-128995218D01*
X131218548Y-129027000D01*
X131381452Y-129027000D01*
X131475758Y-129008241D01*
X130710999Y-129773000D01*
X130618548Y-129773000D01*
X130458773Y-129804782D01*
X130308269Y-129867123D01*
X130172819Y-129957628D01*
X130057628Y-130072819D01*
X129967123Y-130208269D01*
X129904782Y-130358773D01*
X129873000Y-130518548D01*
X129873000Y-130681452D01*
X129904782Y-130841227D01*
X129967123Y-130991731D01*
X130057628Y-131127181D01*
X130172819Y-131242372D01*
X130308269Y-131332877D01*
X130458773Y-131395218D01*
X130618548Y-131427000D01*
X130781452Y-131427000D01*
X130941227Y-131395218D01*
X131091731Y-131332877D01*
X131227181Y-131242372D01*
X131342372Y-131127181D01*
X131432877Y-130991731D01*
X131495218Y-130841227D01*
X131527000Y-130681452D01*
X131527000Y-130589001D01*
X132531541Y-129584460D01*
X132552282Y-129688727D01*
X132614623Y-129839231D01*
X132705128Y-129974681D01*
X132820319Y-130089872D01*
X132955769Y-130180377D01*
X133106273Y-130242718D01*
X133266048Y-130274500D01*
X133428952Y-130274500D01*
X133588727Y-130242718D01*
X133739231Y-130180377D01*
X133874681Y-130089872D01*
X133989872Y-129974681D01*
X134080377Y-129839231D01*
X134142718Y-129688727D01*
X134161099Y-129596324D01*
X134405201Y-129352222D01*
X134431027Y-129331027D01*
X134456848Y-129299565D01*
X134515628Y-129227941D01*
X134578492Y-129110330D01*
X134617204Y-128982715D01*
X134630275Y-128850000D01*
X134627000Y-128816748D01*
X134627000Y-125282057D01*
X134658773Y-125295218D01*
X134818548Y-125327000D01*
X134981452Y-125327000D01*
X135141227Y-125295218D01*
X135291731Y-125232877D01*
X135427181Y-125142372D01*
X135542372Y-125027181D01*
X135632877Y-124891731D01*
X135695218Y-124741227D01*
X135727000Y-124581452D01*
X135727000Y-124418548D01*
X135695218Y-124258773D01*
X135632877Y-124108269D01*
X135542372Y-123972819D01*
X135477000Y-123907447D01*
X135477000Y-121118548D01*
X136773000Y-121118548D01*
X136773000Y-121281452D01*
X136804782Y-121441227D01*
X136867123Y-121591731D01*
X136923001Y-121675358D01*
X136923000Y-122666755D01*
X136919726Y-122700000D01*
X136923000Y-122733245D01*
X136923000Y-122733251D01*
X136931729Y-122821876D01*
X136932796Y-122832714D01*
X136971508Y-122960329D01*
X137034372Y-123077940D01*
X137081739Y-123135656D01*
X137118973Y-123181026D01*
X137144800Y-123202222D01*
X137673495Y-123730917D01*
X137623955Y-123751437D01*
X137488505Y-123841942D01*
X137373314Y-123957133D01*
X137282809Y-124092583D01*
X137220468Y-124243087D01*
X137188686Y-124402862D01*
X137188686Y-124565766D01*
X137220468Y-124725541D01*
X137282809Y-124876045D01*
X137373314Y-125011495D01*
X137438686Y-125076867D01*
X137438687Y-127791760D01*
X137373314Y-127857133D01*
X137282809Y-127992583D01*
X137220468Y-128143087D01*
X137188686Y-128302862D01*
X137188686Y-128465766D01*
X137220468Y-128625541D01*
X137282809Y-128776045D01*
X137373314Y-128911495D01*
X137488505Y-129026686D01*
X137623955Y-129117191D01*
X137774459Y-129179532D01*
X137934234Y-129211314D01*
X138097138Y-129211314D01*
X138256913Y-129179532D01*
X138407417Y-129117191D01*
X138423000Y-129106779D01*
X138423000Y-129119577D01*
X137857418Y-129685160D01*
X137758773Y-129704782D01*
X137608269Y-129767123D01*
X137472819Y-129857628D01*
X137357628Y-129972819D01*
X137267123Y-130108269D01*
X137204782Y-130258773D01*
X137173000Y-130418548D01*
X137173000Y-130581452D01*
X137204782Y-130741227D01*
X137267123Y-130891731D01*
X137357628Y-131027181D01*
X137472819Y-131142372D01*
X137608269Y-131232877D01*
X137758773Y-131295218D01*
X137918548Y-131327000D01*
X138081452Y-131327000D01*
X138241227Y-131295218D01*
X138391731Y-131232877D01*
X138527181Y-131142372D01*
X138642372Y-131027181D01*
X138732877Y-130891731D01*
X138795218Y-130741227D01*
X138814840Y-130642582D01*
X139555205Y-129902217D01*
X139581026Y-129881027D01*
X139602218Y-129855205D01*
X139602224Y-129855199D01*
X139665628Y-129777941D01*
X139728492Y-129660330D01*
X139767204Y-129532715D01*
X139771759Y-129486467D01*
X139777000Y-129433252D01*
X139777000Y-129433245D01*
X139780274Y-129400000D01*
X139777000Y-129366755D01*
X139777000Y-124233241D01*
X139780274Y-124199999D01*
X139777000Y-124166757D01*
X139777000Y-124166748D01*
X139767204Y-124067285D01*
X139728492Y-123939670D01*
X139665628Y-123822059D01*
X139581027Y-123718973D01*
X139555196Y-123697774D01*
X138277000Y-122419578D01*
X138277000Y-121675357D01*
X138332877Y-121591731D01*
X138395218Y-121441227D01*
X138427000Y-121281452D01*
X138427000Y-121118548D01*
X138395218Y-120958773D01*
X138332877Y-120808269D01*
X138242372Y-120672819D01*
X138127181Y-120557628D01*
X137991731Y-120467123D01*
X137841227Y-120404782D01*
X137681452Y-120373000D01*
X137518548Y-120373000D01*
X137358773Y-120404782D01*
X137208269Y-120467123D01*
X137072819Y-120557628D01*
X136957628Y-120672819D01*
X136867123Y-120808269D01*
X136804782Y-120958773D01*
X136773000Y-121118548D01*
X135477000Y-121118548D01*
X135477000Y-120392553D01*
X135542372Y-120327181D01*
X135632877Y-120191731D01*
X135695218Y-120041227D01*
X135727000Y-119881452D01*
X135727000Y-119718548D01*
X135695218Y-119558773D01*
X135632877Y-119408269D01*
X135542372Y-119272819D01*
X135427181Y-119157628D01*
X135291731Y-119067123D01*
X135141227Y-119004782D01*
X134981452Y-118973000D01*
X134818548Y-118973000D01*
X134658773Y-119004782D01*
X134627000Y-119017943D01*
X134627000Y-113925357D01*
X134682877Y-113841731D01*
X134745218Y-113691227D01*
X134777000Y-113531452D01*
X134777000Y-113368548D01*
X134745218Y-113208773D01*
X134682877Y-113058269D01*
X134592372Y-112922819D01*
X134477181Y-112807628D01*
X134341731Y-112717123D01*
X134194049Y-112655951D01*
X134132877Y-112508269D01*
X134042372Y-112372819D01*
X133927181Y-112257628D01*
X133791731Y-112167123D01*
X133641227Y-112104782D01*
X133481452Y-112073000D01*
X133318548Y-112073000D01*
X133158773Y-112104782D01*
X133008269Y-112167123D01*
X132872819Y-112257628D01*
X132757628Y-112372819D01*
X132667123Y-112508269D01*
X132604782Y-112658773D01*
X132573000Y-112818548D01*
X132573000Y-112981452D01*
X132604782Y-113141227D01*
X132667123Y-113291731D01*
X132757628Y-113427181D01*
X132872819Y-113542372D01*
X133008269Y-113632877D01*
X133155951Y-113694049D01*
X133217123Y-113841731D01*
X133273000Y-113925357D01*
X133273001Y-123617943D01*
X133241227Y-123604782D01*
X133081452Y-123573000D01*
X132918548Y-123573000D01*
X132758773Y-123604782D01*
X132608269Y-123667123D01*
X132472819Y-123757628D01*
X132357628Y-123872819D01*
X132267123Y-124008269D01*
X132204782Y-124158773D01*
X132173000Y-124318548D01*
X132173000Y-124481452D01*
X132204782Y-124641227D01*
X132267123Y-124791731D01*
X132357628Y-124927181D01*
X132423000Y-124992553D01*
X132423001Y-128060998D01*
X132108241Y-128375758D01*
X132127000Y-128281452D01*
X132127000Y-128118548D01*
X132095218Y-127958773D01*
X132032877Y-127808269D01*
X131942372Y-127672819D01*
X131877000Y-127607447D01*
X131877000Y-123228328D01*
X131879790Y-123199999D01*
X131877000Y-123171670D01*
X131877000Y-123171664D01*
X131868650Y-123086888D01*
X131835657Y-122978124D01*
X131782079Y-122877885D01*
X131709974Y-122790026D01*
X131687967Y-122771965D01*
X131203039Y-122287038D01*
X131184974Y-122265026D01*
X131097115Y-122192921D01*
X130996876Y-122139343D01*
X130926257Y-122117921D01*
X130888111Y-122106349D01*
X130833045Y-122100926D01*
X130803336Y-122098000D01*
X130803331Y-122098000D01*
X130775000Y-122095210D01*
X130746669Y-122098000D01*
X130667553Y-122098000D01*
X130602181Y-122032628D01*
X130466731Y-121942123D01*
X130316227Y-121879782D01*
X130156452Y-121848000D01*
X129993548Y-121848000D01*
X129833773Y-121879782D01*
X129683269Y-121942123D01*
X129547819Y-122032628D01*
X129432628Y-122147819D01*
X129342123Y-122283269D01*
X129279782Y-122433773D01*
X129248000Y-122593548D01*
X124664844Y-122593548D01*
X124732877Y-122491731D01*
X124795218Y-122341227D01*
X124827000Y-122181452D01*
X124827000Y-122018548D01*
X124795218Y-121858773D01*
X124732877Y-121708269D01*
X124645166Y-121577000D01*
X127707447Y-121577000D01*
X127772819Y-121642372D01*
X127908269Y-121732877D01*
X128058773Y-121795218D01*
X128218548Y-121827000D01*
X128381452Y-121827000D01*
X128541227Y-121795218D01*
X128691731Y-121732877D01*
X128827181Y-121642372D01*
X128942372Y-121527181D01*
X129032877Y-121391731D01*
X129095218Y-121241227D01*
X129127000Y-121081452D01*
X129127000Y-120918548D01*
X129095218Y-120758773D01*
X129032877Y-120608269D01*
X128942372Y-120472819D01*
X128898757Y-120429204D01*
X128907902Y-120423093D01*
X129023093Y-120307902D01*
X129113598Y-120172452D01*
X129175939Y-120021948D01*
X129207721Y-119862173D01*
X129207721Y-119699269D01*
X129175939Y-119539494D01*
X129113598Y-119388990D01*
X129023093Y-119253540D01*
X128907902Y-119138349D01*
X128787896Y-119058163D01*
X129369059Y-118477000D01*
X130707447Y-118477000D01*
X130772819Y-118542372D01*
X130908269Y-118632877D01*
X131058773Y-118695218D01*
X131218548Y-118727000D01*
X131381452Y-118727000D01*
X131541227Y-118695218D01*
X131691731Y-118632877D01*
X131827181Y-118542372D01*
X131942372Y-118427181D01*
X132032877Y-118291731D01*
X132095218Y-118141227D01*
X132127000Y-117981452D01*
X132127000Y-117927000D01*
X132181452Y-117927000D01*
X132341227Y-117895218D01*
X132491731Y-117832877D01*
X132627181Y-117742372D01*
X132742372Y-117627181D01*
X132832877Y-117491731D01*
X132895218Y-117341227D01*
X132927000Y-117181452D01*
X132927000Y-117018548D01*
X132895218Y-116858773D01*
X132832877Y-116708269D01*
X132742372Y-116572819D01*
X132627181Y-116457628D01*
X132491731Y-116367123D01*
X132341227Y-116304782D01*
X132181452Y-116273000D01*
X132018548Y-116273000D01*
X131858773Y-116304782D01*
X131708269Y-116367123D01*
X131572819Y-116457628D01*
X131507447Y-116523000D01*
X129180555Y-116523000D01*
X129152224Y-116520210D01*
X129123893Y-116523000D01*
X129123888Y-116523000D01*
X129097110Y-116525637D01*
X129039112Y-116531349D01*
X128975006Y-116550796D01*
X128930348Y-116564343D01*
X128830109Y-116617921D01*
X128742250Y-116690026D01*
X128724185Y-116712038D01*
X127524853Y-117911370D01*
X127516987Y-117892379D01*
X127479590Y-117836411D01*
X128126215Y-117189786D01*
X128227057Y-117148016D01*
X128362507Y-117057511D01*
X128477698Y-116942320D01*
X128568203Y-116806870D01*
X128630544Y-116656366D01*
X128640734Y-116605136D01*
X128668651Y-116513112D01*
X128679791Y-116400000D01*
X128668651Y-116286889D01*
X128635656Y-116178124D01*
X128620694Y-116150131D01*
X128568203Y-116023408D01*
X128477698Y-115887958D01*
X128362507Y-115772767D01*
X128227057Y-115682262D01*
X128076553Y-115619921D01*
X127916778Y-115588139D01*
X127753874Y-115588139D01*
X127594099Y-115619921D01*
X127443595Y-115682262D01*
X127308145Y-115772767D01*
X127244566Y-115836346D01*
X127222115Y-115817921D01*
X127121876Y-115764343D01*
X127013112Y-115731350D01*
X127002952Y-115730349D01*
X126941227Y-115704782D01*
X126781452Y-115673000D01*
X126618548Y-115673000D01*
X126458773Y-115704782D01*
X126308269Y-115767123D01*
X126172819Y-115857628D01*
X126057628Y-115972819D01*
X125967123Y-116108269D01*
X125904782Y-116258773D01*
X125897905Y-116293345D01*
X125817372Y-116172819D01*
X125702181Y-116057628D01*
X125566731Y-115967123D01*
X125416227Y-115904782D01*
X125256452Y-115873000D01*
X125093548Y-115873000D01*
X124933773Y-115904782D01*
X124783269Y-115967123D01*
X124647819Y-116057628D01*
X124532628Y-116172819D01*
X124493987Y-116230650D01*
X124486888Y-116231349D01*
X124422782Y-116250796D01*
X124378124Y-116264343D01*
X124277885Y-116317921D01*
X124190026Y-116390026D01*
X124171957Y-116412043D01*
X124011076Y-116572923D01*
X116488924Y-116572923D01*
X115528039Y-115612038D01*
X115509974Y-115590026D01*
X115494102Y-115577000D01*
X124071669Y-115577000D01*
X124100000Y-115579790D01*
X124128331Y-115577000D01*
X124128336Y-115577000D01*
X124158045Y-115574074D01*
X124213111Y-115568651D01*
X124257770Y-115555103D01*
X124321876Y-115535657D01*
X124422115Y-115482079D01*
X124509974Y-115409974D01*
X124528039Y-115387962D01*
X125489002Y-114427000D01*
X125581452Y-114427000D01*
X125741227Y-114395218D01*
X125891731Y-114332877D01*
X126027181Y-114242372D01*
X126142372Y-114127181D01*
X126232877Y-113991731D01*
X126295218Y-113841227D01*
X126327000Y-113681452D01*
X126327000Y-113518548D01*
X126295218Y-113358773D01*
X126232877Y-113208269D01*
X126142372Y-113072819D01*
X126027181Y-112957628D01*
X125891731Y-112867123D01*
X125741227Y-112804782D01*
X125581452Y-112773000D01*
X125418548Y-112773000D01*
X125258773Y-112804782D01*
X125108269Y-112867123D01*
X124972819Y-112957628D01*
X124857628Y-113072819D01*
X124767123Y-113208269D01*
X124704782Y-113358773D01*
X124673000Y-113518548D01*
X124673000Y-113610998D01*
X123860999Y-114423000D01*
X114849623Y-114423000D01*
X114797723Y-114345326D01*
X114654674Y-114202277D01*
X114486467Y-114089885D01*
X114405760Y-114056455D01*
X114413459Y-114054278D01*
X114611195Y-113953358D01*
X114646895Y-113929504D01*
X114691154Y-113723681D01*
X114000000Y-113032527D01*
X113308846Y-113723681D01*
X113353105Y-113929504D01*
X113546873Y-114037847D01*
X113598645Y-114054630D01*
X113513533Y-114089885D01*
X113345326Y-114202277D01*
X113202277Y-114345326D01*
X113089885Y-114513533D01*
X113056455Y-114594240D01*
X113054278Y-114586541D01*
X112953358Y-114388805D01*
X112929504Y-114353105D01*
X112723681Y-114308846D01*
X112032527Y-115000000D01*
X112046669Y-115014142D01*
X112014142Y-115046669D01*
X112000000Y-115032527D01*
X111985858Y-115046669D01*
X111953331Y-115014142D01*
X111967473Y-115000000D01*
X111953331Y-114985858D01*
X111985858Y-114953331D01*
X112000000Y-114967473D01*
X112691154Y-114276319D01*
X112646895Y-114070496D01*
X112520334Y-113999731D01*
X112611195Y-113953358D01*
X112646895Y-113929504D01*
X112691154Y-113723681D01*
X112000000Y-113032527D01*
X111985858Y-113046669D01*
X111953331Y-113014142D01*
X111967473Y-113000000D01*
X112032527Y-113000000D01*
X112723681Y-113691154D01*
X112929504Y-113646895D01*
X113000269Y-113520334D01*
X113046642Y-113611195D01*
X113070496Y-113646895D01*
X113276319Y-113691154D01*
X113967473Y-113000000D01*
X114032527Y-113000000D01*
X114723681Y-113691154D01*
X114929504Y-113646895D01*
X115037847Y-113453127D01*
X115106305Y-113241946D01*
X115132249Y-113021468D01*
X115114682Y-112800165D01*
X115054278Y-112586541D01*
X114953358Y-112388805D01*
X114929504Y-112353105D01*
X114723681Y-112308846D01*
X114032527Y-113000000D01*
X113967473Y-113000000D01*
X113276319Y-112308846D01*
X113070496Y-112353105D01*
X112999731Y-112479666D01*
X112953358Y-112388805D01*
X112929504Y-112353105D01*
X112723681Y-112308846D01*
X112032527Y-113000000D01*
X111967473Y-113000000D01*
X111953331Y-112985858D01*
X111985858Y-112953331D01*
X112000000Y-112967473D01*
X112691154Y-112276319D01*
X112646895Y-112070496D01*
X112453127Y-111962153D01*
X112401355Y-111945370D01*
X112486467Y-111910115D01*
X112654674Y-111797723D01*
X112775397Y-111677000D01*
X113058508Y-111677000D01*
X113085377Y-111727269D01*
X113169828Y-111830172D01*
X113272731Y-111914623D01*
X113390132Y-111977375D01*
X113474423Y-112002945D01*
X113388805Y-112046642D01*
X113353105Y-112070496D01*
X113308846Y-112276319D01*
X114000000Y-112967473D01*
X114691154Y-112276319D01*
X114646895Y-112070496D01*
X114525904Y-112002845D01*
X114609868Y-111977375D01*
X114727269Y-111914623D01*
X114830172Y-111830172D01*
X114914623Y-111727269D01*
X114977375Y-111609868D01*
X115016018Y-111482480D01*
X115029066Y-111350001D01*
X115029066Y-111128356D01*
X116146001Y-110011422D01*
X116164678Y-110076952D01*
X116256574Y-110256083D01*
X116378974Y-110410468D01*
X116298504Y-110530901D01*
X116228624Y-110699604D01*
X116193000Y-110878699D01*
X116193000Y-111061301D01*
X116228624Y-111240396D01*
X116298504Y-111409099D01*
X116399952Y-111560928D01*
X116529072Y-111690048D01*
X116680901Y-111791496D01*
X116849604Y-111861376D01*
X117028699Y-111897000D01*
X117211301Y-111897000D01*
X117390396Y-111861376D01*
X117559099Y-111791496D01*
X117710928Y-111690048D01*
X117755000Y-111645976D01*
X117799072Y-111690048D01*
X117950901Y-111791496D01*
X118119604Y-111861376D01*
X118298699Y-111897000D01*
X118481301Y-111897000D01*
X118660396Y-111861376D01*
X118829099Y-111791496D01*
X118980928Y-111690048D01*
X119025000Y-111645976D01*
X119069072Y-111690048D01*
X119220901Y-111791496D01*
X119389604Y-111861376D01*
X119568699Y-111897000D01*
X119751301Y-111897000D01*
X119930396Y-111861376D01*
X120099099Y-111791496D01*
X120250928Y-111690048D01*
X120295000Y-111645976D01*
X120339072Y-111690048D01*
X120490901Y-111791496D01*
X120659604Y-111861376D01*
X120838699Y-111897000D01*
X121021301Y-111897000D01*
X121200396Y-111861376D01*
X121369099Y-111791496D01*
X121520928Y-111690048D01*
X121565000Y-111645976D01*
X121609072Y-111690048D01*
X121760901Y-111791496D01*
X121929604Y-111861376D01*
X122108699Y-111897000D01*
X122291301Y-111897000D01*
X122470396Y-111861376D01*
X122639099Y-111791496D01*
X122790928Y-111690048D01*
X122920048Y-111560928D01*
X123021496Y-111409099D01*
X123091376Y-111240396D01*
X123127000Y-111061301D01*
X123127000Y-110878699D01*
X123091376Y-110699604D01*
X123021496Y-110530901D01*
X123003216Y-110503542D01*
X123003395Y-110503395D01*
X123056755Y-110438376D01*
X123096405Y-110364196D01*
X123120822Y-110283707D01*
X123129066Y-110200000D01*
X123129066Y-109200000D01*
X123120822Y-109116293D01*
X123096405Y-109035804D01*
X123056755Y-108961624D01*
X123003395Y-108896605D01*
X122938376Y-108843245D01*
X122864196Y-108803595D01*
X122783707Y-108779178D01*
X122725751Y-108773470D01*
X122681026Y-108718973D01*
X122655200Y-108697778D01*
X122102226Y-108144804D01*
X122081027Y-108118973D01*
X121977941Y-108034372D01*
X121860330Y-107971508D01*
X121732715Y-107932796D01*
X121633252Y-107923000D01*
X121633245Y-107923000D01*
X121600000Y-107919726D01*
X121566755Y-107923000D01*
X116633252Y-107923000D01*
X116600000Y-107919725D01*
X116566748Y-107923000D01*
X116467285Y-107932796D01*
X116339670Y-107971508D01*
X116222059Y-108034372D01*
X116118973Y-108118973D01*
X116097778Y-108144799D01*
X114271644Y-109970934D01*
X113649999Y-109970934D01*
X113517520Y-109983982D01*
X113390132Y-110022625D01*
X113272731Y-110085377D01*
X113169828Y-110169828D01*
X113085377Y-110272731D01*
X113058508Y-110323000D01*
X112775397Y-110323000D01*
X112654674Y-110202277D01*
X112486467Y-110089885D01*
X112299565Y-110012467D01*
X112101151Y-109973000D01*
X111898849Y-109973000D01*
X111700435Y-110012467D01*
X111513533Y-110089885D01*
X111452000Y-110131000D01*
X111452000Y-107452000D01*
X147548001Y-107452000D01*
X147548000Y-132548000D01*
G37*
%TD.AperFunction*%
D17*
X119683000Y-109677000D02*
X120907000Y-109677000D01*
X120907000Y-109657000D01*
X120953000Y-109657000D01*
X120953000Y-109677000D01*
X120973000Y-109677000D01*
X120973000Y-109723000D01*
X120953000Y-109723000D01*
X120953000Y-109743000D01*
X120907000Y-109743000D01*
X120907000Y-109723000D01*
X119683000Y-109723000D01*
X119683000Y-109743000D01*
X119637000Y-109743000D01*
X119637000Y-109723000D01*
X119617000Y-109723000D01*
X119617000Y-109677000D01*
X119637000Y-109677000D01*
X119637000Y-109657000D01*
X119683000Y-109657000D01*
X119683000Y-109677000D01*
%TA.AperFunction,Conductor*%
D18*
G36*
X119683000Y-109677000D02*
G01*
X120907000Y-109677000D01*
X120907000Y-109657000D01*
X120953000Y-109657000D01*
X120953000Y-109677000D01*
X120973000Y-109677000D01*
X120973000Y-109723000D01*
X120953000Y-109723000D01*
X120953000Y-109743000D01*
X120907000Y-109743000D01*
X120907000Y-109723000D01*
X119683000Y-109723000D01*
X119683000Y-109743000D01*
X119637000Y-109743000D01*
X119637000Y-109723000D01*
X119617000Y-109723000D01*
X119617000Y-109677000D01*
X119637000Y-109677000D01*
X119637000Y-109657000D01*
X119683000Y-109657000D01*
X119683000Y-109677000D01*
G37*
%TD.AperFunction*%
D17*
X117143000Y-109677000D02*
X117163000Y-109677000D01*
X117163000Y-109723000D01*
X117143000Y-109723000D01*
X117143000Y-109743000D01*
X117097000Y-109743000D01*
X117097000Y-109723000D01*
X117077000Y-109723000D01*
X117077000Y-109677000D01*
X117097000Y-109677000D01*
X117097000Y-109657000D01*
X117143000Y-109657000D01*
X117143000Y-109677000D01*
%TA.AperFunction,Conductor*%
D18*
G36*
X117143000Y-109677000D02*
G01*
X117163000Y-109677000D01*
X117163000Y-109723000D01*
X117143000Y-109723000D01*
X117143000Y-109743000D01*
X117097000Y-109743000D01*
X117097000Y-109723000D01*
X117077000Y-109723000D01*
X117077000Y-109677000D01*
X117097000Y-109677000D01*
X117097000Y-109657000D01*
X117143000Y-109657000D01*
X117143000Y-109677000D01*
G37*
%TD.AperFunction*%
%TD*%
M02*
