M48
INCH,TZ
T1C0.0157
T2C0.0256
T3C0.0295
%
G90
G05
T1
X44488Y-42913
X44488Y-51575
X45630Y-48583
X45669Y-51575
X46063Y-45669
X46654Y-50276
X46850Y-44488
X46850Y-51575
X48110Y-48346
X48320Y-50910
X48622Y-45787
X48819Y-42520
X48819Y-48071
X49055Y-49399
X49134Y-50827
X49252Y-50236
X49281Y-45945
X49409Y-44724
X49606Y-51969
X49882Y-45866
X49915Y-46569
X50079Y-47953
X50329Y-45833
X50394Y-42520
X50394Y-43622
X50512Y-47638
X50544Y-47158
X50945Y-49370
X51063Y-48701
X51211Y-48297
X51339Y-49055
X51339Y-50039
X51457Y-51417
X51575Y-51969
X51693Y-46417
X51693Y-50472
X51772Y-44567
X51914Y-45605
X51969Y-42520
X51969Y-47244
X52008Y-46102
X52047Y-49528
X52362Y-48976
X52499Y-50964
X52520Y-44449
X52736Y-44665
X53110Y-47165
X53110Y-49016
X53543Y-49606
X53543Y-51969
X53661Y-45984
X54173Y-47717
X54331Y-51378
X54337Y-49010
X54337Y-50545
X55000Y-47835
X55118Y-51969
X56102Y-48740
X56299Y-42913
X56299Y-44882
X56693Y-51969
X57480Y-45669
X57874Y-42520
X57874Y-51969
T2
X46110Y-43189
X46110Y-43689
X46610Y-43189
X46610Y-43689
X47110Y-43189
X47110Y-43689
X47610Y-43189
X47610Y-43689
X48110Y-43189
X48110Y-43689
T3
X44094Y-43701
X44094Y-44488
X44094Y-45276
X44094Y-46063
X44094Y-46850
X44094Y-47638
X44094Y-48425
X44094Y-49213
X44094Y-50000
X44094Y-50787
X44882Y-43701
X44882Y-44488
X44882Y-45276
X44882Y-46063
X44882Y-46850
X44882Y-47638
X44882Y-48425
X44882Y-49213
X44882Y-50000
X44882Y-50787
T0
M30
