%TF.GenerationSoftware,KiCad,Pcbnew,(5.1.7)-1*%
%TF.CreationDate,2020-11-11T21:59:56+01:00*%
%TF.ProjectId,rgb_ctrl_board,7267625f-6374-4726-9c5f-626f6172642e,rev?*%
%TF.SameCoordinates,Original*%
%TF.FileFunction,Copper,L1,Top*%
%TF.FilePolarity,Positive*%
%FSLAX46Y46*%
G04 Gerber Fmt 4.6, Leading zero omitted, Abs format (unit mm)*
G04 Created by KiCad (PCBNEW (5.1.7)-1) date 2020-11-11 21:59:56*
%MOMM*%
%LPD*%
G01*
G04 APERTURE LIST*
%TA.AperFunction,ComponentPad*%
%ADD10O,1.000000X1.000000*%
%TD*%
%TA.AperFunction,ComponentPad*%
%ADD11R,1.000000X1.000000*%
%TD*%
%TA.AperFunction,SMDPad,CuDef*%
%ADD12R,2.000000X1.500000*%
%TD*%
%TA.AperFunction,SMDPad,CuDef*%
%ADD13R,2.000000X3.800000*%
%TD*%
%TA.AperFunction,SMDPad,CuDef*%
%ADD14R,1.900000X1.000000*%
%TD*%
%TA.AperFunction,SMDPad,CuDef*%
%ADD15R,1.900000X1.800000*%
%TD*%
%TA.AperFunction,SMDPad,CuDef*%
%ADD16R,1.300000X1.650000*%
%TD*%
%TA.AperFunction,SMDPad,CuDef*%
%ADD17R,1.550000X1.425000*%
%TD*%
%TA.AperFunction,SMDPad,CuDef*%
%ADD18R,1.380000X0.450000*%
%TD*%
%TA.AperFunction,SMDPad,CuDef*%
%ADD19R,0.400000X1.200000*%
%TD*%
%TA.AperFunction,ComponentPad*%
%ADD20C,1.200000*%
%TD*%
%TA.AperFunction,ViaPad*%
%ADD21C,0.800000*%
%TD*%
%TA.AperFunction,Conductor*%
%ADD22C,0.300000*%
%TD*%
%TA.AperFunction,Conductor*%
%ADD23C,0.500000*%
%TD*%
%TA.AperFunction,Conductor*%
%ADD24C,0.400000*%
%TD*%
%TA.AperFunction,Conductor*%
%ADD25C,0.254000*%
%TD*%
%TA.AperFunction,Conductor*%
%ADD26C,0.100000*%
%TD*%
G04 APERTURE END LIST*
%TO.P,R10,2*%
%TO.N,GND*%
%TA.AperFunction,SMDPad,CuDef*%
G36*
G01*
X121125000Y-130037500D02*
X121125000Y-129562500D01*
G75*
G02*
X121362500Y-129325000I237500J0D01*
G01*
X121862500Y-129325000D01*
G75*
G02*
X122100000Y-129562500I0J-237500D01*
G01*
X122100000Y-130037500D01*
G75*
G02*
X121862500Y-130275000I-237500J0D01*
G01*
X121362500Y-130275000D01*
G75*
G02*
X121125000Y-130037500I0J237500D01*
G01*
G37*
%TD.AperFunction*%
%TO.P,R10,1*%
%TO.N,Net-(R10-Pad1)*%
%TA.AperFunction,SMDPad,CuDef*%
G36*
G01*
X119300000Y-130037500D02*
X119300000Y-129562500D01*
G75*
G02*
X119537500Y-129325000I237500J0D01*
G01*
X120037500Y-129325000D01*
G75*
G02*
X120275000Y-129562500I0J-237500D01*
G01*
X120275000Y-130037500D01*
G75*
G02*
X120037500Y-130275000I-237500J0D01*
G01*
X119537500Y-130275000D01*
G75*
G02*
X119300000Y-130037500I0J237500D01*
G01*
G37*
%TD.AperFunction*%
%TD*%
%TO.P,R9,2*%
%TO.N,+3V3*%
%TA.AperFunction,SMDPad,CuDef*%
G36*
G01*
X121125000Y-128537500D02*
X121125000Y-128062500D01*
G75*
G02*
X121362500Y-127825000I237500J0D01*
G01*
X121862500Y-127825000D01*
G75*
G02*
X122100000Y-128062500I0J-237500D01*
G01*
X122100000Y-128537500D01*
G75*
G02*
X121862500Y-128775000I-237500J0D01*
G01*
X121362500Y-128775000D01*
G75*
G02*
X121125000Y-128537500I0J237500D01*
G01*
G37*
%TD.AperFunction*%
%TO.P,R9,1*%
%TO.N,Net-(R10-Pad1)*%
%TA.AperFunction,SMDPad,CuDef*%
G36*
G01*
X119300000Y-128537500D02*
X119300000Y-128062500D01*
G75*
G02*
X119537500Y-127825000I237500J0D01*
G01*
X120037500Y-127825000D01*
G75*
G02*
X120275000Y-128062500I0J-237500D01*
G01*
X120275000Y-128537500D01*
G75*
G02*
X120037500Y-128775000I-237500J0D01*
G01*
X119537500Y-128775000D01*
G75*
G02*
X119300000Y-128537500I0J237500D01*
G01*
G37*
%TD.AperFunction*%
%TD*%
%TO.P,U2,32*%
%TO.N,GND*%
%TA.AperFunction,SMDPad,CuDef*%
G36*
G01*
X122350000Y-122150000D02*
X121100000Y-122150000D01*
G75*
G02*
X120975000Y-122025000I0J125000D01*
G01*
X120975000Y-121775000D01*
G75*
G02*
X121100000Y-121650000I125000J0D01*
G01*
X122350000Y-121650000D01*
G75*
G02*
X122475000Y-121775000I0J-125000D01*
G01*
X122475000Y-122025000D01*
G75*
G02*
X122350000Y-122150000I-125000J0D01*
G01*
G37*
%TD.AperFunction*%
%TO.P,U2,31*%
%TO.N,Net-(R10-Pad1)*%
%TA.AperFunction,SMDPad,CuDef*%
G36*
G01*
X122350000Y-121350000D02*
X121100000Y-121350000D01*
G75*
G02*
X120975000Y-121225000I0J125000D01*
G01*
X120975000Y-120975000D01*
G75*
G02*
X121100000Y-120850000I125000J0D01*
G01*
X122350000Y-120850000D01*
G75*
G02*
X122475000Y-120975000I0J-125000D01*
G01*
X122475000Y-121225000D01*
G75*
G02*
X122350000Y-121350000I-125000J0D01*
G01*
G37*
%TD.AperFunction*%
%TO.P,U2,30*%
%TO.N,SDA1*%
%TA.AperFunction,SMDPad,CuDef*%
G36*
G01*
X122350000Y-120550000D02*
X121100000Y-120550000D01*
G75*
G02*
X120975000Y-120425000I0J125000D01*
G01*
X120975000Y-120175000D01*
G75*
G02*
X121100000Y-120050000I125000J0D01*
G01*
X122350000Y-120050000D01*
G75*
G02*
X122475000Y-120175000I0J-125000D01*
G01*
X122475000Y-120425000D01*
G75*
G02*
X122350000Y-120550000I-125000J0D01*
G01*
G37*
%TD.AperFunction*%
%TO.P,U2,29*%
%TO.N,SCL1*%
%TA.AperFunction,SMDPad,CuDef*%
G36*
G01*
X122350000Y-119750000D02*
X121100000Y-119750000D01*
G75*
G02*
X120975000Y-119625000I0J125000D01*
G01*
X120975000Y-119375000D01*
G75*
G02*
X121100000Y-119250000I125000J0D01*
G01*
X122350000Y-119250000D01*
G75*
G02*
X122475000Y-119375000I0J-125000D01*
G01*
X122475000Y-119625000D01*
G75*
G02*
X122350000Y-119750000I-125000J0D01*
G01*
G37*
%TD.AperFunction*%
%TO.P,U2,28*%
%TO.N,SDA2*%
%TA.AperFunction,SMDPad,CuDef*%
G36*
G01*
X122350000Y-118950000D02*
X121100000Y-118950000D01*
G75*
G02*
X120975000Y-118825000I0J125000D01*
G01*
X120975000Y-118575000D01*
G75*
G02*
X121100000Y-118450000I125000J0D01*
G01*
X122350000Y-118450000D01*
G75*
G02*
X122475000Y-118575000I0J-125000D01*
G01*
X122475000Y-118825000D01*
G75*
G02*
X122350000Y-118950000I-125000J0D01*
G01*
G37*
%TD.AperFunction*%
%TO.P,U2,27*%
%TO.N,SCL2*%
%TA.AperFunction,SMDPad,CuDef*%
G36*
G01*
X122350000Y-118150000D02*
X121100000Y-118150000D01*
G75*
G02*
X120975000Y-118025000I0J125000D01*
G01*
X120975000Y-117775000D01*
G75*
G02*
X121100000Y-117650000I125000J0D01*
G01*
X122350000Y-117650000D01*
G75*
G02*
X122475000Y-117775000I0J-125000D01*
G01*
X122475000Y-118025000D01*
G75*
G02*
X122350000Y-118150000I-125000J0D01*
G01*
G37*
%TD.AperFunction*%
%TO.P,U2,26*%
%TO.N,SDA3*%
%TA.AperFunction,SMDPad,CuDef*%
G36*
G01*
X122350000Y-117350000D02*
X121100000Y-117350000D01*
G75*
G02*
X120975000Y-117225000I0J125000D01*
G01*
X120975000Y-116975000D01*
G75*
G02*
X121100000Y-116850000I125000J0D01*
G01*
X122350000Y-116850000D01*
G75*
G02*
X122475000Y-116975000I0J-125000D01*
G01*
X122475000Y-117225000D01*
G75*
G02*
X122350000Y-117350000I-125000J0D01*
G01*
G37*
%TD.AperFunction*%
%TO.P,U2,25*%
%TO.N,SCL3*%
%TA.AperFunction,SMDPad,CuDef*%
G36*
G01*
X122350000Y-116550000D02*
X121100000Y-116550000D01*
G75*
G02*
X120975000Y-116425000I0J125000D01*
G01*
X120975000Y-116175000D01*
G75*
G02*
X121100000Y-116050000I125000J0D01*
G01*
X122350000Y-116050000D01*
G75*
G02*
X122475000Y-116175000I0J-125000D01*
G01*
X122475000Y-116425000D01*
G75*
G02*
X122350000Y-116550000I-125000J0D01*
G01*
G37*
%TD.AperFunction*%
%TO.P,U2,24*%
%TO.N,/SYS_SWCLK*%
%TA.AperFunction,SMDPad,CuDef*%
G36*
G01*
X123225000Y-115675000D02*
X122975000Y-115675000D01*
G75*
G02*
X122850000Y-115550000I0J125000D01*
G01*
X122850000Y-114300000D01*
G75*
G02*
X122975000Y-114175000I125000J0D01*
G01*
X123225000Y-114175000D01*
G75*
G02*
X123350000Y-114300000I0J-125000D01*
G01*
X123350000Y-115550000D01*
G75*
G02*
X123225000Y-115675000I-125000J0D01*
G01*
G37*
%TD.AperFunction*%
%TO.P,U2,23*%
%TO.N,/SYS_SWDIO*%
%TA.AperFunction,SMDPad,CuDef*%
G36*
G01*
X124025000Y-115675000D02*
X123775000Y-115675000D01*
G75*
G02*
X123650000Y-115550000I0J125000D01*
G01*
X123650000Y-114300000D01*
G75*
G02*
X123775000Y-114175000I125000J0D01*
G01*
X124025000Y-114175000D01*
G75*
G02*
X124150000Y-114300000I0J-125000D01*
G01*
X124150000Y-115550000D01*
G75*
G02*
X124025000Y-115675000I-125000J0D01*
G01*
G37*
%TD.AperFunction*%
%TO.P,U2,22*%
%TO.N,N/C*%
%TA.AperFunction,SMDPad,CuDef*%
G36*
G01*
X124825000Y-115675000D02*
X124575000Y-115675000D01*
G75*
G02*
X124450000Y-115550000I0J125000D01*
G01*
X124450000Y-114300000D01*
G75*
G02*
X124575000Y-114175000I125000J0D01*
G01*
X124825000Y-114175000D01*
G75*
G02*
X124950000Y-114300000I0J-125000D01*
G01*
X124950000Y-115550000D01*
G75*
G02*
X124825000Y-115675000I-125000J0D01*
G01*
G37*
%TD.AperFunction*%
%TO.P,U2,21*%
%TO.N,LED1*%
%TA.AperFunction,SMDPad,CuDef*%
G36*
G01*
X125625000Y-115675000D02*
X125375000Y-115675000D01*
G75*
G02*
X125250000Y-115550000I0J125000D01*
G01*
X125250000Y-114300000D01*
G75*
G02*
X125375000Y-114175000I125000J0D01*
G01*
X125625000Y-114175000D01*
G75*
G02*
X125750000Y-114300000I0J-125000D01*
G01*
X125750000Y-115550000D01*
G75*
G02*
X125625000Y-115675000I-125000J0D01*
G01*
G37*
%TD.AperFunction*%
%TO.P,U2,20*%
%TO.N,LED2*%
%TA.AperFunction,SMDPad,CuDef*%
G36*
G01*
X126425000Y-115675000D02*
X126175000Y-115675000D01*
G75*
G02*
X126050000Y-115550000I0J125000D01*
G01*
X126050000Y-114300000D01*
G75*
G02*
X126175000Y-114175000I125000J0D01*
G01*
X126425000Y-114175000D01*
G75*
G02*
X126550000Y-114300000I0J-125000D01*
G01*
X126550000Y-115550000D01*
G75*
G02*
X126425000Y-115675000I-125000J0D01*
G01*
G37*
%TD.AperFunction*%
%TO.P,U2,19*%
%TO.N,LED3*%
%TA.AperFunction,SMDPad,CuDef*%
G36*
G01*
X127225000Y-115675000D02*
X126975000Y-115675000D01*
G75*
G02*
X126850000Y-115550000I0J125000D01*
G01*
X126850000Y-114300000D01*
G75*
G02*
X126975000Y-114175000I125000J0D01*
G01*
X127225000Y-114175000D01*
G75*
G02*
X127350000Y-114300000I0J-125000D01*
G01*
X127350000Y-115550000D01*
G75*
G02*
X127225000Y-115675000I-125000J0D01*
G01*
G37*
%TD.AperFunction*%
%TO.P,U2,18*%
%TO.N,LED4*%
%TA.AperFunction,SMDPad,CuDef*%
G36*
G01*
X128025000Y-115675000D02*
X127775000Y-115675000D01*
G75*
G02*
X127650000Y-115550000I0J125000D01*
G01*
X127650000Y-114300000D01*
G75*
G02*
X127775000Y-114175000I125000J0D01*
G01*
X128025000Y-114175000D01*
G75*
G02*
X128150000Y-114300000I0J-125000D01*
G01*
X128150000Y-115550000D01*
G75*
G02*
X128025000Y-115675000I-125000J0D01*
G01*
G37*
%TD.AperFunction*%
%TO.P,U2,17*%
%TO.N,+3V3*%
%TA.AperFunction,SMDPad,CuDef*%
G36*
G01*
X128825000Y-115675000D02*
X128575000Y-115675000D01*
G75*
G02*
X128450000Y-115550000I0J125000D01*
G01*
X128450000Y-114300000D01*
G75*
G02*
X128575000Y-114175000I125000J0D01*
G01*
X128825000Y-114175000D01*
G75*
G02*
X128950000Y-114300000I0J-125000D01*
G01*
X128950000Y-115550000D01*
G75*
G02*
X128825000Y-115675000I-125000J0D01*
G01*
G37*
%TD.AperFunction*%
%TO.P,U2,16*%
%TO.N,GND*%
%TA.AperFunction,SMDPad,CuDef*%
G36*
G01*
X130700000Y-116550000D02*
X129450000Y-116550000D01*
G75*
G02*
X129325000Y-116425000I0J125000D01*
G01*
X129325000Y-116175000D01*
G75*
G02*
X129450000Y-116050000I125000J0D01*
G01*
X130700000Y-116050000D01*
G75*
G02*
X130825000Y-116175000I0J-125000D01*
G01*
X130825000Y-116425000D01*
G75*
G02*
X130700000Y-116550000I-125000J0D01*
G01*
G37*
%TD.AperFunction*%
%TO.P,U2,15*%
%TO.N,SCL5*%
%TA.AperFunction,SMDPad,CuDef*%
G36*
G01*
X130700000Y-117350000D02*
X129450000Y-117350000D01*
G75*
G02*
X129325000Y-117225000I0J125000D01*
G01*
X129325000Y-116975000D01*
G75*
G02*
X129450000Y-116850000I125000J0D01*
G01*
X130700000Y-116850000D01*
G75*
G02*
X130825000Y-116975000I0J-125000D01*
G01*
X130825000Y-117225000D01*
G75*
G02*
X130700000Y-117350000I-125000J0D01*
G01*
G37*
%TD.AperFunction*%
%TO.P,U2,14*%
%TO.N,SDA5*%
%TA.AperFunction,SMDPad,CuDef*%
G36*
G01*
X130700000Y-118150000D02*
X129450000Y-118150000D01*
G75*
G02*
X129325000Y-118025000I0J125000D01*
G01*
X129325000Y-117775000D01*
G75*
G02*
X129450000Y-117650000I125000J0D01*
G01*
X130700000Y-117650000D01*
G75*
G02*
X130825000Y-117775000I0J-125000D01*
G01*
X130825000Y-118025000D01*
G75*
G02*
X130700000Y-118150000I-125000J0D01*
G01*
G37*
%TD.AperFunction*%
%TO.P,U2,13*%
%TO.N,LED5*%
%TA.AperFunction,SMDPad,CuDef*%
G36*
G01*
X130700000Y-118950000D02*
X129450000Y-118950000D01*
G75*
G02*
X129325000Y-118825000I0J125000D01*
G01*
X129325000Y-118575000D01*
G75*
G02*
X129450000Y-118450000I125000J0D01*
G01*
X130700000Y-118450000D01*
G75*
G02*
X130825000Y-118575000I0J-125000D01*
G01*
X130825000Y-118825000D01*
G75*
G02*
X130700000Y-118950000I-125000J0D01*
G01*
G37*
%TD.AperFunction*%
%TO.P,U2,12*%
%TO.N,SCL4*%
%TA.AperFunction,SMDPad,CuDef*%
G36*
G01*
X130700000Y-119750000D02*
X129450000Y-119750000D01*
G75*
G02*
X129325000Y-119625000I0J125000D01*
G01*
X129325000Y-119375000D01*
G75*
G02*
X129450000Y-119250000I125000J0D01*
G01*
X130700000Y-119250000D01*
G75*
G02*
X130825000Y-119375000I0J-125000D01*
G01*
X130825000Y-119625000D01*
G75*
G02*
X130700000Y-119750000I-125000J0D01*
G01*
G37*
%TD.AperFunction*%
%TO.P,U2,11*%
%TO.N,SDA4*%
%TA.AperFunction,SMDPad,CuDef*%
G36*
G01*
X130700000Y-120550000D02*
X129450000Y-120550000D01*
G75*
G02*
X129325000Y-120425000I0J125000D01*
G01*
X129325000Y-120175000D01*
G75*
G02*
X129450000Y-120050000I125000J0D01*
G01*
X130700000Y-120050000D01*
G75*
G02*
X130825000Y-120175000I0J-125000D01*
G01*
X130825000Y-120425000D01*
G75*
G02*
X130700000Y-120550000I-125000J0D01*
G01*
G37*
%TD.AperFunction*%
%TO.P,U2,10*%
%TO.N,N/C*%
%TA.AperFunction,SMDPad,CuDef*%
G36*
G01*
X130700000Y-121350000D02*
X129450000Y-121350000D01*
G75*
G02*
X129325000Y-121225000I0J125000D01*
G01*
X129325000Y-120975000D01*
G75*
G02*
X129450000Y-120850000I125000J0D01*
G01*
X130700000Y-120850000D01*
G75*
G02*
X130825000Y-120975000I0J-125000D01*
G01*
X130825000Y-121225000D01*
G75*
G02*
X130700000Y-121350000I-125000J0D01*
G01*
G37*
%TD.AperFunction*%
%TO.P,U2,9*%
%TO.N,/USART1_Rx*%
%TA.AperFunction,SMDPad,CuDef*%
G36*
G01*
X130700000Y-122150000D02*
X129450000Y-122150000D01*
G75*
G02*
X129325000Y-122025000I0J125000D01*
G01*
X129325000Y-121775000D01*
G75*
G02*
X129450000Y-121650000I125000J0D01*
G01*
X130700000Y-121650000D01*
G75*
G02*
X130825000Y-121775000I0J-125000D01*
G01*
X130825000Y-122025000D01*
G75*
G02*
X130700000Y-122150000I-125000J0D01*
G01*
G37*
%TD.AperFunction*%
%TO.P,U2,8*%
%TO.N,/USART1_TX*%
%TA.AperFunction,SMDPad,CuDef*%
G36*
G01*
X128825000Y-124025000D02*
X128575000Y-124025000D01*
G75*
G02*
X128450000Y-123900000I0J125000D01*
G01*
X128450000Y-122650000D01*
G75*
G02*
X128575000Y-122525000I125000J0D01*
G01*
X128825000Y-122525000D01*
G75*
G02*
X128950000Y-122650000I0J-125000D01*
G01*
X128950000Y-123900000D01*
G75*
G02*
X128825000Y-124025000I-125000J0D01*
G01*
G37*
%TD.AperFunction*%
%TO.P,U2,7*%
%TO.N,N/C*%
%TA.AperFunction,SMDPad,CuDef*%
G36*
G01*
X128025000Y-124025000D02*
X127775000Y-124025000D01*
G75*
G02*
X127650000Y-123900000I0J125000D01*
G01*
X127650000Y-122650000D01*
G75*
G02*
X127775000Y-122525000I125000J0D01*
G01*
X128025000Y-122525000D01*
G75*
G02*
X128150000Y-122650000I0J-125000D01*
G01*
X128150000Y-123900000D01*
G75*
G02*
X128025000Y-124025000I-125000J0D01*
G01*
G37*
%TD.AperFunction*%
%TO.P,U2,6*%
%TA.AperFunction,SMDPad,CuDef*%
G36*
G01*
X127225000Y-124025000D02*
X126975000Y-124025000D01*
G75*
G02*
X126850000Y-123900000I0J125000D01*
G01*
X126850000Y-122650000D01*
G75*
G02*
X126975000Y-122525000I125000J0D01*
G01*
X127225000Y-122525000D01*
G75*
G02*
X127350000Y-122650000I0J-125000D01*
G01*
X127350000Y-123900000D01*
G75*
G02*
X127225000Y-124025000I-125000J0D01*
G01*
G37*
%TD.AperFunction*%
%TO.P,U2,5*%
%TO.N,+3V3*%
%TA.AperFunction,SMDPad,CuDef*%
G36*
G01*
X126425000Y-124025000D02*
X126175000Y-124025000D01*
G75*
G02*
X126050000Y-123900000I0J125000D01*
G01*
X126050000Y-122650000D01*
G75*
G02*
X126175000Y-122525000I125000J0D01*
G01*
X126425000Y-122525000D01*
G75*
G02*
X126550000Y-122650000I0J-125000D01*
G01*
X126550000Y-123900000D01*
G75*
G02*
X126425000Y-124025000I-125000J0D01*
G01*
G37*
%TD.AperFunction*%
%TO.P,U2,4*%
%TO.N,/RESET*%
%TA.AperFunction,SMDPad,CuDef*%
G36*
G01*
X125625000Y-124025000D02*
X125375000Y-124025000D01*
G75*
G02*
X125250000Y-123900000I0J125000D01*
G01*
X125250000Y-122650000D01*
G75*
G02*
X125375000Y-122525000I125000J0D01*
G01*
X125625000Y-122525000D01*
G75*
G02*
X125750000Y-122650000I0J-125000D01*
G01*
X125750000Y-123900000D01*
G75*
G02*
X125625000Y-124025000I-125000J0D01*
G01*
G37*
%TD.AperFunction*%
%TO.P,U2,3*%
%TO.N,Net-(C16-Pad1)*%
%TA.AperFunction,SMDPad,CuDef*%
G36*
G01*
X124825000Y-124025000D02*
X124575000Y-124025000D01*
G75*
G02*
X124450000Y-123900000I0J125000D01*
G01*
X124450000Y-122650000D01*
G75*
G02*
X124575000Y-122525000I125000J0D01*
G01*
X124825000Y-122525000D01*
G75*
G02*
X124950000Y-122650000I0J-125000D01*
G01*
X124950000Y-123900000D01*
G75*
G02*
X124825000Y-124025000I-125000J0D01*
G01*
G37*
%TD.AperFunction*%
%TO.P,U2,2*%
%TO.N,Net-(C15-Pad1)*%
%TA.AperFunction,SMDPad,CuDef*%
G36*
G01*
X124025000Y-124025000D02*
X123775000Y-124025000D01*
G75*
G02*
X123650000Y-123900000I0J125000D01*
G01*
X123650000Y-122650000D01*
G75*
G02*
X123775000Y-122525000I125000J0D01*
G01*
X124025000Y-122525000D01*
G75*
G02*
X124150000Y-122650000I0J-125000D01*
G01*
X124150000Y-123900000D01*
G75*
G02*
X124025000Y-124025000I-125000J0D01*
G01*
G37*
%TD.AperFunction*%
%TO.P,U2,1*%
%TO.N,+3V3*%
%TA.AperFunction,SMDPad,CuDef*%
G36*
G01*
X123225000Y-124025000D02*
X122975000Y-124025000D01*
G75*
G02*
X122850000Y-123900000I0J125000D01*
G01*
X122850000Y-122650000D01*
G75*
G02*
X122975000Y-122525000I125000J0D01*
G01*
X123225000Y-122525000D01*
G75*
G02*
X123350000Y-122650000I0J-125000D01*
G01*
X123350000Y-123900000D01*
G75*
G02*
X123225000Y-124025000I-125000J0D01*
G01*
G37*
%TD.AperFunction*%
%TD*%
%TO.P,R7,2*%
%TO.N,Net-(R7-Pad2)*%
%TA.AperFunction,SMDPad,CuDef*%
G36*
G01*
X129437500Y-127475000D02*
X128962500Y-127475000D01*
G75*
G02*
X128725000Y-127237500I0J237500D01*
G01*
X128725000Y-126737500D01*
G75*
G02*
X128962500Y-126500000I237500J0D01*
G01*
X129437500Y-126500000D01*
G75*
G02*
X129675000Y-126737500I0J-237500D01*
G01*
X129675000Y-127237500D01*
G75*
G02*
X129437500Y-127475000I-237500J0D01*
G01*
G37*
%TD.AperFunction*%
%TO.P,R7,1*%
%TO.N,/RESET*%
%TA.AperFunction,SMDPad,CuDef*%
G36*
G01*
X129437500Y-129300000D02*
X128962500Y-129300000D01*
G75*
G02*
X128725000Y-129062500I0J237500D01*
G01*
X128725000Y-128562500D01*
G75*
G02*
X128962500Y-128325000I237500J0D01*
G01*
X129437500Y-128325000D01*
G75*
G02*
X129675000Y-128562500I0J-237500D01*
G01*
X129675000Y-129062500D01*
G75*
G02*
X129437500Y-129300000I-237500J0D01*
G01*
G37*
%TD.AperFunction*%
%TD*%
%TO.P,C1,2*%
%TO.N,GND*%
%TA.AperFunction,SMDPad,CuDef*%
G36*
G01*
X140825000Y-116537500D02*
X140825000Y-116062500D01*
G75*
G02*
X141062500Y-115825000I237500J0D01*
G01*
X141662500Y-115825000D01*
G75*
G02*
X141900000Y-116062500I0J-237500D01*
G01*
X141900000Y-116537500D01*
G75*
G02*
X141662500Y-116775000I-237500J0D01*
G01*
X141062500Y-116775000D01*
G75*
G02*
X140825000Y-116537500I0J237500D01*
G01*
G37*
%TD.AperFunction*%
%TO.P,C1,1*%
%TO.N,Net-(C1-Pad1)*%
%TA.AperFunction,SMDPad,CuDef*%
G36*
G01*
X139100000Y-116537500D02*
X139100000Y-116062500D01*
G75*
G02*
X139337500Y-115825000I237500J0D01*
G01*
X139937500Y-115825000D01*
G75*
G02*
X140175000Y-116062500I0J-237500D01*
G01*
X140175000Y-116537500D01*
G75*
G02*
X139937500Y-116775000I-237500J0D01*
G01*
X139337500Y-116775000D01*
G75*
G02*
X139100000Y-116537500I0J237500D01*
G01*
G37*
%TD.AperFunction*%
%TD*%
D10*
%TO.P,J3,10*%
%TO.N,/RESET*%
X117120000Y-110970000D03*
%TO.P,J3,9*%
%TO.N,GND*%
X117120000Y-109700000D03*
%TO.P,J3,8*%
%TO.N,N/C*%
X118390000Y-110970000D03*
%TO.P,J3,7*%
X118390000Y-109700000D03*
%TO.P,J3,6*%
X119660000Y-110970000D03*
%TO.P,J3,5*%
%TO.N,GND*%
X119660000Y-109700000D03*
%TO.P,J3,4*%
%TO.N,/SYS_SWCLK*%
X120930000Y-110970000D03*
%TO.P,J3,3*%
%TO.N,GND*%
X120930000Y-109700000D03*
%TO.P,J3,2*%
%TO.N,/SYS_SWDIO*%
X122200000Y-110970000D03*
D11*
%TO.P,J3,1*%
%TO.N,+3V3*%
X122200000Y-109700000D03*
%TD*%
D12*
%TO.P,U1,1*%
%TO.N,GND*%
X139950000Y-109400000D03*
%TO.P,U1,3*%
%TO.N,Net-(C1-Pad1)*%
X139950000Y-114000000D03*
%TO.P,U1,2*%
%TO.N,+3V3*%
X139950000Y-111700000D03*
D13*
X146250000Y-111700000D03*
%TD*%
%TO.P,R8,2*%
%TO.N,Net-(C14-Pad1)*%
%TA.AperFunction,SMDPad,CuDef*%
G36*
G01*
X145625000Y-119037500D02*
X145625000Y-118562500D01*
G75*
G02*
X145862500Y-118325000I237500J0D01*
G01*
X146362500Y-118325000D01*
G75*
G02*
X146600000Y-118562500I0J-237500D01*
G01*
X146600000Y-119037500D01*
G75*
G02*
X146362500Y-119275000I-237500J0D01*
G01*
X145862500Y-119275000D01*
G75*
G02*
X145625000Y-119037500I0J237500D01*
G01*
G37*
%TD.AperFunction*%
%TO.P,R8,1*%
%TO.N,GND*%
%TA.AperFunction,SMDPad,CuDef*%
G36*
G01*
X143800000Y-119037500D02*
X143800000Y-118562500D01*
G75*
G02*
X144037500Y-118325000I237500J0D01*
G01*
X144537500Y-118325000D01*
G75*
G02*
X144775000Y-118562500I0J-237500D01*
G01*
X144775000Y-119037500D01*
G75*
G02*
X144537500Y-119275000I-237500J0D01*
G01*
X144037500Y-119275000D01*
G75*
G02*
X143800000Y-119037500I0J237500D01*
G01*
G37*
%TD.AperFunction*%
%TD*%
D14*
%TO.P,J2,6*%
%TO.N,Net-(C14-Pad1)*%
X146500000Y-123250000D03*
D15*
X146500000Y-125950000D03*
D16*
X146500000Y-121425000D03*
X146500000Y-128175000D03*
D17*
X143925000Y-122312500D03*
X143925000Y-127287500D03*
D18*
%TO.P,J2,5*%
%TO.N,GND*%
X143840000Y-123500000D03*
%TO.P,J2,4*%
X143840000Y-124150000D03*
%TO.P,J2,3*%
%TO.N,Net-(C8-Pad1)*%
X143840000Y-124800000D03*
%TO.P,J2,2*%
%TO.N,Net-(C7-Pad1)*%
X143840000Y-125450000D03*
%TO.P,J2,1*%
%TO.N,Net-(C12-Pad1)*%
X143840000Y-126100000D03*
%TD*%
%TO.P,FB1,2*%
%TO.N,Net-(C12-Pad1)*%
%TA.AperFunction,SMDPad,CuDef*%
G36*
G01*
X140450000Y-130737500D02*
X140450000Y-130262500D01*
G75*
G02*
X140687500Y-130025000I237500J0D01*
G01*
X141262500Y-130025000D01*
G75*
G02*
X141500000Y-130262500I0J-237500D01*
G01*
X141500000Y-130737500D01*
G75*
G02*
X141262500Y-130975000I-237500J0D01*
G01*
X140687500Y-130975000D01*
G75*
G02*
X140450000Y-130737500I0J237500D01*
G01*
G37*
%TD.AperFunction*%
%TO.P,FB1,1*%
%TO.N,Net-(C1-Pad1)*%
%TA.AperFunction,SMDPad,CuDef*%
G36*
G01*
X138700000Y-130737500D02*
X138700000Y-130262500D01*
G75*
G02*
X138937500Y-130025000I237500J0D01*
G01*
X139512500Y-130025000D01*
G75*
G02*
X139750000Y-130262500I0J-237500D01*
G01*
X139750000Y-130737500D01*
G75*
G02*
X139512500Y-130975000I-237500J0D01*
G01*
X138937500Y-130975000D01*
G75*
G02*
X138700000Y-130737500I0J237500D01*
G01*
G37*
%TD.AperFunction*%
%TD*%
%TO.P,C14,2*%
%TO.N,GND*%
%TA.AperFunction,SMDPad,CuDef*%
G36*
G01*
X144975000Y-130362500D02*
X144975000Y-130837500D01*
G75*
G02*
X144737500Y-131075000I-237500J0D01*
G01*
X144137500Y-131075000D01*
G75*
G02*
X143900000Y-130837500I0J237500D01*
G01*
X143900000Y-130362500D01*
G75*
G02*
X144137500Y-130125000I237500J0D01*
G01*
X144737500Y-130125000D01*
G75*
G02*
X144975000Y-130362500I0J-237500D01*
G01*
G37*
%TD.AperFunction*%
%TO.P,C14,1*%
%TO.N,Net-(C14-Pad1)*%
%TA.AperFunction,SMDPad,CuDef*%
G36*
G01*
X146700000Y-130362500D02*
X146700000Y-130837500D01*
G75*
G02*
X146462500Y-131075000I-237500J0D01*
G01*
X145862500Y-131075000D01*
G75*
G02*
X145625000Y-130837500I0J237500D01*
G01*
X145625000Y-130362500D01*
G75*
G02*
X145862500Y-130125000I237500J0D01*
G01*
X146462500Y-130125000D01*
G75*
G02*
X146700000Y-130362500I0J-237500D01*
G01*
G37*
%TD.AperFunction*%
%TD*%
%TO.P,C13,2*%
%TO.N,GND*%
%TA.AperFunction,SMDPad,CuDef*%
G36*
G01*
X134075000Y-120962500D02*
X134075000Y-121437500D01*
G75*
G02*
X133837500Y-121675000I-237500J0D01*
G01*
X133237500Y-121675000D01*
G75*
G02*
X133000000Y-121437500I0J237500D01*
G01*
X133000000Y-120962500D01*
G75*
G02*
X133237500Y-120725000I237500J0D01*
G01*
X133837500Y-120725000D01*
G75*
G02*
X134075000Y-120962500I0J-237500D01*
G01*
G37*
%TD.AperFunction*%
%TO.P,C13,1*%
%TO.N,Net-(C13-Pad1)*%
%TA.AperFunction,SMDPad,CuDef*%
G36*
G01*
X135800000Y-120962500D02*
X135800000Y-121437500D01*
G75*
G02*
X135562500Y-121675000I-237500J0D01*
G01*
X134962500Y-121675000D01*
G75*
G02*
X134725000Y-121437500I0J237500D01*
G01*
X134725000Y-120962500D01*
G75*
G02*
X134962500Y-120725000I237500J0D01*
G01*
X135562500Y-120725000D01*
G75*
G02*
X135800000Y-120962500I0J-237500D01*
G01*
G37*
%TD.AperFunction*%
%TD*%
%TO.P,C12,2*%
%TO.N,GND*%
%TA.AperFunction,SMDPad,CuDef*%
G36*
G01*
X139775000Y-128762500D02*
X139775000Y-129237500D01*
G75*
G02*
X139537500Y-129475000I-237500J0D01*
G01*
X138937500Y-129475000D01*
G75*
G02*
X138700000Y-129237500I0J237500D01*
G01*
X138700000Y-128762500D01*
G75*
G02*
X138937500Y-128525000I237500J0D01*
G01*
X139537500Y-128525000D01*
G75*
G02*
X139775000Y-128762500I0J-237500D01*
G01*
G37*
%TD.AperFunction*%
%TO.P,C12,1*%
%TO.N,Net-(C12-Pad1)*%
%TA.AperFunction,SMDPad,CuDef*%
G36*
G01*
X141500000Y-128762500D02*
X141500000Y-129237500D01*
G75*
G02*
X141262500Y-129475000I-237500J0D01*
G01*
X140662500Y-129475000D01*
G75*
G02*
X140425000Y-129237500I0J237500D01*
G01*
X140425000Y-128762500D01*
G75*
G02*
X140662500Y-128525000I237500J0D01*
G01*
X141262500Y-128525000D01*
G75*
G02*
X141500000Y-128762500I0J-237500D01*
G01*
G37*
%TD.AperFunction*%
%TD*%
%TO.P,C11,2*%
%TO.N,GND*%
%TA.AperFunction,SMDPad,CuDef*%
G36*
G01*
X134425000Y-130737500D02*
X134425000Y-130262500D01*
G75*
G02*
X134662500Y-130025000I237500J0D01*
G01*
X135262500Y-130025000D01*
G75*
G02*
X135500000Y-130262500I0J-237500D01*
G01*
X135500000Y-130737500D01*
G75*
G02*
X135262500Y-130975000I-237500J0D01*
G01*
X134662500Y-130975000D01*
G75*
G02*
X134425000Y-130737500I0J237500D01*
G01*
G37*
%TD.AperFunction*%
%TO.P,C11,1*%
%TO.N,+3V3*%
%TA.AperFunction,SMDPad,CuDef*%
G36*
G01*
X132700000Y-130737500D02*
X132700000Y-130262500D01*
G75*
G02*
X132937500Y-130025000I237500J0D01*
G01*
X133537500Y-130025000D01*
G75*
G02*
X133775000Y-130262500I0J-237500D01*
G01*
X133775000Y-130737500D01*
G75*
G02*
X133537500Y-130975000I-237500J0D01*
G01*
X132937500Y-130975000D01*
G75*
G02*
X132700000Y-130737500I0J237500D01*
G01*
G37*
%TD.AperFunction*%
%TD*%
%TO.P,C10,2*%
%TO.N,GND*%
%TA.AperFunction,SMDPad,CuDef*%
G36*
G01*
X136150000Y-110825000D02*
X135050000Y-110825000D01*
G75*
G02*
X134800000Y-110575000I0J250000D01*
G01*
X134800000Y-108300000D01*
G75*
G02*
X135050000Y-108050000I250000J0D01*
G01*
X136150000Y-108050000D01*
G75*
G02*
X136400000Y-108300000I0J-250000D01*
G01*
X136400000Y-110575000D01*
G75*
G02*
X136150000Y-110825000I-250000J0D01*
G01*
G37*
%TD.AperFunction*%
%TO.P,C10,1*%
%TO.N,+3V3*%
%TA.AperFunction,SMDPad,CuDef*%
G36*
G01*
X136150000Y-114950000D02*
X135050000Y-114950000D01*
G75*
G02*
X134800000Y-114700000I0J250000D01*
G01*
X134800000Y-112425000D01*
G75*
G02*
X135050000Y-112175000I250000J0D01*
G01*
X136150000Y-112175000D01*
G75*
G02*
X136400000Y-112425000I0J-250000D01*
G01*
X136400000Y-114700000D01*
G75*
G02*
X136150000Y-114950000I-250000J0D01*
G01*
G37*
%TD.AperFunction*%
%TD*%
%TO.P,C9,2*%
%TO.N,GND*%
%TA.AperFunction,SMDPad,CuDef*%
G36*
G01*
X139750000Y-120250000D02*
X139750000Y-119150000D01*
G75*
G02*
X140000000Y-118900000I250000J0D01*
G01*
X142150000Y-118900000D01*
G75*
G02*
X142400000Y-119150000I0J-250000D01*
G01*
X142400000Y-120250000D01*
G75*
G02*
X142150000Y-120500000I-250000J0D01*
G01*
X140000000Y-120500000D01*
G75*
G02*
X139750000Y-120250000I0J250000D01*
G01*
G37*
%TD.AperFunction*%
%TO.P,C9,1*%
%TO.N,Net-(C1-Pad1)*%
%TA.AperFunction,SMDPad,CuDef*%
G36*
G01*
X136400000Y-120250000D02*
X136400000Y-119150000D01*
G75*
G02*
X136650000Y-118900000I250000J0D01*
G01*
X138800000Y-118900000D01*
G75*
G02*
X139050000Y-119150000I0J-250000D01*
G01*
X139050000Y-120250000D01*
G75*
G02*
X138800000Y-120500000I-250000J0D01*
G01*
X136650000Y-120500000D01*
G75*
G02*
X136400000Y-120250000I0J250000D01*
G01*
G37*
%TD.AperFunction*%
%TD*%
D19*
%TO.P,U3,16*%
%TO.N,Net-(R7-Pad2)*%
X132077500Y-123100000D03*
%TO.P,U3,15*%
%TO.N,Net-(R2-Pad2)*%
X132712500Y-123100000D03*
%TO.P,U3,14*%
%TO.N,N/C*%
X133347500Y-123100000D03*
%TO.P,U3,13*%
%TO.N,GND*%
X133982500Y-123100000D03*
%TO.P,U3,12*%
%TO.N,Net-(C1-Pad1)*%
X134617500Y-123100000D03*
%TO.P,U3,11*%
%TO.N,Net-(C13-Pad1)*%
X135252500Y-123100000D03*
%TO.P,U3,10*%
X135887500Y-123100000D03*
%TO.P,U3,9*%
%TO.N,Net-(R5-Pad1)*%
X136522500Y-123100000D03*
%TO.P,U3,8*%
%TO.N,Net-(R6-Pad1)*%
X136522500Y-128300000D03*
%TO.P,U3,7*%
%TO.N,N/C*%
X135887500Y-128300000D03*
%TO.P,U3,6*%
X135252500Y-128300000D03*
%TO.P,U3,5*%
%TO.N,GND*%
X134617500Y-128300000D03*
%TO.P,U3,4*%
%TO.N,/USART1_TX*%
X133982500Y-128300000D03*
%TO.P,U3,3*%
%TO.N,+3V3*%
X133347500Y-128300000D03*
%TO.P,U3,2*%
%TO.N,N/C*%
X132712500Y-128300000D03*
%TO.P,U3,1*%
%TO.N,/USART1_Rx*%
X132077500Y-128300000D03*
%TD*%
%TO.P,R6,2*%
%TO.N,Net-(C8-Pad1)*%
%TA.AperFunction,SMDPad,CuDef*%
G36*
G01*
X140525000Y-124737500D02*
X140525000Y-124262500D01*
G75*
G02*
X140762500Y-124025000I237500J0D01*
G01*
X141262500Y-124025000D01*
G75*
G02*
X141500000Y-124262500I0J-237500D01*
G01*
X141500000Y-124737500D01*
G75*
G02*
X141262500Y-124975000I-237500J0D01*
G01*
X140762500Y-124975000D01*
G75*
G02*
X140525000Y-124737500I0J237500D01*
G01*
G37*
%TD.AperFunction*%
%TO.P,R6,1*%
%TO.N,Net-(R6-Pad1)*%
%TA.AperFunction,SMDPad,CuDef*%
G36*
G01*
X138700000Y-124737500D02*
X138700000Y-124262500D01*
G75*
G02*
X138937500Y-124025000I237500J0D01*
G01*
X139437500Y-124025000D01*
G75*
G02*
X139675000Y-124262500I0J-237500D01*
G01*
X139675000Y-124737500D01*
G75*
G02*
X139437500Y-124975000I-237500J0D01*
G01*
X138937500Y-124975000D01*
G75*
G02*
X138700000Y-124737500I0J237500D01*
G01*
G37*
%TD.AperFunction*%
%TD*%
%TO.P,R5,2*%
%TO.N,Net-(C7-Pad1)*%
%TA.AperFunction,SMDPad,CuDef*%
G36*
G01*
X140525000Y-126237500D02*
X140525000Y-125762500D01*
G75*
G02*
X140762500Y-125525000I237500J0D01*
G01*
X141262500Y-125525000D01*
G75*
G02*
X141500000Y-125762500I0J-237500D01*
G01*
X141500000Y-126237500D01*
G75*
G02*
X141262500Y-126475000I-237500J0D01*
G01*
X140762500Y-126475000D01*
G75*
G02*
X140525000Y-126237500I0J237500D01*
G01*
G37*
%TD.AperFunction*%
%TO.P,R5,1*%
%TO.N,Net-(R5-Pad1)*%
%TA.AperFunction,SMDPad,CuDef*%
G36*
G01*
X138700000Y-126237500D02*
X138700000Y-125762500D01*
G75*
G02*
X138937500Y-125525000I237500J0D01*
G01*
X139437500Y-125525000D01*
G75*
G02*
X139675000Y-125762500I0J-237500D01*
G01*
X139675000Y-126237500D01*
G75*
G02*
X139437500Y-126475000I-237500J0D01*
G01*
X138937500Y-126475000D01*
G75*
G02*
X138700000Y-126237500I0J237500D01*
G01*
G37*
%TD.AperFunction*%
%TD*%
%TO.P,R2,2*%
%TO.N,Net-(R2-Pad2)*%
%TA.AperFunction,SMDPad,CuDef*%
G36*
G01*
X121125000Y-127037500D02*
X121125000Y-126562500D01*
G75*
G02*
X121362500Y-126325000I237500J0D01*
G01*
X121862500Y-126325000D01*
G75*
G02*
X122100000Y-126562500I0J-237500D01*
G01*
X122100000Y-127037500D01*
G75*
G02*
X121862500Y-127275000I-237500J0D01*
G01*
X121362500Y-127275000D01*
G75*
G02*
X121125000Y-127037500I0J237500D01*
G01*
G37*
%TD.AperFunction*%
%TO.P,R2,1*%
%TO.N,Net-(R10-Pad1)*%
%TA.AperFunction,SMDPad,CuDef*%
G36*
G01*
X119300000Y-127037500D02*
X119300000Y-126562500D01*
G75*
G02*
X119537500Y-126325000I237500J0D01*
G01*
X120037500Y-126325000D01*
G75*
G02*
X120275000Y-126562500I0J-237500D01*
G01*
X120275000Y-127037500D01*
G75*
G02*
X120037500Y-127275000I-237500J0D01*
G01*
X119537500Y-127275000D01*
G75*
G02*
X119300000Y-127037500I0J237500D01*
G01*
G37*
%TD.AperFunction*%
%TD*%
%TO.P,R1,2*%
%TO.N,/RESET*%
%TA.AperFunction,SMDPad,CuDef*%
G36*
G01*
X125962500Y-128325000D02*
X126437500Y-128325000D01*
G75*
G02*
X126675000Y-128562500I0J-237500D01*
G01*
X126675000Y-129062500D01*
G75*
G02*
X126437500Y-129300000I-237500J0D01*
G01*
X125962500Y-129300000D01*
G75*
G02*
X125725000Y-129062500I0J237500D01*
G01*
X125725000Y-128562500D01*
G75*
G02*
X125962500Y-128325000I237500J0D01*
G01*
G37*
%TD.AperFunction*%
%TO.P,R1,1*%
%TO.N,+3V3*%
%TA.AperFunction,SMDPad,CuDef*%
G36*
G01*
X125962500Y-126500000D02*
X126437500Y-126500000D01*
G75*
G02*
X126675000Y-126737500I0J-237500D01*
G01*
X126675000Y-127237500D01*
G75*
G02*
X126437500Y-127475000I-237500J0D01*
G01*
X125962500Y-127475000D01*
G75*
G02*
X125725000Y-127237500I0J237500D01*
G01*
X125725000Y-126737500D01*
G75*
G02*
X125962500Y-126500000I237500J0D01*
G01*
G37*
%TD.AperFunction*%
%TD*%
D20*
%TO.P,J1,20*%
%TO.N,SCL1*%
X112000000Y-129000000D03*
%TO.P,J1,18*%
%TO.N,SCL2*%
X112000000Y-127000000D03*
%TO.P,J1,16*%
%TO.N,SCL3*%
X112000000Y-125000000D03*
%TO.P,J1,14*%
%TO.N,SCL4*%
X112000000Y-123000000D03*
%TO.P,J1,12*%
%TO.N,SCL5*%
X112000000Y-121000000D03*
%TO.P,J1,10*%
%TO.N,LED4*%
X112000000Y-119000000D03*
%TO.P,J1,8*%
%TO.N,LED2*%
X112000000Y-117000000D03*
%TO.P,J1,6*%
%TO.N,GND*%
X112000000Y-115000000D03*
%TO.P,J1,4*%
X112000000Y-113000000D03*
%TO.P,J1,2*%
%TO.N,+3V3*%
X112000000Y-111000000D03*
%TO.P,J1,19*%
%TO.N,SDA1*%
X114000000Y-129000000D03*
%TO.P,J1,17*%
%TO.N,SDA2*%
X114000000Y-127000000D03*
%TO.P,J1,15*%
%TO.N,SDA3*%
X114000000Y-125000000D03*
%TO.P,J1,13*%
%TO.N,SDA4*%
X114000000Y-123000000D03*
%TO.P,J1,11*%
%TO.N,SDA5*%
X114000000Y-121000000D03*
%TO.P,J1,9*%
%TO.N,LED5*%
X114000000Y-119000000D03*
%TO.P,J1,7*%
%TO.N,LED3*%
X114000000Y-117000000D03*
%TO.P,J1,5*%
%TO.N,LED1*%
X114000000Y-115000000D03*
%TO.P,J1,3*%
%TO.N,GND*%
X114000000Y-113000000D03*
%TO.P,J1,1*%
%TO.N,+3V3*%
%TA.AperFunction,ComponentPad*%
G36*
G01*
X113649999Y-110400000D02*
X114350001Y-110400000D01*
G75*
G02*
X114600000Y-110649999I0J-249999D01*
G01*
X114600000Y-111350001D01*
G75*
G02*
X114350001Y-111600000I-249999J0D01*
G01*
X113649999Y-111600000D01*
G75*
G02*
X113400000Y-111350001I0J249999D01*
G01*
X113400000Y-110649999D01*
G75*
G02*
X113649999Y-110400000I249999J0D01*
G01*
G37*
%TD.AperFunction*%
%TD*%
%TO.P,C8,2*%
%TO.N,GND*%
%TA.AperFunction,SMDPad,CuDef*%
G36*
G01*
X139775000Y-122762500D02*
X139775000Y-123237500D01*
G75*
G02*
X139537500Y-123475000I-237500J0D01*
G01*
X138937500Y-123475000D01*
G75*
G02*
X138700000Y-123237500I0J237500D01*
G01*
X138700000Y-122762500D01*
G75*
G02*
X138937500Y-122525000I237500J0D01*
G01*
X139537500Y-122525000D01*
G75*
G02*
X139775000Y-122762500I0J-237500D01*
G01*
G37*
%TD.AperFunction*%
%TO.P,C8,1*%
%TO.N,Net-(C8-Pad1)*%
%TA.AperFunction,SMDPad,CuDef*%
G36*
G01*
X141500000Y-122762500D02*
X141500000Y-123237500D01*
G75*
G02*
X141262500Y-123475000I-237500J0D01*
G01*
X140662500Y-123475000D01*
G75*
G02*
X140425000Y-123237500I0J237500D01*
G01*
X140425000Y-122762500D01*
G75*
G02*
X140662500Y-122525000I237500J0D01*
G01*
X141262500Y-122525000D01*
G75*
G02*
X141500000Y-122762500I0J-237500D01*
G01*
G37*
%TD.AperFunction*%
%TD*%
%TO.P,C7,2*%
%TO.N,GND*%
%TA.AperFunction,SMDPad,CuDef*%
G36*
G01*
X139775000Y-127262500D02*
X139775000Y-127737500D01*
G75*
G02*
X139537500Y-127975000I-237500J0D01*
G01*
X138937500Y-127975000D01*
G75*
G02*
X138700000Y-127737500I0J237500D01*
G01*
X138700000Y-127262500D01*
G75*
G02*
X138937500Y-127025000I237500J0D01*
G01*
X139537500Y-127025000D01*
G75*
G02*
X139775000Y-127262500I0J-237500D01*
G01*
G37*
%TD.AperFunction*%
%TO.P,C7,1*%
%TO.N,Net-(C7-Pad1)*%
%TA.AperFunction,SMDPad,CuDef*%
G36*
G01*
X141500000Y-127262500D02*
X141500000Y-127737500D01*
G75*
G02*
X141262500Y-127975000I-237500J0D01*
G01*
X140662500Y-127975000D01*
G75*
G02*
X140425000Y-127737500I0J237500D01*
G01*
X140425000Y-127262500D01*
G75*
G02*
X140662500Y-127025000I237500J0D01*
G01*
X141262500Y-127025000D01*
G75*
G02*
X141500000Y-127262500I0J-237500D01*
G01*
G37*
%TD.AperFunction*%
%TD*%
%TO.P,C6,2*%
%TO.N,GND*%
%TA.AperFunction,SMDPad,CuDef*%
G36*
G01*
X127937500Y-127575000D02*
X127462500Y-127575000D01*
G75*
G02*
X127225000Y-127337500I0J237500D01*
G01*
X127225000Y-126737500D01*
G75*
G02*
X127462500Y-126500000I237500J0D01*
G01*
X127937500Y-126500000D01*
G75*
G02*
X128175000Y-126737500I0J-237500D01*
G01*
X128175000Y-127337500D01*
G75*
G02*
X127937500Y-127575000I-237500J0D01*
G01*
G37*
%TD.AperFunction*%
%TO.P,C6,1*%
%TO.N,/RESET*%
%TA.AperFunction,SMDPad,CuDef*%
G36*
G01*
X127937500Y-129300000D02*
X127462500Y-129300000D01*
G75*
G02*
X127225000Y-129062500I0J237500D01*
G01*
X127225000Y-128462500D01*
G75*
G02*
X127462500Y-128225000I237500J0D01*
G01*
X127937500Y-128225000D01*
G75*
G02*
X128175000Y-128462500I0J-237500D01*
G01*
X128175000Y-129062500D01*
G75*
G02*
X127937500Y-129300000I-237500J0D01*
G01*
G37*
%TD.AperFunction*%
%TD*%
%TO.P,C5,2*%
%TO.N,GND*%
%TA.AperFunction,SMDPad,CuDef*%
G36*
G01*
X127525000Y-125637500D02*
X127525000Y-125162500D01*
G75*
G02*
X127762500Y-124925000I237500J0D01*
G01*
X128362500Y-124925000D01*
G75*
G02*
X128600000Y-125162500I0J-237500D01*
G01*
X128600000Y-125637500D01*
G75*
G02*
X128362500Y-125875000I-237500J0D01*
G01*
X127762500Y-125875000D01*
G75*
G02*
X127525000Y-125637500I0J237500D01*
G01*
G37*
%TD.AperFunction*%
%TO.P,C5,1*%
%TO.N,+3V3*%
%TA.AperFunction,SMDPad,CuDef*%
G36*
G01*
X125800000Y-125637500D02*
X125800000Y-125162500D01*
G75*
G02*
X126037500Y-124925000I237500J0D01*
G01*
X126637500Y-124925000D01*
G75*
G02*
X126875000Y-125162500I0J-237500D01*
G01*
X126875000Y-125637500D01*
G75*
G02*
X126637500Y-125875000I-237500J0D01*
G01*
X126037500Y-125875000D01*
G75*
G02*
X125800000Y-125637500I0J237500D01*
G01*
G37*
%TD.AperFunction*%
%TD*%
%TO.P,C4,2*%
%TO.N,GND*%
%TA.AperFunction,SMDPad,CuDef*%
G36*
G01*
X121337500Y-124075000D02*
X120862500Y-124075000D01*
G75*
G02*
X120625000Y-123837500I0J237500D01*
G01*
X120625000Y-123237500D01*
G75*
G02*
X120862500Y-123000000I237500J0D01*
G01*
X121337500Y-123000000D01*
G75*
G02*
X121575000Y-123237500I0J-237500D01*
G01*
X121575000Y-123837500D01*
G75*
G02*
X121337500Y-124075000I-237500J0D01*
G01*
G37*
%TD.AperFunction*%
%TO.P,C4,1*%
%TO.N,+3V3*%
%TA.AperFunction,SMDPad,CuDef*%
G36*
G01*
X121337500Y-125800000D02*
X120862500Y-125800000D01*
G75*
G02*
X120625000Y-125562500I0J237500D01*
G01*
X120625000Y-124962500D01*
G75*
G02*
X120862500Y-124725000I237500J0D01*
G01*
X121337500Y-124725000D01*
G75*
G02*
X121575000Y-124962500I0J-237500D01*
G01*
X121575000Y-125562500D01*
G75*
G02*
X121337500Y-125800000I-237500J0D01*
G01*
G37*
%TD.AperFunction*%
%TD*%
%TO.P,C3,2*%
%TO.N,GND*%
%TA.AperFunction,SMDPad,CuDef*%
G36*
G01*
X131325000Y-114737500D02*
X131325000Y-114262500D01*
G75*
G02*
X131562500Y-114025000I237500J0D01*
G01*
X132162500Y-114025000D01*
G75*
G02*
X132400000Y-114262500I0J-237500D01*
G01*
X132400000Y-114737500D01*
G75*
G02*
X132162500Y-114975000I-237500J0D01*
G01*
X131562500Y-114975000D01*
G75*
G02*
X131325000Y-114737500I0J237500D01*
G01*
G37*
%TD.AperFunction*%
%TO.P,C3,1*%
%TO.N,+3V3*%
%TA.AperFunction,SMDPad,CuDef*%
G36*
G01*
X129600000Y-114737500D02*
X129600000Y-114262500D01*
G75*
G02*
X129837500Y-114025000I237500J0D01*
G01*
X130437500Y-114025000D01*
G75*
G02*
X130675000Y-114262500I0J-237500D01*
G01*
X130675000Y-114737500D01*
G75*
G02*
X130437500Y-114975000I-237500J0D01*
G01*
X129837500Y-114975000D01*
G75*
G02*
X129600000Y-114737500I0J237500D01*
G01*
G37*
%TD.AperFunction*%
%TD*%
%TO.P,C2,2*%
%TO.N,GND*%
%TA.AperFunction,SMDPad,CuDef*%
G36*
G01*
X131837500Y-110275000D02*
X131362500Y-110275000D01*
G75*
G02*
X131125000Y-110037500I0J237500D01*
G01*
X131125000Y-109437500D01*
G75*
G02*
X131362500Y-109200000I237500J0D01*
G01*
X131837500Y-109200000D01*
G75*
G02*
X132075000Y-109437500I0J-237500D01*
G01*
X132075000Y-110037500D01*
G75*
G02*
X131837500Y-110275000I-237500J0D01*
G01*
G37*
%TD.AperFunction*%
%TO.P,C2,1*%
%TO.N,+3V3*%
%TA.AperFunction,SMDPad,CuDef*%
G36*
G01*
X131837500Y-112000000D02*
X131362500Y-112000000D01*
G75*
G02*
X131125000Y-111762500I0J237500D01*
G01*
X131125000Y-111162500D01*
G75*
G02*
X131362500Y-110925000I237500J0D01*
G01*
X131837500Y-110925000D01*
G75*
G02*
X132075000Y-111162500I0J-237500D01*
G01*
X132075000Y-111762500D01*
G75*
G02*
X131837500Y-112000000I-237500J0D01*
G01*
G37*
%TD.AperFunction*%
%TD*%
D21*
%TO.N,GND*%
X123500000Y-116300000D03*
X122200000Y-122800000D03*
X118500000Y-127700000D03*
X142500000Y-123800000D03*
X129400000Y-125400000D03*
X143000000Y-109000000D03*
X143000000Y-114000000D03*
X146000000Y-116000000D03*
X124000000Y-108000000D03*
X128000000Y-108000000D03*
X132000000Y-108000000D03*
X119000000Y-113000000D03*
X113000000Y-109000000D03*
X117000000Y-116000000D03*
X132000000Y-120000000D03*
X113000000Y-131000000D03*
X116000000Y-131000000D03*
X119000000Y-131000000D03*
X126000000Y-132000000D03*
X131000000Y-132000000D03*
X136000000Y-132000000D03*
X136000000Y-126000000D03*
X140000000Y-132000000D03*
X144000000Y-132000000D03*
X147000000Y-132000000D03*
X139700000Y-121500000D03*
X128000000Y-110800000D03*
X147000000Y-108000000D03*
X131500000Y-113200000D03*
X131862500Y-115837500D03*
X127200000Y-121800000D03*
X129700000Y-123700000D03*
X132200000Y-125800000D03*
X136300000Y-116800000D03*
%TO.N,Net-(C1-Pad1)*%
X134900000Y-124500000D03*
X134900000Y-119800000D03*
X138000000Y-130500000D03*
X137600000Y-121200000D03*
%TO.N,+3V3*%
X133400000Y-112900000D03*
X133950000Y-113450000D03*
X133347500Y-129447500D03*
X124800000Y-129100000D03*
X122732487Y-129310599D03*
%TO.N,/RESET*%
X125100000Y-127600000D03*
X115899990Y-123400000D03*
%TO.N,SCL4*%
X128380721Y-119780721D03*
%TO.N,SCL5*%
X132100000Y-117100000D03*
%TO.N,LED4*%
X127835326Y-116415139D03*
%TO.N,LED2*%
X125175000Y-116700000D03*
%TO.N,SDA4*%
X128300000Y-121000000D03*
%TO.N,SDA5*%
X131300000Y-117900000D03*
%TO.N,LED5*%
X126784110Y-118284110D03*
%TO.N,LED3*%
X126700000Y-116500000D03*
%TO.N,LED1*%
X125500000Y-113600000D03*
%TO.N,Net-(R2-Pad2)*%
X133000000Y-124400000D03*
X130700000Y-130600000D03*
%TO.N,Net-(R6-Pad1)*%
X138015686Y-124484314D03*
X138015686Y-128384314D03*
%TO.N,/USART1_Rx*%
X130075000Y-122675000D03*
X131300000Y-128200000D03*
%TO.N,/USART1_TX*%
X130400000Y-127100000D03*
X130400000Y-124600000D03*
%TO.N,Net-(C15-Pad1)*%
X124000000Y-122100000D03*
%TO.N,Net-(C16-Pad1)*%
X124599980Y-125472810D03*
%TD*%
D22*
%TO.N,GND*%
X143840000Y-124150000D02*
X142650000Y-124150000D01*
X142650000Y-124150000D02*
X142500000Y-124000000D01*
X142600000Y-123500000D02*
X143840000Y-123500000D01*
X142500000Y-123600000D02*
X142600000Y-123500000D01*
X142500000Y-124000000D02*
X142500000Y-123800000D01*
X142500000Y-123800000D02*
X142500000Y-123600000D01*
X144337500Y-118750000D02*
X144287500Y-118800000D01*
X121725000Y-121900000D02*
X121725000Y-122275000D01*
X121725000Y-122275000D02*
X121100000Y-122900000D01*
X121100000Y-123537500D02*
X121100000Y-122900000D01*
X130075000Y-116300000D02*
X131400000Y-116300000D01*
X131862500Y-115837500D02*
X131862500Y-115837500D01*
X131400000Y-116300000D02*
X131862500Y-115837500D01*
X134617500Y-128300000D02*
X134617500Y-129317500D01*
X134962500Y-129662500D02*
X134962500Y-130500000D01*
X134617500Y-129317500D02*
X134962500Y-129662500D01*
X127700000Y-125762500D02*
X128062500Y-125400000D01*
X127700000Y-127037500D02*
X127700000Y-125762500D01*
X128062500Y-125400000D02*
X129400000Y-125400000D01*
X133982500Y-123100000D02*
X133982500Y-122282500D01*
X133537500Y-121837500D02*
X133537500Y-121200000D01*
X133982500Y-122282500D02*
X133537500Y-121837500D01*
X131862500Y-115837500D02*
X131862500Y-114500000D01*
%TO.N,Net-(C1-Pad1)*%
X134617500Y-123100000D02*
X134617500Y-124217500D01*
X134617500Y-124217500D02*
X134900000Y-124500000D01*
X135000000Y-119700000D02*
X134900000Y-119800000D01*
X137725000Y-119700000D02*
X135000000Y-119700000D01*
X139637500Y-114312500D02*
X139950000Y-114000000D01*
X139637500Y-116300000D02*
X139637500Y-114312500D01*
D23*
X137725000Y-119700000D02*
X137725000Y-118575000D01*
X137725000Y-118575000D02*
X138500000Y-117800000D01*
X138500000Y-117800000D02*
X139100000Y-117800000D01*
X139637500Y-117262500D02*
X139637500Y-116300000D01*
X139100000Y-117800000D02*
X139637500Y-117262500D01*
X139225000Y-130500000D02*
X138000000Y-130500000D01*
X137600000Y-119825000D02*
X137725000Y-119700000D01*
X137600000Y-121200000D02*
X137600000Y-119825000D01*
D22*
%TO.N,+3V3*%
X126300000Y-125362500D02*
X126337500Y-125400000D01*
X126300000Y-124800000D02*
X126300000Y-125362500D01*
X128700000Y-114925000D02*
X128700000Y-113500000D01*
X129000000Y-113200000D02*
X129500000Y-113200000D01*
X128700000Y-113500000D02*
X129000000Y-113200000D01*
X130137500Y-113337500D02*
X130137500Y-114500000D01*
X129500000Y-113200000D02*
X130000000Y-113200000D01*
X130000000Y-113200000D02*
X130137500Y-113337500D01*
D23*
X126800000Y-112000000D02*
X125950000Y-111150000D01*
D22*
X125950000Y-111150000D02*
X124500000Y-109700000D01*
D23*
X126800000Y-112000000D02*
X124500000Y-109700000D01*
X124500000Y-109700000D02*
X122200000Y-109700000D01*
D22*
X129500000Y-112100000D02*
X129400000Y-112000000D01*
X129500000Y-113200000D02*
X129500000Y-112100000D01*
D23*
X129400000Y-112000000D02*
X126800000Y-112000000D01*
X139950000Y-111700000D02*
X138800000Y-111700000D01*
X138800000Y-111700000D02*
X136937500Y-113562500D01*
X136937500Y-113562500D02*
X135600000Y-113562500D01*
X139950000Y-111700000D02*
X146250000Y-111700000D01*
D22*
X133237500Y-130500000D02*
X133347500Y-130390000D01*
X133347500Y-130390000D02*
X133347500Y-129447500D01*
X126300000Y-126887500D02*
X126200000Y-126987500D01*
X126300000Y-124800000D02*
X126300000Y-126887500D01*
X126300000Y-123275000D02*
X126300000Y-124800000D01*
D23*
X133400000Y-112900000D02*
X132500000Y-112000000D01*
X134062500Y-113562500D02*
X133950000Y-113450000D01*
X135600000Y-113562500D02*
X134062500Y-113562500D01*
D22*
X133347500Y-129447500D02*
X133347500Y-128300000D01*
X132487489Y-129749989D02*
X133237500Y-130500000D01*
X125449989Y-129749989D02*
X125950011Y-129749989D01*
X125950011Y-129749989D02*
X132487489Y-129749989D01*
X125300000Y-129500000D02*
X124300000Y-128500000D01*
X124300000Y-128500000D02*
X124300000Y-126800000D01*
X125300000Y-129600000D02*
X125300000Y-129500000D01*
X124800000Y-129100000D02*
X125300000Y-129600000D01*
X125300000Y-129600000D02*
X125449989Y-129749989D01*
X123642334Y-121299998D02*
X123100000Y-121842332D01*
X125499998Y-121299998D02*
X123642334Y-121299998D01*
X123100000Y-121842332D02*
X123100000Y-123275000D01*
X126300000Y-122100000D02*
X125499998Y-121299998D01*
X126300000Y-123275000D02*
X126300000Y-122100000D01*
X124300000Y-126800000D02*
X123100000Y-125600000D01*
X122762500Y-125262500D02*
X123100000Y-125600000D01*
X121837500Y-125262500D02*
X121100000Y-125262500D01*
X122562500Y-125262500D02*
X123062500Y-125262500D01*
X123100000Y-125300000D02*
X123100000Y-125600000D01*
X123062500Y-125262500D02*
X123100000Y-125300000D01*
X123100000Y-123275000D02*
X123100000Y-125300000D01*
X121837500Y-125262500D02*
X122562500Y-125262500D01*
X122562500Y-125262500D02*
X122762500Y-125262500D01*
D23*
X131600000Y-111462500D02*
X131600000Y-112000000D01*
X131600000Y-112000000D02*
X129400000Y-112000000D01*
X132500000Y-112000000D02*
X131600000Y-112000000D01*
D22*
X122700000Y-128300000D02*
X122732487Y-128332487D01*
X122732487Y-128332487D02*
X122732487Y-129310599D01*
X121612500Y-128300000D02*
X122700000Y-128300000D01*
%TO.N,/RESET*%
X129200000Y-128812500D02*
X126200000Y-128812500D01*
X117120000Y-110970000D02*
X115899990Y-112190010D01*
X115899990Y-112190010D02*
X115899990Y-123400000D01*
X125100000Y-127600000D02*
X126200000Y-128700000D01*
X126200000Y-128700000D02*
X126200000Y-128812500D01*
X125500000Y-123275000D02*
X125399990Y-123375010D01*
X125399990Y-123375010D02*
X125399990Y-125818285D01*
X125399990Y-125818285D02*
X125100000Y-126118275D01*
X125100000Y-126118275D02*
X125100000Y-127600000D01*
%TO.N,Net-(C7-Pad1)*%
X143840000Y-125450000D02*
X142450000Y-125450000D01*
X141900000Y-126000000D02*
X141012500Y-126000000D01*
X142450000Y-125450000D02*
X141900000Y-126000000D01*
X140962500Y-126050000D02*
X141012500Y-126000000D01*
X140962500Y-127500000D02*
X140962500Y-126050000D01*
%TO.N,Net-(C8-Pad1)*%
X143840000Y-124800000D02*
X142400000Y-124800000D01*
X142100000Y-124500000D02*
X141012500Y-124500000D01*
X142400000Y-124800000D02*
X142100000Y-124500000D01*
X140962500Y-124450000D02*
X141012500Y-124500000D01*
X140962500Y-123000000D02*
X140962500Y-124450000D01*
%TO.N,SCL1*%
X120244335Y-119500000D02*
X121725000Y-119500000D01*
X118999979Y-120744356D02*
X120244335Y-119500000D01*
X118999979Y-125099979D02*
X118999979Y-120744356D01*
X113000000Y-128000000D02*
X116099958Y-128000000D01*
X116099958Y-128000000D02*
X118999979Y-125099979D01*
X112000000Y-129000000D02*
X113000000Y-128000000D01*
%TO.N,SCL2*%
X116199998Y-126000001D02*
X114300000Y-126000000D01*
X117800037Y-124399962D02*
X116199998Y-126000001D01*
X117800037Y-120299963D02*
X117800037Y-124399962D01*
X120200000Y-117900000D02*
X117800037Y-120299963D01*
X121725000Y-117900000D02*
X120200000Y-117900000D01*
X112999999Y-126000001D02*
X112000000Y-127000000D01*
X113500000Y-126000000D02*
X112999999Y-126000001D01*
X114300000Y-126000000D02*
X113500000Y-126000000D01*
X113500000Y-126000000D02*
X113200000Y-126000000D01*
%TO.N,SCL3*%
X116700000Y-123500000D02*
X116700000Y-123900000D01*
X116700000Y-123500000D02*
X116700000Y-119822167D01*
X116700000Y-119822167D02*
X120222167Y-116300000D01*
X120222167Y-116300000D02*
X121725000Y-116300000D01*
X113000000Y-124000000D02*
X112000000Y-125000000D01*
X115315988Y-124000000D02*
X113000000Y-124000000D01*
X115515989Y-124200001D02*
X115315988Y-124000000D01*
X116444334Y-124200002D02*
X115515989Y-124200001D01*
X116700000Y-123500000D02*
X116699999Y-123944337D01*
X116699999Y-123944337D02*
X116444334Y-124200002D01*
%TO.N,SCL4*%
X128661442Y-119500000D02*
X128380721Y-119780721D01*
X130075000Y-119500000D02*
X128661442Y-119500000D01*
%TO.N,SCL5*%
X130075000Y-117100000D02*
X131900000Y-117100000D01*
X131900000Y-117100000D02*
X132100000Y-117100000D01*
%TO.N,LED4*%
X127900000Y-114925000D02*
X127900000Y-116200000D01*
X127900000Y-116350465D02*
X127835326Y-116415139D01*
X127900000Y-114925000D02*
X127900000Y-116350465D01*
%TO.N,LED2*%
X126300000Y-115675000D02*
X125175000Y-116800000D01*
X126300000Y-115675000D02*
X125275000Y-116700000D01*
X125275000Y-116700000D02*
X125175000Y-116700000D01*
X126300000Y-114925000D02*
X126300000Y-115675000D01*
%TO.N,SDA1*%
X120222167Y-120300000D02*
X121725000Y-120300000D01*
X119549990Y-120972178D02*
X120222167Y-120300000D01*
X119549990Y-125349990D02*
X119549990Y-120972178D01*
X115899980Y-129000000D02*
X119549990Y-125349990D01*
X114000000Y-129000000D02*
X115899980Y-129000000D01*
%TO.N,SDA2*%
X120266501Y-118700000D02*
X121725000Y-118700000D01*
X118933250Y-120033250D02*
X118844580Y-120033250D01*
X118933250Y-120033250D02*
X120266501Y-118700000D01*
X118449968Y-120516533D02*
X118933250Y-120033250D01*
X118449968Y-124850032D02*
X118449968Y-120516533D01*
X116300000Y-127000000D02*
X118449968Y-124850032D01*
X114000000Y-127000000D02*
X116300000Y-127000000D01*
%TO.N,SDA3*%
X116422168Y-125000000D02*
X114000000Y-125000000D01*
X121725000Y-117100000D02*
X120200000Y-117100000D01*
X117250010Y-120049990D02*
X117250010Y-124172158D01*
X120200000Y-117100000D02*
X117250010Y-120049990D01*
X117250010Y-124172158D02*
X116422168Y-125000000D01*
%TO.N,SDA4*%
X130075000Y-120300000D02*
X129000000Y-120300000D01*
X129000000Y-120300000D02*
X128300000Y-121000000D01*
%TO.N,SDA5*%
X130075000Y-117900000D02*
X131300000Y-117900000D01*
%TO.N,LED5*%
X127200000Y-118700000D02*
X126784110Y-118284110D01*
X130075000Y-118700000D02*
X127200000Y-118700000D01*
%TO.N,LED3*%
X127100000Y-116100000D02*
X126700000Y-116500000D01*
X127100000Y-114925000D02*
X127100000Y-116100000D01*
%TO.N,LED1*%
X125500000Y-114925000D02*
X125500000Y-113600000D01*
%TO.N,/SYS_SWCLK*%
X120930000Y-111630000D02*
X120930000Y-110970000D01*
X123100000Y-113800000D02*
X120930000Y-111630000D01*
X123100000Y-114925000D02*
X123100000Y-113800000D01*
%TO.N,/SYS_SWDIO*%
X123900000Y-114925000D02*
X123900000Y-113500000D01*
X122200000Y-111800000D02*
X122200000Y-110970000D01*
X123900000Y-113500000D02*
X122200000Y-111800000D01*
%TO.N,Net-(R2-Pad2)*%
X132712500Y-123100000D02*
X132712500Y-124112500D01*
X132712500Y-124112500D02*
X133000000Y-124400000D01*
X123722612Y-127322612D02*
X123200000Y-126800000D01*
X123722612Y-129522612D02*
X123722612Y-127322612D01*
X124800000Y-130600000D02*
X123722612Y-129522612D01*
X130700000Y-130600000D02*
X124800000Y-130600000D01*
X122700000Y-126800000D02*
X121612500Y-126800000D01*
X123200000Y-126800000D02*
X122700000Y-126800000D01*
X122700000Y-126800000D02*
X122112500Y-126800000D01*
%TO.N,Net-(R5-Pad1)*%
X139187500Y-126000000D02*
X138400000Y-126000000D01*
X136522500Y-124122500D02*
X136522500Y-122600000D01*
X138400000Y-126000000D02*
X136522500Y-124122500D01*
%TO.N,Net-(R6-Pad1)*%
X138031372Y-124500000D02*
X138015686Y-124484314D01*
X139187500Y-124500000D02*
X138031372Y-124500000D01*
X137931372Y-128300000D02*
X138015686Y-128384314D01*
X136522500Y-128300000D02*
X137931372Y-128300000D01*
%TO.N,/USART1_Rx*%
X130075000Y-121900000D02*
X130075000Y-122675000D01*
X132077500Y-128300000D02*
X131400000Y-128300000D01*
X131400000Y-128300000D02*
X131300000Y-128200000D01*
%TO.N,/USART1_TX*%
X133982500Y-127400000D02*
X133682500Y-127100000D01*
X133982500Y-128300000D02*
X133982500Y-127400000D01*
X133682500Y-127100000D02*
X130400000Y-127100000D01*
X128700000Y-124300000D02*
X128700000Y-123275000D01*
X129000000Y-124600000D02*
X128700000Y-124300000D01*
X130400000Y-124600000D02*
X129000000Y-124600000D01*
D24*
%TO.N,Net-(C12-Pad1)*%
X143840000Y-126100000D02*
X142800000Y-126100000D01*
X142300000Y-128900000D02*
X142300000Y-128600000D01*
X142300000Y-126600000D02*
X142300000Y-128600000D01*
X142800000Y-126100000D02*
X142300000Y-126600000D01*
X140975000Y-130500000D02*
X142100000Y-130500000D01*
X142300000Y-130300000D02*
X142300000Y-128900000D01*
X142100000Y-130500000D02*
X142300000Y-130300000D01*
X142200000Y-129000000D02*
X142300000Y-128900000D01*
X140962500Y-129000000D02*
X142200000Y-129000000D01*
D22*
%TO.N,Net-(C13-Pad1)*%
X135252500Y-121210000D02*
X135262500Y-121200000D01*
X135887500Y-123100000D02*
X135887500Y-122187500D01*
X135747500Y-122047500D02*
X135252500Y-122047500D01*
X135887500Y-122187500D02*
X135747500Y-122047500D01*
X135252500Y-122047500D02*
X135252500Y-121210000D01*
X135252500Y-123100000D02*
X135252500Y-122047500D01*
%TO.N,Net-(C14-Pad1)*%
X146500000Y-128175000D02*
X146500000Y-121425000D01*
X143925000Y-122312500D02*
X143925000Y-121275000D01*
X143925000Y-121275000D02*
X144300000Y-120900000D01*
X145975000Y-120900000D02*
X146500000Y-121425000D01*
X144300000Y-120900000D02*
X145975000Y-120900000D01*
X143925000Y-127287500D02*
X143925000Y-128425000D01*
X143925000Y-128425000D02*
X144200000Y-128700000D01*
X145975000Y-128700000D02*
X146500000Y-128175000D01*
X144200000Y-128700000D02*
X145975000Y-128700000D01*
X146112500Y-121037500D02*
X146500000Y-121425000D01*
X146112500Y-118800000D02*
X146112500Y-121037500D01*
X146500000Y-128175000D02*
X146500000Y-129300000D01*
X146162500Y-129637500D02*
X146162500Y-130600000D01*
X146500000Y-129300000D02*
X146162500Y-129637500D01*
%TO.N,Net-(C15-Pad1)*%
X124049990Y-122149990D02*
X124000000Y-122100000D01*
X124049990Y-123850010D02*
X124049990Y-122149990D01*
%TO.N,Net-(C16-Pad1)*%
X124700000Y-124980002D02*
X124546921Y-125133081D01*
X124700000Y-123275000D02*
X124700000Y-124980002D01*
X124700000Y-125372790D02*
X124599980Y-125472810D01*
X124700000Y-124980002D02*
X124700000Y-125372790D01*
%TO.N,Net-(R7-Pad2)*%
X129200000Y-126987500D02*
X129200000Y-126900000D01*
X129200000Y-126900000D02*
X130400000Y-125700000D01*
X130400000Y-125700000D02*
X130800000Y-125700000D01*
X132077500Y-124422500D02*
X132077500Y-123100000D01*
X130800000Y-125700000D02*
X132077500Y-124422500D01*
%TO.N,Net-(R10-Pad1)*%
X121725000Y-121100000D02*
X120700042Y-121100000D01*
X120199998Y-121600002D02*
X120200040Y-121600002D01*
X120200040Y-121600002D02*
X120700042Y-121100000D01*
X119787500Y-129800000D02*
X119787500Y-126800000D01*
X120200040Y-121600002D02*
X120200040Y-125599960D01*
X119787500Y-126012500D02*
X119787500Y-126800000D01*
X120200040Y-125599960D02*
X119787500Y-126012500D01*
%TD*%
D25*
%TO.N,GND*%
X133988434Y-123700000D02*
X133996678Y-123783707D01*
X134005500Y-123812788D01*
X134005500Y-124095250D01*
X134040501Y-124130251D01*
X134040501Y-124189159D01*
X134037710Y-124217500D01*
X134048849Y-124330611D01*
X134074000Y-124413520D01*
X134073000Y-124418548D01*
X134073000Y-124581452D01*
X134104782Y-124741227D01*
X134167123Y-124891731D01*
X134257628Y-125027181D01*
X134372819Y-125142372D01*
X134508269Y-125232877D01*
X134658773Y-125295218D01*
X134818548Y-125327000D01*
X134981452Y-125327000D01*
X135141227Y-125295218D01*
X135291731Y-125232877D01*
X135427181Y-125142372D01*
X135542372Y-125027181D01*
X135632877Y-124891731D01*
X135695218Y-124741227D01*
X135727000Y-124581452D01*
X135727000Y-124418548D01*
X135695218Y-124258773D01*
X135639535Y-124124342D01*
X135687500Y-124129066D01*
X135943357Y-124129066D01*
X135945500Y-124150831D01*
X135945500Y-124150835D01*
X135947015Y-124166214D01*
X135953849Y-124235611D01*
X135970890Y-124291784D01*
X135986843Y-124344375D01*
X136040421Y-124444614D01*
X136112526Y-124532474D01*
X136134538Y-124550539D01*
X137971964Y-126387966D01*
X137990026Y-126409974D01*
X138012033Y-126428035D01*
X138012035Y-126428037D01*
X138024722Y-126438448D01*
X138077885Y-126482079D01*
X138178124Y-126535657D01*
X138219328Y-126548156D01*
X138286888Y-126568651D01*
X138344886Y-126574363D01*
X138366524Y-126576494D01*
X138381547Y-126604598D01*
X138325552Y-126650552D01*
X138259695Y-126730798D01*
X138210760Y-126822350D01*
X138180625Y-126921690D01*
X138170450Y-127025000D01*
X138173000Y-127345250D01*
X138304750Y-127477000D01*
X139214500Y-127477000D01*
X139214500Y-127457000D01*
X139260500Y-127457000D01*
X139260500Y-127477000D01*
X139280500Y-127477000D01*
X139280500Y-127523000D01*
X139260500Y-127523000D01*
X139260500Y-128977000D01*
X139280500Y-128977000D01*
X139280500Y-129023000D01*
X139260500Y-129023000D01*
X139260500Y-129043000D01*
X139214500Y-129043000D01*
X139214500Y-129023000D01*
X139194500Y-129023000D01*
X139194500Y-128977000D01*
X139214500Y-128977000D01*
X139214500Y-127523000D01*
X138304750Y-127523000D01*
X138241683Y-127586067D01*
X138097138Y-127557314D01*
X137934234Y-127557314D01*
X137774459Y-127589096D01*
X137623955Y-127651437D01*
X137516854Y-127723000D01*
X137151566Y-127723000D01*
X137151566Y-127700000D01*
X137143322Y-127616293D01*
X137118905Y-127535804D01*
X137079255Y-127461624D01*
X137025895Y-127396605D01*
X136960876Y-127343245D01*
X136886696Y-127303595D01*
X136806207Y-127279178D01*
X136722500Y-127270934D01*
X136322500Y-127270934D01*
X136238793Y-127279178D01*
X136205000Y-127289429D01*
X136171207Y-127279178D01*
X136087500Y-127270934D01*
X135687500Y-127270934D01*
X135603793Y-127279178D01*
X135570000Y-127289429D01*
X135536207Y-127279178D01*
X135452500Y-127270934D01*
X135125397Y-127270934D01*
X135111702Y-127259695D01*
X135020150Y-127210760D01*
X134920810Y-127180625D01*
X134817500Y-127170450D01*
X134772250Y-127173000D01*
X134640500Y-127304750D01*
X134640500Y-127587212D01*
X134631678Y-127616293D01*
X134623434Y-127700000D01*
X134623434Y-128900000D01*
X134631678Y-128983707D01*
X134640500Y-129012788D01*
X134640500Y-129295250D01*
X134772250Y-129427000D01*
X134817500Y-129429550D01*
X134920810Y-129419375D01*
X135020150Y-129389240D01*
X135111702Y-129340305D01*
X135125397Y-129329066D01*
X135452500Y-129329066D01*
X135536207Y-129320822D01*
X135570000Y-129310571D01*
X135603793Y-129320822D01*
X135687500Y-129329066D01*
X136087500Y-129329066D01*
X136171207Y-129320822D01*
X136205000Y-129310571D01*
X136238793Y-129320822D01*
X136322500Y-129329066D01*
X136722500Y-129329066D01*
X136806207Y-129320822D01*
X136886696Y-129296405D01*
X136960876Y-129256755D01*
X137025895Y-129203395D01*
X137079255Y-129138376D01*
X137118905Y-129064196D01*
X137143322Y-128983707D01*
X137151566Y-128900000D01*
X137151566Y-128877000D01*
X137350265Y-128877000D01*
X137373314Y-128911495D01*
X137488505Y-129026686D01*
X137623955Y-129117191D01*
X137774459Y-129179532D01*
X137934234Y-129211314D01*
X138097138Y-129211314D01*
X138172669Y-129196290D01*
X138170450Y-129475000D01*
X138180625Y-129578310D01*
X138210760Y-129677650D01*
X138223363Y-129701229D01*
X138081452Y-129673000D01*
X137918548Y-129673000D01*
X137758773Y-129704782D01*
X137608269Y-129767123D01*
X137472819Y-129857628D01*
X137357628Y-129972819D01*
X137267123Y-130108269D01*
X137204782Y-130258773D01*
X137173000Y-130418548D01*
X137173000Y-130581452D01*
X137204782Y-130741227D01*
X137267123Y-130891731D01*
X137357628Y-131027181D01*
X137472819Y-131142372D01*
X137608269Y-131232877D01*
X137758773Y-131295218D01*
X137918548Y-131327000D01*
X138081452Y-131327000D01*
X138241227Y-131295218D01*
X138391731Y-131232877D01*
X138452549Y-131192240D01*
X138466167Y-131208833D01*
X138567176Y-131291729D01*
X138682416Y-131353327D01*
X138807459Y-131391258D01*
X138937500Y-131404066D01*
X139512500Y-131404066D01*
X139642541Y-131391258D01*
X139767584Y-131353327D01*
X139882824Y-131291729D01*
X139983833Y-131208833D01*
X140066729Y-131107824D01*
X140100000Y-131045579D01*
X140133271Y-131107824D01*
X140216167Y-131208833D01*
X140317176Y-131291729D01*
X140432416Y-131353327D01*
X140557459Y-131391258D01*
X140687500Y-131404066D01*
X141262500Y-131404066D01*
X141392541Y-131391258D01*
X141517584Y-131353327D01*
X141632824Y-131291729D01*
X141733833Y-131208833D01*
X141800992Y-131127000D01*
X142069206Y-131127000D01*
X142100000Y-131130033D01*
X142130794Y-131127000D01*
X142222913Y-131117927D01*
X142341103Y-131082075D01*
X142354339Y-131075000D01*
X143370450Y-131075000D01*
X143380625Y-131178310D01*
X143410760Y-131277650D01*
X143459695Y-131369202D01*
X143525552Y-131449448D01*
X143605798Y-131515305D01*
X143697350Y-131564240D01*
X143796690Y-131594375D01*
X143900000Y-131604550D01*
X144282750Y-131602000D01*
X144414500Y-131470250D01*
X144414500Y-130623000D01*
X143504750Y-130623000D01*
X143373000Y-130754750D01*
X143370450Y-131075000D01*
X142354339Y-131075000D01*
X142450028Y-131023853D01*
X142545501Y-130945501D01*
X142565138Y-130921573D01*
X142721574Y-130765137D01*
X142745501Y-130745501D01*
X142823853Y-130650028D01*
X142882075Y-130541103D01*
X142917927Y-130422913D01*
X142927000Y-130330794D01*
X142927000Y-130330793D01*
X142930033Y-130300000D01*
X142927000Y-130269206D01*
X142927000Y-130125000D01*
X143370450Y-130125000D01*
X143373000Y-130445250D01*
X143504750Y-130577000D01*
X144414500Y-130577000D01*
X144414500Y-129729750D01*
X144282750Y-129598000D01*
X143900000Y-129595450D01*
X143796690Y-129605625D01*
X143697350Y-129635760D01*
X143605798Y-129684695D01*
X143525552Y-129750552D01*
X143459695Y-129830798D01*
X143410760Y-129922350D01*
X143380625Y-130021690D01*
X143370450Y-130125000D01*
X142927000Y-130125000D01*
X142927000Y-128930792D01*
X142930033Y-128900001D01*
X142927000Y-128869206D01*
X142927000Y-128364974D01*
X142985804Y-128396405D01*
X143066293Y-128420822D01*
X143150000Y-128429066D01*
X143345610Y-128429066D01*
X143356349Y-128538111D01*
X143389344Y-128646876D01*
X143442922Y-128747115D01*
X143468371Y-128778124D01*
X143496963Y-128812964D01*
X143496966Y-128812967D01*
X143515027Y-128834974D01*
X143537034Y-128853035D01*
X143771957Y-129087957D01*
X143790026Y-129109974D01*
X143877885Y-129182079D01*
X143978124Y-129235657D01*
X144022782Y-129249204D01*
X144086888Y-129268651D01*
X144144886Y-129274363D01*
X144171664Y-129277000D01*
X144171669Y-129277000D01*
X144200000Y-129279790D01*
X144228331Y-129277000D01*
X145524943Y-129277000D01*
X145546605Y-129303395D01*
X145611624Y-129356755D01*
X145647935Y-129376164D01*
X145626843Y-129415625D01*
X145621626Y-129432824D01*
X145593849Y-129524389D01*
X145582710Y-129637500D01*
X145585500Y-129665832D01*
X145585500Y-129758387D01*
X145492176Y-129808271D01*
X145430374Y-129858991D01*
X145415305Y-129830798D01*
X145349448Y-129750552D01*
X145269202Y-129684695D01*
X145177650Y-129635760D01*
X145078310Y-129605625D01*
X144975000Y-129595450D01*
X144592250Y-129598000D01*
X144460500Y-129729750D01*
X144460500Y-130577000D01*
X144480500Y-130577000D01*
X144480500Y-130623000D01*
X144460500Y-130623000D01*
X144460500Y-131470250D01*
X144592250Y-131602000D01*
X144975000Y-131604550D01*
X145078310Y-131594375D01*
X145177650Y-131564240D01*
X145269202Y-131515305D01*
X145349448Y-131449448D01*
X145415305Y-131369202D01*
X145430374Y-131341009D01*
X145492176Y-131391729D01*
X145607416Y-131453327D01*
X145732459Y-131491258D01*
X145862500Y-131504066D01*
X146462500Y-131504066D01*
X146592541Y-131491258D01*
X146717584Y-131453327D01*
X146832824Y-131391729D01*
X146933833Y-131308833D01*
X147016729Y-131207824D01*
X147078327Y-131092584D01*
X147116258Y-130967541D01*
X147129066Y-130837500D01*
X147129066Y-130362500D01*
X147116258Y-130232459D01*
X147078327Y-130107416D01*
X147016729Y-129992176D01*
X146933833Y-129891167D01*
X146832824Y-129808271D01*
X146816471Y-129799530D01*
X146887962Y-129728039D01*
X146909974Y-129709974D01*
X146982079Y-129622115D01*
X147035657Y-129521876D01*
X147063810Y-129429066D01*
X147150000Y-129429066D01*
X147233707Y-129420822D01*
X147314196Y-129396405D01*
X147388376Y-129356755D01*
X147453395Y-129303395D01*
X147506755Y-129238376D01*
X147546405Y-129164196D01*
X147548000Y-129158938D01*
X147548000Y-132548000D01*
X111452000Y-132548000D01*
X111452000Y-129869000D01*
X111513533Y-129910115D01*
X111700435Y-129987533D01*
X111898849Y-130027000D01*
X112101151Y-130027000D01*
X112299565Y-129987533D01*
X112486467Y-129910115D01*
X112654674Y-129797723D01*
X112797723Y-129654674D01*
X112910115Y-129486467D01*
X112987533Y-129299565D01*
X113000000Y-129236889D01*
X113012467Y-129299565D01*
X113089885Y-129486467D01*
X113202277Y-129654674D01*
X113345326Y-129797723D01*
X113513533Y-129910115D01*
X113700435Y-129987533D01*
X113898849Y-130027000D01*
X114101151Y-130027000D01*
X114299565Y-129987533D01*
X114486467Y-129910115D01*
X114654674Y-129797723D01*
X114797723Y-129654674D01*
X114849623Y-129577000D01*
X115871649Y-129577000D01*
X115899980Y-129579790D01*
X115928311Y-129577000D01*
X115928316Y-129577000D01*
X115958025Y-129574074D01*
X116013091Y-129568651D01*
X116057750Y-129555103D01*
X116121856Y-129535657D01*
X116222095Y-129482079D01*
X116309954Y-129409974D01*
X116328019Y-129387962D01*
X118870934Y-126845047D01*
X118870934Y-127037500D01*
X118883742Y-127167541D01*
X118921673Y-127292584D01*
X118983271Y-127407824D01*
X119066167Y-127508833D01*
X119116329Y-127550000D01*
X119066167Y-127591167D01*
X118983271Y-127692176D01*
X118921673Y-127807416D01*
X118883742Y-127932459D01*
X118870934Y-128062500D01*
X118870934Y-128537500D01*
X118883742Y-128667541D01*
X118921673Y-128792584D01*
X118983271Y-128907824D01*
X119066167Y-129008833D01*
X119116329Y-129050000D01*
X119066167Y-129091167D01*
X118983271Y-129192176D01*
X118921673Y-129307416D01*
X118883742Y-129432459D01*
X118870934Y-129562500D01*
X118870934Y-130037500D01*
X118883742Y-130167541D01*
X118921673Y-130292584D01*
X118983271Y-130407824D01*
X119066167Y-130508833D01*
X119167176Y-130591729D01*
X119282416Y-130653327D01*
X119407459Y-130691258D01*
X119537500Y-130704066D01*
X120037500Y-130704066D01*
X120167541Y-130691258D01*
X120292584Y-130653327D01*
X120407824Y-130591729D01*
X120508833Y-130508833D01*
X120591729Y-130407824D01*
X120606306Y-130380554D01*
X120635760Y-130477650D01*
X120684695Y-130569202D01*
X120750552Y-130649448D01*
X120830798Y-130715305D01*
X120922350Y-130764240D01*
X121021690Y-130794375D01*
X121125000Y-130804550D01*
X121457750Y-130802000D01*
X121589500Y-130670250D01*
X121589500Y-129823000D01*
X121569500Y-129823000D01*
X121569500Y-129777000D01*
X121589500Y-129777000D01*
X121589500Y-129757000D01*
X121635500Y-129757000D01*
X121635500Y-129777000D01*
X121655500Y-129777000D01*
X121655500Y-129823000D01*
X121635500Y-129823000D01*
X121635500Y-130670250D01*
X121767250Y-130802000D01*
X122100000Y-130804550D01*
X122203310Y-130794375D01*
X122302650Y-130764240D01*
X122394202Y-130715305D01*
X122474448Y-130649448D01*
X122540305Y-130569202D01*
X122589240Y-130477650D01*
X122619375Y-130378310D01*
X122629550Y-130275000D01*
X122628420Y-130133101D01*
X122651035Y-130137599D01*
X122813939Y-130137599D01*
X122973714Y-130105817D01*
X123124218Y-130043476D01*
X123259668Y-129952971D01*
X123297950Y-129914689D01*
X123312638Y-129932586D01*
X123334650Y-129950651D01*
X124371961Y-130987962D01*
X124390026Y-131009974D01*
X124477885Y-131082079D01*
X124578124Y-131135657D01*
X124622782Y-131149204D01*
X124686888Y-131168651D01*
X124744886Y-131174363D01*
X124771664Y-131177000D01*
X124771669Y-131177000D01*
X124800000Y-131179790D01*
X124828331Y-131177000D01*
X130107447Y-131177000D01*
X130172819Y-131242372D01*
X130308269Y-131332877D01*
X130458773Y-131395218D01*
X130618548Y-131427000D01*
X130781452Y-131427000D01*
X130941227Y-131395218D01*
X131091731Y-131332877D01*
X131227181Y-131242372D01*
X131342372Y-131127181D01*
X131432877Y-130991731D01*
X131495218Y-130841227D01*
X131527000Y-130681452D01*
X131527000Y-130518548D01*
X131495218Y-130358773D01*
X131482053Y-130326989D01*
X132248488Y-130326989D01*
X132270934Y-130349435D01*
X132270934Y-130737500D01*
X132283742Y-130867541D01*
X132321673Y-130992584D01*
X132383271Y-131107824D01*
X132466167Y-131208833D01*
X132567176Y-131291729D01*
X132682416Y-131353327D01*
X132807459Y-131391258D01*
X132937500Y-131404066D01*
X133537500Y-131404066D01*
X133667541Y-131391258D01*
X133792584Y-131353327D01*
X133907824Y-131291729D01*
X133969626Y-131241009D01*
X133984695Y-131269202D01*
X134050552Y-131349448D01*
X134130798Y-131415305D01*
X134222350Y-131464240D01*
X134321690Y-131494375D01*
X134425000Y-131504550D01*
X134807750Y-131502000D01*
X134939500Y-131370250D01*
X134939500Y-130523000D01*
X134985500Y-130523000D01*
X134985500Y-131370250D01*
X135117250Y-131502000D01*
X135500000Y-131504550D01*
X135603310Y-131494375D01*
X135702650Y-131464240D01*
X135794202Y-131415305D01*
X135874448Y-131349448D01*
X135940305Y-131269202D01*
X135989240Y-131177650D01*
X136019375Y-131078310D01*
X136029550Y-130975000D01*
X136027000Y-130654750D01*
X135895250Y-130523000D01*
X134985500Y-130523000D01*
X134939500Y-130523000D01*
X134919500Y-130523000D01*
X134919500Y-130477000D01*
X134939500Y-130477000D01*
X134939500Y-129629750D01*
X134985500Y-129629750D01*
X134985500Y-130477000D01*
X135895250Y-130477000D01*
X136027000Y-130345250D01*
X136029550Y-130025000D01*
X136019375Y-129921690D01*
X135989240Y-129822350D01*
X135940305Y-129730798D01*
X135874448Y-129650552D01*
X135794202Y-129584695D01*
X135702650Y-129535760D01*
X135603310Y-129505625D01*
X135500000Y-129495450D01*
X135117250Y-129498000D01*
X134985500Y-129629750D01*
X134939500Y-129629750D01*
X134807750Y-129498000D01*
X134425000Y-129495450D01*
X134321690Y-129505625D01*
X134222350Y-129535760D01*
X134167292Y-129565189D01*
X134174500Y-129528952D01*
X134174500Y-129367673D01*
X134214850Y-129389240D01*
X134314190Y-129419375D01*
X134417500Y-129429550D01*
X134462750Y-129427000D01*
X134594500Y-129295250D01*
X134594500Y-129012788D01*
X134603322Y-128983707D01*
X134611566Y-128900000D01*
X134611566Y-127700000D01*
X134603322Y-127616293D01*
X134594500Y-127587212D01*
X134594500Y-127304750D01*
X134540052Y-127250302D01*
X134518157Y-127178124D01*
X134464579Y-127077885D01*
X134392474Y-126990026D01*
X134370462Y-126971961D01*
X134110539Y-126712038D01*
X134092474Y-126690026D01*
X134004615Y-126617921D01*
X133904376Y-126564343D01*
X133840270Y-126544897D01*
X133795611Y-126531349D01*
X133740545Y-126525926D01*
X133710836Y-126523000D01*
X133710831Y-126523000D01*
X133682500Y-126520210D01*
X133654169Y-126523000D01*
X130992553Y-126523000D01*
X130927181Y-126457628D01*
X130791731Y-126367123D01*
X130641227Y-126304782D01*
X130616198Y-126299803D01*
X130639001Y-126277000D01*
X130771669Y-126277000D01*
X130800000Y-126279790D01*
X130828331Y-126277000D01*
X130828336Y-126277000D01*
X130858045Y-126274074D01*
X130913111Y-126268651D01*
X130963625Y-126253327D01*
X131021876Y-126235657D01*
X131122115Y-126182079D01*
X131209974Y-126109974D01*
X131228039Y-126087962D01*
X132373224Y-124942777D01*
X132472819Y-125042372D01*
X132608269Y-125132877D01*
X132758773Y-125195218D01*
X132918548Y-125227000D01*
X133081452Y-125227000D01*
X133241227Y-125195218D01*
X133391731Y-125132877D01*
X133527181Y-125042372D01*
X133642372Y-124927181D01*
X133732877Y-124791731D01*
X133795218Y-124641227D01*
X133827000Y-124481452D01*
X133827000Y-124318548D01*
X133809000Y-124228057D01*
X133827750Y-124227000D01*
X133959500Y-124095250D01*
X133959500Y-123812788D01*
X133968322Y-123783707D01*
X133976566Y-123700000D01*
X133976566Y-123057000D01*
X133988434Y-123057000D01*
X133988434Y-123700000D01*
%TA.AperFunction,Conductor*%
D26*
G36*
X133988434Y-123700000D02*
G01*
X133996678Y-123783707D01*
X134005500Y-123812788D01*
X134005500Y-124095250D01*
X134040501Y-124130251D01*
X134040501Y-124189159D01*
X134037710Y-124217500D01*
X134048849Y-124330611D01*
X134074000Y-124413520D01*
X134073000Y-124418548D01*
X134073000Y-124581452D01*
X134104782Y-124741227D01*
X134167123Y-124891731D01*
X134257628Y-125027181D01*
X134372819Y-125142372D01*
X134508269Y-125232877D01*
X134658773Y-125295218D01*
X134818548Y-125327000D01*
X134981452Y-125327000D01*
X135141227Y-125295218D01*
X135291731Y-125232877D01*
X135427181Y-125142372D01*
X135542372Y-125027181D01*
X135632877Y-124891731D01*
X135695218Y-124741227D01*
X135727000Y-124581452D01*
X135727000Y-124418548D01*
X135695218Y-124258773D01*
X135639535Y-124124342D01*
X135687500Y-124129066D01*
X135943357Y-124129066D01*
X135945500Y-124150831D01*
X135945500Y-124150835D01*
X135947015Y-124166214D01*
X135953849Y-124235611D01*
X135970890Y-124291784D01*
X135986843Y-124344375D01*
X136040421Y-124444614D01*
X136112526Y-124532474D01*
X136134538Y-124550539D01*
X137971964Y-126387966D01*
X137990026Y-126409974D01*
X138012033Y-126428035D01*
X138012035Y-126428037D01*
X138024722Y-126438448D01*
X138077885Y-126482079D01*
X138178124Y-126535657D01*
X138219328Y-126548156D01*
X138286888Y-126568651D01*
X138344886Y-126574363D01*
X138366524Y-126576494D01*
X138381547Y-126604598D01*
X138325552Y-126650552D01*
X138259695Y-126730798D01*
X138210760Y-126822350D01*
X138180625Y-126921690D01*
X138170450Y-127025000D01*
X138173000Y-127345250D01*
X138304750Y-127477000D01*
X139214500Y-127477000D01*
X139214500Y-127457000D01*
X139260500Y-127457000D01*
X139260500Y-127477000D01*
X139280500Y-127477000D01*
X139280500Y-127523000D01*
X139260500Y-127523000D01*
X139260500Y-128977000D01*
X139280500Y-128977000D01*
X139280500Y-129023000D01*
X139260500Y-129023000D01*
X139260500Y-129043000D01*
X139214500Y-129043000D01*
X139214500Y-129023000D01*
X139194500Y-129023000D01*
X139194500Y-128977000D01*
X139214500Y-128977000D01*
X139214500Y-127523000D01*
X138304750Y-127523000D01*
X138241683Y-127586067D01*
X138097138Y-127557314D01*
X137934234Y-127557314D01*
X137774459Y-127589096D01*
X137623955Y-127651437D01*
X137516854Y-127723000D01*
X137151566Y-127723000D01*
X137151566Y-127700000D01*
X137143322Y-127616293D01*
X137118905Y-127535804D01*
X137079255Y-127461624D01*
X137025895Y-127396605D01*
X136960876Y-127343245D01*
X136886696Y-127303595D01*
X136806207Y-127279178D01*
X136722500Y-127270934D01*
X136322500Y-127270934D01*
X136238793Y-127279178D01*
X136205000Y-127289429D01*
X136171207Y-127279178D01*
X136087500Y-127270934D01*
X135687500Y-127270934D01*
X135603793Y-127279178D01*
X135570000Y-127289429D01*
X135536207Y-127279178D01*
X135452500Y-127270934D01*
X135125397Y-127270934D01*
X135111702Y-127259695D01*
X135020150Y-127210760D01*
X134920810Y-127180625D01*
X134817500Y-127170450D01*
X134772250Y-127173000D01*
X134640500Y-127304750D01*
X134640500Y-127587212D01*
X134631678Y-127616293D01*
X134623434Y-127700000D01*
X134623434Y-128900000D01*
X134631678Y-128983707D01*
X134640500Y-129012788D01*
X134640500Y-129295250D01*
X134772250Y-129427000D01*
X134817500Y-129429550D01*
X134920810Y-129419375D01*
X135020150Y-129389240D01*
X135111702Y-129340305D01*
X135125397Y-129329066D01*
X135452500Y-129329066D01*
X135536207Y-129320822D01*
X135570000Y-129310571D01*
X135603793Y-129320822D01*
X135687500Y-129329066D01*
X136087500Y-129329066D01*
X136171207Y-129320822D01*
X136205000Y-129310571D01*
X136238793Y-129320822D01*
X136322500Y-129329066D01*
X136722500Y-129329066D01*
X136806207Y-129320822D01*
X136886696Y-129296405D01*
X136960876Y-129256755D01*
X137025895Y-129203395D01*
X137079255Y-129138376D01*
X137118905Y-129064196D01*
X137143322Y-128983707D01*
X137151566Y-128900000D01*
X137151566Y-128877000D01*
X137350265Y-128877000D01*
X137373314Y-128911495D01*
X137488505Y-129026686D01*
X137623955Y-129117191D01*
X137774459Y-129179532D01*
X137934234Y-129211314D01*
X138097138Y-129211314D01*
X138172669Y-129196290D01*
X138170450Y-129475000D01*
X138180625Y-129578310D01*
X138210760Y-129677650D01*
X138223363Y-129701229D01*
X138081452Y-129673000D01*
X137918548Y-129673000D01*
X137758773Y-129704782D01*
X137608269Y-129767123D01*
X137472819Y-129857628D01*
X137357628Y-129972819D01*
X137267123Y-130108269D01*
X137204782Y-130258773D01*
X137173000Y-130418548D01*
X137173000Y-130581452D01*
X137204782Y-130741227D01*
X137267123Y-130891731D01*
X137357628Y-131027181D01*
X137472819Y-131142372D01*
X137608269Y-131232877D01*
X137758773Y-131295218D01*
X137918548Y-131327000D01*
X138081452Y-131327000D01*
X138241227Y-131295218D01*
X138391731Y-131232877D01*
X138452549Y-131192240D01*
X138466167Y-131208833D01*
X138567176Y-131291729D01*
X138682416Y-131353327D01*
X138807459Y-131391258D01*
X138937500Y-131404066D01*
X139512500Y-131404066D01*
X139642541Y-131391258D01*
X139767584Y-131353327D01*
X139882824Y-131291729D01*
X139983833Y-131208833D01*
X140066729Y-131107824D01*
X140100000Y-131045579D01*
X140133271Y-131107824D01*
X140216167Y-131208833D01*
X140317176Y-131291729D01*
X140432416Y-131353327D01*
X140557459Y-131391258D01*
X140687500Y-131404066D01*
X141262500Y-131404066D01*
X141392541Y-131391258D01*
X141517584Y-131353327D01*
X141632824Y-131291729D01*
X141733833Y-131208833D01*
X141800992Y-131127000D01*
X142069206Y-131127000D01*
X142100000Y-131130033D01*
X142130794Y-131127000D01*
X142222913Y-131117927D01*
X142341103Y-131082075D01*
X142354339Y-131075000D01*
X143370450Y-131075000D01*
X143380625Y-131178310D01*
X143410760Y-131277650D01*
X143459695Y-131369202D01*
X143525552Y-131449448D01*
X143605798Y-131515305D01*
X143697350Y-131564240D01*
X143796690Y-131594375D01*
X143900000Y-131604550D01*
X144282750Y-131602000D01*
X144414500Y-131470250D01*
X144414500Y-130623000D01*
X143504750Y-130623000D01*
X143373000Y-130754750D01*
X143370450Y-131075000D01*
X142354339Y-131075000D01*
X142450028Y-131023853D01*
X142545501Y-130945501D01*
X142565138Y-130921573D01*
X142721574Y-130765137D01*
X142745501Y-130745501D01*
X142823853Y-130650028D01*
X142882075Y-130541103D01*
X142917927Y-130422913D01*
X142927000Y-130330794D01*
X142927000Y-130330793D01*
X142930033Y-130300000D01*
X142927000Y-130269206D01*
X142927000Y-130125000D01*
X143370450Y-130125000D01*
X143373000Y-130445250D01*
X143504750Y-130577000D01*
X144414500Y-130577000D01*
X144414500Y-129729750D01*
X144282750Y-129598000D01*
X143900000Y-129595450D01*
X143796690Y-129605625D01*
X143697350Y-129635760D01*
X143605798Y-129684695D01*
X143525552Y-129750552D01*
X143459695Y-129830798D01*
X143410760Y-129922350D01*
X143380625Y-130021690D01*
X143370450Y-130125000D01*
X142927000Y-130125000D01*
X142927000Y-128930792D01*
X142930033Y-128900001D01*
X142927000Y-128869206D01*
X142927000Y-128364974D01*
X142985804Y-128396405D01*
X143066293Y-128420822D01*
X143150000Y-128429066D01*
X143345610Y-128429066D01*
X143356349Y-128538111D01*
X143389344Y-128646876D01*
X143442922Y-128747115D01*
X143468371Y-128778124D01*
X143496963Y-128812964D01*
X143496966Y-128812967D01*
X143515027Y-128834974D01*
X143537034Y-128853035D01*
X143771957Y-129087957D01*
X143790026Y-129109974D01*
X143877885Y-129182079D01*
X143978124Y-129235657D01*
X144022782Y-129249204D01*
X144086888Y-129268651D01*
X144144886Y-129274363D01*
X144171664Y-129277000D01*
X144171669Y-129277000D01*
X144200000Y-129279790D01*
X144228331Y-129277000D01*
X145524943Y-129277000D01*
X145546605Y-129303395D01*
X145611624Y-129356755D01*
X145647935Y-129376164D01*
X145626843Y-129415625D01*
X145621626Y-129432824D01*
X145593849Y-129524389D01*
X145582710Y-129637500D01*
X145585500Y-129665832D01*
X145585500Y-129758387D01*
X145492176Y-129808271D01*
X145430374Y-129858991D01*
X145415305Y-129830798D01*
X145349448Y-129750552D01*
X145269202Y-129684695D01*
X145177650Y-129635760D01*
X145078310Y-129605625D01*
X144975000Y-129595450D01*
X144592250Y-129598000D01*
X144460500Y-129729750D01*
X144460500Y-130577000D01*
X144480500Y-130577000D01*
X144480500Y-130623000D01*
X144460500Y-130623000D01*
X144460500Y-131470250D01*
X144592250Y-131602000D01*
X144975000Y-131604550D01*
X145078310Y-131594375D01*
X145177650Y-131564240D01*
X145269202Y-131515305D01*
X145349448Y-131449448D01*
X145415305Y-131369202D01*
X145430374Y-131341009D01*
X145492176Y-131391729D01*
X145607416Y-131453327D01*
X145732459Y-131491258D01*
X145862500Y-131504066D01*
X146462500Y-131504066D01*
X146592541Y-131491258D01*
X146717584Y-131453327D01*
X146832824Y-131391729D01*
X146933833Y-131308833D01*
X147016729Y-131207824D01*
X147078327Y-131092584D01*
X147116258Y-130967541D01*
X147129066Y-130837500D01*
X147129066Y-130362500D01*
X147116258Y-130232459D01*
X147078327Y-130107416D01*
X147016729Y-129992176D01*
X146933833Y-129891167D01*
X146832824Y-129808271D01*
X146816471Y-129799530D01*
X146887962Y-129728039D01*
X146909974Y-129709974D01*
X146982079Y-129622115D01*
X147035657Y-129521876D01*
X147063810Y-129429066D01*
X147150000Y-129429066D01*
X147233707Y-129420822D01*
X147314196Y-129396405D01*
X147388376Y-129356755D01*
X147453395Y-129303395D01*
X147506755Y-129238376D01*
X147546405Y-129164196D01*
X147548000Y-129158938D01*
X147548000Y-132548000D01*
X111452000Y-132548000D01*
X111452000Y-129869000D01*
X111513533Y-129910115D01*
X111700435Y-129987533D01*
X111898849Y-130027000D01*
X112101151Y-130027000D01*
X112299565Y-129987533D01*
X112486467Y-129910115D01*
X112654674Y-129797723D01*
X112797723Y-129654674D01*
X112910115Y-129486467D01*
X112987533Y-129299565D01*
X113000000Y-129236889D01*
X113012467Y-129299565D01*
X113089885Y-129486467D01*
X113202277Y-129654674D01*
X113345326Y-129797723D01*
X113513533Y-129910115D01*
X113700435Y-129987533D01*
X113898849Y-130027000D01*
X114101151Y-130027000D01*
X114299565Y-129987533D01*
X114486467Y-129910115D01*
X114654674Y-129797723D01*
X114797723Y-129654674D01*
X114849623Y-129577000D01*
X115871649Y-129577000D01*
X115899980Y-129579790D01*
X115928311Y-129577000D01*
X115928316Y-129577000D01*
X115958025Y-129574074D01*
X116013091Y-129568651D01*
X116057750Y-129555103D01*
X116121856Y-129535657D01*
X116222095Y-129482079D01*
X116309954Y-129409974D01*
X116328019Y-129387962D01*
X118870934Y-126845047D01*
X118870934Y-127037500D01*
X118883742Y-127167541D01*
X118921673Y-127292584D01*
X118983271Y-127407824D01*
X119066167Y-127508833D01*
X119116329Y-127550000D01*
X119066167Y-127591167D01*
X118983271Y-127692176D01*
X118921673Y-127807416D01*
X118883742Y-127932459D01*
X118870934Y-128062500D01*
X118870934Y-128537500D01*
X118883742Y-128667541D01*
X118921673Y-128792584D01*
X118983271Y-128907824D01*
X119066167Y-129008833D01*
X119116329Y-129050000D01*
X119066167Y-129091167D01*
X118983271Y-129192176D01*
X118921673Y-129307416D01*
X118883742Y-129432459D01*
X118870934Y-129562500D01*
X118870934Y-130037500D01*
X118883742Y-130167541D01*
X118921673Y-130292584D01*
X118983271Y-130407824D01*
X119066167Y-130508833D01*
X119167176Y-130591729D01*
X119282416Y-130653327D01*
X119407459Y-130691258D01*
X119537500Y-130704066D01*
X120037500Y-130704066D01*
X120167541Y-130691258D01*
X120292584Y-130653327D01*
X120407824Y-130591729D01*
X120508833Y-130508833D01*
X120591729Y-130407824D01*
X120606306Y-130380554D01*
X120635760Y-130477650D01*
X120684695Y-130569202D01*
X120750552Y-130649448D01*
X120830798Y-130715305D01*
X120922350Y-130764240D01*
X121021690Y-130794375D01*
X121125000Y-130804550D01*
X121457750Y-130802000D01*
X121589500Y-130670250D01*
X121589500Y-129823000D01*
X121569500Y-129823000D01*
X121569500Y-129777000D01*
X121589500Y-129777000D01*
X121589500Y-129757000D01*
X121635500Y-129757000D01*
X121635500Y-129777000D01*
X121655500Y-129777000D01*
X121655500Y-129823000D01*
X121635500Y-129823000D01*
X121635500Y-130670250D01*
X121767250Y-130802000D01*
X122100000Y-130804550D01*
X122203310Y-130794375D01*
X122302650Y-130764240D01*
X122394202Y-130715305D01*
X122474448Y-130649448D01*
X122540305Y-130569202D01*
X122589240Y-130477650D01*
X122619375Y-130378310D01*
X122629550Y-130275000D01*
X122628420Y-130133101D01*
X122651035Y-130137599D01*
X122813939Y-130137599D01*
X122973714Y-130105817D01*
X123124218Y-130043476D01*
X123259668Y-129952971D01*
X123297950Y-129914689D01*
X123312638Y-129932586D01*
X123334650Y-129950651D01*
X124371961Y-130987962D01*
X124390026Y-131009974D01*
X124477885Y-131082079D01*
X124578124Y-131135657D01*
X124622782Y-131149204D01*
X124686888Y-131168651D01*
X124744886Y-131174363D01*
X124771664Y-131177000D01*
X124771669Y-131177000D01*
X124800000Y-131179790D01*
X124828331Y-131177000D01*
X130107447Y-131177000D01*
X130172819Y-131242372D01*
X130308269Y-131332877D01*
X130458773Y-131395218D01*
X130618548Y-131427000D01*
X130781452Y-131427000D01*
X130941227Y-131395218D01*
X131091731Y-131332877D01*
X131227181Y-131242372D01*
X131342372Y-131127181D01*
X131432877Y-130991731D01*
X131495218Y-130841227D01*
X131527000Y-130681452D01*
X131527000Y-130518548D01*
X131495218Y-130358773D01*
X131482053Y-130326989D01*
X132248488Y-130326989D01*
X132270934Y-130349435D01*
X132270934Y-130737500D01*
X132283742Y-130867541D01*
X132321673Y-130992584D01*
X132383271Y-131107824D01*
X132466167Y-131208833D01*
X132567176Y-131291729D01*
X132682416Y-131353327D01*
X132807459Y-131391258D01*
X132937500Y-131404066D01*
X133537500Y-131404066D01*
X133667541Y-131391258D01*
X133792584Y-131353327D01*
X133907824Y-131291729D01*
X133969626Y-131241009D01*
X133984695Y-131269202D01*
X134050552Y-131349448D01*
X134130798Y-131415305D01*
X134222350Y-131464240D01*
X134321690Y-131494375D01*
X134425000Y-131504550D01*
X134807750Y-131502000D01*
X134939500Y-131370250D01*
X134939500Y-130523000D01*
X134985500Y-130523000D01*
X134985500Y-131370250D01*
X135117250Y-131502000D01*
X135500000Y-131504550D01*
X135603310Y-131494375D01*
X135702650Y-131464240D01*
X135794202Y-131415305D01*
X135874448Y-131349448D01*
X135940305Y-131269202D01*
X135989240Y-131177650D01*
X136019375Y-131078310D01*
X136029550Y-130975000D01*
X136027000Y-130654750D01*
X135895250Y-130523000D01*
X134985500Y-130523000D01*
X134939500Y-130523000D01*
X134919500Y-130523000D01*
X134919500Y-130477000D01*
X134939500Y-130477000D01*
X134939500Y-129629750D01*
X134985500Y-129629750D01*
X134985500Y-130477000D01*
X135895250Y-130477000D01*
X136027000Y-130345250D01*
X136029550Y-130025000D01*
X136019375Y-129921690D01*
X135989240Y-129822350D01*
X135940305Y-129730798D01*
X135874448Y-129650552D01*
X135794202Y-129584695D01*
X135702650Y-129535760D01*
X135603310Y-129505625D01*
X135500000Y-129495450D01*
X135117250Y-129498000D01*
X134985500Y-129629750D01*
X134939500Y-129629750D01*
X134807750Y-129498000D01*
X134425000Y-129495450D01*
X134321690Y-129505625D01*
X134222350Y-129535760D01*
X134167292Y-129565189D01*
X134174500Y-129528952D01*
X134174500Y-129367673D01*
X134214850Y-129389240D01*
X134314190Y-129419375D01*
X134417500Y-129429550D01*
X134462750Y-129427000D01*
X134594500Y-129295250D01*
X134594500Y-129012788D01*
X134603322Y-128983707D01*
X134611566Y-128900000D01*
X134611566Y-127700000D01*
X134603322Y-127616293D01*
X134594500Y-127587212D01*
X134594500Y-127304750D01*
X134540052Y-127250302D01*
X134518157Y-127178124D01*
X134464579Y-127077885D01*
X134392474Y-126990026D01*
X134370462Y-126971961D01*
X134110539Y-126712038D01*
X134092474Y-126690026D01*
X134004615Y-126617921D01*
X133904376Y-126564343D01*
X133840270Y-126544897D01*
X133795611Y-126531349D01*
X133740545Y-126525926D01*
X133710836Y-126523000D01*
X133710831Y-126523000D01*
X133682500Y-126520210D01*
X133654169Y-126523000D01*
X130992553Y-126523000D01*
X130927181Y-126457628D01*
X130791731Y-126367123D01*
X130641227Y-126304782D01*
X130616198Y-126299803D01*
X130639001Y-126277000D01*
X130771669Y-126277000D01*
X130800000Y-126279790D01*
X130828331Y-126277000D01*
X130828336Y-126277000D01*
X130858045Y-126274074D01*
X130913111Y-126268651D01*
X130963625Y-126253327D01*
X131021876Y-126235657D01*
X131122115Y-126182079D01*
X131209974Y-126109974D01*
X131228039Y-126087962D01*
X132373224Y-124942777D01*
X132472819Y-125042372D01*
X132608269Y-125132877D01*
X132758773Y-125195218D01*
X132918548Y-125227000D01*
X133081452Y-125227000D01*
X133241227Y-125195218D01*
X133391731Y-125132877D01*
X133527181Y-125042372D01*
X133642372Y-124927181D01*
X133732877Y-124791731D01*
X133795218Y-124641227D01*
X133827000Y-124481452D01*
X133827000Y-124318548D01*
X133809000Y-124228057D01*
X133827750Y-124227000D01*
X133959500Y-124095250D01*
X133959500Y-123812788D01*
X133968322Y-123783707D01*
X133976566Y-123700000D01*
X133976566Y-123057000D01*
X133988434Y-123057000D01*
X133988434Y-123700000D01*
G37*
%TD.AperFunction*%
D25*
X127723000Y-127014500D02*
X127743000Y-127014500D01*
X127743000Y-127060500D01*
X127723000Y-127060500D01*
X127723000Y-127080500D01*
X127677000Y-127080500D01*
X127677000Y-127060500D01*
X127657000Y-127060500D01*
X127657000Y-127014500D01*
X127677000Y-127014500D01*
X127677000Y-126994500D01*
X127723000Y-126994500D01*
X127723000Y-127014500D01*
%TA.AperFunction,Conductor*%
D26*
G36*
X127723000Y-127014500D02*
G01*
X127743000Y-127014500D01*
X127743000Y-127060500D01*
X127723000Y-127060500D01*
X127723000Y-127080500D01*
X127677000Y-127080500D01*
X127677000Y-127060500D01*
X127657000Y-127060500D01*
X127657000Y-127014500D01*
X127677000Y-127014500D01*
X127677000Y-126994500D01*
X127723000Y-126994500D01*
X127723000Y-127014500D01*
G37*
%TD.AperFunction*%
D25*
X129872819Y-125242372D02*
X129973774Y-125309828D01*
X129971963Y-125312036D01*
X129213065Y-126070934D01*
X129091277Y-126070934D01*
X129119375Y-125978310D01*
X129129550Y-125875000D01*
X129127000Y-125554750D01*
X128995250Y-125423000D01*
X128085500Y-125423000D01*
X128085500Y-125443000D01*
X128039500Y-125443000D01*
X128039500Y-125423000D01*
X128019500Y-125423000D01*
X128019500Y-125377000D01*
X128039500Y-125377000D01*
X128039500Y-125357000D01*
X128085500Y-125357000D01*
X128085500Y-125377000D01*
X128995250Y-125377000D01*
X129127000Y-125245250D01*
X129127543Y-125177000D01*
X129807447Y-125177000D01*
X129872819Y-125242372D01*
%TA.AperFunction,Conductor*%
D26*
G36*
X129872819Y-125242372D02*
G01*
X129973774Y-125309828D01*
X129971963Y-125312036D01*
X129213065Y-126070934D01*
X129091277Y-126070934D01*
X129119375Y-125978310D01*
X129129550Y-125875000D01*
X129127000Y-125554750D01*
X128995250Y-125423000D01*
X128085500Y-125423000D01*
X128085500Y-125443000D01*
X128039500Y-125443000D01*
X128039500Y-125423000D01*
X128019500Y-125423000D01*
X128019500Y-125377000D01*
X128039500Y-125377000D01*
X128039500Y-125357000D01*
X128085500Y-125357000D01*
X128085500Y-125377000D01*
X128995250Y-125377000D01*
X129127000Y-125245250D01*
X129127543Y-125177000D01*
X129807447Y-125177000D01*
X129872819Y-125242372D01*
G37*
%TD.AperFunction*%
D25*
X122420934Y-122679318D02*
X122420934Y-123900000D01*
X122431580Y-124008093D01*
X122463110Y-124112032D01*
X122514311Y-124207823D01*
X122523000Y-124218411D01*
X122523001Y-124685500D01*
X121941612Y-124685500D01*
X121891729Y-124592176D01*
X121841009Y-124530374D01*
X121869202Y-124515305D01*
X121949448Y-124449448D01*
X122015305Y-124369202D01*
X122064240Y-124277650D01*
X122094375Y-124178310D01*
X122104550Y-124075000D01*
X122102000Y-123692250D01*
X121970250Y-123560500D01*
X121123000Y-123560500D01*
X121123000Y-123580500D01*
X121077000Y-123580500D01*
X121077000Y-123560500D01*
X121057000Y-123560500D01*
X121057000Y-123514500D01*
X121077000Y-123514500D01*
X121077000Y-123494500D01*
X121123000Y-123494500D01*
X121123000Y-123514500D01*
X121970250Y-123514500D01*
X122102000Y-123382750D01*
X122104550Y-123000000D01*
X122094375Y-122896690D01*
X122064240Y-122797350D01*
X122015305Y-122705798D01*
X121992066Y-122677481D01*
X122420934Y-122679318D01*
%TA.AperFunction,Conductor*%
D26*
G36*
X122420934Y-122679318D02*
G01*
X122420934Y-123900000D01*
X122431580Y-124008093D01*
X122463110Y-124112032D01*
X122514311Y-124207823D01*
X122523000Y-124218411D01*
X122523001Y-124685500D01*
X121941612Y-124685500D01*
X121891729Y-124592176D01*
X121841009Y-124530374D01*
X121869202Y-124515305D01*
X121949448Y-124449448D01*
X122015305Y-124369202D01*
X122064240Y-124277650D01*
X122094375Y-124178310D01*
X122104550Y-124075000D01*
X122102000Y-123692250D01*
X121970250Y-123560500D01*
X121123000Y-123560500D01*
X121123000Y-123580500D01*
X121077000Y-123580500D01*
X121077000Y-123560500D01*
X121057000Y-123560500D01*
X121057000Y-123514500D01*
X121077000Y-123514500D01*
X121077000Y-123494500D01*
X121123000Y-123494500D01*
X121123000Y-123514500D01*
X121970250Y-123514500D01*
X122102000Y-123382750D01*
X122104550Y-123000000D01*
X122094375Y-122896690D01*
X122064240Y-122797350D01*
X122015305Y-122705798D01*
X121992066Y-122677481D01*
X122420934Y-122679318D01*
G37*
%TD.AperFunction*%
D25*
X131600000Y-112680275D02*
X131633252Y-112677000D01*
X132219578Y-112677000D01*
X132585160Y-113042582D01*
X132604782Y-113141227D01*
X132667123Y-113291731D01*
X132757628Y-113427181D01*
X132872819Y-113542372D01*
X133008269Y-113632877D01*
X133155951Y-113694049D01*
X133217123Y-113841731D01*
X133307628Y-113977181D01*
X133422819Y-114092372D01*
X133558269Y-114182877D01*
X133708773Y-114245218D01*
X133868548Y-114277000D01*
X134031452Y-114277000D01*
X134191227Y-114245218D01*
X134205031Y-114239500D01*
X134370934Y-114239500D01*
X134370934Y-114700000D01*
X134383982Y-114832479D01*
X134422625Y-114959867D01*
X134485377Y-115077269D01*
X134569828Y-115180172D01*
X134672731Y-115264623D01*
X134790133Y-115327375D01*
X134917521Y-115366018D01*
X135050000Y-115379066D01*
X136150000Y-115379066D01*
X136282479Y-115366018D01*
X136409867Y-115327375D01*
X136527269Y-115264623D01*
X136630172Y-115180172D01*
X136714623Y-115077269D01*
X136777375Y-114959867D01*
X136816018Y-114832479D01*
X136829066Y-114700000D01*
X136829066Y-114239500D01*
X136904255Y-114239500D01*
X136937500Y-114242774D01*
X136970745Y-114239500D01*
X136970752Y-114239500D01*
X137070215Y-114229704D01*
X137197830Y-114190992D01*
X137315441Y-114128128D01*
X137418527Y-114043527D01*
X137439726Y-114017696D01*
X138678144Y-112779279D01*
X138711624Y-112806755D01*
X138785804Y-112846405D01*
X138797655Y-112850000D01*
X138785804Y-112853595D01*
X138711624Y-112893245D01*
X138646605Y-112946605D01*
X138593245Y-113011624D01*
X138553595Y-113085804D01*
X138529178Y-113166293D01*
X138520934Y-113250000D01*
X138520934Y-114750000D01*
X138529178Y-114833707D01*
X138553595Y-114914196D01*
X138593245Y-114988376D01*
X138646605Y-115053395D01*
X138711624Y-115106755D01*
X138785804Y-115146405D01*
X138866293Y-115170822D01*
X138950000Y-115179066D01*
X139060501Y-115179066D01*
X139060500Y-115458387D01*
X138967176Y-115508271D01*
X138866167Y-115591167D01*
X138783271Y-115692176D01*
X138721673Y-115807416D01*
X138683742Y-115932459D01*
X138670934Y-116062500D01*
X138670934Y-116537500D01*
X138683742Y-116667541D01*
X138721673Y-116792584D01*
X138783271Y-116907824D01*
X138866167Y-117008833D01*
X138903284Y-117039294D01*
X138819578Y-117123000D01*
X138533252Y-117123000D01*
X138500000Y-117119725D01*
X138367285Y-117132796D01*
X138239670Y-117171508D01*
X138122059Y-117234372D01*
X138047268Y-117295752D01*
X138018973Y-117318973D01*
X137997778Y-117344799D01*
X137269800Y-118072778D01*
X137243974Y-118093973D01*
X137222779Y-118119799D01*
X137222776Y-118119802D01*
X137159372Y-118197060D01*
X137096508Y-118314671D01*
X137057796Y-118442286D01*
X137054975Y-118470934D01*
X136650000Y-118470934D01*
X136517521Y-118483982D01*
X136390133Y-118522625D01*
X136272731Y-118585377D01*
X136169828Y-118669828D01*
X136085377Y-118772731D01*
X136022625Y-118890133D01*
X135983982Y-119017521D01*
X135973593Y-119123000D01*
X135375357Y-119123000D01*
X135291731Y-119067123D01*
X135141227Y-119004782D01*
X134981452Y-118973000D01*
X134818548Y-118973000D01*
X134658773Y-119004782D01*
X134508269Y-119067123D01*
X134372819Y-119157628D01*
X134257628Y-119272819D01*
X134167123Y-119408269D01*
X134104782Y-119558773D01*
X134073000Y-119718548D01*
X134073000Y-119881452D01*
X134104782Y-120041227D01*
X134167123Y-120191731D01*
X134176273Y-120205424D01*
X134075000Y-120195450D01*
X133692250Y-120198000D01*
X133560500Y-120329750D01*
X133560500Y-121177000D01*
X133580500Y-121177000D01*
X133580500Y-121223000D01*
X133560500Y-121223000D01*
X133560500Y-121243000D01*
X133514500Y-121243000D01*
X133514500Y-121223000D01*
X132604750Y-121223000D01*
X132473000Y-121354750D01*
X132470450Y-121675000D01*
X132480625Y-121778310D01*
X132510760Y-121877650D01*
X132559695Y-121969202D01*
X132625552Y-122049448D01*
X132651732Y-122070934D01*
X132512500Y-122070934D01*
X132428793Y-122079178D01*
X132395000Y-122089429D01*
X132361207Y-122079178D01*
X132277500Y-122070934D01*
X131877500Y-122070934D01*
X131793793Y-122079178D01*
X131713304Y-122103595D01*
X131639124Y-122143245D01*
X131574105Y-122196605D01*
X131520745Y-122261624D01*
X131481095Y-122335804D01*
X131456678Y-122416293D01*
X131448434Y-122500000D01*
X131448434Y-123700000D01*
X131456678Y-123783707D01*
X131481095Y-123864196D01*
X131500500Y-123900501D01*
X131500500Y-124183499D01*
X131216788Y-124467211D01*
X131195218Y-124358773D01*
X131132877Y-124208269D01*
X131042372Y-124072819D01*
X130927181Y-123957628D01*
X130791731Y-123867123D01*
X130641227Y-123804782D01*
X130481452Y-123773000D01*
X130318548Y-123773000D01*
X130158773Y-123804782D01*
X130008269Y-123867123D01*
X129872819Y-123957628D01*
X129807447Y-124023000D01*
X129363898Y-124023000D01*
X129368420Y-124008093D01*
X129379066Y-123900000D01*
X129379066Y-123122020D01*
X129432628Y-123202181D01*
X129547819Y-123317372D01*
X129683269Y-123407877D01*
X129833773Y-123470218D01*
X129993548Y-123502000D01*
X130156452Y-123502000D01*
X130316227Y-123470218D01*
X130466731Y-123407877D01*
X130602181Y-123317372D01*
X130717372Y-123202181D01*
X130807877Y-123066731D01*
X130870218Y-122916227D01*
X130902000Y-122756452D01*
X130902000Y-122593548D01*
X130891942Y-122542984D01*
X130912032Y-122536890D01*
X131007823Y-122485689D01*
X131091784Y-122416784D01*
X131160689Y-122332823D01*
X131211890Y-122237032D01*
X131243420Y-122133093D01*
X131254066Y-122025000D01*
X131254066Y-121775000D01*
X131243420Y-121666907D01*
X131211890Y-121562968D01*
X131178233Y-121500000D01*
X131211890Y-121437032D01*
X131243420Y-121333093D01*
X131254066Y-121225000D01*
X131254066Y-120975000D01*
X131243420Y-120866907D01*
X131211890Y-120762968D01*
X131191596Y-120725000D01*
X132470450Y-120725000D01*
X132473000Y-121045250D01*
X132604750Y-121177000D01*
X133514500Y-121177000D01*
X133514500Y-120329750D01*
X133382750Y-120198000D01*
X133000000Y-120195450D01*
X132896690Y-120205625D01*
X132797350Y-120235760D01*
X132705798Y-120284695D01*
X132625552Y-120350552D01*
X132559695Y-120430798D01*
X132510760Y-120522350D01*
X132480625Y-120621690D01*
X132470450Y-120725000D01*
X131191596Y-120725000D01*
X131178233Y-120700000D01*
X131211890Y-120637032D01*
X131243420Y-120533093D01*
X131254066Y-120425000D01*
X131254066Y-120175000D01*
X131243420Y-120066907D01*
X131211890Y-119962968D01*
X131178233Y-119900000D01*
X131211890Y-119837032D01*
X131243420Y-119733093D01*
X131254066Y-119625000D01*
X131254066Y-119375000D01*
X131243420Y-119266907D01*
X131211890Y-119162968D01*
X131178233Y-119100000D01*
X131211890Y-119037032D01*
X131243420Y-118933093D01*
X131254066Y-118825000D01*
X131254066Y-118727000D01*
X131381452Y-118727000D01*
X131541227Y-118695218D01*
X131691731Y-118632877D01*
X131827181Y-118542372D01*
X131942372Y-118427181D01*
X132032877Y-118291731D01*
X132095218Y-118141227D01*
X132127000Y-117981452D01*
X132127000Y-117927000D01*
X132181452Y-117927000D01*
X132341227Y-117895218D01*
X132491731Y-117832877D01*
X132627181Y-117742372D01*
X132742372Y-117627181D01*
X132832877Y-117491731D01*
X132895218Y-117341227D01*
X132927000Y-117181452D01*
X132927000Y-117018548D01*
X132895218Y-116858773D01*
X132832877Y-116708269D01*
X132742372Y-116572819D01*
X132627181Y-116457628D01*
X132491731Y-116367123D01*
X132341227Y-116304782D01*
X132181452Y-116273000D01*
X132018548Y-116273000D01*
X131858773Y-116304782D01*
X131708269Y-116367123D01*
X131572819Y-116457628D01*
X131507447Y-116523000D01*
X131353827Y-116523000D01*
X131352000Y-116454750D01*
X131220250Y-116323000D01*
X130098000Y-116323000D01*
X130098000Y-116343000D01*
X130052000Y-116343000D01*
X130052000Y-116323000D01*
X128929750Y-116323000D01*
X128798000Y-116454750D01*
X128795450Y-116550000D01*
X128805625Y-116653310D01*
X128835760Y-116752650D01*
X128884695Y-116844202D01*
X128906232Y-116870444D01*
X128895934Y-116975000D01*
X128895934Y-117225000D01*
X128906580Y-117333093D01*
X128938110Y-117437032D01*
X128971767Y-117500000D01*
X128938110Y-117562968D01*
X128906580Y-117666907D01*
X128895934Y-117775000D01*
X128895934Y-118025000D01*
X128905586Y-118123000D01*
X127595265Y-118123000D01*
X127579328Y-118042883D01*
X127516987Y-117892379D01*
X127426482Y-117756929D01*
X127311291Y-117641738D01*
X127175841Y-117551233D01*
X127025337Y-117488892D01*
X126865562Y-117457110D01*
X126702658Y-117457110D01*
X126542883Y-117488892D01*
X126392379Y-117551233D01*
X126256929Y-117641738D01*
X126141738Y-117756929D01*
X126051233Y-117892379D01*
X125988892Y-118042883D01*
X125957110Y-118202658D01*
X125957110Y-118365562D01*
X125988892Y-118525337D01*
X126051233Y-118675841D01*
X126141738Y-118811291D01*
X126256929Y-118926482D01*
X126392379Y-119016987D01*
X126542883Y-119079328D01*
X126702658Y-119111110D01*
X126791410Y-119111110D01*
X126877885Y-119182079D01*
X126978124Y-119235657D01*
X127086888Y-119268650D01*
X127171664Y-119277000D01*
X127171670Y-119277000D01*
X127199999Y-119279790D01*
X127228328Y-119277000D01*
X127722673Y-119277000D01*
X127647844Y-119388990D01*
X127585503Y-119539494D01*
X127553721Y-119699269D01*
X127553721Y-119862173D01*
X127585503Y-120021948D01*
X127647844Y-120172452D01*
X127738349Y-120307902D01*
X127781964Y-120351517D01*
X127772819Y-120357628D01*
X127657628Y-120472819D01*
X127567123Y-120608269D01*
X127504782Y-120758773D01*
X127473000Y-120918548D01*
X127473000Y-121081452D01*
X127504782Y-121241227D01*
X127567123Y-121391731D01*
X127657628Y-121527181D01*
X127772819Y-121642372D01*
X127908269Y-121732877D01*
X128058773Y-121795218D01*
X128218548Y-121827000D01*
X128381452Y-121827000D01*
X128541227Y-121795218D01*
X128691731Y-121732877D01*
X128827181Y-121642372D01*
X128942372Y-121527181D01*
X128966775Y-121490660D01*
X128971767Y-121500000D01*
X128938110Y-121562968D01*
X128906580Y-121666907D01*
X128895934Y-121775000D01*
X128895934Y-122025000D01*
X128903683Y-122103683D01*
X128825000Y-122095934D01*
X128575000Y-122095934D01*
X128466907Y-122106580D01*
X128362968Y-122138110D01*
X128300000Y-122171767D01*
X128237032Y-122138110D01*
X128133093Y-122106580D01*
X128025000Y-122095934D01*
X127775000Y-122095934D01*
X127666907Y-122106580D01*
X127562968Y-122138110D01*
X127500000Y-122171767D01*
X127437032Y-122138110D01*
X127333093Y-122106580D01*
X127225000Y-122095934D01*
X126975000Y-122095934D01*
X126879263Y-122105363D01*
X126879791Y-122100000D01*
X126868651Y-121986888D01*
X126836309Y-121880275D01*
X126835657Y-121878124D01*
X126782079Y-121777885D01*
X126709974Y-121690026D01*
X126687962Y-121671961D01*
X125928037Y-120912036D01*
X125909972Y-120890024D01*
X125822113Y-120817919D01*
X125721874Y-120764341D01*
X125655992Y-120744356D01*
X125613109Y-120731347D01*
X125558043Y-120725924D01*
X125528334Y-120722998D01*
X125528329Y-120722998D01*
X125499998Y-120720208D01*
X125471667Y-120722998D01*
X123670662Y-120722998D01*
X123642333Y-120720208D01*
X123614004Y-120722998D01*
X123613998Y-120722998D01*
X123529222Y-120731348D01*
X123420458Y-120764341D01*
X123320219Y-120817919D01*
X123274314Y-120855593D01*
X123254369Y-120871961D01*
X123254367Y-120871963D01*
X123232360Y-120890024D01*
X123214299Y-120912031D01*
X122904066Y-121222265D01*
X122904066Y-120975000D01*
X122893420Y-120866907D01*
X122861890Y-120762968D01*
X122828233Y-120700000D01*
X122861890Y-120637032D01*
X122893420Y-120533093D01*
X122904066Y-120425000D01*
X122904066Y-120175000D01*
X122893420Y-120066907D01*
X122861890Y-119962968D01*
X122828233Y-119900000D01*
X122861890Y-119837032D01*
X122893420Y-119733093D01*
X122904066Y-119625000D01*
X122904066Y-119375000D01*
X122893420Y-119266907D01*
X122861890Y-119162968D01*
X122828233Y-119100000D01*
X122861890Y-119037032D01*
X122893420Y-118933093D01*
X122904066Y-118825000D01*
X122904066Y-118575000D01*
X122893420Y-118466907D01*
X122861890Y-118362968D01*
X122828233Y-118300000D01*
X122861890Y-118237032D01*
X122893420Y-118133093D01*
X122904066Y-118025000D01*
X122904066Y-117775000D01*
X122893420Y-117666907D01*
X122861890Y-117562968D01*
X122828233Y-117500000D01*
X122861890Y-117437032D01*
X122893420Y-117333093D01*
X122904066Y-117225000D01*
X122904066Y-116975000D01*
X122893420Y-116866907D01*
X122861890Y-116762968D01*
X122828233Y-116700000D01*
X122861890Y-116637032D01*
X122893420Y-116533093D01*
X122904066Y-116425000D01*
X122904066Y-116175000D01*
X122896317Y-116096317D01*
X122975000Y-116104066D01*
X123225000Y-116104066D01*
X123333093Y-116093420D01*
X123437032Y-116061890D01*
X123500000Y-116028233D01*
X123562968Y-116061890D01*
X123666907Y-116093420D01*
X123775000Y-116104066D01*
X124025000Y-116104066D01*
X124133093Y-116093420D01*
X124237032Y-116061890D01*
X124300000Y-116028233D01*
X124362968Y-116061890D01*
X124466907Y-116093420D01*
X124575000Y-116104066D01*
X124601381Y-116104066D01*
X124532628Y-116172819D01*
X124442123Y-116308269D01*
X124379782Y-116458773D01*
X124348000Y-116618548D01*
X124348000Y-116781452D01*
X124379782Y-116941227D01*
X124442123Y-117091731D01*
X124532628Y-117227181D01*
X124647819Y-117342372D01*
X124783269Y-117432877D01*
X124933773Y-117495218D01*
X125093548Y-117527000D01*
X125256452Y-117527000D01*
X125416227Y-117495218D01*
X125566731Y-117432877D01*
X125702181Y-117342372D01*
X125817372Y-117227181D01*
X125907877Y-117091731D01*
X125970218Y-116941227D01*
X125977095Y-116906655D01*
X126057628Y-117027181D01*
X126172819Y-117142372D01*
X126308269Y-117232877D01*
X126458773Y-117295218D01*
X126618548Y-117327000D01*
X126781452Y-117327000D01*
X126941227Y-117295218D01*
X127091731Y-117232877D01*
X127227181Y-117142372D01*
X127310481Y-117059072D01*
X127443595Y-117148016D01*
X127594099Y-117210357D01*
X127753874Y-117242139D01*
X127916778Y-117242139D01*
X128076553Y-117210357D01*
X128227057Y-117148016D01*
X128362507Y-117057511D01*
X128477698Y-116942320D01*
X128568203Y-116806870D01*
X128630544Y-116656366D01*
X128662326Y-116496591D01*
X128662326Y-116333687D01*
X128630544Y-116173912D01*
X128601613Y-116104066D01*
X128796897Y-116104066D01*
X128798000Y-116145250D01*
X128929750Y-116277000D01*
X130052000Y-116277000D01*
X130052000Y-115654750D01*
X130098000Y-115654750D01*
X130098000Y-116277000D01*
X131220250Y-116277000D01*
X131352000Y-116145250D01*
X131354550Y-116050000D01*
X131344375Y-115946690D01*
X131314240Y-115847350D01*
X131265305Y-115755798D01*
X131199448Y-115675552D01*
X131119202Y-115609695D01*
X131027650Y-115560760D01*
X130928310Y-115530625D01*
X130825000Y-115520450D01*
X130229750Y-115523000D01*
X130098000Y-115654750D01*
X130052000Y-115654750D01*
X129920250Y-115523000D01*
X129379066Y-115520682D01*
X129379066Y-115219419D01*
X129467176Y-115291729D01*
X129582416Y-115353327D01*
X129707459Y-115391258D01*
X129837500Y-115404066D01*
X130437500Y-115404066D01*
X130567541Y-115391258D01*
X130692584Y-115353327D01*
X130807824Y-115291729D01*
X130869626Y-115241009D01*
X130884695Y-115269202D01*
X130950552Y-115349448D01*
X131030798Y-115415305D01*
X131122350Y-115464240D01*
X131221690Y-115494375D01*
X131325000Y-115504550D01*
X131707750Y-115502000D01*
X131839500Y-115370250D01*
X131839500Y-114523000D01*
X131885500Y-114523000D01*
X131885500Y-115370250D01*
X132017250Y-115502000D01*
X132400000Y-115504550D01*
X132503310Y-115494375D01*
X132602650Y-115464240D01*
X132694202Y-115415305D01*
X132774448Y-115349448D01*
X132840305Y-115269202D01*
X132889240Y-115177650D01*
X132919375Y-115078310D01*
X132929550Y-114975000D01*
X132927000Y-114654750D01*
X132795250Y-114523000D01*
X131885500Y-114523000D01*
X131839500Y-114523000D01*
X131819500Y-114523000D01*
X131819500Y-114477000D01*
X131839500Y-114477000D01*
X131839500Y-113629750D01*
X131885500Y-113629750D01*
X131885500Y-114477000D01*
X132795250Y-114477000D01*
X132927000Y-114345250D01*
X132929550Y-114025000D01*
X132919375Y-113921690D01*
X132889240Y-113822350D01*
X132840305Y-113730798D01*
X132774448Y-113650552D01*
X132694202Y-113584695D01*
X132602650Y-113535760D01*
X132503310Y-113505625D01*
X132400000Y-113495450D01*
X132017250Y-113498000D01*
X131885500Y-113629750D01*
X131839500Y-113629750D01*
X131707750Y-113498000D01*
X131325000Y-113495450D01*
X131221690Y-113505625D01*
X131122350Y-113535760D01*
X131030798Y-113584695D01*
X130950552Y-113650552D01*
X130884695Y-113730798D01*
X130869626Y-113758991D01*
X130807824Y-113708271D01*
X130714500Y-113658388D01*
X130714500Y-113365828D01*
X130717290Y-113337499D01*
X130714500Y-113309170D01*
X130714500Y-113309164D01*
X130706150Y-113224388D01*
X130673157Y-113115624D01*
X130619579Y-113015385D01*
X130547474Y-112927526D01*
X130525459Y-112909458D01*
X130428040Y-112812039D01*
X130409974Y-112790026D01*
X130322115Y-112717921D01*
X130245556Y-112677000D01*
X131566748Y-112677000D01*
X131600000Y-112680275D01*
%TA.AperFunction,Conductor*%
D26*
G36*
X131600000Y-112680275D02*
G01*
X131633252Y-112677000D01*
X132219578Y-112677000D01*
X132585160Y-113042582D01*
X132604782Y-113141227D01*
X132667123Y-113291731D01*
X132757628Y-113427181D01*
X132872819Y-113542372D01*
X133008269Y-113632877D01*
X133155951Y-113694049D01*
X133217123Y-113841731D01*
X133307628Y-113977181D01*
X133422819Y-114092372D01*
X133558269Y-114182877D01*
X133708773Y-114245218D01*
X133868548Y-114277000D01*
X134031452Y-114277000D01*
X134191227Y-114245218D01*
X134205031Y-114239500D01*
X134370934Y-114239500D01*
X134370934Y-114700000D01*
X134383982Y-114832479D01*
X134422625Y-114959867D01*
X134485377Y-115077269D01*
X134569828Y-115180172D01*
X134672731Y-115264623D01*
X134790133Y-115327375D01*
X134917521Y-115366018D01*
X135050000Y-115379066D01*
X136150000Y-115379066D01*
X136282479Y-115366018D01*
X136409867Y-115327375D01*
X136527269Y-115264623D01*
X136630172Y-115180172D01*
X136714623Y-115077269D01*
X136777375Y-114959867D01*
X136816018Y-114832479D01*
X136829066Y-114700000D01*
X136829066Y-114239500D01*
X136904255Y-114239500D01*
X136937500Y-114242774D01*
X136970745Y-114239500D01*
X136970752Y-114239500D01*
X137070215Y-114229704D01*
X137197830Y-114190992D01*
X137315441Y-114128128D01*
X137418527Y-114043527D01*
X137439726Y-114017696D01*
X138678144Y-112779279D01*
X138711624Y-112806755D01*
X138785804Y-112846405D01*
X138797655Y-112850000D01*
X138785804Y-112853595D01*
X138711624Y-112893245D01*
X138646605Y-112946605D01*
X138593245Y-113011624D01*
X138553595Y-113085804D01*
X138529178Y-113166293D01*
X138520934Y-113250000D01*
X138520934Y-114750000D01*
X138529178Y-114833707D01*
X138553595Y-114914196D01*
X138593245Y-114988376D01*
X138646605Y-115053395D01*
X138711624Y-115106755D01*
X138785804Y-115146405D01*
X138866293Y-115170822D01*
X138950000Y-115179066D01*
X139060501Y-115179066D01*
X139060500Y-115458387D01*
X138967176Y-115508271D01*
X138866167Y-115591167D01*
X138783271Y-115692176D01*
X138721673Y-115807416D01*
X138683742Y-115932459D01*
X138670934Y-116062500D01*
X138670934Y-116537500D01*
X138683742Y-116667541D01*
X138721673Y-116792584D01*
X138783271Y-116907824D01*
X138866167Y-117008833D01*
X138903284Y-117039294D01*
X138819578Y-117123000D01*
X138533252Y-117123000D01*
X138500000Y-117119725D01*
X138367285Y-117132796D01*
X138239670Y-117171508D01*
X138122059Y-117234372D01*
X138047268Y-117295752D01*
X138018973Y-117318973D01*
X137997778Y-117344799D01*
X137269800Y-118072778D01*
X137243974Y-118093973D01*
X137222779Y-118119799D01*
X137222776Y-118119802D01*
X137159372Y-118197060D01*
X137096508Y-118314671D01*
X137057796Y-118442286D01*
X137054975Y-118470934D01*
X136650000Y-118470934D01*
X136517521Y-118483982D01*
X136390133Y-118522625D01*
X136272731Y-118585377D01*
X136169828Y-118669828D01*
X136085377Y-118772731D01*
X136022625Y-118890133D01*
X135983982Y-119017521D01*
X135973593Y-119123000D01*
X135375357Y-119123000D01*
X135291731Y-119067123D01*
X135141227Y-119004782D01*
X134981452Y-118973000D01*
X134818548Y-118973000D01*
X134658773Y-119004782D01*
X134508269Y-119067123D01*
X134372819Y-119157628D01*
X134257628Y-119272819D01*
X134167123Y-119408269D01*
X134104782Y-119558773D01*
X134073000Y-119718548D01*
X134073000Y-119881452D01*
X134104782Y-120041227D01*
X134167123Y-120191731D01*
X134176273Y-120205424D01*
X134075000Y-120195450D01*
X133692250Y-120198000D01*
X133560500Y-120329750D01*
X133560500Y-121177000D01*
X133580500Y-121177000D01*
X133580500Y-121223000D01*
X133560500Y-121223000D01*
X133560500Y-121243000D01*
X133514500Y-121243000D01*
X133514500Y-121223000D01*
X132604750Y-121223000D01*
X132473000Y-121354750D01*
X132470450Y-121675000D01*
X132480625Y-121778310D01*
X132510760Y-121877650D01*
X132559695Y-121969202D01*
X132625552Y-122049448D01*
X132651732Y-122070934D01*
X132512500Y-122070934D01*
X132428793Y-122079178D01*
X132395000Y-122089429D01*
X132361207Y-122079178D01*
X132277500Y-122070934D01*
X131877500Y-122070934D01*
X131793793Y-122079178D01*
X131713304Y-122103595D01*
X131639124Y-122143245D01*
X131574105Y-122196605D01*
X131520745Y-122261624D01*
X131481095Y-122335804D01*
X131456678Y-122416293D01*
X131448434Y-122500000D01*
X131448434Y-123700000D01*
X131456678Y-123783707D01*
X131481095Y-123864196D01*
X131500500Y-123900501D01*
X131500500Y-124183499D01*
X131216788Y-124467211D01*
X131195218Y-124358773D01*
X131132877Y-124208269D01*
X131042372Y-124072819D01*
X130927181Y-123957628D01*
X130791731Y-123867123D01*
X130641227Y-123804782D01*
X130481452Y-123773000D01*
X130318548Y-123773000D01*
X130158773Y-123804782D01*
X130008269Y-123867123D01*
X129872819Y-123957628D01*
X129807447Y-124023000D01*
X129363898Y-124023000D01*
X129368420Y-124008093D01*
X129379066Y-123900000D01*
X129379066Y-123122020D01*
X129432628Y-123202181D01*
X129547819Y-123317372D01*
X129683269Y-123407877D01*
X129833773Y-123470218D01*
X129993548Y-123502000D01*
X130156452Y-123502000D01*
X130316227Y-123470218D01*
X130466731Y-123407877D01*
X130602181Y-123317372D01*
X130717372Y-123202181D01*
X130807877Y-123066731D01*
X130870218Y-122916227D01*
X130902000Y-122756452D01*
X130902000Y-122593548D01*
X130891942Y-122542984D01*
X130912032Y-122536890D01*
X131007823Y-122485689D01*
X131091784Y-122416784D01*
X131160689Y-122332823D01*
X131211890Y-122237032D01*
X131243420Y-122133093D01*
X131254066Y-122025000D01*
X131254066Y-121775000D01*
X131243420Y-121666907D01*
X131211890Y-121562968D01*
X131178233Y-121500000D01*
X131211890Y-121437032D01*
X131243420Y-121333093D01*
X131254066Y-121225000D01*
X131254066Y-120975000D01*
X131243420Y-120866907D01*
X131211890Y-120762968D01*
X131191596Y-120725000D01*
X132470450Y-120725000D01*
X132473000Y-121045250D01*
X132604750Y-121177000D01*
X133514500Y-121177000D01*
X133514500Y-120329750D01*
X133382750Y-120198000D01*
X133000000Y-120195450D01*
X132896690Y-120205625D01*
X132797350Y-120235760D01*
X132705798Y-120284695D01*
X132625552Y-120350552D01*
X132559695Y-120430798D01*
X132510760Y-120522350D01*
X132480625Y-120621690D01*
X132470450Y-120725000D01*
X131191596Y-120725000D01*
X131178233Y-120700000D01*
X131211890Y-120637032D01*
X131243420Y-120533093D01*
X131254066Y-120425000D01*
X131254066Y-120175000D01*
X131243420Y-120066907D01*
X131211890Y-119962968D01*
X131178233Y-119900000D01*
X131211890Y-119837032D01*
X131243420Y-119733093D01*
X131254066Y-119625000D01*
X131254066Y-119375000D01*
X131243420Y-119266907D01*
X131211890Y-119162968D01*
X131178233Y-119100000D01*
X131211890Y-119037032D01*
X131243420Y-118933093D01*
X131254066Y-118825000D01*
X131254066Y-118727000D01*
X131381452Y-118727000D01*
X131541227Y-118695218D01*
X131691731Y-118632877D01*
X131827181Y-118542372D01*
X131942372Y-118427181D01*
X132032877Y-118291731D01*
X132095218Y-118141227D01*
X132127000Y-117981452D01*
X132127000Y-117927000D01*
X132181452Y-117927000D01*
X132341227Y-117895218D01*
X132491731Y-117832877D01*
X132627181Y-117742372D01*
X132742372Y-117627181D01*
X132832877Y-117491731D01*
X132895218Y-117341227D01*
X132927000Y-117181452D01*
X132927000Y-117018548D01*
X132895218Y-116858773D01*
X132832877Y-116708269D01*
X132742372Y-116572819D01*
X132627181Y-116457628D01*
X132491731Y-116367123D01*
X132341227Y-116304782D01*
X132181452Y-116273000D01*
X132018548Y-116273000D01*
X131858773Y-116304782D01*
X131708269Y-116367123D01*
X131572819Y-116457628D01*
X131507447Y-116523000D01*
X131353827Y-116523000D01*
X131352000Y-116454750D01*
X131220250Y-116323000D01*
X130098000Y-116323000D01*
X130098000Y-116343000D01*
X130052000Y-116343000D01*
X130052000Y-116323000D01*
X128929750Y-116323000D01*
X128798000Y-116454750D01*
X128795450Y-116550000D01*
X128805625Y-116653310D01*
X128835760Y-116752650D01*
X128884695Y-116844202D01*
X128906232Y-116870444D01*
X128895934Y-116975000D01*
X128895934Y-117225000D01*
X128906580Y-117333093D01*
X128938110Y-117437032D01*
X128971767Y-117500000D01*
X128938110Y-117562968D01*
X128906580Y-117666907D01*
X128895934Y-117775000D01*
X128895934Y-118025000D01*
X128905586Y-118123000D01*
X127595265Y-118123000D01*
X127579328Y-118042883D01*
X127516987Y-117892379D01*
X127426482Y-117756929D01*
X127311291Y-117641738D01*
X127175841Y-117551233D01*
X127025337Y-117488892D01*
X126865562Y-117457110D01*
X126702658Y-117457110D01*
X126542883Y-117488892D01*
X126392379Y-117551233D01*
X126256929Y-117641738D01*
X126141738Y-117756929D01*
X126051233Y-117892379D01*
X125988892Y-118042883D01*
X125957110Y-118202658D01*
X125957110Y-118365562D01*
X125988892Y-118525337D01*
X126051233Y-118675841D01*
X126141738Y-118811291D01*
X126256929Y-118926482D01*
X126392379Y-119016987D01*
X126542883Y-119079328D01*
X126702658Y-119111110D01*
X126791410Y-119111110D01*
X126877885Y-119182079D01*
X126978124Y-119235657D01*
X127086888Y-119268650D01*
X127171664Y-119277000D01*
X127171670Y-119277000D01*
X127199999Y-119279790D01*
X127228328Y-119277000D01*
X127722673Y-119277000D01*
X127647844Y-119388990D01*
X127585503Y-119539494D01*
X127553721Y-119699269D01*
X127553721Y-119862173D01*
X127585503Y-120021948D01*
X127647844Y-120172452D01*
X127738349Y-120307902D01*
X127781964Y-120351517D01*
X127772819Y-120357628D01*
X127657628Y-120472819D01*
X127567123Y-120608269D01*
X127504782Y-120758773D01*
X127473000Y-120918548D01*
X127473000Y-121081452D01*
X127504782Y-121241227D01*
X127567123Y-121391731D01*
X127657628Y-121527181D01*
X127772819Y-121642372D01*
X127908269Y-121732877D01*
X128058773Y-121795218D01*
X128218548Y-121827000D01*
X128381452Y-121827000D01*
X128541227Y-121795218D01*
X128691731Y-121732877D01*
X128827181Y-121642372D01*
X128942372Y-121527181D01*
X128966775Y-121490660D01*
X128971767Y-121500000D01*
X128938110Y-121562968D01*
X128906580Y-121666907D01*
X128895934Y-121775000D01*
X128895934Y-122025000D01*
X128903683Y-122103683D01*
X128825000Y-122095934D01*
X128575000Y-122095934D01*
X128466907Y-122106580D01*
X128362968Y-122138110D01*
X128300000Y-122171767D01*
X128237032Y-122138110D01*
X128133093Y-122106580D01*
X128025000Y-122095934D01*
X127775000Y-122095934D01*
X127666907Y-122106580D01*
X127562968Y-122138110D01*
X127500000Y-122171767D01*
X127437032Y-122138110D01*
X127333093Y-122106580D01*
X127225000Y-122095934D01*
X126975000Y-122095934D01*
X126879263Y-122105363D01*
X126879791Y-122100000D01*
X126868651Y-121986888D01*
X126836309Y-121880275D01*
X126835657Y-121878124D01*
X126782079Y-121777885D01*
X126709974Y-121690026D01*
X126687962Y-121671961D01*
X125928037Y-120912036D01*
X125909972Y-120890024D01*
X125822113Y-120817919D01*
X125721874Y-120764341D01*
X125655992Y-120744356D01*
X125613109Y-120731347D01*
X125558043Y-120725924D01*
X125528334Y-120722998D01*
X125528329Y-120722998D01*
X125499998Y-120720208D01*
X125471667Y-120722998D01*
X123670662Y-120722998D01*
X123642333Y-120720208D01*
X123614004Y-120722998D01*
X123613998Y-120722998D01*
X123529222Y-120731348D01*
X123420458Y-120764341D01*
X123320219Y-120817919D01*
X123274314Y-120855593D01*
X123254369Y-120871961D01*
X123254367Y-120871963D01*
X123232360Y-120890024D01*
X123214299Y-120912031D01*
X122904066Y-121222265D01*
X122904066Y-120975000D01*
X122893420Y-120866907D01*
X122861890Y-120762968D01*
X122828233Y-120700000D01*
X122861890Y-120637032D01*
X122893420Y-120533093D01*
X122904066Y-120425000D01*
X122904066Y-120175000D01*
X122893420Y-120066907D01*
X122861890Y-119962968D01*
X122828233Y-119900000D01*
X122861890Y-119837032D01*
X122893420Y-119733093D01*
X122904066Y-119625000D01*
X122904066Y-119375000D01*
X122893420Y-119266907D01*
X122861890Y-119162968D01*
X122828233Y-119100000D01*
X122861890Y-119037032D01*
X122893420Y-118933093D01*
X122904066Y-118825000D01*
X122904066Y-118575000D01*
X122893420Y-118466907D01*
X122861890Y-118362968D01*
X122828233Y-118300000D01*
X122861890Y-118237032D01*
X122893420Y-118133093D01*
X122904066Y-118025000D01*
X122904066Y-117775000D01*
X122893420Y-117666907D01*
X122861890Y-117562968D01*
X122828233Y-117500000D01*
X122861890Y-117437032D01*
X122893420Y-117333093D01*
X122904066Y-117225000D01*
X122904066Y-116975000D01*
X122893420Y-116866907D01*
X122861890Y-116762968D01*
X122828233Y-116700000D01*
X122861890Y-116637032D01*
X122893420Y-116533093D01*
X122904066Y-116425000D01*
X122904066Y-116175000D01*
X122896317Y-116096317D01*
X122975000Y-116104066D01*
X123225000Y-116104066D01*
X123333093Y-116093420D01*
X123437032Y-116061890D01*
X123500000Y-116028233D01*
X123562968Y-116061890D01*
X123666907Y-116093420D01*
X123775000Y-116104066D01*
X124025000Y-116104066D01*
X124133093Y-116093420D01*
X124237032Y-116061890D01*
X124300000Y-116028233D01*
X124362968Y-116061890D01*
X124466907Y-116093420D01*
X124575000Y-116104066D01*
X124601381Y-116104066D01*
X124532628Y-116172819D01*
X124442123Y-116308269D01*
X124379782Y-116458773D01*
X124348000Y-116618548D01*
X124348000Y-116781452D01*
X124379782Y-116941227D01*
X124442123Y-117091731D01*
X124532628Y-117227181D01*
X124647819Y-117342372D01*
X124783269Y-117432877D01*
X124933773Y-117495218D01*
X125093548Y-117527000D01*
X125256452Y-117527000D01*
X125416227Y-117495218D01*
X125566731Y-117432877D01*
X125702181Y-117342372D01*
X125817372Y-117227181D01*
X125907877Y-117091731D01*
X125970218Y-116941227D01*
X125977095Y-116906655D01*
X126057628Y-117027181D01*
X126172819Y-117142372D01*
X126308269Y-117232877D01*
X126458773Y-117295218D01*
X126618548Y-117327000D01*
X126781452Y-117327000D01*
X126941227Y-117295218D01*
X127091731Y-117232877D01*
X127227181Y-117142372D01*
X127310481Y-117059072D01*
X127443595Y-117148016D01*
X127594099Y-117210357D01*
X127753874Y-117242139D01*
X127916778Y-117242139D01*
X128076553Y-117210357D01*
X128227057Y-117148016D01*
X128362507Y-117057511D01*
X128477698Y-116942320D01*
X128568203Y-116806870D01*
X128630544Y-116656366D01*
X128662326Y-116496591D01*
X128662326Y-116333687D01*
X128630544Y-116173912D01*
X128601613Y-116104066D01*
X128796897Y-116104066D01*
X128798000Y-116145250D01*
X128929750Y-116277000D01*
X130052000Y-116277000D01*
X130052000Y-115654750D01*
X130098000Y-115654750D01*
X130098000Y-116277000D01*
X131220250Y-116277000D01*
X131352000Y-116145250D01*
X131354550Y-116050000D01*
X131344375Y-115946690D01*
X131314240Y-115847350D01*
X131265305Y-115755798D01*
X131199448Y-115675552D01*
X131119202Y-115609695D01*
X131027650Y-115560760D01*
X130928310Y-115530625D01*
X130825000Y-115520450D01*
X130229750Y-115523000D01*
X130098000Y-115654750D01*
X130052000Y-115654750D01*
X129920250Y-115523000D01*
X129379066Y-115520682D01*
X129379066Y-115219419D01*
X129467176Y-115291729D01*
X129582416Y-115353327D01*
X129707459Y-115391258D01*
X129837500Y-115404066D01*
X130437500Y-115404066D01*
X130567541Y-115391258D01*
X130692584Y-115353327D01*
X130807824Y-115291729D01*
X130869626Y-115241009D01*
X130884695Y-115269202D01*
X130950552Y-115349448D01*
X131030798Y-115415305D01*
X131122350Y-115464240D01*
X131221690Y-115494375D01*
X131325000Y-115504550D01*
X131707750Y-115502000D01*
X131839500Y-115370250D01*
X131839500Y-114523000D01*
X131885500Y-114523000D01*
X131885500Y-115370250D01*
X132017250Y-115502000D01*
X132400000Y-115504550D01*
X132503310Y-115494375D01*
X132602650Y-115464240D01*
X132694202Y-115415305D01*
X132774448Y-115349448D01*
X132840305Y-115269202D01*
X132889240Y-115177650D01*
X132919375Y-115078310D01*
X132929550Y-114975000D01*
X132927000Y-114654750D01*
X132795250Y-114523000D01*
X131885500Y-114523000D01*
X131839500Y-114523000D01*
X131819500Y-114523000D01*
X131819500Y-114477000D01*
X131839500Y-114477000D01*
X131839500Y-113629750D01*
X131885500Y-113629750D01*
X131885500Y-114477000D01*
X132795250Y-114477000D01*
X132927000Y-114345250D01*
X132929550Y-114025000D01*
X132919375Y-113921690D01*
X132889240Y-113822350D01*
X132840305Y-113730798D01*
X132774448Y-113650552D01*
X132694202Y-113584695D01*
X132602650Y-113535760D01*
X132503310Y-113505625D01*
X132400000Y-113495450D01*
X132017250Y-113498000D01*
X131885500Y-113629750D01*
X131839500Y-113629750D01*
X131707750Y-113498000D01*
X131325000Y-113495450D01*
X131221690Y-113505625D01*
X131122350Y-113535760D01*
X131030798Y-113584695D01*
X130950552Y-113650552D01*
X130884695Y-113730798D01*
X130869626Y-113758991D01*
X130807824Y-113708271D01*
X130714500Y-113658388D01*
X130714500Y-113365828D01*
X130717290Y-113337499D01*
X130714500Y-113309170D01*
X130714500Y-113309164D01*
X130706150Y-113224388D01*
X130673157Y-113115624D01*
X130619579Y-113015385D01*
X130547474Y-112927526D01*
X130525459Y-112909458D01*
X130428040Y-112812039D01*
X130409974Y-112790026D01*
X130322115Y-112717921D01*
X130245556Y-112677000D01*
X131566748Y-112677000D01*
X131600000Y-112680275D01*
G37*
%TD.AperFunction*%
D25*
X144820934Y-113600000D02*
X144829178Y-113683707D01*
X144853595Y-113764196D01*
X144893245Y-113838376D01*
X144946605Y-113903395D01*
X145011624Y-113956755D01*
X145085804Y-113996405D01*
X145166293Y-114020822D01*
X145250000Y-114029066D01*
X147250000Y-114029066D01*
X147333707Y-114020822D01*
X147414196Y-113996405D01*
X147488376Y-113956755D01*
X147548001Y-113907822D01*
X147548000Y-120441063D01*
X147546405Y-120435804D01*
X147506755Y-120361624D01*
X147453395Y-120296605D01*
X147388376Y-120243245D01*
X147314196Y-120203595D01*
X147233707Y-120179178D01*
X147150000Y-120170934D01*
X146689500Y-120170934D01*
X146689500Y-119614887D01*
X146732824Y-119591729D01*
X146833833Y-119508833D01*
X146916729Y-119407824D01*
X146978327Y-119292584D01*
X147016258Y-119167541D01*
X147029066Y-119037500D01*
X147029066Y-118562500D01*
X147016258Y-118432459D01*
X146978327Y-118307416D01*
X146916729Y-118192176D01*
X146833833Y-118091167D01*
X146732824Y-118008271D01*
X146617584Y-117946673D01*
X146492541Y-117908742D01*
X146362500Y-117895934D01*
X145862500Y-117895934D01*
X145732459Y-117908742D01*
X145607416Y-117946673D01*
X145492176Y-118008271D01*
X145391167Y-118091167D01*
X145308271Y-118192176D01*
X145293694Y-118219446D01*
X145264240Y-118122350D01*
X145215305Y-118030798D01*
X145149448Y-117950552D01*
X145069202Y-117884695D01*
X144977650Y-117835760D01*
X144878310Y-117805625D01*
X144775000Y-117795450D01*
X144442250Y-117798000D01*
X144310500Y-117929750D01*
X144310500Y-118777000D01*
X144330500Y-118777000D01*
X144330500Y-118823000D01*
X144310500Y-118823000D01*
X144310500Y-119670250D01*
X144442250Y-119802000D01*
X144775000Y-119804550D01*
X144878310Y-119794375D01*
X144977650Y-119764240D01*
X145069202Y-119715305D01*
X145149448Y-119649448D01*
X145215305Y-119569202D01*
X145264240Y-119477650D01*
X145293694Y-119380554D01*
X145308271Y-119407824D01*
X145391167Y-119508833D01*
X145492176Y-119591729D01*
X145535500Y-119614887D01*
X145535501Y-120310136D01*
X145524943Y-120323000D01*
X144328328Y-120323000D01*
X144299999Y-120320210D01*
X144271670Y-120323000D01*
X144271664Y-120323000D01*
X144186888Y-120331350D01*
X144078124Y-120364343D01*
X143977885Y-120417921D01*
X143890026Y-120490026D01*
X143871961Y-120512038D01*
X143537034Y-120846965D01*
X143515027Y-120865026D01*
X143496966Y-120887033D01*
X143496963Y-120887036D01*
X143486324Y-120900000D01*
X143442922Y-120952885D01*
X143407383Y-121019375D01*
X143389344Y-121053124D01*
X143356349Y-121161889D01*
X143355458Y-121170934D01*
X143150000Y-121170934D01*
X143066293Y-121179178D01*
X142985804Y-121203595D01*
X142911624Y-121243245D01*
X142846605Y-121296605D01*
X142793245Y-121361624D01*
X142753595Y-121435804D01*
X142729178Y-121516293D01*
X142720934Y-121600000D01*
X142720934Y-122967103D01*
X142709695Y-122980798D01*
X142660760Y-123072350D01*
X142630625Y-123171690D01*
X142620450Y-123275000D01*
X142623000Y-123345250D01*
X142754750Y-123477000D01*
X142870194Y-123477000D01*
X142855798Y-123484695D01*
X142809124Y-123523000D01*
X142754750Y-123523000D01*
X142623000Y-123654750D01*
X142620450Y-123725000D01*
X142630299Y-123825000D01*
X142620450Y-123925000D01*
X142623000Y-123995250D01*
X142754750Y-124127000D01*
X142809124Y-124127000D01*
X142855798Y-124165305D01*
X142870194Y-124173000D01*
X142754750Y-124173000D01*
X142704750Y-124223000D01*
X142639001Y-124223000D01*
X142528037Y-124112036D01*
X142509974Y-124090026D01*
X142422115Y-124017921D01*
X142321876Y-123964343D01*
X142243019Y-123940422D01*
X142213111Y-123931349D01*
X142158045Y-123925926D01*
X142128336Y-123923000D01*
X142128331Y-123923000D01*
X142100000Y-123920210D01*
X142071669Y-123923000D01*
X141833205Y-123923000D01*
X141816729Y-123892176D01*
X141733833Y-123791167D01*
X141683671Y-123750000D01*
X141733833Y-123708833D01*
X141816729Y-123607824D01*
X141878327Y-123492584D01*
X141916258Y-123367541D01*
X141929066Y-123237500D01*
X141929066Y-122762500D01*
X141916258Y-122632459D01*
X141878327Y-122507416D01*
X141816729Y-122392176D01*
X141733833Y-122291167D01*
X141632824Y-122208271D01*
X141517584Y-122146673D01*
X141392541Y-122108742D01*
X141262500Y-122095934D01*
X140662500Y-122095934D01*
X140532459Y-122108742D01*
X140407416Y-122146673D01*
X140292176Y-122208271D01*
X140230374Y-122258991D01*
X140215305Y-122230798D01*
X140149448Y-122150552D01*
X140069202Y-122084695D01*
X139977650Y-122035760D01*
X139878310Y-122005625D01*
X139775000Y-121995450D01*
X139392250Y-121998000D01*
X139260500Y-122129750D01*
X139260500Y-122977000D01*
X139280500Y-122977000D01*
X139280500Y-123023000D01*
X139260500Y-123023000D01*
X139260500Y-123043000D01*
X139214500Y-123043000D01*
X139214500Y-123023000D01*
X138304750Y-123023000D01*
X138173000Y-123154750D01*
X138170450Y-123475000D01*
X138180625Y-123578310D01*
X138210760Y-123677650D01*
X138212115Y-123680185D01*
X138097138Y-123657314D01*
X137934234Y-123657314D01*
X137774459Y-123689096D01*
X137623955Y-123751437D01*
X137488505Y-123841942D01*
X137373314Y-123957133D01*
X137293133Y-124077132D01*
X137105422Y-123889421D01*
X137118905Y-123864196D01*
X137143322Y-123783707D01*
X137151566Y-123700000D01*
X137151566Y-122525000D01*
X138170450Y-122525000D01*
X138173000Y-122845250D01*
X138304750Y-122977000D01*
X139214500Y-122977000D01*
X139214500Y-122129750D01*
X139082750Y-121998000D01*
X138700000Y-121995450D01*
X138596690Y-122005625D01*
X138497350Y-122035760D01*
X138405798Y-122084695D01*
X138325552Y-122150552D01*
X138259695Y-122230798D01*
X138210760Y-122322350D01*
X138180625Y-122421690D01*
X138170450Y-122525000D01*
X137151566Y-122525000D01*
X137151566Y-122500000D01*
X137143322Y-122416293D01*
X137118905Y-122335804D01*
X137079255Y-122261624D01*
X137025895Y-122196605D01*
X136960876Y-122143245D01*
X136886696Y-122103595D01*
X136806207Y-122079178D01*
X136764434Y-122075064D01*
X136744376Y-122064343D01*
X136635612Y-122031350D01*
X136522500Y-122020209D01*
X136442117Y-122028126D01*
X136439211Y-122018548D01*
X136423157Y-121965624D01*
X136369579Y-121865385D01*
X136297474Y-121777526D01*
X136275458Y-121759457D01*
X136185369Y-121669369D01*
X136216258Y-121567541D01*
X136229066Y-121437500D01*
X136229066Y-120962500D01*
X136216258Y-120832459D01*
X136190335Y-120747002D01*
X136272731Y-120814623D01*
X136390133Y-120877375D01*
X136517521Y-120916018D01*
X136650000Y-120929066D01*
X136817087Y-120929066D01*
X136804782Y-120958773D01*
X136773000Y-121118548D01*
X136773000Y-121281452D01*
X136804782Y-121441227D01*
X136867123Y-121591731D01*
X136957628Y-121727181D01*
X137072819Y-121842372D01*
X137208269Y-121932877D01*
X137358773Y-121995218D01*
X137518548Y-122027000D01*
X137681452Y-122027000D01*
X137841227Y-121995218D01*
X137991731Y-121932877D01*
X138127181Y-121842372D01*
X138242372Y-121727181D01*
X138332877Y-121591731D01*
X138395218Y-121441227D01*
X138427000Y-121281452D01*
X138427000Y-121118548D01*
X138395218Y-120958773D01*
X138382913Y-120929066D01*
X138800000Y-120929066D01*
X138932479Y-120916018D01*
X139059867Y-120877375D01*
X139177269Y-120814623D01*
X139276904Y-120732854D01*
X139309695Y-120794202D01*
X139375552Y-120874448D01*
X139455798Y-120940305D01*
X139547350Y-120989240D01*
X139646690Y-121019375D01*
X139750000Y-121029550D01*
X140920250Y-121027000D01*
X141052000Y-120895250D01*
X141052000Y-119723000D01*
X141098000Y-119723000D01*
X141098000Y-120895250D01*
X141229750Y-121027000D01*
X142400000Y-121029550D01*
X142503310Y-121019375D01*
X142602650Y-120989240D01*
X142694202Y-120940305D01*
X142774448Y-120874448D01*
X142840305Y-120794202D01*
X142889240Y-120702650D01*
X142919375Y-120603310D01*
X142929550Y-120500000D01*
X142927000Y-119854750D01*
X142795250Y-119723000D01*
X141098000Y-119723000D01*
X141052000Y-119723000D01*
X141032000Y-119723000D01*
X141032000Y-119677000D01*
X141052000Y-119677000D01*
X141052000Y-118504750D01*
X141098000Y-118504750D01*
X141098000Y-119677000D01*
X142795250Y-119677000D01*
X142927000Y-119545250D01*
X142928068Y-119275000D01*
X143270450Y-119275000D01*
X143280625Y-119378310D01*
X143310760Y-119477650D01*
X143359695Y-119569202D01*
X143425552Y-119649448D01*
X143505798Y-119715305D01*
X143597350Y-119764240D01*
X143696690Y-119794375D01*
X143800000Y-119804550D01*
X144132750Y-119802000D01*
X144264500Y-119670250D01*
X144264500Y-118823000D01*
X143404750Y-118823000D01*
X143273000Y-118954750D01*
X143270450Y-119275000D01*
X142928068Y-119275000D01*
X142929550Y-118900000D01*
X142919375Y-118796690D01*
X142889240Y-118697350D01*
X142840305Y-118605798D01*
X142774448Y-118525552D01*
X142694202Y-118459695D01*
X142602650Y-118410760D01*
X142503310Y-118380625D01*
X142400000Y-118370450D01*
X141229750Y-118373000D01*
X141098000Y-118504750D01*
X141052000Y-118504750D01*
X140920250Y-118373000D01*
X139750000Y-118370450D01*
X139646690Y-118380625D01*
X139547350Y-118410760D01*
X139455798Y-118459695D01*
X139375552Y-118525552D01*
X139309695Y-118605798D01*
X139276904Y-118667146D01*
X139177269Y-118585377D01*
X139059867Y-118522625D01*
X138932479Y-118483982D01*
X138861589Y-118477000D01*
X139066755Y-118477000D01*
X139100000Y-118480274D01*
X139133245Y-118477000D01*
X139133252Y-118477000D01*
X139232715Y-118467204D01*
X139360330Y-118428492D01*
X139477941Y-118365628D01*
X139527446Y-118325000D01*
X143270450Y-118325000D01*
X143273000Y-118645250D01*
X143404750Y-118777000D01*
X144264500Y-118777000D01*
X144264500Y-117929750D01*
X144132750Y-117798000D01*
X143800000Y-117795450D01*
X143696690Y-117805625D01*
X143597350Y-117835760D01*
X143505798Y-117884695D01*
X143425552Y-117950552D01*
X143359695Y-118030798D01*
X143310760Y-118122350D01*
X143280625Y-118221690D01*
X143270450Y-118325000D01*
X139527446Y-118325000D01*
X139581027Y-118281027D01*
X139602226Y-118255196D01*
X140092705Y-117764718D01*
X140118526Y-117743527D01*
X140139718Y-117717705D01*
X140139724Y-117717699D01*
X140203128Y-117640441D01*
X140265992Y-117522830D01*
X140304704Y-117395215D01*
X140317775Y-117262500D01*
X140314500Y-117229248D01*
X140314500Y-117086250D01*
X140369626Y-117041009D01*
X140384695Y-117069202D01*
X140450552Y-117149448D01*
X140530798Y-117215305D01*
X140622350Y-117264240D01*
X140721690Y-117294375D01*
X140825000Y-117304550D01*
X141207750Y-117302000D01*
X141339500Y-117170250D01*
X141339500Y-116323000D01*
X141385500Y-116323000D01*
X141385500Y-117170250D01*
X141517250Y-117302000D01*
X141900000Y-117304550D01*
X142003310Y-117294375D01*
X142102650Y-117264240D01*
X142194202Y-117215305D01*
X142274448Y-117149448D01*
X142340305Y-117069202D01*
X142389240Y-116977650D01*
X142419375Y-116878310D01*
X142429550Y-116775000D01*
X142427000Y-116454750D01*
X142295250Y-116323000D01*
X141385500Y-116323000D01*
X141339500Y-116323000D01*
X141319500Y-116323000D01*
X141319500Y-116277000D01*
X141339500Y-116277000D01*
X141339500Y-115429750D01*
X141385500Y-115429750D01*
X141385500Y-116277000D01*
X142295250Y-116277000D01*
X142427000Y-116145250D01*
X142429550Y-115825000D01*
X142419375Y-115721690D01*
X142389240Y-115622350D01*
X142340305Y-115530798D01*
X142274448Y-115450552D01*
X142194202Y-115384695D01*
X142102650Y-115335760D01*
X142003310Y-115305625D01*
X141900000Y-115295450D01*
X141517250Y-115298000D01*
X141385500Y-115429750D01*
X141339500Y-115429750D01*
X141207750Y-115298000D01*
X140825000Y-115295450D01*
X140721690Y-115305625D01*
X140622350Y-115335760D01*
X140530798Y-115384695D01*
X140450552Y-115450552D01*
X140384695Y-115530798D01*
X140369626Y-115558991D01*
X140307824Y-115508271D01*
X140214500Y-115458388D01*
X140214500Y-115179066D01*
X140950000Y-115179066D01*
X141033707Y-115170822D01*
X141114196Y-115146405D01*
X141188376Y-115106755D01*
X141253395Y-115053395D01*
X141306755Y-114988376D01*
X141346405Y-114914196D01*
X141370822Y-114833707D01*
X141379066Y-114750000D01*
X141379066Y-113250000D01*
X141370822Y-113166293D01*
X141346405Y-113085804D01*
X141306755Y-113011624D01*
X141253395Y-112946605D01*
X141188376Y-112893245D01*
X141114196Y-112853595D01*
X141102345Y-112850000D01*
X141114196Y-112846405D01*
X141188376Y-112806755D01*
X141253395Y-112753395D01*
X141306755Y-112688376D01*
X141346405Y-112614196D01*
X141370822Y-112533707D01*
X141379066Y-112450000D01*
X141379066Y-112377000D01*
X144820934Y-112377000D01*
X144820934Y-113600000D01*
%TA.AperFunction,Conductor*%
D26*
G36*
X144820934Y-113600000D02*
G01*
X144829178Y-113683707D01*
X144853595Y-113764196D01*
X144893245Y-113838376D01*
X144946605Y-113903395D01*
X145011624Y-113956755D01*
X145085804Y-113996405D01*
X145166293Y-114020822D01*
X145250000Y-114029066D01*
X147250000Y-114029066D01*
X147333707Y-114020822D01*
X147414196Y-113996405D01*
X147488376Y-113956755D01*
X147548001Y-113907822D01*
X147548000Y-120441063D01*
X147546405Y-120435804D01*
X147506755Y-120361624D01*
X147453395Y-120296605D01*
X147388376Y-120243245D01*
X147314196Y-120203595D01*
X147233707Y-120179178D01*
X147150000Y-120170934D01*
X146689500Y-120170934D01*
X146689500Y-119614887D01*
X146732824Y-119591729D01*
X146833833Y-119508833D01*
X146916729Y-119407824D01*
X146978327Y-119292584D01*
X147016258Y-119167541D01*
X147029066Y-119037500D01*
X147029066Y-118562500D01*
X147016258Y-118432459D01*
X146978327Y-118307416D01*
X146916729Y-118192176D01*
X146833833Y-118091167D01*
X146732824Y-118008271D01*
X146617584Y-117946673D01*
X146492541Y-117908742D01*
X146362500Y-117895934D01*
X145862500Y-117895934D01*
X145732459Y-117908742D01*
X145607416Y-117946673D01*
X145492176Y-118008271D01*
X145391167Y-118091167D01*
X145308271Y-118192176D01*
X145293694Y-118219446D01*
X145264240Y-118122350D01*
X145215305Y-118030798D01*
X145149448Y-117950552D01*
X145069202Y-117884695D01*
X144977650Y-117835760D01*
X144878310Y-117805625D01*
X144775000Y-117795450D01*
X144442250Y-117798000D01*
X144310500Y-117929750D01*
X144310500Y-118777000D01*
X144330500Y-118777000D01*
X144330500Y-118823000D01*
X144310500Y-118823000D01*
X144310500Y-119670250D01*
X144442250Y-119802000D01*
X144775000Y-119804550D01*
X144878310Y-119794375D01*
X144977650Y-119764240D01*
X145069202Y-119715305D01*
X145149448Y-119649448D01*
X145215305Y-119569202D01*
X145264240Y-119477650D01*
X145293694Y-119380554D01*
X145308271Y-119407824D01*
X145391167Y-119508833D01*
X145492176Y-119591729D01*
X145535500Y-119614887D01*
X145535501Y-120310136D01*
X145524943Y-120323000D01*
X144328328Y-120323000D01*
X144299999Y-120320210D01*
X144271670Y-120323000D01*
X144271664Y-120323000D01*
X144186888Y-120331350D01*
X144078124Y-120364343D01*
X143977885Y-120417921D01*
X143890026Y-120490026D01*
X143871961Y-120512038D01*
X143537034Y-120846965D01*
X143515027Y-120865026D01*
X143496966Y-120887033D01*
X143496963Y-120887036D01*
X143486324Y-120900000D01*
X143442922Y-120952885D01*
X143407383Y-121019375D01*
X143389344Y-121053124D01*
X143356349Y-121161889D01*
X143355458Y-121170934D01*
X143150000Y-121170934D01*
X143066293Y-121179178D01*
X142985804Y-121203595D01*
X142911624Y-121243245D01*
X142846605Y-121296605D01*
X142793245Y-121361624D01*
X142753595Y-121435804D01*
X142729178Y-121516293D01*
X142720934Y-121600000D01*
X142720934Y-122967103D01*
X142709695Y-122980798D01*
X142660760Y-123072350D01*
X142630625Y-123171690D01*
X142620450Y-123275000D01*
X142623000Y-123345250D01*
X142754750Y-123477000D01*
X142870194Y-123477000D01*
X142855798Y-123484695D01*
X142809124Y-123523000D01*
X142754750Y-123523000D01*
X142623000Y-123654750D01*
X142620450Y-123725000D01*
X142630299Y-123825000D01*
X142620450Y-123925000D01*
X142623000Y-123995250D01*
X142754750Y-124127000D01*
X142809124Y-124127000D01*
X142855798Y-124165305D01*
X142870194Y-124173000D01*
X142754750Y-124173000D01*
X142704750Y-124223000D01*
X142639001Y-124223000D01*
X142528037Y-124112036D01*
X142509974Y-124090026D01*
X142422115Y-124017921D01*
X142321876Y-123964343D01*
X142243019Y-123940422D01*
X142213111Y-123931349D01*
X142158045Y-123925926D01*
X142128336Y-123923000D01*
X142128331Y-123923000D01*
X142100000Y-123920210D01*
X142071669Y-123923000D01*
X141833205Y-123923000D01*
X141816729Y-123892176D01*
X141733833Y-123791167D01*
X141683671Y-123750000D01*
X141733833Y-123708833D01*
X141816729Y-123607824D01*
X141878327Y-123492584D01*
X141916258Y-123367541D01*
X141929066Y-123237500D01*
X141929066Y-122762500D01*
X141916258Y-122632459D01*
X141878327Y-122507416D01*
X141816729Y-122392176D01*
X141733833Y-122291167D01*
X141632824Y-122208271D01*
X141517584Y-122146673D01*
X141392541Y-122108742D01*
X141262500Y-122095934D01*
X140662500Y-122095934D01*
X140532459Y-122108742D01*
X140407416Y-122146673D01*
X140292176Y-122208271D01*
X140230374Y-122258991D01*
X140215305Y-122230798D01*
X140149448Y-122150552D01*
X140069202Y-122084695D01*
X139977650Y-122035760D01*
X139878310Y-122005625D01*
X139775000Y-121995450D01*
X139392250Y-121998000D01*
X139260500Y-122129750D01*
X139260500Y-122977000D01*
X139280500Y-122977000D01*
X139280500Y-123023000D01*
X139260500Y-123023000D01*
X139260500Y-123043000D01*
X139214500Y-123043000D01*
X139214500Y-123023000D01*
X138304750Y-123023000D01*
X138173000Y-123154750D01*
X138170450Y-123475000D01*
X138180625Y-123578310D01*
X138210760Y-123677650D01*
X138212115Y-123680185D01*
X138097138Y-123657314D01*
X137934234Y-123657314D01*
X137774459Y-123689096D01*
X137623955Y-123751437D01*
X137488505Y-123841942D01*
X137373314Y-123957133D01*
X137293133Y-124077132D01*
X137105422Y-123889421D01*
X137118905Y-123864196D01*
X137143322Y-123783707D01*
X137151566Y-123700000D01*
X137151566Y-122525000D01*
X138170450Y-122525000D01*
X138173000Y-122845250D01*
X138304750Y-122977000D01*
X139214500Y-122977000D01*
X139214500Y-122129750D01*
X139082750Y-121998000D01*
X138700000Y-121995450D01*
X138596690Y-122005625D01*
X138497350Y-122035760D01*
X138405798Y-122084695D01*
X138325552Y-122150552D01*
X138259695Y-122230798D01*
X138210760Y-122322350D01*
X138180625Y-122421690D01*
X138170450Y-122525000D01*
X137151566Y-122525000D01*
X137151566Y-122500000D01*
X137143322Y-122416293D01*
X137118905Y-122335804D01*
X137079255Y-122261624D01*
X137025895Y-122196605D01*
X136960876Y-122143245D01*
X136886696Y-122103595D01*
X136806207Y-122079178D01*
X136764434Y-122075064D01*
X136744376Y-122064343D01*
X136635612Y-122031350D01*
X136522500Y-122020209D01*
X136442117Y-122028126D01*
X136439211Y-122018548D01*
X136423157Y-121965624D01*
X136369579Y-121865385D01*
X136297474Y-121777526D01*
X136275458Y-121759457D01*
X136185369Y-121669369D01*
X136216258Y-121567541D01*
X136229066Y-121437500D01*
X136229066Y-120962500D01*
X136216258Y-120832459D01*
X136190335Y-120747002D01*
X136272731Y-120814623D01*
X136390133Y-120877375D01*
X136517521Y-120916018D01*
X136650000Y-120929066D01*
X136817087Y-120929066D01*
X136804782Y-120958773D01*
X136773000Y-121118548D01*
X136773000Y-121281452D01*
X136804782Y-121441227D01*
X136867123Y-121591731D01*
X136957628Y-121727181D01*
X137072819Y-121842372D01*
X137208269Y-121932877D01*
X137358773Y-121995218D01*
X137518548Y-122027000D01*
X137681452Y-122027000D01*
X137841227Y-121995218D01*
X137991731Y-121932877D01*
X138127181Y-121842372D01*
X138242372Y-121727181D01*
X138332877Y-121591731D01*
X138395218Y-121441227D01*
X138427000Y-121281452D01*
X138427000Y-121118548D01*
X138395218Y-120958773D01*
X138382913Y-120929066D01*
X138800000Y-120929066D01*
X138932479Y-120916018D01*
X139059867Y-120877375D01*
X139177269Y-120814623D01*
X139276904Y-120732854D01*
X139309695Y-120794202D01*
X139375552Y-120874448D01*
X139455798Y-120940305D01*
X139547350Y-120989240D01*
X139646690Y-121019375D01*
X139750000Y-121029550D01*
X140920250Y-121027000D01*
X141052000Y-120895250D01*
X141052000Y-119723000D01*
X141098000Y-119723000D01*
X141098000Y-120895250D01*
X141229750Y-121027000D01*
X142400000Y-121029550D01*
X142503310Y-121019375D01*
X142602650Y-120989240D01*
X142694202Y-120940305D01*
X142774448Y-120874448D01*
X142840305Y-120794202D01*
X142889240Y-120702650D01*
X142919375Y-120603310D01*
X142929550Y-120500000D01*
X142927000Y-119854750D01*
X142795250Y-119723000D01*
X141098000Y-119723000D01*
X141052000Y-119723000D01*
X141032000Y-119723000D01*
X141032000Y-119677000D01*
X141052000Y-119677000D01*
X141052000Y-118504750D01*
X141098000Y-118504750D01*
X141098000Y-119677000D01*
X142795250Y-119677000D01*
X142927000Y-119545250D01*
X142928068Y-119275000D01*
X143270450Y-119275000D01*
X143280625Y-119378310D01*
X143310760Y-119477650D01*
X143359695Y-119569202D01*
X143425552Y-119649448D01*
X143505798Y-119715305D01*
X143597350Y-119764240D01*
X143696690Y-119794375D01*
X143800000Y-119804550D01*
X144132750Y-119802000D01*
X144264500Y-119670250D01*
X144264500Y-118823000D01*
X143404750Y-118823000D01*
X143273000Y-118954750D01*
X143270450Y-119275000D01*
X142928068Y-119275000D01*
X142929550Y-118900000D01*
X142919375Y-118796690D01*
X142889240Y-118697350D01*
X142840305Y-118605798D01*
X142774448Y-118525552D01*
X142694202Y-118459695D01*
X142602650Y-118410760D01*
X142503310Y-118380625D01*
X142400000Y-118370450D01*
X141229750Y-118373000D01*
X141098000Y-118504750D01*
X141052000Y-118504750D01*
X140920250Y-118373000D01*
X139750000Y-118370450D01*
X139646690Y-118380625D01*
X139547350Y-118410760D01*
X139455798Y-118459695D01*
X139375552Y-118525552D01*
X139309695Y-118605798D01*
X139276904Y-118667146D01*
X139177269Y-118585377D01*
X139059867Y-118522625D01*
X138932479Y-118483982D01*
X138861589Y-118477000D01*
X139066755Y-118477000D01*
X139100000Y-118480274D01*
X139133245Y-118477000D01*
X139133252Y-118477000D01*
X139232715Y-118467204D01*
X139360330Y-118428492D01*
X139477941Y-118365628D01*
X139527446Y-118325000D01*
X143270450Y-118325000D01*
X143273000Y-118645250D01*
X143404750Y-118777000D01*
X144264500Y-118777000D01*
X144264500Y-117929750D01*
X144132750Y-117798000D01*
X143800000Y-117795450D01*
X143696690Y-117805625D01*
X143597350Y-117835760D01*
X143505798Y-117884695D01*
X143425552Y-117950552D01*
X143359695Y-118030798D01*
X143310760Y-118122350D01*
X143280625Y-118221690D01*
X143270450Y-118325000D01*
X139527446Y-118325000D01*
X139581027Y-118281027D01*
X139602226Y-118255196D01*
X140092705Y-117764718D01*
X140118526Y-117743527D01*
X140139718Y-117717705D01*
X140139724Y-117717699D01*
X140203128Y-117640441D01*
X140265992Y-117522830D01*
X140304704Y-117395215D01*
X140317775Y-117262500D01*
X140314500Y-117229248D01*
X140314500Y-117086250D01*
X140369626Y-117041009D01*
X140384695Y-117069202D01*
X140450552Y-117149448D01*
X140530798Y-117215305D01*
X140622350Y-117264240D01*
X140721690Y-117294375D01*
X140825000Y-117304550D01*
X141207750Y-117302000D01*
X141339500Y-117170250D01*
X141339500Y-116323000D01*
X141385500Y-116323000D01*
X141385500Y-117170250D01*
X141517250Y-117302000D01*
X141900000Y-117304550D01*
X142003310Y-117294375D01*
X142102650Y-117264240D01*
X142194202Y-117215305D01*
X142274448Y-117149448D01*
X142340305Y-117069202D01*
X142389240Y-116977650D01*
X142419375Y-116878310D01*
X142429550Y-116775000D01*
X142427000Y-116454750D01*
X142295250Y-116323000D01*
X141385500Y-116323000D01*
X141339500Y-116323000D01*
X141319500Y-116323000D01*
X141319500Y-116277000D01*
X141339500Y-116277000D01*
X141339500Y-115429750D01*
X141385500Y-115429750D01*
X141385500Y-116277000D01*
X142295250Y-116277000D01*
X142427000Y-116145250D01*
X142429550Y-115825000D01*
X142419375Y-115721690D01*
X142389240Y-115622350D01*
X142340305Y-115530798D01*
X142274448Y-115450552D01*
X142194202Y-115384695D01*
X142102650Y-115335760D01*
X142003310Y-115305625D01*
X141900000Y-115295450D01*
X141517250Y-115298000D01*
X141385500Y-115429750D01*
X141339500Y-115429750D01*
X141207750Y-115298000D01*
X140825000Y-115295450D01*
X140721690Y-115305625D01*
X140622350Y-115335760D01*
X140530798Y-115384695D01*
X140450552Y-115450552D01*
X140384695Y-115530798D01*
X140369626Y-115558991D01*
X140307824Y-115508271D01*
X140214500Y-115458388D01*
X140214500Y-115179066D01*
X140950000Y-115179066D01*
X141033707Y-115170822D01*
X141114196Y-115146405D01*
X141188376Y-115106755D01*
X141253395Y-115053395D01*
X141306755Y-114988376D01*
X141346405Y-114914196D01*
X141370822Y-114833707D01*
X141379066Y-114750000D01*
X141379066Y-113250000D01*
X141370822Y-113166293D01*
X141346405Y-113085804D01*
X141306755Y-113011624D01*
X141253395Y-112946605D01*
X141188376Y-112893245D01*
X141114196Y-112853595D01*
X141102345Y-112850000D01*
X141114196Y-112846405D01*
X141188376Y-112806755D01*
X141253395Y-112753395D01*
X141306755Y-112688376D01*
X141346405Y-112614196D01*
X141370822Y-112533707D01*
X141379066Y-112450000D01*
X141379066Y-112377000D01*
X144820934Y-112377000D01*
X144820934Y-113600000D01*
G37*
%TD.AperFunction*%
D25*
X143888684Y-124145934D02*
X143863002Y-124145934D01*
X143863002Y-124127000D01*
X143869750Y-124127000D01*
X143888684Y-124145934D01*
%TA.AperFunction,Conductor*%
D26*
G36*
X143888684Y-124145934D02*
G01*
X143863002Y-124145934D01*
X143863002Y-124127000D01*
X143869750Y-124127000D01*
X143888684Y-124145934D01*
G37*
%TD.AperFunction*%
D25*
X143816998Y-124145934D02*
X143791316Y-124145934D01*
X143810250Y-124127000D01*
X143816998Y-124127000D01*
X143816998Y-124145934D01*
%TA.AperFunction,Conductor*%
D26*
G36*
X143816998Y-124145934D02*
G01*
X143791316Y-124145934D01*
X143810250Y-124127000D01*
X143816998Y-124127000D01*
X143816998Y-124145934D01*
G37*
%TD.AperFunction*%
D25*
X143869750Y-123523000D02*
X143863002Y-123523000D01*
X143863002Y-123477000D01*
X143915750Y-123477000D01*
X143869750Y-123523000D01*
%TA.AperFunction,Conductor*%
D26*
G36*
X143869750Y-123523000D02*
G01*
X143863002Y-123523000D01*
X143863002Y-123477000D01*
X143915750Y-123477000D01*
X143869750Y-123523000D01*
G37*
%TD.AperFunction*%
D25*
X143816998Y-123523000D02*
X143810250Y-123523000D01*
X143764250Y-123477000D01*
X143816998Y-123477000D01*
X143816998Y-123523000D01*
%TA.AperFunction,Conductor*%
D26*
G36*
X143816998Y-123523000D02*
G01*
X143810250Y-123523000D01*
X143764250Y-123477000D01*
X143816998Y-123477000D01*
X143816998Y-123523000D01*
G37*
%TD.AperFunction*%
D25*
X147548001Y-109492178D02*
X147488376Y-109443245D01*
X147414196Y-109403595D01*
X147333707Y-109379178D01*
X147250000Y-109370934D01*
X145250000Y-109370934D01*
X145166293Y-109379178D01*
X145085804Y-109403595D01*
X145011624Y-109443245D01*
X144946605Y-109496605D01*
X144893245Y-109561624D01*
X144853595Y-109635804D01*
X144829178Y-109716293D01*
X144820934Y-109800000D01*
X144820934Y-111023000D01*
X141379066Y-111023000D01*
X141379066Y-110950000D01*
X141370822Y-110866293D01*
X141346405Y-110785804D01*
X141306755Y-110711624D01*
X141253395Y-110646605D01*
X141208225Y-110609535D01*
X141244202Y-110590305D01*
X141324448Y-110524448D01*
X141390305Y-110444202D01*
X141439240Y-110352650D01*
X141469375Y-110253310D01*
X141479550Y-110150000D01*
X141477000Y-109554750D01*
X141345250Y-109423000D01*
X139973000Y-109423000D01*
X139973000Y-109443000D01*
X139927000Y-109443000D01*
X139927000Y-109423000D01*
X138554750Y-109423000D01*
X138423000Y-109554750D01*
X138420450Y-110150000D01*
X138430625Y-110253310D01*
X138460760Y-110352650D01*
X138509695Y-110444202D01*
X138575552Y-110524448D01*
X138655798Y-110590305D01*
X138691775Y-110609535D01*
X138646605Y-110646605D01*
X138593245Y-110711624D01*
X138553595Y-110785804D01*
X138529178Y-110866293D01*
X138520934Y-110950000D01*
X138520934Y-111081523D01*
X138422059Y-111134372D01*
X138318973Y-111218973D01*
X138297778Y-111244799D01*
X136829066Y-112713512D01*
X136829066Y-112425000D01*
X136816018Y-112292521D01*
X136777375Y-112165133D01*
X136714623Y-112047731D01*
X136630172Y-111944828D01*
X136527269Y-111860377D01*
X136409867Y-111797625D01*
X136282479Y-111758982D01*
X136150000Y-111745934D01*
X135050000Y-111745934D01*
X134917521Y-111758982D01*
X134790133Y-111797625D01*
X134672731Y-111860377D01*
X134569828Y-111944828D01*
X134485377Y-112047731D01*
X134422625Y-112165133D01*
X134383982Y-112292521D01*
X134370934Y-112425000D01*
X134370934Y-112736636D01*
X134341731Y-112717123D01*
X134194049Y-112655951D01*
X134132877Y-112508269D01*
X134042372Y-112372819D01*
X133927181Y-112257628D01*
X133791731Y-112167123D01*
X133641227Y-112104782D01*
X133542582Y-112085160D01*
X133002226Y-111544804D01*
X132981027Y-111518973D01*
X132877941Y-111434372D01*
X132760330Y-111371508D01*
X132632715Y-111332796D01*
X132533252Y-111323000D01*
X132533245Y-111323000D01*
X132504066Y-111320126D01*
X132504066Y-111162500D01*
X132491258Y-111032459D01*
X132453327Y-110907416D01*
X132409275Y-110825000D01*
X134270450Y-110825000D01*
X134280625Y-110928310D01*
X134310760Y-111027650D01*
X134359695Y-111119202D01*
X134425552Y-111199448D01*
X134505798Y-111265305D01*
X134597350Y-111314240D01*
X134696690Y-111344375D01*
X134800000Y-111354550D01*
X135445250Y-111352000D01*
X135577000Y-111220250D01*
X135577000Y-109460500D01*
X135623000Y-109460500D01*
X135623000Y-111220250D01*
X135754750Y-111352000D01*
X136400000Y-111354550D01*
X136503310Y-111344375D01*
X136602650Y-111314240D01*
X136694202Y-111265305D01*
X136774448Y-111199448D01*
X136840305Y-111119202D01*
X136889240Y-111027650D01*
X136919375Y-110928310D01*
X136929550Y-110825000D01*
X136927000Y-109592250D01*
X136795250Y-109460500D01*
X135623000Y-109460500D01*
X135577000Y-109460500D01*
X134404750Y-109460500D01*
X134273000Y-109592250D01*
X134270450Y-110825000D01*
X132409275Y-110825000D01*
X132391729Y-110792176D01*
X132341009Y-110730374D01*
X132369202Y-110715305D01*
X132449448Y-110649448D01*
X132515305Y-110569202D01*
X132564240Y-110477650D01*
X132594375Y-110378310D01*
X132604550Y-110275000D01*
X132602000Y-109892250D01*
X132470250Y-109760500D01*
X131623000Y-109760500D01*
X131623000Y-109780500D01*
X131577000Y-109780500D01*
X131577000Y-109760500D01*
X130729750Y-109760500D01*
X130598000Y-109892250D01*
X130595450Y-110275000D01*
X130605625Y-110378310D01*
X130635760Y-110477650D01*
X130684695Y-110569202D01*
X130750552Y-110649448D01*
X130830798Y-110715305D01*
X130858991Y-110730374D01*
X130808271Y-110792176D01*
X130746673Y-110907416D01*
X130708742Y-111032459D01*
X130695934Y-111162500D01*
X130695934Y-111323000D01*
X127080423Y-111323000D01*
X126405198Y-110647776D01*
X125002226Y-109244804D01*
X124981027Y-109218973D01*
X124957909Y-109200000D01*
X130595450Y-109200000D01*
X130598000Y-109582750D01*
X130729750Y-109714500D01*
X131577000Y-109714500D01*
X131577000Y-108804750D01*
X131623000Y-108804750D01*
X131623000Y-109714500D01*
X132470250Y-109714500D01*
X132602000Y-109582750D01*
X132604550Y-109200000D01*
X132594375Y-109096690D01*
X132564240Y-108997350D01*
X132515305Y-108905798D01*
X132449448Y-108825552D01*
X132369202Y-108759695D01*
X132277650Y-108710760D01*
X132178310Y-108680625D01*
X132075000Y-108670450D01*
X131754750Y-108673000D01*
X131623000Y-108804750D01*
X131577000Y-108804750D01*
X131445250Y-108673000D01*
X131125000Y-108670450D01*
X131021690Y-108680625D01*
X130922350Y-108710760D01*
X130830798Y-108759695D01*
X130750552Y-108825552D01*
X130684695Y-108905798D01*
X130635760Y-108997350D01*
X130605625Y-109096690D01*
X130595450Y-109200000D01*
X124957909Y-109200000D01*
X124877941Y-109134372D01*
X124760330Y-109071508D01*
X124632715Y-109032796D01*
X124533252Y-109023000D01*
X124533245Y-109023000D01*
X124500000Y-109019726D01*
X124466755Y-109023000D01*
X123089561Y-109023000D01*
X123056755Y-108961624D01*
X123003395Y-108896605D01*
X122938376Y-108843245D01*
X122864196Y-108803595D01*
X122783707Y-108779178D01*
X122700000Y-108770934D01*
X121700000Y-108770934D01*
X121616293Y-108779178D01*
X121535804Y-108803595D01*
X121477261Y-108834887D01*
X121338970Y-108757941D01*
X121147325Y-108696256D01*
X121113335Y-108689497D01*
X120953000Y-108805045D01*
X120953000Y-109677000D01*
X120973000Y-109677000D01*
X120973000Y-109723000D01*
X120953000Y-109723000D01*
X120953000Y-109743000D01*
X120907000Y-109743000D01*
X120907000Y-109723000D01*
X119683000Y-109723000D01*
X119683000Y-109743000D01*
X119637000Y-109743000D01*
X119637000Y-109723000D01*
X119617000Y-109723000D01*
X119617000Y-109677000D01*
X119637000Y-109677000D01*
X119637000Y-108805045D01*
X119683000Y-108805045D01*
X119683000Y-109677000D01*
X120907000Y-109677000D01*
X120907000Y-108805045D01*
X120746665Y-108689497D01*
X120712675Y-108696256D01*
X120521030Y-108757941D01*
X120345102Y-108855828D01*
X120295000Y-108898380D01*
X120244898Y-108855828D01*
X120068970Y-108757941D01*
X119877325Y-108696256D01*
X119843335Y-108689497D01*
X119683000Y-108805045D01*
X119637000Y-108805045D01*
X119476665Y-108689497D01*
X119442675Y-108696256D01*
X119251030Y-108757941D01*
X119075102Y-108855828D01*
X118951840Y-108960516D01*
X118829099Y-108878504D01*
X118660396Y-108808624D01*
X118481301Y-108773000D01*
X118298699Y-108773000D01*
X118119604Y-108808624D01*
X117950901Y-108878504D01*
X117828160Y-108960516D01*
X117704898Y-108855828D01*
X117528970Y-108757941D01*
X117337325Y-108696256D01*
X117303335Y-108689497D01*
X117143000Y-108805045D01*
X117143000Y-109677000D01*
X117163000Y-109677000D01*
X117163000Y-109723000D01*
X117143000Y-109723000D01*
X117143000Y-109743000D01*
X117097000Y-109743000D01*
X117097000Y-109723000D01*
X116225006Y-109723000D01*
X116109495Y-109883335D01*
X116164678Y-110076952D01*
X116256574Y-110256083D01*
X116378974Y-110410468D01*
X116298504Y-110530901D01*
X116228624Y-110699604D01*
X116193000Y-110878699D01*
X116193000Y-111061301D01*
X116196268Y-111077731D01*
X115512028Y-111761971D01*
X115490016Y-111780036D01*
X115417911Y-111867896D01*
X115364333Y-111968135D01*
X115358644Y-111986889D01*
X115331339Y-112076899D01*
X115320200Y-112190010D01*
X115322990Y-112218341D01*
X115322991Y-122807446D01*
X115257618Y-122872819D01*
X115167113Y-123008269D01*
X115104772Y-123158773D01*
X115072990Y-123318548D01*
X115072990Y-123423000D01*
X114936404Y-123423000D01*
X114987533Y-123299565D01*
X115027000Y-123101151D01*
X115027000Y-122898849D01*
X114987533Y-122700435D01*
X114910115Y-122513533D01*
X114797723Y-122345326D01*
X114654674Y-122202277D01*
X114486467Y-122089885D01*
X114299565Y-122012467D01*
X114236889Y-122000000D01*
X114299565Y-121987533D01*
X114486467Y-121910115D01*
X114654674Y-121797723D01*
X114797723Y-121654674D01*
X114910115Y-121486467D01*
X114987533Y-121299565D01*
X115027000Y-121101151D01*
X115027000Y-120898849D01*
X114987533Y-120700435D01*
X114910115Y-120513533D01*
X114797723Y-120345326D01*
X114654674Y-120202277D01*
X114486467Y-120089885D01*
X114299565Y-120012467D01*
X114236889Y-120000000D01*
X114299565Y-119987533D01*
X114486467Y-119910115D01*
X114654674Y-119797723D01*
X114797723Y-119654674D01*
X114910115Y-119486467D01*
X114987533Y-119299565D01*
X115027000Y-119101151D01*
X115027000Y-118898849D01*
X114987533Y-118700435D01*
X114910115Y-118513533D01*
X114797723Y-118345326D01*
X114654674Y-118202277D01*
X114486467Y-118089885D01*
X114299565Y-118012467D01*
X114236889Y-118000000D01*
X114299565Y-117987533D01*
X114486467Y-117910115D01*
X114654674Y-117797723D01*
X114797723Y-117654674D01*
X114910115Y-117486467D01*
X114987533Y-117299565D01*
X115027000Y-117101151D01*
X115027000Y-116898849D01*
X114987533Y-116700435D01*
X114910115Y-116513533D01*
X114797723Y-116345326D01*
X114654674Y-116202277D01*
X114486467Y-116089885D01*
X114299565Y-116012467D01*
X114236889Y-116000000D01*
X114299565Y-115987533D01*
X114486467Y-115910115D01*
X114654674Y-115797723D01*
X114797723Y-115654674D01*
X114910115Y-115486467D01*
X114987533Y-115299565D01*
X115027000Y-115101151D01*
X115027000Y-114898849D01*
X114987533Y-114700435D01*
X114910115Y-114513533D01*
X114797723Y-114345326D01*
X114654674Y-114202277D01*
X114486467Y-114089885D01*
X114405760Y-114056455D01*
X114413459Y-114054278D01*
X114611195Y-113953358D01*
X114646895Y-113929504D01*
X114691154Y-113723681D01*
X114000000Y-113032527D01*
X113308846Y-113723681D01*
X113353105Y-113929504D01*
X113546873Y-114037847D01*
X113598645Y-114054630D01*
X113513533Y-114089885D01*
X113345326Y-114202277D01*
X113202277Y-114345326D01*
X113089885Y-114513533D01*
X113056455Y-114594240D01*
X113054278Y-114586541D01*
X112953358Y-114388805D01*
X112929504Y-114353105D01*
X112723681Y-114308846D01*
X112032527Y-115000000D01*
X112723681Y-115691154D01*
X112929504Y-115646895D01*
X113037847Y-115453127D01*
X113054630Y-115401355D01*
X113089885Y-115486467D01*
X113202277Y-115654674D01*
X113345326Y-115797723D01*
X113513533Y-115910115D01*
X113700435Y-115987533D01*
X113763111Y-116000000D01*
X113700435Y-116012467D01*
X113513533Y-116089885D01*
X113345326Y-116202277D01*
X113202277Y-116345326D01*
X113089885Y-116513533D01*
X113012467Y-116700435D01*
X113000000Y-116763111D01*
X112987533Y-116700435D01*
X112910115Y-116513533D01*
X112797723Y-116345326D01*
X112654674Y-116202277D01*
X112486467Y-116089885D01*
X112405760Y-116056455D01*
X112413459Y-116054278D01*
X112611195Y-115953358D01*
X112646895Y-115929504D01*
X112691154Y-115723681D01*
X112000000Y-115032527D01*
X111985858Y-115046669D01*
X111953331Y-115014142D01*
X111967473Y-115000000D01*
X111953331Y-114985858D01*
X111985858Y-114953331D01*
X112000000Y-114967473D01*
X112691154Y-114276319D01*
X112646895Y-114070496D01*
X112520334Y-113999731D01*
X112611195Y-113953358D01*
X112646895Y-113929504D01*
X112691154Y-113723681D01*
X112000000Y-113032527D01*
X111985858Y-113046669D01*
X111953331Y-113014142D01*
X111967473Y-113000000D01*
X112032527Y-113000000D01*
X112723681Y-113691154D01*
X112929504Y-113646895D01*
X113000269Y-113520334D01*
X113046642Y-113611195D01*
X113070496Y-113646895D01*
X113276319Y-113691154D01*
X113967473Y-113000000D01*
X114032527Y-113000000D01*
X114723681Y-113691154D01*
X114929504Y-113646895D01*
X115037847Y-113453127D01*
X115106305Y-113241946D01*
X115132249Y-113021468D01*
X115114682Y-112800165D01*
X115054278Y-112586541D01*
X114953358Y-112388805D01*
X114929504Y-112353105D01*
X114723681Y-112308846D01*
X114032527Y-113000000D01*
X113967473Y-113000000D01*
X113276319Y-112308846D01*
X113070496Y-112353105D01*
X112999731Y-112479666D01*
X112953358Y-112388805D01*
X112929504Y-112353105D01*
X112723681Y-112308846D01*
X112032527Y-113000000D01*
X111967473Y-113000000D01*
X111953331Y-112985858D01*
X111985858Y-112953331D01*
X112000000Y-112967473D01*
X112691154Y-112276319D01*
X112646895Y-112070496D01*
X112453127Y-111962153D01*
X112401355Y-111945370D01*
X112486467Y-111910115D01*
X112654674Y-111797723D01*
X112797723Y-111654674D01*
X112910115Y-111486467D01*
X112970934Y-111339638D01*
X112970934Y-111350001D01*
X112983982Y-111482480D01*
X113022625Y-111609868D01*
X113085377Y-111727269D01*
X113169828Y-111830172D01*
X113272731Y-111914623D01*
X113390132Y-111977375D01*
X113474423Y-112002945D01*
X113388805Y-112046642D01*
X113353105Y-112070496D01*
X113308846Y-112276319D01*
X114000000Y-112967473D01*
X114691154Y-112276319D01*
X114646895Y-112070496D01*
X114525904Y-112002845D01*
X114609868Y-111977375D01*
X114727269Y-111914623D01*
X114830172Y-111830172D01*
X114914623Y-111727269D01*
X114977375Y-111609868D01*
X115016018Y-111482480D01*
X115029066Y-111350001D01*
X115029066Y-110649999D01*
X115016018Y-110517520D01*
X114977375Y-110390132D01*
X114914623Y-110272731D01*
X114830172Y-110169828D01*
X114727269Y-110085377D01*
X114609868Y-110022625D01*
X114482480Y-109983982D01*
X114350001Y-109970934D01*
X113649999Y-109970934D01*
X113517520Y-109983982D01*
X113390132Y-110022625D01*
X113272731Y-110085377D01*
X113169828Y-110169828D01*
X113085377Y-110272731D01*
X113022625Y-110390132D01*
X112983982Y-110517520D01*
X112970934Y-110649999D01*
X112970934Y-110660362D01*
X112910115Y-110513533D01*
X112797723Y-110345326D01*
X112654674Y-110202277D01*
X112486467Y-110089885D01*
X112299565Y-110012467D01*
X112101151Y-109973000D01*
X111898849Y-109973000D01*
X111700435Y-110012467D01*
X111513533Y-110089885D01*
X111452000Y-110131000D01*
X111452000Y-109516665D01*
X116109495Y-109516665D01*
X116225006Y-109677000D01*
X117097000Y-109677000D01*
X117097000Y-108805045D01*
X116936665Y-108689497D01*
X116902675Y-108696256D01*
X116711030Y-108757941D01*
X116535102Y-108855828D01*
X116381651Y-108986156D01*
X116256574Y-109143917D01*
X116164678Y-109323048D01*
X116109495Y-109516665D01*
X111452000Y-109516665D01*
X111452000Y-108050000D01*
X134270450Y-108050000D01*
X134273000Y-109282750D01*
X134404750Y-109414500D01*
X135577000Y-109414500D01*
X135577000Y-107654750D01*
X135623000Y-107654750D01*
X135623000Y-109414500D01*
X136795250Y-109414500D01*
X136927000Y-109282750D01*
X136928308Y-108650000D01*
X138420450Y-108650000D01*
X138423000Y-109245250D01*
X138554750Y-109377000D01*
X139927000Y-109377000D01*
X139927000Y-108254750D01*
X139973000Y-108254750D01*
X139973000Y-109377000D01*
X141345250Y-109377000D01*
X141477000Y-109245250D01*
X141479550Y-108650000D01*
X141469375Y-108546690D01*
X141439240Y-108447350D01*
X141390305Y-108355798D01*
X141324448Y-108275552D01*
X141244202Y-108209695D01*
X141152650Y-108160760D01*
X141053310Y-108130625D01*
X140950000Y-108120450D01*
X140104750Y-108123000D01*
X139973000Y-108254750D01*
X139927000Y-108254750D01*
X139795250Y-108123000D01*
X138950000Y-108120450D01*
X138846690Y-108130625D01*
X138747350Y-108160760D01*
X138655798Y-108209695D01*
X138575552Y-108275552D01*
X138509695Y-108355798D01*
X138460760Y-108447350D01*
X138430625Y-108546690D01*
X138420450Y-108650000D01*
X136928308Y-108650000D01*
X136929550Y-108050000D01*
X136919375Y-107946690D01*
X136889240Y-107847350D01*
X136840305Y-107755798D01*
X136774448Y-107675552D01*
X136694202Y-107609695D01*
X136602650Y-107560760D01*
X136503310Y-107530625D01*
X136400000Y-107520450D01*
X135754750Y-107523000D01*
X135623000Y-107654750D01*
X135577000Y-107654750D01*
X135445250Y-107523000D01*
X134800000Y-107520450D01*
X134696690Y-107530625D01*
X134597350Y-107560760D01*
X134505798Y-107609695D01*
X134425552Y-107675552D01*
X134359695Y-107755798D01*
X134310760Y-107847350D01*
X134280625Y-107946690D01*
X134270450Y-108050000D01*
X111452000Y-108050000D01*
X111452000Y-107452000D01*
X147548001Y-107452000D01*
X147548001Y-109492178D01*
%TA.AperFunction,Conductor*%
D26*
G36*
X147548001Y-109492178D02*
G01*
X147488376Y-109443245D01*
X147414196Y-109403595D01*
X147333707Y-109379178D01*
X147250000Y-109370934D01*
X145250000Y-109370934D01*
X145166293Y-109379178D01*
X145085804Y-109403595D01*
X145011624Y-109443245D01*
X144946605Y-109496605D01*
X144893245Y-109561624D01*
X144853595Y-109635804D01*
X144829178Y-109716293D01*
X144820934Y-109800000D01*
X144820934Y-111023000D01*
X141379066Y-111023000D01*
X141379066Y-110950000D01*
X141370822Y-110866293D01*
X141346405Y-110785804D01*
X141306755Y-110711624D01*
X141253395Y-110646605D01*
X141208225Y-110609535D01*
X141244202Y-110590305D01*
X141324448Y-110524448D01*
X141390305Y-110444202D01*
X141439240Y-110352650D01*
X141469375Y-110253310D01*
X141479550Y-110150000D01*
X141477000Y-109554750D01*
X141345250Y-109423000D01*
X139973000Y-109423000D01*
X139973000Y-109443000D01*
X139927000Y-109443000D01*
X139927000Y-109423000D01*
X138554750Y-109423000D01*
X138423000Y-109554750D01*
X138420450Y-110150000D01*
X138430625Y-110253310D01*
X138460760Y-110352650D01*
X138509695Y-110444202D01*
X138575552Y-110524448D01*
X138655798Y-110590305D01*
X138691775Y-110609535D01*
X138646605Y-110646605D01*
X138593245Y-110711624D01*
X138553595Y-110785804D01*
X138529178Y-110866293D01*
X138520934Y-110950000D01*
X138520934Y-111081523D01*
X138422059Y-111134372D01*
X138318973Y-111218973D01*
X138297778Y-111244799D01*
X136829066Y-112713512D01*
X136829066Y-112425000D01*
X136816018Y-112292521D01*
X136777375Y-112165133D01*
X136714623Y-112047731D01*
X136630172Y-111944828D01*
X136527269Y-111860377D01*
X136409867Y-111797625D01*
X136282479Y-111758982D01*
X136150000Y-111745934D01*
X135050000Y-111745934D01*
X134917521Y-111758982D01*
X134790133Y-111797625D01*
X134672731Y-111860377D01*
X134569828Y-111944828D01*
X134485377Y-112047731D01*
X134422625Y-112165133D01*
X134383982Y-112292521D01*
X134370934Y-112425000D01*
X134370934Y-112736636D01*
X134341731Y-112717123D01*
X134194049Y-112655951D01*
X134132877Y-112508269D01*
X134042372Y-112372819D01*
X133927181Y-112257628D01*
X133791731Y-112167123D01*
X133641227Y-112104782D01*
X133542582Y-112085160D01*
X133002226Y-111544804D01*
X132981027Y-111518973D01*
X132877941Y-111434372D01*
X132760330Y-111371508D01*
X132632715Y-111332796D01*
X132533252Y-111323000D01*
X132533245Y-111323000D01*
X132504066Y-111320126D01*
X132504066Y-111162500D01*
X132491258Y-111032459D01*
X132453327Y-110907416D01*
X132409275Y-110825000D01*
X134270450Y-110825000D01*
X134280625Y-110928310D01*
X134310760Y-111027650D01*
X134359695Y-111119202D01*
X134425552Y-111199448D01*
X134505798Y-111265305D01*
X134597350Y-111314240D01*
X134696690Y-111344375D01*
X134800000Y-111354550D01*
X135445250Y-111352000D01*
X135577000Y-111220250D01*
X135577000Y-109460500D01*
X135623000Y-109460500D01*
X135623000Y-111220250D01*
X135754750Y-111352000D01*
X136400000Y-111354550D01*
X136503310Y-111344375D01*
X136602650Y-111314240D01*
X136694202Y-111265305D01*
X136774448Y-111199448D01*
X136840305Y-111119202D01*
X136889240Y-111027650D01*
X136919375Y-110928310D01*
X136929550Y-110825000D01*
X136927000Y-109592250D01*
X136795250Y-109460500D01*
X135623000Y-109460500D01*
X135577000Y-109460500D01*
X134404750Y-109460500D01*
X134273000Y-109592250D01*
X134270450Y-110825000D01*
X132409275Y-110825000D01*
X132391729Y-110792176D01*
X132341009Y-110730374D01*
X132369202Y-110715305D01*
X132449448Y-110649448D01*
X132515305Y-110569202D01*
X132564240Y-110477650D01*
X132594375Y-110378310D01*
X132604550Y-110275000D01*
X132602000Y-109892250D01*
X132470250Y-109760500D01*
X131623000Y-109760500D01*
X131623000Y-109780500D01*
X131577000Y-109780500D01*
X131577000Y-109760500D01*
X130729750Y-109760500D01*
X130598000Y-109892250D01*
X130595450Y-110275000D01*
X130605625Y-110378310D01*
X130635760Y-110477650D01*
X130684695Y-110569202D01*
X130750552Y-110649448D01*
X130830798Y-110715305D01*
X130858991Y-110730374D01*
X130808271Y-110792176D01*
X130746673Y-110907416D01*
X130708742Y-111032459D01*
X130695934Y-111162500D01*
X130695934Y-111323000D01*
X127080423Y-111323000D01*
X126405198Y-110647776D01*
X125002226Y-109244804D01*
X124981027Y-109218973D01*
X124957909Y-109200000D01*
X130595450Y-109200000D01*
X130598000Y-109582750D01*
X130729750Y-109714500D01*
X131577000Y-109714500D01*
X131577000Y-108804750D01*
X131623000Y-108804750D01*
X131623000Y-109714500D01*
X132470250Y-109714500D01*
X132602000Y-109582750D01*
X132604550Y-109200000D01*
X132594375Y-109096690D01*
X132564240Y-108997350D01*
X132515305Y-108905798D01*
X132449448Y-108825552D01*
X132369202Y-108759695D01*
X132277650Y-108710760D01*
X132178310Y-108680625D01*
X132075000Y-108670450D01*
X131754750Y-108673000D01*
X131623000Y-108804750D01*
X131577000Y-108804750D01*
X131445250Y-108673000D01*
X131125000Y-108670450D01*
X131021690Y-108680625D01*
X130922350Y-108710760D01*
X130830798Y-108759695D01*
X130750552Y-108825552D01*
X130684695Y-108905798D01*
X130635760Y-108997350D01*
X130605625Y-109096690D01*
X130595450Y-109200000D01*
X124957909Y-109200000D01*
X124877941Y-109134372D01*
X124760330Y-109071508D01*
X124632715Y-109032796D01*
X124533252Y-109023000D01*
X124533245Y-109023000D01*
X124500000Y-109019726D01*
X124466755Y-109023000D01*
X123089561Y-109023000D01*
X123056755Y-108961624D01*
X123003395Y-108896605D01*
X122938376Y-108843245D01*
X122864196Y-108803595D01*
X122783707Y-108779178D01*
X122700000Y-108770934D01*
X121700000Y-108770934D01*
X121616293Y-108779178D01*
X121535804Y-108803595D01*
X121477261Y-108834887D01*
X121338970Y-108757941D01*
X121147325Y-108696256D01*
X121113335Y-108689497D01*
X120953000Y-108805045D01*
X120953000Y-109677000D01*
X120973000Y-109677000D01*
X120973000Y-109723000D01*
X120953000Y-109723000D01*
X120953000Y-109743000D01*
X120907000Y-109743000D01*
X120907000Y-109723000D01*
X119683000Y-109723000D01*
X119683000Y-109743000D01*
X119637000Y-109743000D01*
X119637000Y-109723000D01*
X119617000Y-109723000D01*
X119617000Y-109677000D01*
X119637000Y-109677000D01*
X119637000Y-108805045D01*
X119683000Y-108805045D01*
X119683000Y-109677000D01*
X120907000Y-109677000D01*
X120907000Y-108805045D01*
X120746665Y-108689497D01*
X120712675Y-108696256D01*
X120521030Y-108757941D01*
X120345102Y-108855828D01*
X120295000Y-108898380D01*
X120244898Y-108855828D01*
X120068970Y-108757941D01*
X119877325Y-108696256D01*
X119843335Y-108689497D01*
X119683000Y-108805045D01*
X119637000Y-108805045D01*
X119476665Y-108689497D01*
X119442675Y-108696256D01*
X119251030Y-108757941D01*
X119075102Y-108855828D01*
X118951840Y-108960516D01*
X118829099Y-108878504D01*
X118660396Y-108808624D01*
X118481301Y-108773000D01*
X118298699Y-108773000D01*
X118119604Y-108808624D01*
X117950901Y-108878504D01*
X117828160Y-108960516D01*
X117704898Y-108855828D01*
X117528970Y-108757941D01*
X117337325Y-108696256D01*
X117303335Y-108689497D01*
X117143000Y-108805045D01*
X117143000Y-109677000D01*
X117163000Y-109677000D01*
X117163000Y-109723000D01*
X117143000Y-109723000D01*
X117143000Y-109743000D01*
X117097000Y-109743000D01*
X117097000Y-109723000D01*
X116225006Y-109723000D01*
X116109495Y-109883335D01*
X116164678Y-110076952D01*
X116256574Y-110256083D01*
X116378974Y-110410468D01*
X116298504Y-110530901D01*
X116228624Y-110699604D01*
X116193000Y-110878699D01*
X116193000Y-111061301D01*
X116196268Y-111077731D01*
X115512028Y-111761971D01*
X115490016Y-111780036D01*
X115417911Y-111867896D01*
X115364333Y-111968135D01*
X115358644Y-111986889D01*
X115331339Y-112076899D01*
X115320200Y-112190010D01*
X115322990Y-112218341D01*
X115322991Y-122807446D01*
X115257618Y-122872819D01*
X115167113Y-123008269D01*
X115104772Y-123158773D01*
X115072990Y-123318548D01*
X115072990Y-123423000D01*
X114936404Y-123423000D01*
X114987533Y-123299565D01*
X115027000Y-123101151D01*
X115027000Y-122898849D01*
X114987533Y-122700435D01*
X114910115Y-122513533D01*
X114797723Y-122345326D01*
X114654674Y-122202277D01*
X114486467Y-122089885D01*
X114299565Y-122012467D01*
X114236889Y-122000000D01*
X114299565Y-121987533D01*
X114486467Y-121910115D01*
X114654674Y-121797723D01*
X114797723Y-121654674D01*
X114910115Y-121486467D01*
X114987533Y-121299565D01*
X115027000Y-121101151D01*
X115027000Y-120898849D01*
X114987533Y-120700435D01*
X114910115Y-120513533D01*
X114797723Y-120345326D01*
X114654674Y-120202277D01*
X114486467Y-120089885D01*
X114299565Y-120012467D01*
X114236889Y-120000000D01*
X114299565Y-119987533D01*
X114486467Y-119910115D01*
X114654674Y-119797723D01*
X114797723Y-119654674D01*
X114910115Y-119486467D01*
X114987533Y-119299565D01*
X115027000Y-119101151D01*
X115027000Y-118898849D01*
X114987533Y-118700435D01*
X114910115Y-118513533D01*
X114797723Y-118345326D01*
X114654674Y-118202277D01*
X114486467Y-118089885D01*
X114299565Y-118012467D01*
X114236889Y-118000000D01*
X114299565Y-117987533D01*
X114486467Y-117910115D01*
X114654674Y-117797723D01*
X114797723Y-117654674D01*
X114910115Y-117486467D01*
X114987533Y-117299565D01*
X115027000Y-117101151D01*
X115027000Y-116898849D01*
X114987533Y-116700435D01*
X114910115Y-116513533D01*
X114797723Y-116345326D01*
X114654674Y-116202277D01*
X114486467Y-116089885D01*
X114299565Y-116012467D01*
X114236889Y-116000000D01*
X114299565Y-115987533D01*
X114486467Y-115910115D01*
X114654674Y-115797723D01*
X114797723Y-115654674D01*
X114910115Y-115486467D01*
X114987533Y-115299565D01*
X115027000Y-115101151D01*
X115027000Y-114898849D01*
X114987533Y-114700435D01*
X114910115Y-114513533D01*
X114797723Y-114345326D01*
X114654674Y-114202277D01*
X114486467Y-114089885D01*
X114405760Y-114056455D01*
X114413459Y-114054278D01*
X114611195Y-113953358D01*
X114646895Y-113929504D01*
X114691154Y-113723681D01*
X114000000Y-113032527D01*
X113308846Y-113723681D01*
X113353105Y-113929504D01*
X113546873Y-114037847D01*
X113598645Y-114054630D01*
X113513533Y-114089885D01*
X113345326Y-114202277D01*
X113202277Y-114345326D01*
X113089885Y-114513533D01*
X113056455Y-114594240D01*
X113054278Y-114586541D01*
X112953358Y-114388805D01*
X112929504Y-114353105D01*
X112723681Y-114308846D01*
X112032527Y-115000000D01*
X112723681Y-115691154D01*
X112929504Y-115646895D01*
X113037847Y-115453127D01*
X113054630Y-115401355D01*
X113089885Y-115486467D01*
X113202277Y-115654674D01*
X113345326Y-115797723D01*
X113513533Y-115910115D01*
X113700435Y-115987533D01*
X113763111Y-116000000D01*
X113700435Y-116012467D01*
X113513533Y-116089885D01*
X113345326Y-116202277D01*
X113202277Y-116345326D01*
X113089885Y-116513533D01*
X113012467Y-116700435D01*
X113000000Y-116763111D01*
X112987533Y-116700435D01*
X112910115Y-116513533D01*
X112797723Y-116345326D01*
X112654674Y-116202277D01*
X112486467Y-116089885D01*
X112405760Y-116056455D01*
X112413459Y-116054278D01*
X112611195Y-115953358D01*
X112646895Y-115929504D01*
X112691154Y-115723681D01*
X112000000Y-115032527D01*
X111985858Y-115046669D01*
X111953331Y-115014142D01*
X111967473Y-115000000D01*
X111953331Y-114985858D01*
X111985858Y-114953331D01*
X112000000Y-114967473D01*
X112691154Y-114276319D01*
X112646895Y-114070496D01*
X112520334Y-113999731D01*
X112611195Y-113953358D01*
X112646895Y-113929504D01*
X112691154Y-113723681D01*
X112000000Y-113032527D01*
X111985858Y-113046669D01*
X111953331Y-113014142D01*
X111967473Y-113000000D01*
X112032527Y-113000000D01*
X112723681Y-113691154D01*
X112929504Y-113646895D01*
X113000269Y-113520334D01*
X113046642Y-113611195D01*
X113070496Y-113646895D01*
X113276319Y-113691154D01*
X113967473Y-113000000D01*
X114032527Y-113000000D01*
X114723681Y-113691154D01*
X114929504Y-113646895D01*
X115037847Y-113453127D01*
X115106305Y-113241946D01*
X115132249Y-113021468D01*
X115114682Y-112800165D01*
X115054278Y-112586541D01*
X114953358Y-112388805D01*
X114929504Y-112353105D01*
X114723681Y-112308846D01*
X114032527Y-113000000D01*
X113967473Y-113000000D01*
X113276319Y-112308846D01*
X113070496Y-112353105D01*
X112999731Y-112479666D01*
X112953358Y-112388805D01*
X112929504Y-112353105D01*
X112723681Y-112308846D01*
X112032527Y-113000000D01*
X111967473Y-113000000D01*
X111953331Y-112985858D01*
X111985858Y-112953331D01*
X112000000Y-112967473D01*
X112691154Y-112276319D01*
X112646895Y-112070496D01*
X112453127Y-111962153D01*
X112401355Y-111945370D01*
X112486467Y-111910115D01*
X112654674Y-111797723D01*
X112797723Y-111654674D01*
X112910115Y-111486467D01*
X112970934Y-111339638D01*
X112970934Y-111350001D01*
X112983982Y-111482480D01*
X113022625Y-111609868D01*
X113085377Y-111727269D01*
X113169828Y-111830172D01*
X113272731Y-111914623D01*
X113390132Y-111977375D01*
X113474423Y-112002945D01*
X113388805Y-112046642D01*
X113353105Y-112070496D01*
X113308846Y-112276319D01*
X114000000Y-112967473D01*
X114691154Y-112276319D01*
X114646895Y-112070496D01*
X114525904Y-112002845D01*
X114609868Y-111977375D01*
X114727269Y-111914623D01*
X114830172Y-111830172D01*
X114914623Y-111727269D01*
X114977375Y-111609868D01*
X115016018Y-111482480D01*
X115029066Y-111350001D01*
X115029066Y-110649999D01*
X115016018Y-110517520D01*
X114977375Y-110390132D01*
X114914623Y-110272731D01*
X114830172Y-110169828D01*
X114727269Y-110085377D01*
X114609868Y-110022625D01*
X114482480Y-109983982D01*
X114350001Y-109970934D01*
X113649999Y-109970934D01*
X113517520Y-109983982D01*
X113390132Y-110022625D01*
X113272731Y-110085377D01*
X113169828Y-110169828D01*
X113085377Y-110272731D01*
X113022625Y-110390132D01*
X112983982Y-110517520D01*
X112970934Y-110649999D01*
X112970934Y-110660362D01*
X112910115Y-110513533D01*
X112797723Y-110345326D01*
X112654674Y-110202277D01*
X112486467Y-110089885D01*
X112299565Y-110012467D01*
X112101151Y-109973000D01*
X111898849Y-109973000D01*
X111700435Y-110012467D01*
X111513533Y-110089885D01*
X111452000Y-110131000D01*
X111452000Y-109516665D01*
X116109495Y-109516665D01*
X116225006Y-109677000D01*
X117097000Y-109677000D01*
X117097000Y-108805045D01*
X116936665Y-108689497D01*
X116902675Y-108696256D01*
X116711030Y-108757941D01*
X116535102Y-108855828D01*
X116381651Y-108986156D01*
X116256574Y-109143917D01*
X116164678Y-109323048D01*
X116109495Y-109516665D01*
X111452000Y-109516665D01*
X111452000Y-108050000D01*
X134270450Y-108050000D01*
X134273000Y-109282750D01*
X134404750Y-109414500D01*
X135577000Y-109414500D01*
X135577000Y-107654750D01*
X135623000Y-107654750D01*
X135623000Y-109414500D01*
X136795250Y-109414500D01*
X136927000Y-109282750D01*
X136928308Y-108650000D01*
X138420450Y-108650000D01*
X138423000Y-109245250D01*
X138554750Y-109377000D01*
X139927000Y-109377000D01*
X139927000Y-108254750D01*
X139973000Y-108254750D01*
X139973000Y-109377000D01*
X141345250Y-109377000D01*
X141477000Y-109245250D01*
X141479550Y-108650000D01*
X141469375Y-108546690D01*
X141439240Y-108447350D01*
X141390305Y-108355798D01*
X141324448Y-108275552D01*
X141244202Y-108209695D01*
X141152650Y-108160760D01*
X141053310Y-108130625D01*
X140950000Y-108120450D01*
X140104750Y-108123000D01*
X139973000Y-108254750D01*
X139927000Y-108254750D01*
X139795250Y-108123000D01*
X138950000Y-108120450D01*
X138846690Y-108130625D01*
X138747350Y-108160760D01*
X138655798Y-108209695D01*
X138575552Y-108275552D01*
X138509695Y-108355798D01*
X138460760Y-108447350D01*
X138430625Y-108546690D01*
X138420450Y-108650000D01*
X136928308Y-108650000D01*
X136929550Y-108050000D01*
X136919375Y-107946690D01*
X136889240Y-107847350D01*
X136840305Y-107755798D01*
X136774448Y-107675552D01*
X136694202Y-107609695D01*
X136602650Y-107560760D01*
X136503310Y-107530625D01*
X136400000Y-107520450D01*
X135754750Y-107523000D01*
X135623000Y-107654750D01*
X135577000Y-107654750D01*
X135445250Y-107523000D01*
X134800000Y-107520450D01*
X134696690Y-107530625D01*
X134597350Y-107560760D01*
X134505798Y-107609695D01*
X134425552Y-107675552D01*
X134359695Y-107755798D01*
X134310760Y-107847350D01*
X134280625Y-107946690D01*
X134270450Y-108050000D01*
X111452000Y-108050000D01*
X111452000Y-107452000D01*
X147548001Y-107452000D01*
X147548001Y-109492178D01*
G37*
%TD.AperFunction*%
D25*
X121748000Y-121877000D02*
X121768000Y-121877000D01*
X121768000Y-121923000D01*
X121748000Y-121923000D01*
X121748000Y-121943000D01*
X121702000Y-121943000D01*
X121702000Y-121923000D01*
X121682000Y-121923000D01*
X121682000Y-121877000D01*
X121702000Y-121877000D01*
X121702000Y-121857000D01*
X121748000Y-121857000D01*
X121748000Y-121877000D01*
%TA.AperFunction,Conductor*%
D26*
G36*
X121748000Y-121877000D02*
G01*
X121768000Y-121877000D01*
X121768000Y-121923000D01*
X121748000Y-121923000D01*
X121748000Y-121943000D01*
X121702000Y-121943000D01*
X121702000Y-121923000D01*
X121682000Y-121923000D01*
X121682000Y-121877000D01*
X121702000Y-121877000D01*
X121702000Y-121857000D01*
X121748000Y-121857000D01*
X121748000Y-121877000D01*
G37*
%TD.AperFunction*%
D25*
X120339072Y-111690048D02*
X120357324Y-111702244D01*
X120361349Y-111743111D01*
X120377916Y-111797723D01*
X120394343Y-111851875D01*
X120447921Y-111952114D01*
X120520026Y-112039974D01*
X120542038Y-112058039D01*
X122501028Y-114017029D01*
X122463110Y-114087968D01*
X122431580Y-114191907D01*
X122420934Y-114300000D01*
X122420934Y-115550000D01*
X122428683Y-115628683D01*
X122350000Y-115620934D01*
X121100000Y-115620934D01*
X120991907Y-115631580D01*
X120887968Y-115663110D01*
X120792177Y-115714311D01*
X120781589Y-115723000D01*
X120250495Y-115723000D01*
X120222166Y-115720210D01*
X120193837Y-115723000D01*
X120193831Y-115723000D01*
X120109055Y-115731350D01*
X120000291Y-115764343D01*
X119900052Y-115817921D01*
X119812193Y-115890026D01*
X119794128Y-115912038D01*
X116476990Y-119229176D01*
X116476990Y-112429011D01*
X117012269Y-111893732D01*
X117028699Y-111897000D01*
X117211301Y-111897000D01*
X117390396Y-111861376D01*
X117559099Y-111791496D01*
X117710928Y-111690048D01*
X117755000Y-111645976D01*
X117799072Y-111690048D01*
X117950901Y-111791496D01*
X118119604Y-111861376D01*
X118298699Y-111897000D01*
X118481301Y-111897000D01*
X118660396Y-111861376D01*
X118829099Y-111791496D01*
X118980928Y-111690048D01*
X119025000Y-111645976D01*
X119069072Y-111690048D01*
X119220901Y-111791496D01*
X119389604Y-111861376D01*
X119568699Y-111897000D01*
X119751301Y-111897000D01*
X119930396Y-111861376D01*
X120099099Y-111791496D01*
X120250928Y-111690048D01*
X120295000Y-111645976D01*
X120339072Y-111690048D01*
%TA.AperFunction,Conductor*%
D26*
G36*
X120339072Y-111690048D02*
G01*
X120357324Y-111702244D01*
X120361349Y-111743111D01*
X120377916Y-111797723D01*
X120394343Y-111851875D01*
X120447921Y-111952114D01*
X120520026Y-112039974D01*
X120542038Y-112058039D01*
X122501028Y-114017029D01*
X122463110Y-114087968D01*
X122431580Y-114191907D01*
X122420934Y-114300000D01*
X122420934Y-115550000D01*
X122428683Y-115628683D01*
X122350000Y-115620934D01*
X121100000Y-115620934D01*
X120991907Y-115631580D01*
X120887968Y-115663110D01*
X120792177Y-115714311D01*
X120781589Y-115723000D01*
X120250495Y-115723000D01*
X120222166Y-115720210D01*
X120193837Y-115723000D01*
X120193831Y-115723000D01*
X120109055Y-115731350D01*
X120000291Y-115764343D01*
X119900052Y-115817921D01*
X119812193Y-115890026D01*
X119794128Y-115912038D01*
X116476990Y-119229176D01*
X116476990Y-112429011D01*
X117012269Y-111893732D01*
X117028699Y-111897000D01*
X117211301Y-111897000D01*
X117390396Y-111861376D01*
X117559099Y-111791496D01*
X117710928Y-111690048D01*
X117755000Y-111645976D01*
X117799072Y-111690048D01*
X117950901Y-111791496D01*
X118119604Y-111861376D01*
X118298699Y-111897000D01*
X118481301Y-111897000D01*
X118660396Y-111861376D01*
X118829099Y-111791496D01*
X118980928Y-111690048D01*
X119025000Y-111645976D01*
X119069072Y-111690048D01*
X119220901Y-111791496D01*
X119389604Y-111861376D01*
X119568699Y-111897000D01*
X119751301Y-111897000D01*
X119930396Y-111861376D01*
X120099099Y-111791496D01*
X120250928Y-111690048D01*
X120295000Y-111645976D01*
X120339072Y-111690048D01*
G37*
%TD.AperFunction*%
%TD*%
M02*
