%TF.GenerationSoftware,KiCad,Pcbnew,(5.1.7)-1*%
%TF.CreationDate,2020-11-11T21:59:56+01:00*%
%TF.ProjectId,rgb_ctrl_board,7267625f-6374-4726-9c5f-626f6172642e,rev?*%
%TF.SameCoordinates,Original*%
%TF.FileFunction,Legend,Top*%
%TF.FilePolarity,Positive*%
%FSLAX46Y46*%
G04 Gerber Fmt 4.6, Leading zero omitted, Abs format (unit mm)*
G04 Created by KiCad (PCBNEW (5.1.7)-1) date 2020-11-11 21:59:56*
%MOMM*%
%LPD*%
G01*
G04 APERTURE LIST*
%ADD10C,0.120000*%
%ADD11C,0.150000*%
G04 APERTURE END LIST*
D10*
%TO.C,R10*%
X120445276Y-130322500D02*
X120954724Y-130322500D01*
X120445276Y-129277500D02*
X120954724Y-129277500D01*
%TO.C,R9*%
X120445276Y-128822500D02*
X120954724Y-128822500D01*
X120445276Y-127777500D02*
X120954724Y-127777500D01*
%TO.C,U2*%
X122590000Y-122710000D02*
X122590000Y-124025000D01*
X122290000Y-122710000D02*
X122590000Y-122710000D01*
X122290000Y-122410000D02*
X122290000Y-122710000D01*
X122290000Y-115490000D02*
X122590000Y-115490000D01*
X122290000Y-115790000D02*
X122290000Y-115490000D01*
X129510000Y-122710000D02*
X129210000Y-122710000D01*
X129510000Y-122410000D02*
X129510000Y-122710000D01*
X129510000Y-115490000D02*
X129210000Y-115490000D01*
X129510000Y-115790000D02*
X129510000Y-115490000D01*
%TO.C,R7*%
X128677500Y-128154724D02*
X128677500Y-127645276D01*
X129722500Y-128154724D02*
X129722500Y-127645276D01*
%TO.C,C1*%
X140353733Y-116810000D02*
X140646267Y-116810000D01*
X140353733Y-115790000D02*
X140646267Y-115790000D01*
%TO.C,J3*%
X116425000Y-108570000D02*
X116425000Y-109392470D01*
X116425000Y-111277530D02*
X116425000Y-112100000D01*
X116425000Y-110007530D02*
X116425000Y-110662470D01*
X121440000Y-108570000D02*
X116425000Y-108570000D01*
X122895000Y-112100000D02*
X116425000Y-112100000D01*
X121440000Y-108570000D02*
X121440000Y-109136529D01*
X121440000Y-110263471D02*
X121440000Y-110406529D01*
X121493471Y-110460000D02*
X121636529Y-110460000D01*
X122763471Y-110460000D02*
X122895000Y-110460000D01*
X122895000Y-110460000D02*
X122895000Y-110662470D01*
X122895000Y-111277530D02*
X122895000Y-112100000D01*
X122200000Y-108570000D02*
X122960000Y-108570000D01*
X122960000Y-108570000D02*
X122960000Y-109700000D01*
%TO.C,U1*%
X145010000Y-115110000D02*
X145010000Y-113850000D01*
X145010000Y-108290000D02*
X145010000Y-109550000D01*
X141250000Y-115110000D02*
X145010000Y-115110000D01*
X139000000Y-108290000D02*
X145010000Y-108290000D01*
%TO.C,R8*%
X144945276Y-118277500D02*
X145454724Y-118277500D01*
X144945276Y-119322500D02*
X145454724Y-119322500D01*
%TO.C,J2*%
X143590000Y-120990000D02*
X143590000Y-121370000D01*
X147640000Y-120990000D02*
X147900000Y-120990000D01*
X143590000Y-120990000D02*
X145360000Y-120990000D01*
X143590000Y-128610000D02*
X143590000Y-128230000D01*
X145360000Y-128610000D02*
X143590000Y-128610000D01*
X147900000Y-128610000D02*
X147640000Y-128610000D01*
%TO.C,FB1*%
X139928733Y-129990000D02*
X140271267Y-129990000D01*
X139928733Y-131010000D02*
X140271267Y-131010000D01*
%TO.C,C14*%
X145446267Y-131110000D02*
X145153733Y-131110000D01*
X145446267Y-130090000D02*
X145153733Y-130090000D01*
%TO.C,C13*%
X134546267Y-121710000D02*
X134253733Y-121710000D01*
X134546267Y-120690000D02*
X134253733Y-120690000D01*
%TO.C,C12*%
X140246267Y-129510000D02*
X139953733Y-129510000D01*
X140246267Y-128490000D02*
X139953733Y-128490000D01*
%TO.C,C11*%
X133953733Y-129990000D02*
X134246267Y-129990000D01*
X133953733Y-131010000D02*
X134246267Y-131010000D01*
%TO.C,C10*%
X138360000Y-108740000D02*
X136660000Y-108740000D01*
X132840000Y-108740000D02*
X134540000Y-108740000D01*
X132840000Y-113195563D02*
X132840000Y-108740000D01*
X138360000Y-113195563D02*
X138360000Y-108740000D01*
X137295563Y-114260000D02*
X136660000Y-114260000D01*
X133904437Y-114260000D02*
X134540000Y-114260000D01*
X133904437Y-114260000D02*
X132840000Y-113195563D01*
X137295563Y-114260000D02*
X138360000Y-113195563D01*
%TO.C,C9*%
X141660000Y-121960000D02*
X141660000Y-120760000D01*
X141660000Y-117440000D02*
X141660000Y-118640000D01*
X138204437Y-117440000D02*
X141660000Y-117440000D01*
X138204437Y-121960000D02*
X141660000Y-121960000D01*
X137140000Y-120895563D02*
X137140000Y-120760000D01*
X137140000Y-118504437D02*
X137140000Y-118640000D01*
X137140000Y-118504437D02*
X138204437Y-117440000D01*
X137140000Y-120895563D02*
X138204437Y-121960000D01*
D11*
%TO.C,U3*%
X131575000Y-128975000D02*
X131575000Y-123700000D01*
X136975000Y-127700000D02*
X136975000Y-123700000D01*
D10*
%TO.C,R6*%
X139845276Y-125022500D02*
X140354724Y-125022500D01*
X139845276Y-123977500D02*
X140354724Y-123977500D01*
%TO.C,R5*%
X139845276Y-126522500D02*
X140354724Y-126522500D01*
X139845276Y-125477500D02*
X140354724Y-125477500D01*
%TO.C,R2*%
X120445276Y-127322500D02*
X120954724Y-127322500D01*
X120445276Y-126277500D02*
X120954724Y-126277500D01*
%TO.C,R1*%
X125677500Y-127645276D02*
X125677500Y-128154724D01*
X126722500Y-127645276D02*
X126722500Y-128154724D01*
%TO.C,J1*%
X114910000Y-108640000D02*
X112410000Y-108640000D01*
X114910000Y-112000000D02*
X114910000Y-108640000D01*
X114660000Y-112000000D02*
X114910000Y-112000000D01*
X104890000Y-131060000D02*
X104890000Y-120000000D01*
X114610000Y-131060000D02*
X104890000Y-131060000D01*
X114610000Y-129840000D02*
X114610000Y-131060000D01*
X111610000Y-129840000D02*
X114610000Y-129840000D01*
X104890000Y-108940000D02*
X104890000Y-120000000D01*
X114610000Y-108940000D02*
X104890000Y-108940000D01*
X114610000Y-110160000D02*
X114610000Y-108940000D01*
X111610000Y-110160000D02*
X114610000Y-110160000D01*
%TO.C,C8*%
X140246267Y-122490000D02*
X139953733Y-122490000D01*
X140246267Y-123510000D02*
X139953733Y-123510000D01*
%TO.C,C7*%
X140246267Y-126990000D02*
X139953733Y-126990000D01*
X140246267Y-128010000D02*
X139953733Y-128010000D01*
%TO.C,C6*%
X128210000Y-128046267D02*
X128210000Y-127753733D01*
X127190000Y-128046267D02*
X127190000Y-127753733D01*
%TO.C,C5*%
X127053733Y-125910000D02*
X127346267Y-125910000D01*
X127053733Y-124890000D02*
X127346267Y-124890000D01*
%TO.C,C4*%
X121610000Y-124546267D02*
X121610000Y-124253733D01*
X120590000Y-124546267D02*
X120590000Y-124253733D01*
%TO.C,C3*%
X130853733Y-115010000D02*
X131146267Y-115010000D01*
X130853733Y-113990000D02*
X131146267Y-113990000D01*
%TO.C,C2*%
X132110000Y-110746267D02*
X132110000Y-110453733D01*
X131090000Y-110746267D02*
X131090000Y-110453733D01*
%TO.C,R10*%
D11*
X116957142Y-130352380D02*
X116623809Y-129876190D01*
X116385714Y-130352380D02*
X116385714Y-129352380D01*
X116766666Y-129352380D01*
X116861904Y-129400000D01*
X116909523Y-129447619D01*
X116957142Y-129542857D01*
X116957142Y-129685714D01*
X116909523Y-129780952D01*
X116861904Y-129828571D01*
X116766666Y-129876190D01*
X116385714Y-129876190D01*
X117909523Y-130352380D02*
X117338095Y-130352380D01*
X117623809Y-130352380D02*
X117623809Y-129352380D01*
X117528571Y-129495238D01*
X117433333Y-129590476D01*
X117338095Y-129638095D01*
X118528571Y-129352380D02*
X118623809Y-129352380D01*
X118719047Y-129400000D01*
X118766666Y-129447619D01*
X118814285Y-129542857D01*
X118861904Y-129733333D01*
X118861904Y-129971428D01*
X118814285Y-130161904D01*
X118766666Y-130257142D01*
X118719047Y-130304761D01*
X118623809Y-130352380D01*
X118528571Y-130352380D01*
X118433333Y-130304761D01*
X118385714Y-130257142D01*
X118338095Y-130161904D01*
X118290476Y-129971428D01*
X118290476Y-129733333D01*
X118338095Y-129542857D01*
X118385714Y-129447619D01*
X118433333Y-129400000D01*
X118528571Y-129352380D01*
%TO.C,R9*%
X117833333Y-128952380D02*
X117500000Y-128476190D01*
X117261904Y-128952380D02*
X117261904Y-127952380D01*
X117642857Y-127952380D01*
X117738095Y-128000000D01*
X117785714Y-128047619D01*
X117833333Y-128142857D01*
X117833333Y-128285714D01*
X117785714Y-128380952D01*
X117738095Y-128428571D01*
X117642857Y-128476190D01*
X117261904Y-128476190D01*
X118309523Y-128952380D02*
X118500000Y-128952380D01*
X118595238Y-128904761D01*
X118642857Y-128857142D01*
X118738095Y-128714285D01*
X118785714Y-128523809D01*
X118785714Y-128142857D01*
X118738095Y-128047619D01*
X118690476Y-128000000D01*
X118595238Y-127952380D01*
X118404761Y-127952380D01*
X118309523Y-128000000D01*
X118261904Y-128047619D01*
X118214285Y-128142857D01*
X118214285Y-128380952D01*
X118261904Y-128476190D01*
X118309523Y-128523809D01*
X118404761Y-128571428D01*
X118595238Y-128571428D01*
X118690476Y-128523809D01*
X118738095Y-128476190D01*
X118785714Y-128380952D01*
%TO.C,U2*%
X119472380Y-119861904D02*
X120281904Y-119861904D01*
X120377142Y-119814285D01*
X120424761Y-119766666D01*
X120472380Y-119671428D01*
X120472380Y-119480952D01*
X120424761Y-119385714D01*
X120377142Y-119338095D01*
X120281904Y-119290476D01*
X119472380Y-119290476D01*
X119567619Y-118861904D02*
X119520000Y-118814285D01*
X119472380Y-118719047D01*
X119472380Y-118480952D01*
X119520000Y-118385714D01*
X119567619Y-118338095D01*
X119662857Y-118290476D01*
X119758095Y-118290476D01*
X119900952Y-118338095D01*
X120472380Y-118909523D01*
X120472380Y-118290476D01*
%TO.C,R7*%
X129752380Y-130666666D02*
X129276190Y-131000000D01*
X129752380Y-131238095D02*
X128752380Y-131238095D01*
X128752380Y-130857142D01*
X128800000Y-130761904D01*
X128847619Y-130714285D01*
X128942857Y-130666666D01*
X129085714Y-130666666D01*
X129180952Y-130714285D01*
X129228571Y-130761904D01*
X129276190Y-130857142D01*
X129276190Y-131238095D01*
X128752380Y-130333333D02*
X128752380Y-129666666D01*
X129752380Y-130095238D01*
%TO.C,C1*%
X143033333Y-116757142D02*
X142985714Y-116804761D01*
X142842857Y-116852380D01*
X142747619Y-116852380D01*
X142604761Y-116804761D01*
X142509523Y-116709523D01*
X142461904Y-116614285D01*
X142414285Y-116423809D01*
X142414285Y-116280952D01*
X142461904Y-116090476D01*
X142509523Y-115995238D01*
X142604761Y-115900000D01*
X142747619Y-115852380D01*
X142842857Y-115852380D01*
X142985714Y-115900000D01*
X143033333Y-115947619D01*
X143985714Y-116852380D02*
X143414285Y-116852380D01*
X143700000Y-116852380D02*
X143700000Y-115852380D01*
X143604761Y-115995238D01*
X143509523Y-116090476D01*
X143414285Y-116138095D01*
%TO.C,J3*%
X123152380Y-110633333D02*
X123866666Y-110633333D01*
X124009523Y-110680952D01*
X124104761Y-110776190D01*
X124152380Y-110919047D01*
X124152380Y-111014285D01*
X123152380Y-110252380D02*
X123152380Y-109633333D01*
X123533333Y-109966666D01*
X123533333Y-109823809D01*
X123580952Y-109728571D01*
X123628571Y-109680952D01*
X123723809Y-109633333D01*
X123961904Y-109633333D01*
X124057142Y-109680952D01*
X124104761Y-109728571D01*
X124152380Y-109823809D01*
X124152380Y-110109523D01*
X124104761Y-110204761D01*
X124057142Y-110252380D01*
%TO.C,U1*%
X145338095Y-108352380D02*
X145338095Y-109161904D01*
X145385714Y-109257142D01*
X145433333Y-109304761D01*
X145528571Y-109352380D01*
X145719047Y-109352380D01*
X145814285Y-109304761D01*
X145861904Y-109257142D01*
X145909523Y-109161904D01*
X145909523Y-108352380D01*
X146909523Y-109352380D02*
X146338095Y-109352380D01*
X146623809Y-109352380D02*
X146623809Y-108352380D01*
X146528571Y-108495238D01*
X146433333Y-108590476D01*
X146338095Y-108638095D01*
%TO.C,R8*%
X145033333Y-117822380D02*
X144700000Y-117346190D01*
X144461904Y-117822380D02*
X144461904Y-116822380D01*
X144842857Y-116822380D01*
X144938095Y-116870000D01*
X144985714Y-116917619D01*
X145033333Y-117012857D01*
X145033333Y-117155714D01*
X144985714Y-117250952D01*
X144938095Y-117298571D01*
X144842857Y-117346190D01*
X144461904Y-117346190D01*
X145604761Y-117250952D02*
X145509523Y-117203333D01*
X145461904Y-117155714D01*
X145414285Y-117060476D01*
X145414285Y-117012857D01*
X145461904Y-116917619D01*
X145509523Y-116870000D01*
X145604761Y-116822380D01*
X145795238Y-116822380D01*
X145890476Y-116870000D01*
X145938095Y-116917619D01*
X145985714Y-117012857D01*
X145985714Y-117060476D01*
X145938095Y-117155714D01*
X145890476Y-117203333D01*
X145795238Y-117250952D01*
X145604761Y-117250952D01*
X145509523Y-117298571D01*
X145461904Y-117346190D01*
X145414285Y-117441428D01*
X145414285Y-117631904D01*
X145461904Y-117727142D01*
X145509523Y-117774761D01*
X145604761Y-117822380D01*
X145795238Y-117822380D01*
X145890476Y-117774761D01*
X145938095Y-117727142D01*
X145985714Y-117631904D01*
X145985714Y-117441428D01*
X145938095Y-117346190D01*
X145890476Y-117298571D01*
X145795238Y-117250952D01*
%TO.C,J2*%
X143466666Y-128852380D02*
X143466666Y-129566666D01*
X143419047Y-129709523D01*
X143323809Y-129804761D01*
X143180952Y-129852380D01*
X143085714Y-129852380D01*
X143895238Y-128947619D02*
X143942857Y-128900000D01*
X144038095Y-128852380D01*
X144276190Y-128852380D01*
X144371428Y-128900000D01*
X144419047Y-128947619D01*
X144466666Y-129042857D01*
X144466666Y-129138095D01*
X144419047Y-129280952D01*
X143847619Y-129852380D01*
X144466666Y-129852380D01*
%TO.C,C14*%
X144657142Y-132387142D02*
X144609523Y-132434761D01*
X144466666Y-132482380D01*
X144371428Y-132482380D01*
X144228571Y-132434761D01*
X144133333Y-132339523D01*
X144085714Y-132244285D01*
X144038095Y-132053809D01*
X144038095Y-131910952D01*
X144085714Y-131720476D01*
X144133333Y-131625238D01*
X144228571Y-131530000D01*
X144371428Y-131482380D01*
X144466666Y-131482380D01*
X144609523Y-131530000D01*
X144657142Y-131577619D01*
X145609523Y-132482380D02*
X145038095Y-132482380D01*
X145323809Y-132482380D02*
X145323809Y-131482380D01*
X145228571Y-131625238D01*
X145133333Y-131720476D01*
X145038095Y-131768095D01*
X146466666Y-131815714D02*
X146466666Y-132482380D01*
X146228571Y-131434761D02*
X145990476Y-132149047D01*
X146609523Y-132149047D01*
%TO.C,C13*%
X132257142Y-120257142D02*
X132209523Y-120304761D01*
X132066666Y-120352380D01*
X131971428Y-120352380D01*
X131828571Y-120304761D01*
X131733333Y-120209523D01*
X131685714Y-120114285D01*
X131638095Y-119923809D01*
X131638095Y-119780952D01*
X131685714Y-119590476D01*
X131733333Y-119495238D01*
X131828571Y-119400000D01*
X131971428Y-119352380D01*
X132066666Y-119352380D01*
X132209523Y-119400000D01*
X132257142Y-119447619D01*
X133209523Y-120352380D02*
X132638095Y-120352380D01*
X132923809Y-120352380D02*
X132923809Y-119352380D01*
X132828571Y-119495238D01*
X132733333Y-119590476D01*
X132638095Y-119638095D01*
X133542857Y-119352380D02*
X134161904Y-119352380D01*
X133828571Y-119733333D01*
X133971428Y-119733333D01*
X134066666Y-119780952D01*
X134114285Y-119828571D01*
X134161904Y-119923809D01*
X134161904Y-120161904D01*
X134114285Y-120257142D01*
X134066666Y-120304761D01*
X133971428Y-120352380D01*
X133685714Y-120352380D01*
X133590476Y-120304761D01*
X133542857Y-120257142D01*
%TO.C,C12*%
X139457142Y-132257142D02*
X139409523Y-132304761D01*
X139266666Y-132352380D01*
X139171428Y-132352380D01*
X139028571Y-132304761D01*
X138933333Y-132209523D01*
X138885714Y-132114285D01*
X138838095Y-131923809D01*
X138838095Y-131780952D01*
X138885714Y-131590476D01*
X138933333Y-131495238D01*
X139028571Y-131400000D01*
X139171428Y-131352380D01*
X139266666Y-131352380D01*
X139409523Y-131400000D01*
X139457142Y-131447619D01*
X140409523Y-132352380D02*
X139838095Y-132352380D01*
X140123809Y-132352380D02*
X140123809Y-131352380D01*
X140028571Y-131495238D01*
X139933333Y-131590476D01*
X139838095Y-131638095D01*
X140790476Y-131447619D02*
X140838095Y-131400000D01*
X140933333Y-131352380D01*
X141171428Y-131352380D01*
X141266666Y-131400000D01*
X141314285Y-131447619D01*
X141361904Y-131542857D01*
X141361904Y-131638095D01*
X141314285Y-131780952D01*
X140742857Y-132352380D01*
X141361904Y-132352380D01*
%TO.C,C11*%
X133457142Y-132357142D02*
X133409523Y-132404761D01*
X133266666Y-132452380D01*
X133171428Y-132452380D01*
X133028571Y-132404761D01*
X132933333Y-132309523D01*
X132885714Y-132214285D01*
X132838095Y-132023809D01*
X132838095Y-131880952D01*
X132885714Y-131690476D01*
X132933333Y-131595238D01*
X133028571Y-131500000D01*
X133171428Y-131452380D01*
X133266666Y-131452380D01*
X133409523Y-131500000D01*
X133457142Y-131547619D01*
X134409523Y-132452380D02*
X133838095Y-132452380D01*
X134123809Y-132452380D02*
X134123809Y-131452380D01*
X134028571Y-131595238D01*
X133933333Y-131690476D01*
X133838095Y-131738095D01*
X135361904Y-132452380D02*
X134790476Y-132452380D01*
X135076190Y-132452380D02*
X135076190Y-131452380D01*
X134980952Y-131595238D01*
X134885714Y-131690476D01*
X134790476Y-131738095D01*
%TO.C,C10*%
X135057142Y-116057142D02*
X135009523Y-116104761D01*
X134866666Y-116152380D01*
X134771428Y-116152380D01*
X134628571Y-116104761D01*
X134533333Y-116009523D01*
X134485714Y-115914285D01*
X134438095Y-115723809D01*
X134438095Y-115580952D01*
X134485714Y-115390476D01*
X134533333Y-115295238D01*
X134628571Y-115200000D01*
X134771428Y-115152380D01*
X134866666Y-115152380D01*
X135009523Y-115200000D01*
X135057142Y-115247619D01*
X136009523Y-116152380D02*
X135438095Y-116152380D01*
X135723809Y-116152380D02*
X135723809Y-115152380D01*
X135628571Y-115295238D01*
X135533333Y-115390476D01*
X135438095Y-115438095D01*
X136628571Y-115152380D02*
X136723809Y-115152380D01*
X136819047Y-115200000D01*
X136866666Y-115247619D01*
X136914285Y-115342857D01*
X136961904Y-115533333D01*
X136961904Y-115771428D01*
X136914285Y-115961904D01*
X136866666Y-116057142D01*
X136819047Y-116104761D01*
X136723809Y-116152380D01*
X136628571Y-116152380D01*
X136533333Y-116104761D01*
X136485714Y-116057142D01*
X136438095Y-115961904D01*
X136390476Y-115771428D01*
X136390476Y-115533333D01*
X136438095Y-115342857D01*
X136485714Y-115247619D01*
X136533333Y-115200000D01*
X136628571Y-115152380D01*
%TO.C,C9*%
X136533333Y-117857142D02*
X136485714Y-117904761D01*
X136342857Y-117952380D01*
X136247619Y-117952380D01*
X136104761Y-117904761D01*
X136009523Y-117809523D01*
X135961904Y-117714285D01*
X135914285Y-117523809D01*
X135914285Y-117380952D01*
X135961904Y-117190476D01*
X136009523Y-117095238D01*
X136104761Y-117000000D01*
X136247619Y-116952380D01*
X136342857Y-116952380D01*
X136485714Y-117000000D01*
X136533333Y-117047619D01*
X137009523Y-117952380D02*
X137200000Y-117952380D01*
X137295238Y-117904761D01*
X137342857Y-117857142D01*
X137438095Y-117714285D01*
X137485714Y-117523809D01*
X137485714Y-117142857D01*
X137438095Y-117047619D01*
X137390476Y-117000000D01*
X137295238Y-116952380D01*
X137104761Y-116952380D01*
X137009523Y-117000000D01*
X136961904Y-117047619D01*
X136914285Y-117142857D01*
X136914285Y-117380952D01*
X136961904Y-117476190D01*
X137009523Y-117523809D01*
X137104761Y-117571428D01*
X137295238Y-117571428D01*
X137390476Y-117523809D01*
X137438095Y-117476190D01*
X137485714Y-117380952D01*
%TO.C,U3*%
X130252380Y-126461904D02*
X131061904Y-126461904D01*
X131157142Y-126414285D01*
X131204761Y-126366666D01*
X131252380Y-126271428D01*
X131252380Y-126080952D01*
X131204761Y-125985714D01*
X131157142Y-125938095D01*
X131061904Y-125890476D01*
X130252380Y-125890476D01*
X130252380Y-125509523D02*
X130252380Y-124890476D01*
X130633333Y-125223809D01*
X130633333Y-125080952D01*
X130680952Y-124985714D01*
X130728571Y-124938095D01*
X130823809Y-124890476D01*
X131061904Y-124890476D01*
X131157142Y-124938095D01*
X131204761Y-124985714D01*
X131252380Y-125080952D01*
X131252380Y-125366666D01*
X131204761Y-125461904D01*
X131157142Y-125509523D01*
%TO.C,R2*%
X117933333Y-127252380D02*
X117600000Y-126776190D01*
X117361904Y-127252380D02*
X117361904Y-126252380D01*
X117742857Y-126252380D01*
X117838095Y-126300000D01*
X117885714Y-126347619D01*
X117933333Y-126442857D01*
X117933333Y-126585714D01*
X117885714Y-126680952D01*
X117838095Y-126728571D01*
X117742857Y-126776190D01*
X117361904Y-126776190D01*
X118314285Y-126347619D02*
X118361904Y-126300000D01*
X118457142Y-126252380D01*
X118695238Y-126252380D01*
X118790476Y-126300000D01*
X118838095Y-126347619D01*
X118885714Y-126442857D01*
X118885714Y-126538095D01*
X118838095Y-126680952D01*
X118266666Y-127252380D01*
X118885714Y-127252380D01*
%TO.C,R1*%
X126752380Y-130566666D02*
X126276190Y-130900000D01*
X126752380Y-131138095D02*
X125752380Y-131138095D01*
X125752380Y-130757142D01*
X125800000Y-130661904D01*
X125847619Y-130614285D01*
X125942857Y-130566666D01*
X126085714Y-130566666D01*
X126180952Y-130614285D01*
X126228571Y-130661904D01*
X126276190Y-130757142D01*
X126276190Y-131138095D01*
X126752380Y-129614285D02*
X126752380Y-130185714D01*
X126752380Y-129900000D02*
X125752380Y-129900000D01*
X125895238Y-129995238D01*
X125990476Y-130090476D01*
X126038095Y-130185714D01*
%TO.C,J1*%
X115252380Y-120333333D02*
X115966666Y-120333333D01*
X116109523Y-120380952D01*
X116204761Y-120476190D01*
X116252380Y-120619047D01*
X116252380Y-120714285D01*
X116252380Y-119333333D02*
X116252380Y-119904761D01*
X116252380Y-119619047D02*
X115252380Y-119619047D01*
X115395238Y-119714285D01*
X115490476Y-119809523D01*
X115538095Y-119904761D01*
%TO.C,C6*%
X128157142Y-130666666D02*
X128204761Y-130714285D01*
X128252380Y-130857142D01*
X128252380Y-130952380D01*
X128204761Y-131095238D01*
X128109523Y-131190476D01*
X128014285Y-131238095D01*
X127823809Y-131285714D01*
X127680952Y-131285714D01*
X127490476Y-131238095D01*
X127395238Y-131190476D01*
X127300000Y-131095238D01*
X127252380Y-130952380D01*
X127252380Y-130857142D01*
X127300000Y-130714285D01*
X127347619Y-130666666D01*
X127252380Y-129809523D02*
X127252380Y-130000000D01*
X127300000Y-130095238D01*
X127347619Y-130142857D01*
X127490476Y-130238095D01*
X127680952Y-130285714D01*
X128061904Y-130285714D01*
X128157142Y-130238095D01*
X128204761Y-130190476D01*
X128252380Y-130095238D01*
X128252380Y-129904761D01*
X128204761Y-129809523D01*
X128157142Y-129761904D01*
X128061904Y-129714285D01*
X127823809Y-129714285D01*
X127728571Y-129761904D01*
X127680952Y-129809523D01*
X127633333Y-129904761D01*
X127633333Y-130095238D01*
X127680952Y-130190476D01*
X127728571Y-130238095D01*
X127823809Y-130285714D01*
%TO.C,C5*%
X127033333Y-124327142D02*
X126985714Y-124374761D01*
X126842857Y-124422380D01*
X126747619Y-124422380D01*
X126604761Y-124374761D01*
X126509523Y-124279523D01*
X126461904Y-124184285D01*
X126414285Y-123993809D01*
X126414285Y-123850952D01*
X126461904Y-123660476D01*
X126509523Y-123565238D01*
X126604761Y-123470000D01*
X126747619Y-123422380D01*
X126842857Y-123422380D01*
X126985714Y-123470000D01*
X127033333Y-123517619D01*
X127938095Y-123422380D02*
X127461904Y-123422380D01*
X127414285Y-123898571D01*
X127461904Y-123850952D01*
X127557142Y-123803333D01*
X127795238Y-123803333D01*
X127890476Y-123850952D01*
X127938095Y-123898571D01*
X127985714Y-123993809D01*
X127985714Y-124231904D01*
X127938095Y-124327142D01*
X127890476Y-124374761D01*
X127795238Y-124422380D01*
X127557142Y-124422380D01*
X127461904Y-124374761D01*
X127414285Y-124327142D01*
%TO.C,C4*%
X120157142Y-123766666D02*
X120204761Y-123814285D01*
X120252380Y-123957142D01*
X120252380Y-124052380D01*
X120204761Y-124195238D01*
X120109523Y-124290476D01*
X120014285Y-124338095D01*
X119823809Y-124385714D01*
X119680952Y-124385714D01*
X119490476Y-124338095D01*
X119395238Y-124290476D01*
X119300000Y-124195238D01*
X119252380Y-124052380D01*
X119252380Y-123957142D01*
X119300000Y-123814285D01*
X119347619Y-123766666D01*
X119585714Y-122909523D02*
X120252380Y-122909523D01*
X119204761Y-123147619D02*
X119919047Y-123385714D01*
X119919047Y-122766666D01*
%TO.C,C3*%
X130833333Y-113427142D02*
X130785714Y-113474761D01*
X130642857Y-113522380D01*
X130547619Y-113522380D01*
X130404761Y-113474761D01*
X130309523Y-113379523D01*
X130261904Y-113284285D01*
X130214285Y-113093809D01*
X130214285Y-112950952D01*
X130261904Y-112760476D01*
X130309523Y-112665238D01*
X130404761Y-112570000D01*
X130547619Y-112522380D01*
X130642857Y-112522380D01*
X130785714Y-112570000D01*
X130833333Y-112617619D01*
X131166666Y-112522380D02*
X131785714Y-112522380D01*
X131452380Y-112903333D01*
X131595238Y-112903333D01*
X131690476Y-112950952D01*
X131738095Y-112998571D01*
X131785714Y-113093809D01*
X131785714Y-113331904D01*
X131738095Y-113427142D01*
X131690476Y-113474761D01*
X131595238Y-113522380D01*
X131309523Y-113522380D01*
X131214285Y-113474761D01*
X131166666Y-113427142D01*
%TO.C,C2*%
X130657142Y-110566666D02*
X130704761Y-110614285D01*
X130752380Y-110757142D01*
X130752380Y-110852380D01*
X130704761Y-110995238D01*
X130609523Y-111090476D01*
X130514285Y-111138095D01*
X130323809Y-111185714D01*
X130180952Y-111185714D01*
X129990476Y-111138095D01*
X129895238Y-111090476D01*
X129800000Y-110995238D01*
X129752380Y-110852380D01*
X129752380Y-110757142D01*
X129800000Y-110614285D01*
X129847619Y-110566666D01*
X129847619Y-110185714D02*
X129800000Y-110138095D01*
X129752380Y-110042857D01*
X129752380Y-109804761D01*
X129800000Y-109709523D01*
X129847619Y-109661904D01*
X129942857Y-109614285D01*
X130038095Y-109614285D01*
X130180952Y-109661904D01*
X130752380Y-110233333D01*
X130752380Y-109614285D01*
%TD*%
M02*
