%TF.GenerationSoftware,KiCad,Pcbnew,(5.1.7)-1*%
%TF.CreationDate,2020-11-11T21:59:56+01:00*%
%TF.ProjectId,rgb_ctrl_board,7267625f-6374-4726-9c5f-626f6172642e,rev?*%
%TF.SameCoordinates,Original*%
%TF.FileFunction,Legend,Bot*%
%TF.FilePolarity,Positive*%
%FSLAX46Y46*%
G04 Gerber Fmt 4.6, Leading zero omitted, Abs format (unit mm)*
G04 Created by KiCad (PCBNEW (5.1.7)-1) date 2020-11-11 21:59:56*
%MOMM*%
%LPD*%
G01*
G04 APERTURE LIST*
%ADD10C,0.120000*%
%ADD11C,0.150000*%
G04 APERTURE END LIST*
D10*
%TO.C,Y1*%
X124210000Y-127500000D02*
X124600000Y-127500000D01*
X124600000Y-127500000D02*
X124600000Y-123900000D01*
X124600000Y-123900000D02*
X124210000Y-123900000D01*
X121530000Y-127500000D02*
X122270000Y-127500000D01*
X119590000Y-123200000D02*
X119590000Y-123900000D01*
X119590000Y-123900000D02*
X119200000Y-123900000D01*
X119200000Y-123900000D02*
X119200000Y-127500000D01*
X119200000Y-127500000D02*
X119590000Y-127500000D01*
X122270000Y-123900000D02*
X121530000Y-123900000D01*
X121530000Y-123900000D02*
X121530000Y-123200000D01*
%TO.C,C16*%
X125190000Y-125446267D02*
X125190000Y-125153733D01*
X126210000Y-125446267D02*
X126210000Y-125153733D01*
%TO.C,C15*%
X118810000Y-124753733D02*
X118810000Y-125046267D01*
X117790000Y-124753733D02*
X117790000Y-125046267D01*
%TO.C,Y1*%
D11*
X122376190Y-128976190D02*
X122376190Y-129452380D01*
X122709523Y-128452380D02*
X122376190Y-128976190D01*
X122042857Y-128452380D01*
X121185714Y-129452380D02*
X121757142Y-129452380D01*
X121471428Y-129452380D02*
X121471428Y-128452380D01*
X121566666Y-128595238D01*
X121661904Y-128690476D01*
X121757142Y-128738095D01*
%TO.C,C16*%
X127487142Y-124657142D02*
X127534761Y-124609523D01*
X127582380Y-124466666D01*
X127582380Y-124371428D01*
X127534761Y-124228571D01*
X127439523Y-124133333D01*
X127344285Y-124085714D01*
X127153809Y-124038095D01*
X127010952Y-124038095D01*
X126820476Y-124085714D01*
X126725238Y-124133333D01*
X126630000Y-124228571D01*
X126582380Y-124371428D01*
X126582380Y-124466666D01*
X126630000Y-124609523D01*
X126677619Y-124657142D01*
X127582380Y-125609523D02*
X127582380Y-125038095D01*
X127582380Y-125323809D02*
X126582380Y-125323809D01*
X126725238Y-125228571D01*
X126820476Y-125133333D01*
X126868095Y-125038095D01*
X126582380Y-126466666D02*
X126582380Y-126276190D01*
X126630000Y-126180952D01*
X126677619Y-126133333D01*
X126820476Y-126038095D01*
X127010952Y-125990476D01*
X127391904Y-125990476D01*
X127487142Y-126038095D01*
X127534761Y-126085714D01*
X127582380Y-126180952D01*
X127582380Y-126371428D01*
X127534761Y-126466666D01*
X127487142Y-126514285D01*
X127391904Y-126561904D01*
X127153809Y-126561904D01*
X127058571Y-126514285D01*
X127010952Y-126466666D01*
X126963333Y-126371428D01*
X126963333Y-126180952D01*
X127010952Y-126085714D01*
X127058571Y-126038095D01*
X127153809Y-125990476D01*
%TO.C,C15*%
X117227142Y-124257142D02*
X117274761Y-124209523D01*
X117322380Y-124066666D01*
X117322380Y-123971428D01*
X117274761Y-123828571D01*
X117179523Y-123733333D01*
X117084285Y-123685714D01*
X116893809Y-123638095D01*
X116750952Y-123638095D01*
X116560476Y-123685714D01*
X116465238Y-123733333D01*
X116370000Y-123828571D01*
X116322380Y-123971428D01*
X116322380Y-124066666D01*
X116370000Y-124209523D01*
X116417619Y-124257142D01*
X117322380Y-125209523D02*
X117322380Y-124638095D01*
X117322380Y-124923809D02*
X116322380Y-124923809D01*
X116465238Y-124828571D01*
X116560476Y-124733333D01*
X116608095Y-124638095D01*
X116322380Y-126114285D02*
X116322380Y-125638095D01*
X116798571Y-125590476D01*
X116750952Y-125638095D01*
X116703333Y-125733333D01*
X116703333Y-125971428D01*
X116750952Y-126066666D01*
X116798571Y-126114285D01*
X116893809Y-126161904D01*
X117131904Y-126161904D01*
X117227142Y-126114285D01*
X117274761Y-126066666D01*
X117322380Y-125971428D01*
X117322380Y-125733333D01*
X117274761Y-125638095D01*
X117227142Y-125590476D01*
%TD*%
M02*
