%TF.GenerationSoftware,KiCad,Pcbnew,(5.1.7)-1*%
%TF.CreationDate,2020-11-11T21:59:56+01:00*%
%TF.ProjectId,rgb_ctrl_board,7267625f-6374-4726-9c5f-626f6172642e,rev?*%
%TF.SameCoordinates,Original*%
%TF.FileFunction,Soldermask,Bot*%
%TF.FilePolarity,Negative*%
%FSLAX46Y46*%
G04 Gerber Fmt 4.6, Leading zero omitted, Abs format (unit mm)*
G04 Created by KiCad (PCBNEW (5.1.7)-1) date 2020-11-11 21:59:56*
%MOMM*%
%LPD*%
G01*
G04 APERTURE LIST*
%ADD10O,1.000000X1.000000*%
%ADD11R,1.000000X1.000000*%
%ADD12R,1.540000X1.800000*%
%ADD13C,1.200000*%
G04 APERTURE END LIST*
D10*
%TO.C,J3*%
X117120000Y-110970000D03*
X117120000Y-109700000D03*
X118390000Y-110970000D03*
X118390000Y-109700000D03*
X119660000Y-110970000D03*
X119660000Y-109700000D03*
X120930000Y-110970000D03*
X120930000Y-109700000D03*
X122200000Y-110970000D03*
D11*
X122200000Y-109700000D03*
%TD*%
D12*
%TO.C,Y1*%
X120560000Y-127100000D03*
X123240000Y-127100000D03*
X123240000Y-124300000D03*
X120560000Y-124300000D03*
%TD*%
%TO.C,C16*%
G36*
G01*
X125937500Y-126700000D02*
X125462500Y-126700000D01*
G75*
G02*
X125225000Y-126462500I0J237500D01*
G01*
X125225000Y-125862500D01*
G75*
G02*
X125462500Y-125625000I237500J0D01*
G01*
X125937500Y-125625000D01*
G75*
G02*
X126175000Y-125862500I0J-237500D01*
G01*
X126175000Y-126462500D01*
G75*
G02*
X125937500Y-126700000I-237500J0D01*
G01*
G37*
G36*
G01*
X125937500Y-124975000D02*
X125462500Y-124975000D01*
G75*
G02*
X125225000Y-124737500I0J237500D01*
G01*
X125225000Y-124137500D01*
G75*
G02*
X125462500Y-123900000I237500J0D01*
G01*
X125937500Y-123900000D01*
G75*
G02*
X126175000Y-124137500I0J-237500D01*
G01*
X126175000Y-124737500D01*
G75*
G02*
X125937500Y-124975000I-237500J0D01*
G01*
G37*
%TD*%
%TO.C,C15*%
G36*
G01*
X118062500Y-123500000D02*
X118537500Y-123500000D01*
G75*
G02*
X118775000Y-123737500I0J-237500D01*
G01*
X118775000Y-124337500D01*
G75*
G02*
X118537500Y-124575000I-237500J0D01*
G01*
X118062500Y-124575000D01*
G75*
G02*
X117825000Y-124337500I0J237500D01*
G01*
X117825000Y-123737500D01*
G75*
G02*
X118062500Y-123500000I237500J0D01*
G01*
G37*
G36*
G01*
X118062500Y-125225000D02*
X118537500Y-125225000D01*
G75*
G02*
X118775000Y-125462500I0J-237500D01*
G01*
X118775000Y-126062500D01*
G75*
G02*
X118537500Y-126300000I-237500J0D01*
G01*
X118062500Y-126300000D01*
G75*
G02*
X117825000Y-126062500I0J237500D01*
G01*
X117825000Y-125462500D01*
G75*
G02*
X118062500Y-125225000I237500J0D01*
G01*
G37*
%TD*%
D13*
%TO.C,J1*%
X112000000Y-129000000D03*
X112000000Y-127000000D03*
X112000000Y-125000000D03*
X112000000Y-123000000D03*
X112000000Y-121000000D03*
X112000000Y-119000000D03*
X112000000Y-117000000D03*
X112000000Y-115000000D03*
X112000000Y-113000000D03*
X112000000Y-111000000D03*
X114000000Y-129000000D03*
X114000000Y-127000000D03*
X114000000Y-125000000D03*
X114000000Y-123000000D03*
X114000000Y-121000000D03*
X114000000Y-119000000D03*
X114000000Y-117000000D03*
X114000000Y-115000000D03*
X114000000Y-113000000D03*
G36*
G01*
X113649999Y-110400000D02*
X114350001Y-110400000D01*
G75*
G02*
X114600000Y-110649999I0J-249999D01*
G01*
X114600000Y-111350001D01*
G75*
G02*
X114350001Y-111600000I-249999J0D01*
G01*
X113649999Y-111600000D01*
G75*
G02*
X113400000Y-111350001I0J249999D01*
G01*
X113400000Y-110649999D01*
G75*
G02*
X113649999Y-110400000I249999J0D01*
G01*
G37*
%TD*%
M02*
