%TF.GenerationSoftware,KiCad,Pcbnew,(5.1.7)-1*%
%TF.CreationDate,2020-11-11T21:59:56+01:00*%
%TF.ProjectId,rgb_ctrl_board,7267625f-6374-4726-9c5f-626f6172642e,rev?*%
%TF.SameCoordinates,Original*%
%TF.FileFunction,Soldermask,Top*%
%TF.FilePolarity,Negative*%
%FSLAX46Y46*%
G04 Gerber Fmt 4.6, Leading zero omitted, Abs format (unit mm)*
G04 Created by KiCad (PCBNEW (5.1.7)-1) date 2020-11-11 21:59:56*
%MOMM*%
%LPD*%
G01*
G04 APERTURE LIST*
%ADD10O,1.000000X1.000000*%
%ADD11R,1.000000X1.000000*%
%ADD12R,2.000000X1.500000*%
%ADD13R,2.000000X3.800000*%
%ADD14R,1.900000X1.000000*%
%ADD15R,1.900000X1.800000*%
%ADD16R,1.300000X1.650000*%
%ADD17R,1.550000X1.425000*%
%ADD18R,1.380000X0.450000*%
%ADD19R,0.400000X1.200000*%
%ADD20C,1.200000*%
G04 APERTURE END LIST*
%TO.C,R10*%
G36*
G01*
X121125000Y-130037500D02*
X121125000Y-129562500D01*
G75*
G02*
X121362500Y-129325000I237500J0D01*
G01*
X121862500Y-129325000D01*
G75*
G02*
X122100000Y-129562500I0J-237500D01*
G01*
X122100000Y-130037500D01*
G75*
G02*
X121862500Y-130275000I-237500J0D01*
G01*
X121362500Y-130275000D01*
G75*
G02*
X121125000Y-130037500I0J237500D01*
G01*
G37*
G36*
G01*
X119300000Y-130037500D02*
X119300000Y-129562500D01*
G75*
G02*
X119537500Y-129325000I237500J0D01*
G01*
X120037500Y-129325000D01*
G75*
G02*
X120275000Y-129562500I0J-237500D01*
G01*
X120275000Y-130037500D01*
G75*
G02*
X120037500Y-130275000I-237500J0D01*
G01*
X119537500Y-130275000D01*
G75*
G02*
X119300000Y-130037500I0J237500D01*
G01*
G37*
%TD*%
%TO.C,R9*%
G36*
G01*
X121125000Y-128537500D02*
X121125000Y-128062500D01*
G75*
G02*
X121362500Y-127825000I237500J0D01*
G01*
X121862500Y-127825000D01*
G75*
G02*
X122100000Y-128062500I0J-237500D01*
G01*
X122100000Y-128537500D01*
G75*
G02*
X121862500Y-128775000I-237500J0D01*
G01*
X121362500Y-128775000D01*
G75*
G02*
X121125000Y-128537500I0J237500D01*
G01*
G37*
G36*
G01*
X119300000Y-128537500D02*
X119300000Y-128062500D01*
G75*
G02*
X119537500Y-127825000I237500J0D01*
G01*
X120037500Y-127825000D01*
G75*
G02*
X120275000Y-128062500I0J-237500D01*
G01*
X120275000Y-128537500D01*
G75*
G02*
X120037500Y-128775000I-237500J0D01*
G01*
X119537500Y-128775000D01*
G75*
G02*
X119300000Y-128537500I0J237500D01*
G01*
G37*
%TD*%
%TO.C,U2*%
G36*
G01*
X122350000Y-122150000D02*
X121100000Y-122150000D01*
G75*
G02*
X120975000Y-122025000I0J125000D01*
G01*
X120975000Y-121775000D01*
G75*
G02*
X121100000Y-121650000I125000J0D01*
G01*
X122350000Y-121650000D01*
G75*
G02*
X122475000Y-121775000I0J-125000D01*
G01*
X122475000Y-122025000D01*
G75*
G02*
X122350000Y-122150000I-125000J0D01*
G01*
G37*
G36*
G01*
X122350000Y-121350000D02*
X121100000Y-121350000D01*
G75*
G02*
X120975000Y-121225000I0J125000D01*
G01*
X120975000Y-120975000D01*
G75*
G02*
X121100000Y-120850000I125000J0D01*
G01*
X122350000Y-120850000D01*
G75*
G02*
X122475000Y-120975000I0J-125000D01*
G01*
X122475000Y-121225000D01*
G75*
G02*
X122350000Y-121350000I-125000J0D01*
G01*
G37*
G36*
G01*
X122350000Y-120550000D02*
X121100000Y-120550000D01*
G75*
G02*
X120975000Y-120425000I0J125000D01*
G01*
X120975000Y-120175000D01*
G75*
G02*
X121100000Y-120050000I125000J0D01*
G01*
X122350000Y-120050000D01*
G75*
G02*
X122475000Y-120175000I0J-125000D01*
G01*
X122475000Y-120425000D01*
G75*
G02*
X122350000Y-120550000I-125000J0D01*
G01*
G37*
G36*
G01*
X122350000Y-119750000D02*
X121100000Y-119750000D01*
G75*
G02*
X120975000Y-119625000I0J125000D01*
G01*
X120975000Y-119375000D01*
G75*
G02*
X121100000Y-119250000I125000J0D01*
G01*
X122350000Y-119250000D01*
G75*
G02*
X122475000Y-119375000I0J-125000D01*
G01*
X122475000Y-119625000D01*
G75*
G02*
X122350000Y-119750000I-125000J0D01*
G01*
G37*
G36*
G01*
X122350000Y-118950000D02*
X121100000Y-118950000D01*
G75*
G02*
X120975000Y-118825000I0J125000D01*
G01*
X120975000Y-118575000D01*
G75*
G02*
X121100000Y-118450000I125000J0D01*
G01*
X122350000Y-118450000D01*
G75*
G02*
X122475000Y-118575000I0J-125000D01*
G01*
X122475000Y-118825000D01*
G75*
G02*
X122350000Y-118950000I-125000J0D01*
G01*
G37*
G36*
G01*
X122350000Y-118150000D02*
X121100000Y-118150000D01*
G75*
G02*
X120975000Y-118025000I0J125000D01*
G01*
X120975000Y-117775000D01*
G75*
G02*
X121100000Y-117650000I125000J0D01*
G01*
X122350000Y-117650000D01*
G75*
G02*
X122475000Y-117775000I0J-125000D01*
G01*
X122475000Y-118025000D01*
G75*
G02*
X122350000Y-118150000I-125000J0D01*
G01*
G37*
G36*
G01*
X122350000Y-117350000D02*
X121100000Y-117350000D01*
G75*
G02*
X120975000Y-117225000I0J125000D01*
G01*
X120975000Y-116975000D01*
G75*
G02*
X121100000Y-116850000I125000J0D01*
G01*
X122350000Y-116850000D01*
G75*
G02*
X122475000Y-116975000I0J-125000D01*
G01*
X122475000Y-117225000D01*
G75*
G02*
X122350000Y-117350000I-125000J0D01*
G01*
G37*
G36*
G01*
X122350000Y-116550000D02*
X121100000Y-116550000D01*
G75*
G02*
X120975000Y-116425000I0J125000D01*
G01*
X120975000Y-116175000D01*
G75*
G02*
X121100000Y-116050000I125000J0D01*
G01*
X122350000Y-116050000D01*
G75*
G02*
X122475000Y-116175000I0J-125000D01*
G01*
X122475000Y-116425000D01*
G75*
G02*
X122350000Y-116550000I-125000J0D01*
G01*
G37*
G36*
G01*
X123225000Y-115675000D02*
X122975000Y-115675000D01*
G75*
G02*
X122850000Y-115550000I0J125000D01*
G01*
X122850000Y-114300000D01*
G75*
G02*
X122975000Y-114175000I125000J0D01*
G01*
X123225000Y-114175000D01*
G75*
G02*
X123350000Y-114300000I0J-125000D01*
G01*
X123350000Y-115550000D01*
G75*
G02*
X123225000Y-115675000I-125000J0D01*
G01*
G37*
G36*
G01*
X124025000Y-115675000D02*
X123775000Y-115675000D01*
G75*
G02*
X123650000Y-115550000I0J125000D01*
G01*
X123650000Y-114300000D01*
G75*
G02*
X123775000Y-114175000I125000J0D01*
G01*
X124025000Y-114175000D01*
G75*
G02*
X124150000Y-114300000I0J-125000D01*
G01*
X124150000Y-115550000D01*
G75*
G02*
X124025000Y-115675000I-125000J0D01*
G01*
G37*
G36*
G01*
X124825000Y-115675000D02*
X124575000Y-115675000D01*
G75*
G02*
X124450000Y-115550000I0J125000D01*
G01*
X124450000Y-114300000D01*
G75*
G02*
X124575000Y-114175000I125000J0D01*
G01*
X124825000Y-114175000D01*
G75*
G02*
X124950000Y-114300000I0J-125000D01*
G01*
X124950000Y-115550000D01*
G75*
G02*
X124825000Y-115675000I-125000J0D01*
G01*
G37*
G36*
G01*
X125625000Y-115675000D02*
X125375000Y-115675000D01*
G75*
G02*
X125250000Y-115550000I0J125000D01*
G01*
X125250000Y-114300000D01*
G75*
G02*
X125375000Y-114175000I125000J0D01*
G01*
X125625000Y-114175000D01*
G75*
G02*
X125750000Y-114300000I0J-125000D01*
G01*
X125750000Y-115550000D01*
G75*
G02*
X125625000Y-115675000I-125000J0D01*
G01*
G37*
G36*
G01*
X126425000Y-115675000D02*
X126175000Y-115675000D01*
G75*
G02*
X126050000Y-115550000I0J125000D01*
G01*
X126050000Y-114300000D01*
G75*
G02*
X126175000Y-114175000I125000J0D01*
G01*
X126425000Y-114175000D01*
G75*
G02*
X126550000Y-114300000I0J-125000D01*
G01*
X126550000Y-115550000D01*
G75*
G02*
X126425000Y-115675000I-125000J0D01*
G01*
G37*
G36*
G01*
X127225000Y-115675000D02*
X126975000Y-115675000D01*
G75*
G02*
X126850000Y-115550000I0J125000D01*
G01*
X126850000Y-114300000D01*
G75*
G02*
X126975000Y-114175000I125000J0D01*
G01*
X127225000Y-114175000D01*
G75*
G02*
X127350000Y-114300000I0J-125000D01*
G01*
X127350000Y-115550000D01*
G75*
G02*
X127225000Y-115675000I-125000J0D01*
G01*
G37*
G36*
G01*
X128025000Y-115675000D02*
X127775000Y-115675000D01*
G75*
G02*
X127650000Y-115550000I0J125000D01*
G01*
X127650000Y-114300000D01*
G75*
G02*
X127775000Y-114175000I125000J0D01*
G01*
X128025000Y-114175000D01*
G75*
G02*
X128150000Y-114300000I0J-125000D01*
G01*
X128150000Y-115550000D01*
G75*
G02*
X128025000Y-115675000I-125000J0D01*
G01*
G37*
G36*
G01*
X128825000Y-115675000D02*
X128575000Y-115675000D01*
G75*
G02*
X128450000Y-115550000I0J125000D01*
G01*
X128450000Y-114300000D01*
G75*
G02*
X128575000Y-114175000I125000J0D01*
G01*
X128825000Y-114175000D01*
G75*
G02*
X128950000Y-114300000I0J-125000D01*
G01*
X128950000Y-115550000D01*
G75*
G02*
X128825000Y-115675000I-125000J0D01*
G01*
G37*
G36*
G01*
X130700000Y-116550000D02*
X129450000Y-116550000D01*
G75*
G02*
X129325000Y-116425000I0J125000D01*
G01*
X129325000Y-116175000D01*
G75*
G02*
X129450000Y-116050000I125000J0D01*
G01*
X130700000Y-116050000D01*
G75*
G02*
X130825000Y-116175000I0J-125000D01*
G01*
X130825000Y-116425000D01*
G75*
G02*
X130700000Y-116550000I-125000J0D01*
G01*
G37*
G36*
G01*
X130700000Y-117350000D02*
X129450000Y-117350000D01*
G75*
G02*
X129325000Y-117225000I0J125000D01*
G01*
X129325000Y-116975000D01*
G75*
G02*
X129450000Y-116850000I125000J0D01*
G01*
X130700000Y-116850000D01*
G75*
G02*
X130825000Y-116975000I0J-125000D01*
G01*
X130825000Y-117225000D01*
G75*
G02*
X130700000Y-117350000I-125000J0D01*
G01*
G37*
G36*
G01*
X130700000Y-118150000D02*
X129450000Y-118150000D01*
G75*
G02*
X129325000Y-118025000I0J125000D01*
G01*
X129325000Y-117775000D01*
G75*
G02*
X129450000Y-117650000I125000J0D01*
G01*
X130700000Y-117650000D01*
G75*
G02*
X130825000Y-117775000I0J-125000D01*
G01*
X130825000Y-118025000D01*
G75*
G02*
X130700000Y-118150000I-125000J0D01*
G01*
G37*
G36*
G01*
X130700000Y-118950000D02*
X129450000Y-118950000D01*
G75*
G02*
X129325000Y-118825000I0J125000D01*
G01*
X129325000Y-118575000D01*
G75*
G02*
X129450000Y-118450000I125000J0D01*
G01*
X130700000Y-118450000D01*
G75*
G02*
X130825000Y-118575000I0J-125000D01*
G01*
X130825000Y-118825000D01*
G75*
G02*
X130700000Y-118950000I-125000J0D01*
G01*
G37*
G36*
G01*
X130700000Y-119750000D02*
X129450000Y-119750000D01*
G75*
G02*
X129325000Y-119625000I0J125000D01*
G01*
X129325000Y-119375000D01*
G75*
G02*
X129450000Y-119250000I125000J0D01*
G01*
X130700000Y-119250000D01*
G75*
G02*
X130825000Y-119375000I0J-125000D01*
G01*
X130825000Y-119625000D01*
G75*
G02*
X130700000Y-119750000I-125000J0D01*
G01*
G37*
G36*
G01*
X130700000Y-120550000D02*
X129450000Y-120550000D01*
G75*
G02*
X129325000Y-120425000I0J125000D01*
G01*
X129325000Y-120175000D01*
G75*
G02*
X129450000Y-120050000I125000J0D01*
G01*
X130700000Y-120050000D01*
G75*
G02*
X130825000Y-120175000I0J-125000D01*
G01*
X130825000Y-120425000D01*
G75*
G02*
X130700000Y-120550000I-125000J0D01*
G01*
G37*
G36*
G01*
X130700000Y-121350000D02*
X129450000Y-121350000D01*
G75*
G02*
X129325000Y-121225000I0J125000D01*
G01*
X129325000Y-120975000D01*
G75*
G02*
X129450000Y-120850000I125000J0D01*
G01*
X130700000Y-120850000D01*
G75*
G02*
X130825000Y-120975000I0J-125000D01*
G01*
X130825000Y-121225000D01*
G75*
G02*
X130700000Y-121350000I-125000J0D01*
G01*
G37*
G36*
G01*
X130700000Y-122150000D02*
X129450000Y-122150000D01*
G75*
G02*
X129325000Y-122025000I0J125000D01*
G01*
X129325000Y-121775000D01*
G75*
G02*
X129450000Y-121650000I125000J0D01*
G01*
X130700000Y-121650000D01*
G75*
G02*
X130825000Y-121775000I0J-125000D01*
G01*
X130825000Y-122025000D01*
G75*
G02*
X130700000Y-122150000I-125000J0D01*
G01*
G37*
G36*
G01*
X128825000Y-124025000D02*
X128575000Y-124025000D01*
G75*
G02*
X128450000Y-123900000I0J125000D01*
G01*
X128450000Y-122650000D01*
G75*
G02*
X128575000Y-122525000I125000J0D01*
G01*
X128825000Y-122525000D01*
G75*
G02*
X128950000Y-122650000I0J-125000D01*
G01*
X128950000Y-123900000D01*
G75*
G02*
X128825000Y-124025000I-125000J0D01*
G01*
G37*
G36*
G01*
X128025000Y-124025000D02*
X127775000Y-124025000D01*
G75*
G02*
X127650000Y-123900000I0J125000D01*
G01*
X127650000Y-122650000D01*
G75*
G02*
X127775000Y-122525000I125000J0D01*
G01*
X128025000Y-122525000D01*
G75*
G02*
X128150000Y-122650000I0J-125000D01*
G01*
X128150000Y-123900000D01*
G75*
G02*
X128025000Y-124025000I-125000J0D01*
G01*
G37*
G36*
G01*
X127225000Y-124025000D02*
X126975000Y-124025000D01*
G75*
G02*
X126850000Y-123900000I0J125000D01*
G01*
X126850000Y-122650000D01*
G75*
G02*
X126975000Y-122525000I125000J0D01*
G01*
X127225000Y-122525000D01*
G75*
G02*
X127350000Y-122650000I0J-125000D01*
G01*
X127350000Y-123900000D01*
G75*
G02*
X127225000Y-124025000I-125000J0D01*
G01*
G37*
G36*
G01*
X126425000Y-124025000D02*
X126175000Y-124025000D01*
G75*
G02*
X126050000Y-123900000I0J125000D01*
G01*
X126050000Y-122650000D01*
G75*
G02*
X126175000Y-122525000I125000J0D01*
G01*
X126425000Y-122525000D01*
G75*
G02*
X126550000Y-122650000I0J-125000D01*
G01*
X126550000Y-123900000D01*
G75*
G02*
X126425000Y-124025000I-125000J0D01*
G01*
G37*
G36*
G01*
X125625000Y-124025000D02*
X125375000Y-124025000D01*
G75*
G02*
X125250000Y-123900000I0J125000D01*
G01*
X125250000Y-122650000D01*
G75*
G02*
X125375000Y-122525000I125000J0D01*
G01*
X125625000Y-122525000D01*
G75*
G02*
X125750000Y-122650000I0J-125000D01*
G01*
X125750000Y-123900000D01*
G75*
G02*
X125625000Y-124025000I-125000J0D01*
G01*
G37*
G36*
G01*
X124825000Y-124025000D02*
X124575000Y-124025000D01*
G75*
G02*
X124450000Y-123900000I0J125000D01*
G01*
X124450000Y-122650000D01*
G75*
G02*
X124575000Y-122525000I125000J0D01*
G01*
X124825000Y-122525000D01*
G75*
G02*
X124950000Y-122650000I0J-125000D01*
G01*
X124950000Y-123900000D01*
G75*
G02*
X124825000Y-124025000I-125000J0D01*
G01*
G37*
G36*
G01*
X124025000Y-124025000D02*
X123775000Y-124025000D01*
G75*
G02*
X123650000Y-123900000I0J125000D01*
G01*
X123650000Y-122650000D01*
G75*
G02*
X123775000Y-122525000I125000J0D01*
G01*
X124025000Y-122525000D01*
G75*
G02*
X124150000Y-122650000I0J-125000D01*
G01*
X124150000Y-123900000D01*
G75*
G02*
X124025000Y-124025000I-125000J0D01*
G01*
G37*
G36*
G01*
X123225000Y-124025000D02*
X122975000Y-124025000D01*
G75*
G02*
X122850000Y-123900000I0J125000D01*
G01*
X122850000Y-122650000D01*
G75*
G02*
X122975000Y-122525000I125000J0D01*
G01*
X123225000Y-122525000D01*
G75*
G02*
X123350000Y-122650000I0J-125000D01*
G01*
X123350000Y-123900000D01*
G75*
G02*
X123225000Y-124025000I-125000J0D01*
G01*
G37*
%TD*%
%TO.C,R7*%
G36*
G01*
X129437500Y-127475000D02*
X128962500Y-127475000D01*
G75*
G02*
X128725000Y-127237500I0J237500D01*
G01*
X128725000Y-126737500D01*
G75*
G02*
X128962500Y-126500000I237500J0D01*
G01*
X129437500Y-126500000D01*
G75*
G02*
X129675000Y-126737500I0J-237500D01*
G01*
X129675000Y-127237500D01*
G75*
G02*
X129437500Y-127475000I-237500J0D01*
G01*
G37*
G36*
G01*
X129437500Y-129300000D02*
X128962500Y-129300000D01*
G75*
G02*
X128725000Y-129062500I0J237500D01*
G01*
X128725000Y-128562500D01*
G75*
G02*
X128962500Y-128325000I237500J0D01*
G01*
X129437500Y-128325000D01*
G75*
G02*
X129675000Y-128562500I0J-237500D01*
G01*
X129675000Y-129062500D01*
G75*
G02*
X129437500Y-129300000I-237500J0D01*
G01*
G37*
%TD*%
%TO.C,C1*%
G36*
G01*
X140825000Y-116537500D02*
X140825000Y-116062500D01*
G75*
G02*
X141062500Y-115825000I237500J0D01*
G01*
X141662500Y-115825000D01*
G75*
G02*
X141900000Y-116062500I0J-237500D01*
G01*
X141900000Y-116537500D01*
G75*
G02*
X141662500Y-116775000I-237500J0D01*
G01*
X141062500Y-116775000D01*
G75*
G02*
X140825000Y-116537500I0J237500D01*
G01*
G37*
G36*
G01*
X139100000Y-116537500D02*
X139100000Y-116062500D01*
G75*
G02*
X139337500Y-115825000I237500J0D01*
G01*
X139937500Y-115825000D01*
G75*
G02*
X140175000Y-116062500I0J-237500D01*
G01*
X140175000Y-116537500D01*
G75*
G02*
X139937500Y-116775000I-237500J0D01*
G01*
X139337500Y-116775000D01*
G75*
G02*
X139100000Y-116537500I0J237500D01*
G01*
G37*
%TD*%
D10*
%TO.C,J3*%
X117120000Y-110970000D03*
X117120000Y-109700000D03*
X118390000Y-110970000D03*
X118390000Y-109700000D03*
X119660000Y-110970000D03*
X119660000Y-109700000D03*
X120930000Y-110970000D03*
X120930000Y-109700000D03*
X122200000Y-110970000D03*
D11*
X122200000Y-109700000D03*
%TD*%
D12*
%TO.C,U1*%
X139950000Y-109400000D03*
X139950000Y-114000000D03*
X139950000Y-111700000D03*
D13*
X146250000Y-111700000D03*
%TD*%
%TO.C,R8*%
G36*
G01*
X145625000Y-119037500D02*
X145625000Y-118562500D01*
G75*
G02*
X145862500Y-118325000I237500J0D01*
G01*
X146362500Y-118325000D01*
G75*
G02*
X146600000Y-118562500I0J-237500D01*
G01*
X146600000Y-119037500D01*
G75*
G02*
X146362500Y-119275000I-237500J0D01*
G01*
X145862500Y-119275000D01*
G75*
G02*
X145625000Y-119037500I0J237500D01*
G01*
G37*
G36*
G01*
X143800000Y-119037500D02*
X143800000Y-118562500D01*
G75*
G02*
X144037500Y-118325000I237500J0D01*
G01*
X144537500Y-118325000D01*
G75*
G02*
X144775000Y-118562500I0J-237500D01*
G01*
X144775000Y-119037500D01*
G75*
G02*
X144537500Y-119275000I-237500J0D01*
G01*
X144037500Y-119275000D01*
G75*
G02*
X143800000Y-119037500I0J237500D01*
G01*
G37*
%TD*%
D14*
%TO.C,J2*%
X146500000Y-123250000D03*
D15*
X146500000Y-125950000D03*
D16*
X146500000Y-121425000D03*
X146500000Y-128175000D03*
D17*
X143925000Y-122312500D03*
X143925000Y-127287500D03*
D18*
X143840000Y-123500000D03*
X143840000Y-124150000D03*
X143840000Y-124800000D03*
X143840000Y-125450000D03*
X143840000Y-126100000D03*
%TD*%
%TO.C,FB1*%
G36*
G01*
X140450000Y-130737500D02*
X140450000Y-130262500D01*
G75*
G02*
X140687500Y-130025000I237500J0D01*
G01*
X141262500Y-130025000D01*
G75*
G02*
X141500000Y-130262500I0J-237500D01*
G01*
X141500000Y-130737500D01*
G75*
G02*
X141262500Y-130975000I-237500J0D01*
G01*
X140687500Y-130975000D01*
G75*
G02*
X140450000Y-130737500I0J237500D01*
G01*
G37*
G36*
G01*
X138700000Y-130737500D02*
X138700000Y-130262500D01*
G75*
G02*
X138937500Y-130025000I237500J0D01*
G01*
X139512500Y-130025000D01*
G75*
G02*
X139750000Y-130262500I0J-237500D01*
G01*
X139750000Y-130737500D01*
G75*
G02*
X139512500Y-130975000I-237500J0D01*
G01*
X138937500Y-130975000D01*
G75*
G02*
X138700000Y-130737500I0J237500D01*
G01*
G37*
%TD*%
%TO.C,C14*%
G36*
G01*
X144975000Y-130362500D02*
X144975000Y-130837500D01*
G75*
G02*
X144737500Y-131075000I-237500J0D01*
G01*
X144137500Y-131075000D01*
G75*
G02*
X143900000Y-130837500I0J237500D01*
G01*
X143900000Y-130362500D01*
G75*
G02*
X144137500Y-130125000I237500J0D01*
G01*
X144737500Y-130125000D01*
G75*
G02*
X144975000Y-130362500I0J-237500D01*
G01*
G37*
G36*
G01*
X146700000Y-130362500D02*
X146700000Y-130837500D01*
G75*
G02*
X146462500Y-131075000I-237500J0D01*
G01*
X145862500Y-131075000D01*
G75*
G02*
X145625000Y-130837500I0J237500D01*
G01*
X145625000Y-130362500D01*
G75*
G02*
X145862500Y-130125000I237500J0D01*
G01*
X146462500Y-130125000D01*
G75*
G02*
X146700000Y-130362500I0J-237500D01*
G01*
G37*
%TD*%
%TO.C,C13*%
G36*
G01*
X134075000Y-120962500D02*
X134075000Y-121437500D01*
G75*
G02*
X133837500Y-121675000I-237500J0D01*
G01*
X133237500Y-121675000D01*
G75*
G02*
X133000000Y-121437500I0J237500D01*
G01*
X133000000Y-120962500D01*
G75*
G02*
X133237500Y-120725000I237500J0D01*
G01*
X133837500Y-120725000D01*
G75*
G02*
X134075000Y-120962500I0J-237500D01*
G01*
G37*
G36*
G01*
X135800000Y-120962500D02*
X135800000Y-121437500D01*
G75*
G02*
X135562500Y-121675000I-237500J0D01*
G01*
X134962500Y-121675000D01*
G75*
G02*
X134725000Y-121437500I0J237500D01*
G01*
X134725000Y-120962500D01*
G75*
G02*
X134962500Y-120725000I237500J0D01*
G01*
X135562500Y-120725000D01*
G75*
G02*
X135800000Y-120962500I0J-237500D01*
G01*
G37*
%TD*%
%TO.C,C12*%
G36*
G01*
X139775000Y-128762500D02*
X139775000Y-129237500D01*
G75*
G02*
X139537500Y-129475000I-237500J0D01*
G01*
X138937500Y-129475000D01*
G75*
G02*
X138700000Y-129237500I0J237500D01*
G01*
X138700000Y-128762500D01*
G75*
G02*
X138937500Y-128525000I237500J0D01*
G01*
X139537500Y-128525000D01*
G75*
G02*
X139775000Y-128762500I0J-237500D01*
G01*
G37*
G36*
G01*
X141500000Y-128762500D02*
X141500000Y-129237500D01*
G75*
G02*
X141262500Y-129475000I-237500J0D01*
G01*
X140662500Y-129475000D01*
G75*
G02*
X140425000Y-129237500I0J237500D01*
G01*
X140425000Y-128762500D01*
G75*
G02*
X140662500Y-128525000I237500J0D01*
G01*
X141262500Y-128525000D01*
G75*
G02*
X141500000Y-128762500I0J-237500D01*
G01*
G37*
%TD*%
%TO.C,C11*%
G36*
G01*
X134425000Y-130737500D02*
X134425000Y-130262500D01*
G75*
G02*
X134662500Y-130025000I237500J0D01*
G01*
X135262500Y-130025000D01*
G75*
G02*
X135500000Y-130262500I0J-237500D01*
G01*
X135500000Y-130737500D01*
G75*
G02*
X135262500Y-130975000I-237500J0D01*
G01*
X134662500Y-130975000D01*
G75*
G02*
X134425000Y-130737500I0J237500D01*
G01*
G37*
G36*
G01*
X132700000Y-130737500D02*
X132700000Y-130262500D01*
G75*
G02*
X132937500Y-130025000I237500J0D01*
G01*
X133537500Y-130025000D01*
G75*
G02*
X133775000Y-130262500I0J-237500D01*
G01*
X133775000Y-130737500D01*
G75*
G02*
X133537500Y-130975000I-237500J0D01*
G01*
X132937500Y-130975000D01*
G75*
G02*
X132700000Y-130737500I0J237500D01*
G01*
G37*
%TD*%
%TO.C,C10*%
G36*
G01*
X136150000Y-110825000D02*
X135050000Y-110825000D01*
G75*
G02*
X134800000Y-110575000I0J250000D01*
G01*
X134800000Y-108300000D01*
G75*
G02*
X135050000Y-108050000I250000J0D01*
G01*
X136150000Y-108050000D01*
G75*
G02*
X136400000Y-108300000I0J-250000D01*
G01*
X136400000Y-110575000D01*
G75*
G02*
X136150000Y-110825000I-250000J0D01*
G01*
G37*
G36*
G01*
X136150000Y-114950000D02*
X135050000Y-114950000D01*
G75*
G02*
X134800000Y-114700000I0J250000D01*
G01*
X134800000Y-112425000D01*
G75*
G02*
X135050000Y-112175000I250000J0D01*
G01*
X136150000Y-112175000D01*
G75*
G02*
X136400000Y-112425000I0J-250000D01*
G01*
X136400000Y-114700000D01*
G75*
G02*
X136150000Y-114950000I-250000J0D01*
G01*
G37*
%TD*%
%TO.C,C9*%
G36*
G01*
X139750000Y-120250000D02*
X139750000Y-119150000D01*
G75*
G02*
X140000000Y-118900000I250000J0D01*
G01*
X142150000Y-118900000D01*
G75*
G02*
X142400000Y-119150000I0J-250000D01*
G01*
X142400000Y-120250000D01*
G75*
G02*
X142150000Y-120500000I-250000J0D01*
G01*
X140000000Y-120500000D01*
G75*
G02*
X139750000Y-120250000I0J250000D01*
G01*
G37*
G36*
G01*
X136400000Y-120250000D02*
X136400000Y-119150000D01*
G75*
G02*
X136650000Y-118900000I250000J0D01*
G01*
X138800000Y-118900000D01*
G75*
G02*
X139050000Y-119150000I0J-250000D01*
G01*
X139050000Y-120250000D01*
G75*
G02*
X138800000Y-120500000I-250000J0D01*
G01*
X136650000Y-120500000D01*
G75*
G02*
X136400000Y-120250000I0J250000D01*
G01*
G37*
%TD*%
D19*
%TO.C,U3*%
X132077500Y-123100000D03*
X132712500Y-123100000D03*
X133347500Y-123100000D03*
X133982500Y-123100000D03*
X134617500Y-123100000D03*
X135252500Y-123100000D03*
X135887500Y-123100000D03*
X136522500Y-123100000D03*
X136522500Y-128300000D03*
X135887500Y-128300000D03*
X135252500Y-128300000D03*
X134617500Y-128300000D03*
X133982500Y-128300000D03*
X133347500Y-128300000D03*
X132712500Y-128300000D03*
X132077500Y-128300000D03*
%TD*%
%TO.C,R6*%
G36*
G01*
X140525000Y-124737500D02*
X140525000Y-124262500D01*
G75*
G02*
X140762500Y-124025000I237500J0D01*
G01*
X141262500Y-124025000D01*
G75*
G02*
X141500000Y-124262500I0J-237500D01*
G01*
X141500000Y-124737500D01*
G75*
G02*
X141262500Y-124975000I-237500J0D01*
G01*
X140762500Y-124975000D01*
G75*
G02*
X140525000Y-124737500I0J237500D01*
G01*
G37*
G36*
G01*
X138700000Y-124737500D02*
X138700000Y-124262500D01*
G75*
G02*
X138937500Y-124025000I237500J0D01*
G01*
X139437500Y-124025000D01*
G75*
G02*
X139675000Y-124262500I0J-237500D01*
G01*
X139675000Y-124737500D01*
G75*
G02*
X139437500Y-124975000I-237500J0D01*
G01*
X138937500Y-124975000D01*
G75*
G02*
X138700000Y-124737500I0J237500D01*
G01*
G37*
%TD*%
%TO.C,R5*%
G36*
G01*
X140525000Y-126237500D02*
X140525000Y-125762500D01*
G75*
G02*
X140762500Y-125525000I237500J0D01*
G01*
X141262500Y-125525000D01*
G75*
G02*
X141500000Y-125762500I0J-237500D01*
G01*
X141500000Y-126237500D01*
G75*
G02*
X141262500Y-126475000I-237500J0D01*
G01*
X140762500Y-126475000D01*
G75*
G02*
X140525000Y-126237500I0J237500D01*
G01*
G37*
G36*
G01*
X138700000Y-126237500D02*
X138700000Y-125762500D01*
G75*
G02*
X138937500Y-125525000I237500J0D01*
G01*
X139437500Y-125525000D01*
G75*
G02*
X139675000Y-125762500I0J-237500D01*
G01*
X139675000Y-126237500D01*
G75*
G02*
X139437500Y-126475000I-237500J0D01*
G01*
X138937500Y-126475000D01*
G75*
G02*
X138700000Y-126237500I0J237500D01*
G01*
G37*
%TD*%
%TO.C,R2*%
G36*
G01*
X121125000Y-127037500D02*
X121125000Y-126562500D01*
G75*
G02*
X121362500Y-126325000I237500J0D01*
G01*
X121862500Y-126325000D01*
G75*
G02*
X122100000Y-126562500I0J-237500D01*
G01*
X122100000Y-127037500D01*
G75*
G02*
X121862500Y-127275000I-237500J0D01*
G01*
X121362500Y-127275000D01*
G75*
G02*
X121125000Y-127037500I0J237500D01*
G01*
G37*
G36*
G01*
X119300000Y-127037500D02*
X119300000Y-126562500D01*
G75*
G02*
X119537500Y-126325000I237500J0D01*
G01*
X120037500Y-126325000D01*
G75*
G02*
X120275000Y-126562500I0J-237500D01*
G01*
X120275000Y-127037500D01*
G75*
G02*
X120037500Y-127275000I-237500J0D01*
G01*
X119537500Y-127275000D01*
G75*
G02*
X119300000Y-127037500I0J237500D01*
G01*
G37*
%TD*%
%TO.C,R1*%
G36*
G01*
X125962500Y-128325000D02*
X126437500Y-128325000D01*
G75*
G02*
X126675000Y-128562500I0J-237500D01*
G01*
X126675000Y-129062500D01*
G75*
G02*
X126437500Y-129300000I-237500J0D01*
G01*
X125962500Y-129300000D01*
G75*
G02*
X125725000Y-129062500I0J237500D01*
G01*
X125725000Y-128562500D01*
G75*
G02*
X125962500Y-128325000I237500J0D01*
G01*
G37*
G36*
G01*
X125962500Y-126500000D02*
X126437500Y-126500000D01*
G75*
G02*
X126675000Y-126737500I0J-237500D01*
G01*
X126675000Y-127237500D01*
G75*
G02*
X126437500Y-127475000I-237500J0D01*
G01*
X125962500Y-127475000D01*
G75*
G02*
X125725000Y-127237500I0J237500D01*
G01*
X125725000Y-126737500D01*
G75*
G02*
X125962500Y-126500000I237500J0D01*
G01*
G37*
%TD*%
D20*
%TO.C,J1*%
X112000000Y-129000000D03*
X112000000Y-127000000D03*
X112000000Y-125000000D03*
X112000000Y-123000000D03*
X112000000Y-121000000D03*
X112000000Y-119000000D03*
X112000000Y-117000000D03*
X112000000Y-115000000D03*
X112000000Y-113000000D03*
X112000000Y-111000000D03*
X114000000Y-129000000D03*
X114000000Y-127000000D03*
X114000000Y-125000000D03*
X114000000Y-123000000D03*
X114000000Y-121000000D03*
X114000000Y-119000000D03*
X114000000Y-117000000D03*
X114000000Y-115000000D03*
X114000000Y-113000000D03*
G36*
G01*
X113649999Y-110400000D02*
X114350001Y-110400000D01*
G75*
G02*
X114600000Y-110649999I0J-249999D01*
G01*
X114600000Y-111350001D01*
G75*
G02*
X114350001Y-111600000I-249999J0D01*
G01*
X113649999Y-111600000D01*
G75*
G02*
X113400000Y-111350001I0J249999D01*
G01*
X113400000Y-110649999D01*
G75*
G02*
X113649999Y-110400000I249999J0D01*
G01*
G37*
%TD*%
%TO.C,C8*%
G36*
G01*
X139775000Y-122762500D02*
X139775000Y-123237500D01*
G75*
G02*
X139537500Y-123475000I-237500J0D01*
G01*
X138937500Y-123475000D01*
G75*
G02*
X138700000Y-123237500I0J237500D01*
G01*
X138700000Y-122762500D01*
G75*
G02*
X138937500Y-122525000I237500J0D01*
G01*
X139537500Y-122525000D01*
G75*
G02*
X139775000Y-122762500I0J-237500D01*
G01*
G37*
G36*
G01*
X141500000Y-122762500D02*
X141500000Y-123237500D01*
G75*
G02*
X141262500Y-123475000I-237500J0D01*
G01*
X140662500Y-123475000D01*
G75*
G02*
X140425000Y-123237500I0J237500D01*
G01*
X140425000Y-122762500D01*
G75*
G02*
X140662500Y-122525000I237500J0D01*
G01*
X141262500Y-122525000D01*
G75*
G02*
X141500000Y-122762500I0J-237500D01*
G01*
G37*
%TD*%
%TO.C,C7*%
G36*
G01*
X139775000Y-127262500D02*
X139775000Y-127737500D01*
G75*
G02*
X139537500Y-127975000I-237500J0D01*
G01*
X138937500Y-127975000D01*
G75*
G02*
X138700000Y-127737500I0J237500D01*
G01*
X138700000Y-127262500D01*
G75*
G02*
X138937500Y-127025000I237500J0D01*
G01*
X139537500Y-127025000D01*
G75*
G02*
X139775000Y-127262500I0J-237500D01*
G01*
G37*
G36*
G01*
X141500000Y-127262500D02*
X141500000Y-127737500D01*
G75*
G02*
X141262500Y-127975000I-237500J0D01*
G01*
X140662500Y-127975000D01*
G75*
G02*
X140425000Y-127737500I0J237500D01*
G01*
X140425000Y-127262500D01*
G75*
G02*
X140662500Y-127025000I237500J0D01*
G01*
X141262500Y-127025000D01*
G75*
G02*
X141500000Y-127262500I0J-237500D01*
G01*
G37*
%TD*%
%TO.C,C6*%
G36*
G01*
X127937500Y-127575000D02*
X127462500Y-127575000D01*
G75*
G02*
X127225000Y-127337500I0J237500D01*
G01*
X127225000Y-126737500D01*
G75*
G02*
X127462500Y-126500000I237500J0D01*
G01*
X127937500Y-126500000D01*
G75*
G02*
X128175000Y-126737500I0J-237500D01*
G01*
X128175000Y-127337500D01*
G75*
G02*
X127937500Y-127575000I-237500J0D01*
G01*
G37*
G36*
G01*
X127937500Y-129300000D02*
X127462500Y-129300000D01*
G75*
G02*
X127225000Y-129062500I0J237500D01*
G01*
X127225000Y-128462500D01*
G75*
G02*
X127462500Y-128225000I237500J0D01*
G01*
X127937500Y-128225000D01*
G75*
G02*
X128175000Y-128462500I0J-237500D01*
G01*
X128175000Y-129062500D01*
G75*
G02*
X127937500Y-129300000I-237500J0D01*
G01*
G37*
%TD*%
%TO.C,C5*%
G36*
G01*
X127525000Y-125637500D02*
X127525000Y-125162500D01*
G75*
G02*
X127762500Y-124925000I237500J0D01*
G01*
X128362500Y-124925000D01*
G75*
G02*
X128600000Y-125162500I0J-237500D01*
G01*
X128600000Y-125637500D01*
G75*
G02*
X128362500Y-125875000I-237500J0D01*
G01*
X127762500Y-125875000D01*
G75*
G02*
X127525000Y-125637500I0J237500D01*
G01*
G37*
G36*
G01*
X125800000Y-125637500D02*
X125800000Y-125162500D01*
G75*
G02*
X126037500Y-124925000I237500J0D01*
G01*
X126637500Y-124925000D01*
G75*
G02*
X126875000Y-125162500I0J-237500D01*
G01*
X126875000Y-125637500D01*
G75*
G02*
X126637500Y-125875000I-237500J0D01*
G01*
X126037500Y-125875000D01*
G75*
G02*
X125800000Y-125637500I0J237500D01*
G01*
G37*
%TD*%
%TO.C,C4*%
G36*
G01*
X121337500Y-124075000D02*
X120862500Y-124075000D01*
G75*
G02*
X120625000Y-123837500I0J237500D01*
G01*
X120625000Y-123237500D01*
G75*
G02*
X120862500Y-123000000I237500J0D01*
G01*
X121337500Y-123000000D01*
G75*
G02*
X121575000Y-123237500I0J-237500D01*
G01*
X121575000Y-123837500D01*
G75*
G02*
X121337500Y-124075000I-237500J0D01*
G01*
G37*
G36*
G01*
X121337500Y-125800000D02*
X120862500Y-125800000D01*
G75*
G02*
X120625000Y-125562500I0J237500D01*
G01*
X120625000Y-124962500D01*
G75*
G02*
X120862500Y-124725000I237500J0D01*
G01*
X121337500Y-124725000D01*
G75*
G02*
X121575000Y-124962500I0J-237500D01*
G01*
X121575000Y-125562500D01*
G75*
G02*
X121337500Y-125800000I-237500J0D01*
G01*
G37*
%TD*%
%TO.C,C3*%
G36*
G01*
X131325000Y-114737500D02*
X131325000Y-114262500D01*
G75*
G02*
X131562500Y-114025000I237500J0D01*
G01*
X132162500Y-114025000D01*
G75*
G02*
X132400000Y-114262500I0J-237500D01*
G01*
X132400000Y-114737500D01*
G75*
G02*
X132162500Y-114975000I-237500J0D01*
G01*
X131562500Y-114975000D01*
G75*
G02*
X131325000Y-114737500I0J237500D01*
G01*
G37*
G36*
G01*
X129600000Y-114737500D02*
X129600000Y-114262500D01*
G75*
G02*
X129837500Y-114025000I237500J0D01*
G01*
X130437500Y-114025000D01*
G75*
G02*
X130675000Y-114262500I0J-237500D01*
G01*
X130675000Y-114737500D01*
G75*
G02*
X130437500Y-114975000I-237500J0D01*
G01*
X129837500Y-114975000D01*
G75*
G02*
X129600000Y-114737500I0J237500D01*
G01*
G37*
%TD*%
%TO.C,C2*%
G36*
G01*
X131837500Y-110275000D02*
X131362500Y-110275000D01*
G75*
G02*
X131125000Y-110037500I0J237500D01*
G01*
X131125000Y-109437500D01*
G75*
G02*
X131362500Y-109200000I237500J0D01*
G01*
X131837500Y-109200000D01*
G75*
G02*
X132075000Y-109437500I0J-237500D01*
G01*
X132075000Y-110037500D01*
G75*
G02*
X131837500Y-110275000I-237500J0D01*
G01*
G37*
G36*
G01*
X131837500Y-112000000D02*
X131362500Y-112000000D01*
G75*
G02*
X131125000Y-111762500I0J237500D01*
G01*
X131125000Y-111162500D01*
G75*
G02*
X131362500Y-110925000I237500J0D01*
G01*
X131837500Y-110925000D01*
G75*
G02*
X132075000Y-111162500I0J-237500D01*
G01*
X132075000Y-111762500D01*
G75*
G02*
X131837500Y-112000000I-237500J0D01*
G01*
G37*
%TD*%
M02*
