%TF.GenerationSoftware,KiCad,Pcbnew,(5.1.7)-1*%
%TF.CreationDate,2020-11-11T22:14:18+01:00*%
%TF.ProjectId,rgb_sensor_v2,7267625f-7365-46e7-936f-725f76322e6b,rev?*%
%TF.SameCoordinates,Original*%
%TF.FileFunction,Legend,Top*%
%TF.FilePolarity,Positive*%
%FSLAX46Y46*%
G04 Gerber Fmt 4.6, Leading zero omitted, Abs format (unit mm)*
G04 Created by KiCad (PCBNEW (5.1.7)-1) date 2020-11-11 22:14:18*
%MOMM*%
%LPD*%
G01*
G04 APERTURE LIST*
%ADD10C,0.120000*%
%ADD11C,0.150000*%
G04 APERTURE END LIST*
D10*
%TO.C,R25*%
X136922500Y-97245276D02*
X136922500Y-97754724D01*
X135877500Y-97245276D02*
X135877500Y-97754724D01*
%TO.C,R24*%
X142654724Y-94022500D02*
X142145276Y-94022500D01*
X142654724Y-92977500D02*
X142145276Y-92977500D01*
%TO.C,R23*%
X142654724Y-102022500D02*
X142145276Y-102022500D01*
X142654724Y-100977500D02*
X142145276Y-100977500D01*
%TO.C,R22*%
X144777500Y-97754724D02*
X144777500Y-97245276D01*
X145822500Y-97754724D02*
X145822500Y-97245276D01*
%TO.C,R21*%
X143277500Y-97754724D02*
X143277500Y-97245276D01*
X144322500Y-97754724D02*
X144322500Y-97245276D01*
%TO.C,R20*%
X156922500Y-97245276D02*
X156922500Y-97754724D01*
X155877500Y-97245276D02*
X155877500Y-97754724D01*
%TO.C,R19*%
X162654724Y-94022500D02*
X162145276Y-94022500D01*
X162654724Y-92977500D02*
X162145276Y-92977500D01*
%TO.C,R18*%
X162654724Y-102022500D02*
X162145276Y-102022500D01*
X162654724Y-100977500D02*
X162145276Y-100977500D01*
%TO.C,R17*%
X164977500Y-97754724D02*
X164977500Y-97245276D01*
X166022500Y-97754724D02*
X166022500Y-97245276D01*
%TO.C,R16*%
X163477500Y-97754724D02*
X163477500Y-97245276D01*
X164522500Y-97754724D02*
X164522500Y-97245276D01*
%TO.C,R15*%
X176922500Y-97245276D02*
X176922500Y-97754724D01*
X175877500Y-97245276D02*
X175877500Y-97754724D01*
%TO.C,R14*%
X182654724Y-94022500D02*
X182145276Y-94022500D01*
X182654724Y-92977500D02*
X182145276Y-92977500D01*
%TO.C,R13*%
X182654724Y-102022500D02*
X182145276Y-102022500D01*
X182654724Y-100977500D02*
X182145276Y-100977500D01*
%TO.C,R12*%
X184677500Y-97754724D02*
X184677500Y-97245276D01*
X185722500Y-97754724D02*
X185722500Y-97245276D01*
%TO.C,R11*%
X183177500Y-97754724D02*
X183177500Y-97245276D01*
X184222500Y-97754724D02*
X184222500Y-97245276D01*
%TO.C,R10*%
X196922500Y-97245276D02*
X196922500Y-97754724D01*
X195877500Y-97245276D02*
X195877500Y-97754724D01*
%TO.C,R9*%
X202654724Y-94022500D02*
X202145276Y-94022500D01*
X202654724Y-92977500D02*
X202145276Y-92977500D01*
%TO.C,R8*%
X202567224Y-102022500D02*
X202057776Y-102022500D01*
X202567224Y-100977500D02*
X202057776Y-100977500D01*
%TO.C,R7*%
X204677500Y-97754724D02*
X204677500Y-97245276D01*
X205722500Y-97754724D02*
X205722500Y-97245276D01*
%TO.C,R6*%
X203177500Y-97754724D02*
X203177500Y-97245276D01*
X204222500Y-97754724D02*
X204222500Y-97245276D01*
%TO.C,R4*%
X222654724Y-94022500D02*
X222145276Y-94022500D01*
X222654724Y-92977500D02*
X222145276Y-92977500D01*
%TO.C,R3*%
X222654724Y-102022500D02*
X222145276Y-102022500D01*
X222654724Y-100977500D02*
X222145276Y-100977500D01*
%TO.C,R5*%
X216922500Y-97245276D02*
X216922500Y-97754724D01*
X215877500Y-97245276D02*
X215877500Y-97754724D01*
%TO.C,R2*%
X224577500Y-97754724D02*
X224577500Y-97245276D01*
X225622500Y-97754724D02*
X225622500Y-97245276D01*
%TO.C,R1*%
X223077500Y-97754724D02*
X223077500Y-97245276D01*
X224122500Y-97754724D02*
X224122500Y-97245276D01*
%TO.C,Q5*%
X140160000Y-99080000D02*
X140160000Y-98150000D01*
X140160000Y-95920000D02*
X140160000Y-96850000D01*
X140160000Y-95920000D02*
X138000000Y-95920000D01*
X140160000Y-99080000D02*
X138700000Y-99080000D01*
%TO.C,Q4*%
X160160000Y-99080000D02*
X160160000Y-98150000D01*
X160160000Y-95920000D02*
X160160000Y-96850000D01*
X160160000Y-95920000D02*
X158000000Y-95920000D01*
X160160000Y-99080000D02*
X158700000Y-99080000D01*
%TO.C,Q3*%
X180160000Y-99080000D02*
X180160000Y-98150000D01*
X180160000Y-95920000D02*
X180160000Y-96850000D01*
X180160000Y-95920000D02*
X178000000Y-95920000D01*
X180160000Y-99080000D02*
X178700000Y-99080000D01*
%TO.C,Q2*%
X200160000Y-99080000D02*
X200160000Y-98150000D01*
X200160000Y-95920000D02*
X200160000Y-96850000D01*
X200160000Y-95920000D02*
X198000000Y-95920000D01*
X200160000Y-99080000D02*
X198700000Y-99080000D01*
%TO.C,Q1*%
X220160000Y-99080000D02*
X220160000Y-98150000D01*
X220160000Y-95920000D02*
X220160000Y-96850000D01*
X220160000Y-95920000D02*
X218000000Y-95920000D01*
X220160000Y-99080000D02*
X218700000Y-99080000D01*
%TO.C,C5*%
X147390000Y-97646267D02*
X147390000Y-97353733D01*
X148410000Y-97646267D02*
X148410000Y-97353733D01*
%TO.C,C4*%
X167390000Y-97646267D02*
X167390000Y-97353733D01*
X168410000Y-97646267D02*
X168410000Y-97353733D01*
%TO.C,C3*%
X187390000Y-97546267D02*
X187390000Y-97253733D01*
X188410000Y-97546267D02*
X188410000Y-97253733D01*
%TO.C,C2*%
X207390000Y-97646267D02*
X207390000Y-97353733D01*
X208410000Y-97646267D02*
X208410000Y-97353733D01*
%TO.C,C1*%
X227390000Y-97646267D02*
X227390000Y-97353733D01*
X228410000Y-97646267D02*
X228410000Y-97353733D01*
%TO.C,H2*%
D11*
X234638095Y-99052380D02*
X234638095Y-98052380D01*
X234638095Y-98528571D02*
X235209523Y-98528571D01*
X235209523Y-99052380D02*
X235209523Y-98052380D01*
X235638095Y-98147619D02*
X235685714Y-98100000D01*
X235780952Y-98052380D01*
X236019047Y-98052380D01*
X236114285Y-98100000D01*
X236161904Y-98147619D01*
X236209523Y-98242857D01*
X236209523Y-98338095D01*
X236161904Y-98480952D01*
X235590476Y-99052380D01*
X236209523Y-99052380D01*
%TO.C,H1*%
X234638095Y-91052380D02*
X234638095Y-90052380D01*
X234638095Y-90528571D02*
X235209523Y-90528571D01*
X235209523Y-91052380D02*
X235209523Y-90052380D01*
X236209523Y-91052380D02*
X235638095Y-91052380D01*
X235923809Y-91052380D02*
X235923809Y-90052380D01*
X235828571Y-90195238D01*
X235733333Y-90290476D01*
X235638095Y-90338095D01*
%TO.C,R25*%
X135552380Y-98142857D02*
X135076190Y-98476190D01*
X135552380Y-98714285D02*
X134552380Y-98714285D01*
X134552380Y-98333333D01*
X134600000Y-98238095D01*
X134647619Y-98190476D01*
X134742857Y-98142857D01*
X134885714Y-98142857D01*
X134980952Y-98190476D01*
X135028571Y-98238095D01*
X135076190Y-98333333D01*
X135076190Y-98714285D01*
X134647619Y-97761904D02*
X134600000Y-97714285D01*
X134552380Y-97619047D01*
X134552380Y-97380952D01*
X134600000Y-97285714D01*
X134647619Y-97238095D01*
X134742857Y-97190476D01*
X134838095Y-97190476D01*
X134980952Y-97238095D01*
X135552380Y-97809523D01*
X135552380Y-97190476D01*
X134552380Y-96285714D02*
X134552380Y-96761904D01*
X135028571Y-96809523D01*
X134980952Y-96761904D01*
X134933333Y-96666666D01*
X134933333Y-96428571D01*
X134980952Y-96333333D01*
X135028571Y-96285714D01*
X135123809Y-96238095D01*
X135361904Y-96238095D01*
X135457142Y-96285714D01*
X135504761Y-96333333D01*
X135552380Y-96428571D01*
X135552380Y-96666666D01*
X135504761Y-96761904D01*
X135457142Y-96809523D01*
%TO.C,R24*%
X141757142Y-95382380D02*
X141423809Y-94906190D01*
X141185714Y-95382380D02*
X141185714Y-94382380D01*
X141566666Y-94382380D01*
X141661904Y-94430000D01*
X141709523Y-94477619D01*
X141757142Y-94572857D01*
X141757142Y-94715714D01*
X141709523Y-94810952D01*
X141661904Y-94858571D01*
X141566666Y-94906190D01*
X141185714Y-94906190D01*
X142138095Y-94477619D02*
X142185714Y-94430000D01*
X142280952Y-94382380D01*
X142519047Y-94382380D01*
X142614285Y-94430000D01*
X142661904Y-94477619D01*
X142709523Y-94572857D01*
X142709523Y-94668095D01*
X142661904Y-94810952D01*
X142090476Y-95382380D01*
X142709523Y-95382380D01*
X143566666Y-94715714D02*
X143566666Y-95382380D01*
X143328571Y-94334761D02*
X143090476Y-95049047D01*
X143709523Y-95049047D01*
%TO.C,R23*%
X141757142Y-103382380D02*
X141423809Y-102906190D01*
X141185714Y-103382380D02*
X141185714Y-102382380D01*
X141566666Y-102382380D01*
X141661904Y-102430000D01*
X141709523Y-102477619D01*
X141757142Y-102572857D01*
X141757142Y-102715714D01*
X141709523Y-102810952D01*
X141661904Y-102858571D01*
X141566666Y-102906190D01*
X141185714Y-102906190D01*
X142138095Y-102477619D02*
X142185714Y-102430000D01*
X142280952Y-102382380D01*
X142519047Y-102382380D01*
X142614285Y-102430000D01*
X142661904Y-102477619D01*
X142709523Y-102572857D01*
X142709523Y-102668095D01*
X142661904Y-102810952D01*
X142090476Y-103382380D01*
X142709523Y-103382380D01*
X143042857Y-102382380D02*
X143661904Y-102382380D01*
X143328571Y-102763333D01*
X143471428Y-102763333D01*
X143566666Y-102810952D01*
X143614285Y-102858571D01*
X143661904Y-102953809D01*
X143661904Y-103191904D01*
X143614285Y-103287142D01*
X143566666Y-103334761D01*
X143471428Y-103382380D01*
X143185714Y-103382380D01*
X143090476Y-103334761D01*
X143042857Y-103287142D01*
%TO.C,R22*%
X144322380Y-98142857D02*
X143846190Y-98476190D01*
X144322380Y-98714285D02*
X143322380Y-98714285D01*
X143322380Y-98333333D01*
X143370000Y-98238095D01*
X143417619Y-98190476D01*
X143512857Y-98142857D01*
X143655714Y-98142857D01*
X143750952Y-98190476D01*
X143798571Y-98238095D01*
X143846190Y-98333333D01*
X143846190Y-98714285D01*
X143417619Y-97761904D02*
X143370000Y-97714285D01*
X143322380Y-97619047D01*
X143322380Y-97380952D01*
X143370000Y-97285714D01*
X143417619Y-97238095D01*
X143512857Y-97190476D01*
X143608095Y-97190476D01*
X143750952Y-97238095D01*
X144322380Y-97809523D01*
X144322380Y-97190476D01*
X143417619Y-96809523D02*
X143370000Y-96761904D01*
X143322380Y-96666666D01*
X143322380Y-96428571D01*
X143370000Y-96333333D01*
X143417619Y-96285714D01*
X143512857Y-96238095D01*
X143608095Y-96238095D01*
X143750952Y-96285714D01*
X144322380Y-96857142D01*
X144322380Y-96238095D01*
%TO.C,R21*%
X142822380Y-98142857D02*
X142346190Y-98476190D01*
X142822380Y-98714285D02*
X141822380Y-98714285D01*
X141822380Y-98333333D01*
X141870000Y-98238095D01*
X141917619Y-98190476D01*
X142012857Y-98142857D01*
X142155714Y-98142857D01*
X142250952Y-98190476D01*
X142298571Y-98238095D01*
X142346190Y-98333333D01*
X142346190Y-98714285D01*
X141917619Y-97761904D02*
X141870000Y-97714285D01*
X141822380Y-97619047D01*
X141822380Y-97380952D01*
X141870000Y-97285714D01*
X141917619Y-97238095D01*
X142012857Y-97190476D01*
X142108095Y-97190476D01*
X142250952Y-97238095D01*
X142822380Y-97809523D01*
X142822380Y-97190476D01*
X142822380Y-96238095D02*
X142822380Y-96809523D01*
X142822380Y-96523809D02*
X141822380Y-96523809D01*
X141965238Y-96619047D01*
X142060476Y-96714285D01*
X142108095Y-96809523D01*
%TO.C,R20*%
X155552380Y-98142857D02*
X155076190Y-98476190D01*
X155552380Y-98714285D02*
X154552380Y-98714285D01*
X154552380Y-98333333D01*
X154600000Y-98238095D01*
X154647619Y-98190476D01*
X154742857Y-98142857D01*
X154885714Y-98142857D01*
X154980952Y-98190476D01*
X155028571Y-98238095D01*
X155076190Y-98333333D01*
X155076190Y-98714285D01*
X154647619Y-97761904D02*
X154600000Y-97714285D01*
X154552380Y-97619047D01*
X154552380Y-97380952D01*
X154600000Y-97285714D01*
X154647619Y-97238095D01*
X154742857Y-97190476D01*
X154838095Y-97190476D01*
X154980952Y-97238095D01*
X155552380Y-97809523D01*
X155552380Y-97190476D01*
X154552380Y-96571428D02*
X154552380Y-96476190D01*
X154600000Y-96380952D01*
X154647619Y-96333333D01*
X154742857Y-96285714D01*
X154933333Y-96238095D01*
X155171428Y-96238095D01*
X155361904Y-96285714D01*
X155457142Y-96333333D01*
X155504761Y-96380952D01*
X155552380Y-96476190D01*
X155552380Y-96571428D01*
X155504761Y-96666666D01*
X155457142Y-96714285D01*
X155361904Y-96761904D01*
X155171428Y-96809523D01*
X154933333Y-96809523D01*
X154742857Y-96761904D01*
X154647619Y-96714285D01*
X154600000Y-96666666D01*
X154552380Y-96571428D01*
%TO.C,R19*%
X161757142Y-95382380D02*
X161423809Y-94906190D01*
X161185714Y-95382380D02*
X161185714Y-94382380D01*
X161566666Y-94382380D01*
X161661904Y-94430000D01*
X161709523Y-94477619D01*
X161757142Y-94572857D01*
X161757142Y-94715714D01*
X161709523Y-94810952D01*
X161661904Y-94858571D01*
X161566666Y-94906190D01*
X161185714Y-94906190D01*
X162709523Y-95382380D02*
X162138095Y-95382380D01*
X162423809Y-95382380D02*
X162423809Y-94382380D01*
X162328571Y-94525238D01*
X162233333Y-94620476D01*
X162138095Y-94668095D01*
X163185714Y-95382380D02*
X163376190Y-95382380D01*
X163471428Y-95334761D01*
X163519047Y-95287142D01*
X163614285Y-95144285D01*
X163661904Y-94953809D01*
X163661904Y-94572857D01*
X163614285Y-94477619D01*
X163566666Y-94430000D01*
X163471428Y-94382380D01*
X163280952Y-94382380D01*
X163185714Y-94430000D01*
X163138095Y-94477619D01*
X163090476Y-94572857D01*
X163090476Y-94810952D01*
X163138095Y-94906190D01*
X163185714Y-94953809D01*
X163280952Y-95001428D01*
X163471428Y-95001428D01*
X163566666Y-94953809D01*
X163614285Y-94906190D01*
X163661904Y-94810952D01*
%TO.C,R18*%
X161757142Y-103382380D02*
X161423809Y-102906190D01*
X161185714Y-103382380D02*
X161185714Y-102382380D01*
X161566666Y-102382380D01*
X161661904Y-102430000D01*
X161709523Y-102477619D01*
X161757142Y-102572857D01*
X161757142Y-102715714D01*
X161709523Y-102810952D01*
X161661904Y-102858571D01*
X161566666Y-102906190D01*
X161185714Y-102906190D01*
X162709523Y-103382380D02*
X162138095Y-103382380D01*
X162423809Y-103382380D02*
X162423809Y-102382380D01*
X162328571Y-102525238D01*
X162233333Y-102620476D01*
X162138095Y-102668095D01*
X163280952Y-102810952D02*
X163185714Y-102763333D01*
X163138095Y-102715714D01*
X163090476Y-102620476D01*
X163090476Y-102572857D01*
X163138095Y-102477619D01*
X163185714Y-102430000D01*
X163280952Y-102382380D01*
X163471428Y-102382380D01*
X163566666Y-102430000D01*
X163614285Y-102477619D01*
X163661904Y-102572857D01*
X163661904Y-102620476D01*
X163614285Y-102715714D01*
X163566666Y-102763333D01*
X163471428Y-102810952D01*
X163280952Y-102810952D01*
X163185714Y-102858571D01*
X163138095Y-102906190D01*
X163090476Y-103001428D01*
X163090476Y-103191904D01*
X163138095Y-103287142D01*
X163185714Y-103334761D01*
X163280952Y-103382380D01*
X163471428Y-103382380D01*
X163566666Y-103334761D01*
X163614285Y-103287142D01*
X163661904Y-103191904D01*
X163661904Y-103001428D01*
X163614285Y-102906190D01*
X163566666Y-102858571D01*
X163471428Y-102810952D01*
%TO.C,R17*%
X165557142Y-100252380D02*
X165223809Y-99776190D01*
X164985714Y-100252380D02*
X164985714Y-99252380D01*
X165366666Y-99252380D01*
X165461904Y-99300000D01*
X165509523Y-99347619D01*
X165557142Y-99442857D01*
X165557142Y-99585714D01*
X165509523Y-99680952D01*
X165461904Y-99728571D01*
X165366666Y-99776190D01*
X164985714Y-99776190D01*
X166509523Y-100252380D02*
X165938095Y-100252380D01*
X166223809Y-100252380D02*
X166223809Y-99252380D01*
X166128571Y-99395238D01*
X166033333Y-99490476D01*
X165938095Y-99538095D01*
X166842857Y-99252380D02*
X167509523Y-99252380D01*
X167080952Y-100252380D01*
%TO.C,R16*%
X163152380Y-98442857D02*
X162676190Y-98776190D01*
X163152380Y-99014285D02*
X162152380Y-99014285D01*
X162152380Y-98633333D01*
X162200000Y-98538095D01*
X162247619Y-98490476D01*
X162342857Y-98442857D01*
X162485714Y-98442857D01*
X162580952Y-98490476D01*
X162628571Y-98538095D01*
X162676190Y-98633333D01*
X162676190Y-99014285D01*
X163152380Y-97490476D02*
X163152380Y-98061904D01*
X163152380Y-97776190D02*
X162152380Y-97776190D01*
X162295238Y-97871428D01*
X162390476Y-97966666D01*
X162438095Y-98061904D01*
X162152380Y-96633333D02*
X162152380Y-96823809D01*
X162200000Y-96919047D01*
X162247619Y-96966666D01*
X162390476Y-97061904D01*
X162580952Y-97109523D01*
X162961904Y-97109523D01*
X163057142Y-97061904D01*
X163104761Y-97014285D01*
X163152380Y-96919047D01*
X163152380Y-96728571D01*
X163104761Y-96633333D01*
X163057142Y-96585714D01*
X162961904Y-96538095D01*
X162723809Y-96538095D01*
X162628571Y-96585714D01*
X162580952Y-96633333D01*
X162533333Y-96728571D01*
X162533333Y-96919047D01*
X162580952Y-97014285D01*
X162628571Y-97061904D01*
X162723809Y-97109523D01*
%TO.C,R15*%
X175852380Y-98142857D02*
X175376190Y-98476190D01*
X175852380Y-98714285D02*
X174852380Y-98714285D01*
X174852380Y-98333333D01*
X174900000Y-98238095D01*
X174947619Y-98190476D01*
X175042857Y-98142857D01*
X175185714Y-98142857D01*
X175280952Y-98190476D01*
X175328571Y-98238095D01*
X175376190Y-98333333D01*
X175376190Y-98714285D01*
X175852380Y-97190476D02*
X175852380Y-97761904D01*
X175852380Y-97476190D02*
X174852380Y-97476190D01*
X174995238Y-97571428D01*
X175090476Y-97666666D01*
X175138095Y-97761904D01*
X174852380Y-96285714D02*
X174852380Y-96761904D01*
X175328571Y-96809523D01*
X175280952Y-96761904D01*
X175233333Y-96666666D01*
X175233333Y-96428571D01*
X175280952Y-96333333D01*
X175328571Y-96285714D01*
X175423809Y-96238095D01*
X175661904Y-96238095D01*
X175757142Y-96285714D01*
X175804761Y-96333333D01*
X175852380Y-96428571D01*
X175852380Y-96666666D01*
X175804761Y-96761904D01*
X175757142Y-96809523D01*
%TO.C,R14*%
X181757142Y-95382380D02*
X181423809Y-94906190D01*
X181185714Y-95382380D02*
X181185714Y-94382380D01*
X181566666Y-94382380D01*
X181661904Y-94430000D01*
X181709523Y-94477619D01*
X181757142Y-94572857D01*
X181757142Y-94715714D01*
X181709523Y-94810952D01*
X181661904Y-94858571D01*
X181566666Y-94906190D01*
X181185714Y-94906190D01*
X182709523Y-95382380D02*
X182138095Y-95382380D01*
X182423809Y-95382380D02*
X182423809Y-94382380D01*
X182328571Y-94525238D01*
X182233333Y-94620476D01*
X182138095Y-94668095D01*
X183566666Y-94715714D02*
X183566666Y-95382380D01*
X183328571Y-94334761D02*
X183090476Y-95049047D01*
X183709523Y-95049047D01*
%TO.C,R13*%
X181757142Y-103382380D02*
X181423809Y-102906190D01*
X181185714Y-103382380D02*
X181185714Y-102382380D01*
X181566666Y-102382380D01*
X181661904Y-102430000D01*
X181709523Y-102477619D01*
X181757142Y-102572857D01*
X181757142Y-102715714D01*
X181709523Y-102810952D01*
X181661904Y-102858571D01*
X181566666Y-102906190D01*
X181185714Y-102906190D01*
X182709523Y-103382380D02*
X182138095Y-103382380D01*
X182423809Y-103382380D02*
X182423809Y-102382380D01*
X182328571Y-102525238D01*
X182233333Y-102620476D01*
X182138095Y-102668095D01*
X183042857Y-102382380D02*
X183661904Y-102382380D01*
X183328571Y-102763333D01*
X183471428Y-102763333D01*
X183566666Y-102810952D01*
X183614285Y-102858571D01*
X183661904Y-102953809D01*
X183661904Y-103191904D01*
X183614285Y-103287142D01*
X183566666Y-103334761D01*
X183471428Y-103382380D01*
X183185714Y-103382380D01*
X183090476Y-103334761D01*
X183042857Y-103287142D01*
%TO.C,R12*%
X184757142Y-100252380D02*
X184423809Y-99776190D01*
X184185714Y-100252380D02*
X184185714Y-99252380D01*
X184566666Y-99252380D01*
X184661904Y-99300000D01*
X184709523Y-99347619D01*
X184757142Y-99442857D01*
X184757142Y-99585714D01*
X184709523Y-99680952D01*
X184661904Y-99728571D01*
X184566666Y-99776190D01*
X184185714Y-99776190D01*
X185709523Y-100252380D02*
X185138095Y-100252380D01*
X185423809Y-100252380D02*
X185423809Y-99252380D01*
X185328571Y-99395238D01*
X185233333Y-99490476D01*
X185138095Y-99538095D01*
X186090476Y-99347619D02*
X186138095Y-99300000D01*
X186233333Y-99252380D01*
X186471428Y-99252380D01*
X186566666Y-99300000D01*
X186614285Y-99347619D01*
X186661904Y-99442857D01*
X186661904Y-99538095D01*
X186614285Y-99680952D01*
X186042857Y-100252380D01*
X186661904Y-100252380D01*
%TO.C,R11*%
X182852380Y-98142857D02*
X182376190Y-98476190D01*
X182852380Y-98714285D02*
X181852380Y-98714285D01*
X181852380Y-98333333D01*
X181900000Y-98238095D01*
X181947619Y-98190476D01*
X182042857Y-98142857D01*
X182185714Y-98142857D01*
X182280952Y-98190476D01*
X182328571Y-98238095D01*
X182376190Y-98333333D01*
X182376190Y-98714285D01*
X182852380Y-97190476D02*
X182852380Y-97761904D01*
X182852380Y-97476190D02*
X181852380Y-97476190D01*
X181995238Y-97571428D01*
X182090476Y-97666666D01*
X182138095Y-97761904D01*
X182852380Y-96238095D02*
X182852380Y-96809523D01*
X182852380Y-96523809D02*
X181852380Y-96523809D01*
X181995238Y-96619047D01*
X182090476Y-96714285D01*
X182138095Y-96809523D01*
%TO.C,R10*%
X195552380Y-98142857D02*
X195076190Y-98476190D01*
X195552380Y-98714285D02*
X194552380Y-98714285D01*
X194552380Y-98333333D01*
X194600000Y-98238095D01*
X194647619Y-98190476D01*
X194742857Y-98142857D01*
X194885714Y-98142857D01*
X194980952Y-98190476D01*
X195028571Y-98238095D01*
X195076190Y-98333333D01*
X195076190Y-98714285D01*
X195552380Y-97190476D02*
X195552380Y-97761904D01*
X195552380Y-97476190D02*
X194552380Y-97476190D01*
X194695238Y-97571428D01*
X194790476Y-97666666D01*
X194838095Y-97761904D01*
X194552380Y-96571428D02*
X194552380Y-96476190D01*
X194600000Y-96380952D01*
X194647619Y-96333333D01*
X194742857Y-96285714D01*
X194933333Y-96238095D01*
X195171428Y-96238095D01*
X195361904Y-96285714D01*
X195457142Y-96333333D01*
X195504761Y-96380952D01*
X195552380Y-96476190D01*
X195552380Y-96571428D01*
X195504761Y-96666666D01*
X195457142Y-96714285D01*
X195361904Y-96761904D01*
X195171428Y-96809523D01*
X194933333Y-96809523D01*
X194742857Y-96761904D01*
X194647619Y-96714285D01*
X194600000Y-96666666D01*
X194552380Y-96571428D01*
%TO.C,R9*%
X202233333Y-95382380D02*
X201900000Y-94906190D01*
X201661904Y-95382380D02*
X201661904Y-94382380D01*
X202042857Y-94382380D01*
X202138095Y-94430000D01*
X202185714Y-94477619D01*
X202233333Y-94572857D01*
X202233333Y-94715714D01*
X202185714Y-94810952D01*
X202138095Y-94858571D01*
X202042857Y-94906190D01*
X201661904Y-94906190D01*
X202709523Y-95382380D02*
X202900000Y-95382380D01*
X202995238Y-95334761D01*
X203042857Y-95287142D01*
X203138095Y-95144285D01*
X203185714Y-94953809D01*
X203185714Y-94572857D01*
X203138095Y-94477619D01*
X203090476Y-94430000D01*
X202995238Y-94382380D01*
X202804761Y-94382380D01*
X202709523Y-94430000D01*
X202661904Y-94477619D01*
X202614285Y-94572857D01*
X202614285Y-94810952D01*
X202661904Y-94906190D01*
X202709523Y-94953809D01*
X202804761Y-95001428D01*
X202995238Y-95001428D01*
X203090476Y-94953809D01*
X203138095Y-94906190D01*
X203185714Y-94810952D01*
%TO.C,R8*%
X202145833Y-103382380D02*
X201812500Y-102906190D01*
X201574404Y-103382380D02*
X201574404Y-102382380D01*
X201955357Y-102382380D01*
X202050595Y-102430000D01*
X202098214Y-102477619D01*
X202145833Y-102572857D01*
X202145833Y-102715714D01*
X202098214Y-102810952D01*
X202050595Y-102858571D01*
X201955357Y-102906190D01*
X201574404Y-102906190D01*
X202717261Y-102810952D02*
X202622023Y-102763333D01*
X202574404Y-102715714D01*
X202526785Y-102620476D01*
X202526785Y-102572857D01*
X202574404Y-102477619D01*
X202622023Y-102430000D01*
X202717261Y-102382380D01*
X202907738Y-102382380D01*
X203002976Y-102430000D01*
X203050595Y-102477619D01*
X203098214Y-102572857D01*
X203098214Y-102620476D01*
X203050595Y-102715714D01*
X203002976Y-102763333D01*
X202907738Y-102810952D01*
X202717261Y-102810952D01*
X202622023Y-102858571D01*
X202574404Y-102906190D01*
X202526785Y-103001428D01*
X202526785Y-103191904D01*
X202574404Y-103287142D01*
X202622023Y-103334761D01*
X202717261Y-103382380D01*
X202907738Y-103382380D01*
X203002976Y-103334761D01*
X203050595Y-103287142D01*
X203098214Y-103191904D01*
X203098214Y-103001428D01*
X203050595Y-102906190D01*
X203002976Y-102858571D01*
X202907738Y-102810952D01*
%TO.C,R7*%
X205852380Y-100266666D02*
X205376190Y-100600000D01*
X205852380Y-100838095D02*
X204852380Y-100838095D01*
X204852380Y-100457142D01*
X204900000Y-100361904D01*
X204947619Y-100314285D01*
X205042857Y-100266666D01*
X205185714Y-100266666D01*
X205280952Y-100314285D01*
X205328571Y-100361904D01*
X205376190Y-100457142D01*
X205376190Y-100838095D01*
X204852380Y-99933333D02*
X204852380Y-99266666D01*
X205852380Y-99695238D01*
%TO.C,R6*%
X202722380Y-97666666D02*
X202246190Y-98000000D01*
X202722380Y-98238095D02*
X201722380Y-98238095D01*
X201722380Y-97857142D01*
X201770000Y-97761904D01*
X201817619Y-97714285D01*
X201912857Y-97666666D01*
X202055714Y-97666666D01*
X202150952Y-97714285D01*
X202198571Y-97761904D01*
X202246190Y-97857142D01*
X202246190Y-98238095D01*
X201722380Y-96809523D02*
X201722380Y-97000000D01*
X201770000Y-97095238D01*
X201817619Y-97142857D01*
X201960476Y-97238095D01*
X202150952Y-97285714D01*
X202531904Y-97285714D01*
X202627142Y-97238095D01*
X202674761Y-97190476D01*
X202722380Y-97095238D01*
X202722380Y-96904761D01*
X202674761Y-96809523D01*
X202627142Y-96761904D01*
X202531904Y-96714285D01*
X202293809Y-96714285D01*
X202198571Y-96761904D01*
X202150952Y-96809523D01*
X202103333Y-96904761D01*
X202103333Y-97095238D01*
X202150952Y-97190476D01*
X202198571Y-97238095D01*
X202293809Y-97285714D01*
%TO.C,R4*%
X222233333Y-95382380D02*
X221900000Y-94906190D01*
X221661904Y-95382380D02*
X221661904Y-94382380D01*
X222042857Y-94382380D01*
X222138095Y-94430000D01*
X222185714Y-94477619D01*
X222233333Y-94572857D01*
X222233333Y-94715714D01*
X222185714Y-94810952D01*
X222138095Y-94858571D01*
X222042857Y-94906190D01*
X221661904Y-94906190D01*
X223090476Y-94715714D02*
X223090476Y-95382380D01*
X222852380Y-94334761D02*
X222614285Y-95049047D01*
X223233333Y-95049047D01*
%TO.C,R3*%
X222233333Y-103382380D02*
X221900000Y-102906190D01*
X221661904Y-103382380D02*
X221661904Y-102382380D01*
X222042857Y-102382380D01*
X222138095Y-102430000D01*
X222185714Y-102477619D01*
X222233333Y-102572857D01*
X222233333Y-102715714D01*
X222185714Y-102810952D01*
X222138095Y-102858571D01*
X222042857Y-102906190D01*
X221661904Y-102906190D01*
X222566666Y-102382380D02*
X223185714Y-102382380D01*
X222852380Y-102763333D01*
X222995238Y-102763333D01*
X223090476Y-102810952D01*
X223138095Y-102858571D01*
X223185714Y-102953809D01*
X223185714Y-103191904D01*
X223138095Y-103287142D01*
X223090476Y-103334761D01*
X222995238Y-103382380D01*
X222709523Y-103382380D01*
X222614285Y-103334761D01*
X222566666Y-103287142D01*
%TO.C,R5*%
X215452380Y-97666666D02*
X214976190Y-98000000D01*
X215452380Y-98238095D02*
X214452380Y-98238095D01*
X214452380Y-97857142D01*
X214500000Y-97761904D01*
X214547619Y-97714285D01*
X214642857Y-97666666D01*
X214785714Y-97666666D01*
X214880952Y-97714285D01*
X214928571Y-97761904D01*
X214976190Y-97857142D01*
X214976190Y-98238095D01*
X214452380Y-96761904D02*
X214452380Y-97238095D01*
X214928571Y-97285714D01*
X214880952Y-97238095D01*
X214833333Y-97142857D01*
X214833333Y-96904761D01*
X214880952Y-96809523D01*
X214928571Y-96761904D01*
X215023809Y-96714285D01*
X215261904Y-96714285D01*
X215357142Y-96761904D01*
X215404761Y-96809523D01*
X215452380Y-96904761D01*
X215452380Y-97142857D01*
X215404761Y-97238095D01*
X215357142Y-97285714D01*
%TO.C,R2*%
X225652380Y-100166666D02*
X225176190Y-100500000D01*
X225652380Y-100738095D02*
X224652380Y-100738095D01*
X224652380Y-100357142D01*
X224700000Y-100261904D01*
X224747619Y-100214285D01*
X224842857Y-100166666D01*
X224985714Y-100166666D01*
X225080952Y-100214285D01*
X225128571Y-100261904D01*
X225176190Y-100357142D01*
X225176190Y-100738095D01*
X224747619Y-99785714D02*
X224700000Y-99738095D01*
X224652380Y-99642857D01*
X224652380Y-99404761D01*
X224700000Y-99309523D01*
X224747619Y-99261904D01*
X224842857Y-99214285D01*
X224938095Y-99214285D01*
X225080952Y-99261904D01*
X225652380Y-99833333D01*
X225652380Y-99214285D01*
%TO.C,R1*%
X222752380Y-97579166D02*
X222276190Y-97912500D01*
X222752380Y-98150595D02*
X221752380Y-98150595D01*
X221752380Y-97769642D01*
X221800000Y-97674404D01*
X221847619Y-97626785D01*
X221942857Y-97579166D01*
X222085714Y-97579166D01*
X222180952Y-97626785D01*
X222228571Y-97674404D01*
X222276190Y-97769642D01*
X222276190Y-98150595D01*
X222752380Y-96626785D02*
X222752380Y-97198214D01*
X222752380Y-96912500D02*
X221752380Y-96912500D01*
X221895238Y-97007738D01*
X221990476Y-97102976D01*
X222038095Y-97198214D01*
%TO.C,Q5*%
X139304761Y-95547619D02*
X139209523Y-95500000D01*
X139114285Y-95404761D01*
X138971428Y-95261904D01*
X138876190Y-95214285D01*
X138780952Y-95214285D01*
X138828571Y-95452380D02*
X138733333Y-95404761D01*
X138638095Y-95309523D01*
X138590476Y-95119047D01*
X138590476Y-94785714D01*
X138638095Y-94595238D01*
X138733333Y-94500000D01*
X138828571Y-94452380D01*
X139019047Y-94452380D01*
X139114285Y-94500000D01*
X139209523Y-94595238D01*
X139257142Y-94785714D01*
X139257142Y-95119047D01*
X139209523Y-95309523D01*
X139114285Y-95404761D01*
X139019047Y-95452380D01*
X138828571Y-95452380D01*
X140161904Y-94452380D02*
X139685714Y-94452380D01*
X139638095Y-94928571D01*
X139685714Y-94880952D01*
X139780952Y-94833333D01*
X140019047Y-94833333D01*
X140114285Y-94880952D01*
X140161904Y-94928571D01*
X140209523Y-95023809D01*
X140209523Y-95261904D01*
X140161904Y-95357142D01*
X140114285Y-95404761D01*
X140019047Y-95452380D01*
X139780952Y-95452380D01*
X139685714Y-95404761D01*
X139638095Y-95357142D01*
%TO.C,Q4*%
X159304761Y-95547619D02*
X159209523Y-95500000D01*
X159114285Y-95404761D01*
X158971428Y-95261904D01*
X158876190Y-95214285D01*
X158780952Y-95214285D01*
X158828571Y-95452380D02*
X158733333Y-95404761D01*
X158638095Y-95309523D01*
X158590476Y-95119047D01*
X158590476Y-94785714D01*
X158638095Y-94595238D01*
X158733333Y-94500000D01*
X158828571Y-94452380D01*
X159019047Y-94452380D01*
X159114285Y-94500000D01*
X159209523Y-94595238D01*
X159257142Y-94785714D01*
X159257142Y-95119047D01*
X159209523Y-95309523D01*
X159114285Y-95404761D01*
X159019047Y-95452380D01*
X158828571Y-95452380D01*
X160114285Y-94785714D02*
X160114285Y-95452380D01*
X159876190Y-94404761D02*
X159638095Y-95119047D01*
X160257142Y-95119047D01*
%TO.C,Q3*%
X179304761Y-95547619D02*
X179209523Y-95500000D01*
X179114285Y-95404761D01*
X178971428Y-95261904D01*
X178876190Y-95214285D01*
X178780952Y-95214285D01*
X178828571Y-95452380D02*
X178733333Y-95404761D01*
X178638095Y-95309523D01*
X178590476Y-95119047D01*
X178590476Y-94785714D01*
X178638095Y-94595238D01*
X178733333Y-94500000D01*
X178828571Y-94452380D01*
X179019047Y-94452380D01*
X179114285Y-94500000D01*
X179209523Y-94595238D01*
X179257142Y-94785714D01*
X179257142Y-95119047D01*
X179209523Y-95309523D01*
X179114285Y-95404761D01*
X179019047Y-95452380D01*
X178828571Y-95452380D01*
X179590476Y-94452380D02*
X180209523Y-94452380D01*
X179876190Y-94833333D01*
X180019047Y-94833333D01*
X180114285Y-94880952D01*
X180161904Y-94928571D01*
X180209523Y-95023809D01*
X180209523Y-95261904D01*
X180161904Y-95357142D01*
X180114285Y-95404761D01*
X180019047Y-95452380D01*
X179733333Y-95452380D01*
X179638095Y-95404761D01*
X179590476Y-95357142D01*
%TO.C,Q2*%
X199304761Y-95547619D02*
X199209523Y-95500000D01*
X199114285Y-95404761D01*
X198971428Y-95261904D01*
X198876190Y-95214285D01*
X198780952Y-95214285D01*
X198828571Y-95452380D02*
X198733333Y-95404761D01*
X198638095Y-95309523D01*
X198590476Y-95119047D01*
X198590476Y-94785714D01*
X198638095Y-94595238D01*
X198733333Y-94500000D01*
X198828571Y-94452380D01*
X199019047Y-94452380D01*
X199114285Y-94500000D01*
X199209523Y-94595238D01*
X199257142Y-94785714D01*
X199257142Y-95119047D01*
X199209523Y-95309523D01*
X199114285Y-95404761D01*
X199019047Y-95452380D01*
X198828571Y-95452380D01*
X199638095Y-94547619D02*
X199685714Y-94500000D01*
X199780952Y-94452380D01*
X200019047Y-94452380D01*
X200114285Y-94500000D01*
X200161904Y-94547619D01*
X200209523Y-94642857D01*
X200209523Y-94738095D01*
X200161904Y-94880952D01*
X199590476Y-95452380D01*
X200209523Y-95452380D01*
%TO.C,Q1*%
X219304761Y-95547619D02*
X219209523Y-95500000D01*
X219114285Y-95404761D01*
X218971428Y-95261904D01*
X218876190Y-95214285D01*
X218780952Y-95214285D01*
X218828571Y-95452380D02*
X218733333Y-95404761D01*
X218638095Y-95309523D01*
X218590476Y-95119047D01*
X218590476Y-94785714D01*
X218638095Y-94595238D01*
X218733333Y-94500000D01*
X218828571Y-94452380D01*
X219019047Y-94452380D01*
X219114285Y-94500000D01*
X219209523Y-94595238D01*
X219257142Y-94785714D01*
X219257142Y-95119047D01*
X219209523Y-95309523D01*
X219114285Y-95404761D01*
X219019047Y-95452380D01*
X218828571Y-95452380D01*
X220209523Y-95452380D02*
X219638095Y-95452380D01*
X219923809Y-95452380D02*
X219923809Y-94452380D01*
X219828571Y-94595238D01*
X219733333Y-94690476D01*
X219638095Y-94738095D01*
%TO.C,C5*%
X146827142Y-97666666D02*
X146874761Y-97714285D01*
X146922380Y-97857142D01*
X146922380Y-97952380D01*
X146874761Y-98095238D01*
X146779523Y-98190476D01*
X146684285Y-98238095D01*
X146493809Y-98285714D01*
X146350952Y-98285714D01*
X146160476Y-98238095D01*
X146065238Y-98190476D01*
X145970000Y-98095238D01*
X145922380Y-97952380D01*
X145922380Y-97857142D01*
X145970000Y-97714285D01*
X146017619Y-97666666D01*
X145922380Y-96761904D02*
X145922380Y-97238095D01*
X146398571Y-97285714D01*
X146350952Y-97238095D01*
X146303333Y-97142857D01*
X146303333Y-96904761D01*
X146350952Y-96809523D01*
X146398571Y-96761904D01*
X146493809Y-96714285D01*
X146731904Y-96714285D01*
X146827142Y-96761904D01*
X146874761Y-96809523D01*
X146922380Y-96904761D01*
X146922380Y-97142857D01*
X146874761Y-97238095D01*
X146827142Y-97285714D01*
%TO.C,C4*%
X166827142Y-97666666D02*
X166874761Y-97714285D01*
X166922380Y-97857142D01*
X166922380Y-97952380D01*
X166874761Y-98095238D01*
X166779523Y-98190476D01*
X166684285Y-98238095D01*
X166493809Y-98285714D01*
X166350952Y-98285714D01*
X166160476Y-98238095D01*
X166065238Y-98190476D01*
X165970000Y-98095238D01*
X165922380Y-97952380D01*
X165922380Y-97857142D01*
X165970000Y-97714285D01*
X166017619Y-97666666D01*
X166255714Y-96809523D02*
X166922380Y-96809523D01*
X165874761Y-97047619D02*
X166589047Y-97285714D01*
X166589047Y-96666666D01*
%TO.C,C3*%
X186957142Y-97566666D02*
X187004761Y-97614285D01*
X187052380Y-97757142D01*
X187052380Y-97852380D01*
X187004761Y-97995238D01*
X186909523Y-98090476D01*
X186814285Y-98138095D01*
X186623809Y-98185714D01*
X186480952Y-98185714D01*
X186290476Y-98138095D01*
X186195238Y-98090476D01*
X186100000Y-97995238D01*
X186052380Y-97852380D01*
X186052380Y-97757142D01*
X186100000Y-97614285D01*
X186147619Y-97566666D01*
X186052380Y-97233333D02*
X186052380Y-96614285D01*
X186433333Y-96947619D01*
X186433333Y-96804761D01*
X186480952Y-96709523D01*
X186528571Y-96661904D01*
X186623809Y-96614285D01*
X186861904Y-96614285D01*
X186957142Y-96661904D01*
X187004761Y-96709523D01*
X187052380Y-96804761D01*
X187052380Y-97090476D01*
X187004761Y-97185714D01*
X186957142Y-97233333D01*
%TO.C,C2*%
X206827142Y-97666666D02*
X206874761Y-97714285D01*
X206922380Y-97857142D01*
X206922380Y-97952380D01*
X206874761Y-98095238D01*
X206779523Y-98190476D01*
X206684285Y-98238095D01*
X206493809Y-98285714D01*
X206350952Y-98285714D01*
X206160476Y-98238095D01*
X206065238Y-98190476D01*
X205970000Y-98095238D01*
X205922380Y-97952380D01*
X205922380Y-97857142D01*
X205970000Y-97714285D01*
X206017619Y-97666666D01*
X206017619Y-97285714D02*
X205970000Y-97238095D01*
X205922380Y-97142857D01*
X205922380Y-96904761D01*
X205970000Y-96809523D01*
X206017619Y-96761904D01*
X206112857Y-96714285D01*
X206208095Y-96714285D01*
X206350952Y-96761904D01*
X206922380Y-97333333D01*
X206922380Y-96714285D01*
%TO.C,C1*%
X226827142Y-97666666D02*
X226874761Y-97714285D01*
X226922380Y-97857142D01*
X226922380Y-97952380D01*
X226874761Y-98095238D01*
X226779523Y-98190476D01*
X226684285Y-98238095D01*
X226493809Y-98285714D01*
X226350952Y-98285714D01*
X226160476Y-98238095D01*
X226065238Y-98190476D01*
X225970000Y-98095238D01*
X225922380Y-97952380D01*
X225922380Y-97857142D01*
X225970000Y-97714285D01*
X226017619Y-97666666D01*
X226922380Y-96714285D02*
X226922380Y-97285714D01*
X226922380Y-97000000D02*
X225922380Y-97000000D01*
X226065238Y-97095238D01*
X226160476Y-97190476D01*
X226208095Y-97285714D01*
%TD*%
M02*
