%TF.GenerationSoftware,KiCad,Pcbnew,(5.1.7)-1*%
%TF.CreationDate,2020-11-11T22:14:19+01:00*%
%TF.ProjectId,rgb_sensor_v2,7267625f-7365-46e7-936f-725f76322e6b,rev?*%
%TF.SameCoordinates,Original*%
%TF.FileFunction,Soldermask,Bot*%
%TF.FilePolarity,Negative*%
%FSLAX46Y46*%
G04 Gerber Fmt 4.6, Leading zero omitted, Abs format (unit mm)*
G04 Created by KiCad (PCBNEW (5.1.7)-1) date 2020-11-11 22:14:19*
%MOMM*%
%LPD*%
G01*
G04 APERTURE LIST*
%ADD10C,1.200000*%
%ADD11C,3.800000*%
%ADD12C,0.100000*%
%ADD13R,1.000000X0.400000*%
G04 APERTURE END LIST*
D10*
%TO.C,J1*%
X90400000Y-88500000D03*
X90400000Y-90500000D03*
X90400000Y-92500000D03*
X90400000Y-94500000D03*
X90400000Y-96500000D03*
X90400000Y-98500000D03*
X90400000Y-100500000D03*
X90400000Y-102500000D03*
X90400000Y-104500000D03*
X90400000Y-106500000D03*
X92400000Y-88500000D03*
X92400000Y-90500000D03*
X92400000Y-92500000D03*
X92400000Y-94500000D03*
X92400000Y-96500000D03*
X92400000Y-98500000D03*
X92400000Y-100500000D03*
X92400000Y-102500000D03*
X92400000Y-104500000D03*
G36*
G01*
X92750001Y-107100000D02*
X92049999Y-107100000D01*
G75*
G02*
X91800000Y-106850001I0J249999D01*
G01*
X91800000Y-106149999D01*
G75*
G02*
X92049999Y-105900000I249999J0D01*
G01*
X92750001Y-105900000D01*
G75*
G02*
X93000000Y-106149999I0J-249999D01*
G01*
X93000000Y-106850001D01*
G75*
G02*
X92750001Y-107100000I-249999J0D01*
G01*
G37*
%TD*%
D11*
%TO.C,H2*%
X235400000Y-101500000D03*
%TD*%
%TO.C,H1*%
X235400000Y-93500000D03*
%TD*%
D12*
%TO.C,U5*%
G36*
X149650000Y-98349999D02*
G01*
X148850000Y-98349999D01*
X148834308Y-98349382D01*
X148818713Y-98347537D01*
X148803311Y-98344473D01*
X148788197Y-98340210D01*
X148773463Y-98334775D01*
X148759202Y-98328200D01*
X148745500Y-98320527D01*
X148732443Y-98311802D01*
X148720110Y-98302080D01*
X148708579Y-98291420D01*
X148697919Y-98279889D01*
X148688197Y-98267556D01*
X148679472Y-98254499D01*
X148671799Y-98240797D01*
X148665224Y-98226536D01*
X148659789Y-98211802D01*
X148655526Y-98196688D01*
X148652462Y-98181286D01*
X148650617Y-98165691D01*
X148650000Y-98149999D01*
X148650617Y-98134307D01*
X148652462Y-98118712D01*
X148655526Y-98103310D01*
X148659789Y-98088196D01*
X148665224Y-98073462D01*
X148671799Y-98059201D01*
X148679472Y-98045499D01*
X148688197Y-98032442D01*
X148697919Y-98020109D01*
X148708579Y-98008578D01*
X148720110Y-97997918D01*
X148732443Y-97988196D01*
X148745500Y-97979471D01*
X148759202Y-97971798D01*
X148773463Y-97965223D01*
X148788197Y-97959788D01*
X148803311Y-97955525D01*
X148818713Y-97952461D01*
X148834308Y-97950616D01*
X148850000Y-97949999D01*
X149650000Y-97949999D01*
X149650000Y-98349999D01*
G37*
G36*
X149650000Y-97699999D02*
G01*
X148850000Y-97699999D01*
X148834308Y-97699382D01*
X148818713Y-97697537D01*
X148803311Y-97694473D01*
X148788197Y-97690210D01*
X148773463Y-97684775D01*
X148759202Y-97678200D01*
X148745500Y-97670527D01*
X148732443Y-97661802D01*
X148720110Y-97652080D01*
X148708579Y-97641420D01*
X148697919Y-97629889D01*
X148688197Y-97617556D01*
X148679472Y-97604499D01*
X148671799Y-97590797D01*
X148665224Y-97576536D01*
X148659789Y-97561802D01*
X148655526Y-97546688D01*
X148652462Y-97531286D01*
X148650617Y-97515691D01*
X148650000Y-97499999D01*
X148650617Y-97484307D01*
X148652462Y-97468712D01*
X148655526Y-97453310D01*
X148659789Y-97438196D01*
X148665224Y-97423462D01*
X148671799Y-97409201D01*
X148679472Y-97395499D01*
X148688197Y-97382442D01*
X148697919Y-97370109D01*
X148708579Y-97358578D01*
X148720110Y-97347918D01*
X148732443Y-97338196D01*
X148745500Y-97329471D01*
X148759202Y-97321798D01*
X148773463Y-97315223D01*
X148788197Y-97309788D01*
X148803311Y-97305525D01*
X148818713Y-97302461D01*
X148834308Y-97300616D01*
X148850000Y-97299999D01*
X149650000Y-97299999D01*
X149650000Y-97699999D01*
G37*
G36*
X149650000Y-97049999D02*
G01*
X148850000Y-97049999D01*
X148834308Y-97049382D01*
X148818713Y-97047537D01*
X148803311Y-97044473D01*
X148788197Y-97040210D01*
X148773463Y-97034775D01*
X148759202Y-97028200D01*
X148745500Y-97020527D01*
X148732443Y-97011802D01*
X148720110Y-97002080D01*
X148708579Y-96991420D01*
X148697919Y-96979889D01*
X148688197Y-96967556D01*
X148679472Y-96954499D01*
X148671799Y-96940797D01*
X148665224Y-96926536D01*
X148659789Y-96911802D01*
X148655526Y-96896688D01*
X148652462Y-96881286D01*
X148650617Y-96865691D01*
X148650000Y-96849999D01*
X148650617Y-96834307D01*
X148652462Y-96818712D01*
X148655526Y-96803310D01*
X148659789Y-96788196D01*
X148665224Y-96773462D01*
X148671799Y-96759201D01*
X148679472Y-96745499D01*
X148688197Y-96732442D01*
X148697919Y-96720109D01*
X148708579Y-96708578D01*
X148720110Y-96697918D01*
X148732443Y-96688196D01*
X148745500Y-96679471D01*
X148759202Y-96671798D01*
X148773463Y-96665223D01*
X148788197Y-96659788D01*
X148803311Y-96655525D01*
X148818713Y-96652461D01*
X148834308Y-96650616D01*
X148850000Y-96649999D01*
X149650000Y-96649999D01*
X149650000Y-97049999D01*
G37*
G36*
X147965692Y-96650616D02*
G01*
X147981287Y-96652461D01*
X147996689Y-96655525D01*
X148011803Y-96659788D01*
X148026537Y-96665223D01*
X148040798Y-96671798D01*
X148054500Y-96679471D01*
X148067557Y-96688196D01*
X148079890Y-96697918D01*
X148091421Y-96708578D01*
X148102081Y-96720109D01*
X148111803Y-96732442D01*
X148120528Y-96745499D01*
X148128201Y-96759201D01*
X148134776Y-96773462D01*
X148140211Y-96788196D01*
X148144474Y-96803310D01*
X148147538Y-96818712D01*
X148149383Y-96834307D01*
X148150000Y-96849999D01*
X148149383Y-96865691D01*
X148147538Y-96881286D01*
X148144474Y-96896688D01*
X148140211Y-96911802D01*
X148134776Y-96926536D01*
X148128201Y-96940797D01*
X148120528Y-96954499D01*
X148111803Y-96967556D01*
X148102081Y-96979889D01*
X148091421Y-96991420D01*
X148079890Y-97002080D01*
X148067557Y-97011802D01*
X148054500Y-97020527D01*
X148040798Y-97028200D01*
X148026537Y-97034775D01*
X148011803Y-97040210D01*
X147996689Y-97044473D01*
X147981287Y-97047537D01*
X147965692Y-97049382D01*
X147950000Y-97049999D01*
X147150000Y-97049999D01*
X147150000Y-96649999D01*
X147950000Y-96649999D01*
X147965692Y-96650616D01*
G37*
G36*
X147965692Y-97300616D02*
G01*
X147981287Y-97302461D01*
X147996689Y-97305525D01*
X148011803Y-97309788D01*
X148026537Y-97315223D01*
X148040798Y-97321798D01*
X148054500Y-97329471D01*
X148067557Y-97338196D01*
X148079890Y-97347918D01*
X148091421Y-97358578D01*
X148102081Y-97370109D01*
X148111803Y-97382442D01*
X148120528Y-97395499D01*
X148128201Y-97409201D01*
X148134776Y-97423462D01*
X148140211Y-97438196D01*
X148144474Y-97453310D01*
X148147538Y-97468712D01*
X148149383Y-97484307D01*
X148150000Y-97499999D01*
X148149383Y-97515691D01*
X148147538Y-97531286D01*
X148144474Y-97546688D01*
X148140211Y-97561802D01*
X148134776Y-97576536D01*
X148128201Y-97590797D01*
X148120528Y-97604499D01*
X148111803Y-97617556D01*
X148102081Y-97629889D01*
X148091421Y-97641420D01*
X148079890Y-97652080D01*
X148067557Y-97661802D01*
X148054500Y-97670527D01*
X148040798Y-97678200D01*
X148026537Y-97684775D01*
X148011803Y-97690210D01*
X147996689Y-97694473D01*
X147981287Y-97697537D01*
X147965692Y-97699382D01*
X147950000Y-97699999D01*
X147150000Y-97699999D01*
X147150000Y-97299999D01*
X147950000Y-97299999D01*
X147965692Y-97300616D01*
G37*
D13*
X147650000Y-98149999D03*
%TD*%
D12*
%TO.C,U4*%
G36*
X169650000Y-98349999D02*
G01*
X168850000Y-98349999D01*
X168834308Y-98349382D01*
X168818713Y-98347537D01*
X168803311Y-98344473D01*
X168788197Y-98340210D01*
X168773463Y-98334775D01*
X168759202Y-98328200D01*
X168745500Y-98320527D01*
X168732443Y-98311802D01*
X168720110Y-98302080D01*
X168708579Y-98291420D01*
X168697919Y-98279889D01*
X168688197Y-98267556D01*
X168679472Y-98254499D01*
X168671799Y-98240797D01*
X168665224Y-98226536D01*
X168659789Y-98211802D01*
X168655526Y-98196688D01*
X168652462Y-98181286D01*
X168650617Y-98165691D01*
X168650000Y-98149999D01*
X168650617Y-98134307D01*
X168652462Y-98118712D01*
X168655526Y-98103310D01*
X168659789Y-98088196D01*
X168665224Y-98073462D01*
X168671799Y-98059201D01*
X168679472Y-98045499D01*
X168688197Y-98032442D01*
X168697919Y-98020109D01*
X168708579Y-98008578D01*
X168720110Y-97997918D01*
X168732443Y-97988196D01*
X168745500Y-97979471D01*
X168759202Y-97971798D01*
X168773463Y-97965223D01*
X168788197Y-97959788D01*
X168803311Y-97955525D01*
X168818713Y-97952461D01*
X168834308Y-97950616D01*
X168850000Y-97949999D01*
X169650000Y-97949999D01*
X169650000Y-98349999D01*
G37*
G36*
X169650000Y-97699999D02*
G01*
X168850000Y-97699999D01*
X168834308Y-97699382D01*
X168818713Y-97697537D01*
X168803311Y-97694473D01*
X168788197Y-97690210D01*
X168773463Y-97684775D01*
X168759202Y-97678200D01*
X168745500Y-97670527D01*
X168732443Y-97661802D01*
X168720110Y-97652080D01*
X168708579Y-97641420D01*
X168697919Y-97629889D01*
X168688197Y-97617556D01*
X168679472Y-97604499D01*
X168671799Y-97590797D01*
X168665224Y-97576536D01*
X168659789Y-97561802D01*
X168655526Y-97546688D01*
X168652462Y-97531286D01*
X168650617Y-97515691D01*
X168650000Y-97499999D01*
X168650617Y-97484307D01*
X168652462Y-97468712D01*
X168655526Y-97453310D01*
X168659789Y-97438196D01*
X168665224Y-97423462D01*
X168671799Y-97409201D01*
X168679472Y-97395499D01*
X168688197Y-97382442D01*
X168697919Y-97370109D01*
X168708579Y-97358578D01*
X168720110Y-97347918D01*
X168732443Y-97338196D01*
X168745500Y-97329471D01*
X168759202Y-97321798D01*
X168773463Y-97315223D01*
X168788197Y-97309788D01*
X168803311Y-97305525D01*
X168818713Y-97302461D01*
X168834308Y-97300616D01*
X168850000Y-97299999D01*
X169650000Y-97299999D01*
X169650000Y-97699999D01*
G37*
G36*
X169650000Y-97049999D02*
G01*
X168850000Y-97049999D01*
X168834308Y-97049382D01*
X168818713Y-97047537D01*
X168803311Y-97044473D01*
X168788197Y-97040210D01*
X168773463Y-97034775D01*
X168759202Y-97028200D01*
X168745500Y-97020527D01*
X168732443Y-97011802D01*
X168720110Y-97002080D01*
X168708579Y-96991420D01*
X168697919Y-96979889D01*
X168688197Y-96967556D01*
X168679472Y-96954499D01*
X168671799Y-96940797D01*
X168665224Y-96926536D01*
X168659789Y-96911802D01*
X168655526Y-96896688D01*
X168652462Y-96881286D01*
X168650617Y-96865691D01*
X168650000Y-96849999D01*
X168650617Y-96834307D01*
X168652462Y-96818712D01*
X168655526Y-96803310D01*
X168659789Y-96788196D01*
X168665224Y-96773462D01*
X168671799Y-96759201D01*
X168679472Y-96745499D01*
X168688197Y-96732442D01*
X168697919Y-96720109D01*
X168708579Y-96708578D01*
X168720110Y-96697918D01*
X168732443Y-96688196D01*
X168745500Y-96679471D01*
X168759202Y-96671798D01*
X168773463Y-96665223D01*
X168788197Y-96659788D01*
X168803311Y-96655525D01*
X168818713Y-96652461D01*
X168834308Y-96650616D01*
X168850000Y-96649999D01*
X169650000Y-96649999D01*
X169650000Y-97049999D01*
G37*
G36*
X167965692Y-96650616D02*
G01*
X167981287Y-96652461D01*
X167996689Y-96655525D01*
X168011803Y-96659788D01*
X168026537Y-96665223D01*
X168040798Y-96671798D01*
X168054500Y-96679471D01*
X168067557Y-96688196D01*
X168079890Y-96697918D01*
X168091421Y-96708578D01*
X168102081Y-96720109D01*
X168111803Y-96732442D01*
X168120528Y-96745499D01*
X168128201Y-96759201D01*
X168134776Y-96773462D01*
X168140211Y-96788196D01*
X168144474Y-96803310D01*
X168147538Y-96818712D01*
X168149383Y-96834307D01*
X168150000Y-96849999D01*
X168149383Y-96865691D01*
X168147538Y-96881286D01*
X168144474Y-96896688D01*
X168140211Y-96911802D01*
X168134776Y-96926536D01*
X168128201Y-96940797D01*
X168120528Y-96954499D01*
X168111803Y-96967556D01*
X168102081Y-96979889D01*
X168091421Y-96991420D01*
X168079890Y-97002080D01*
X168067557Y-97011802D01*
X168054500Y-97020527D01*
X168040798Y-97028200D01*
X168026537Y-97034775D01*
X168011803Y-97040210D01*
X167996689Y-97044473D01*
X167981287Y-97047537D01*
X167965692Y-97049382D01*
X167950000Y-97049999D01*
X167150000Y-97049999D01*
X167150000Y-96649999D01*
X167950000Y-96649999D01*
X167965692Y-96650616D01*
G37*
G36*
X167965692Y-97300616D02*
G01*
X167981287Y-97302461D01*
X167996689Y-97305525D01*
X168011803Y-97309788D01*
X168026537Y-97315223D01*
X168040798Y-97321798D01*
X168054500Y-97329471D01*
X168067557Y-97338196D01*
X168079890Y-97347918D01*
X168091421Y-97358578D01*
X168102081Y-97370109D01*
X168111803Y-97382442D01*
X168120528Y-97395499D01*
X168128201Y-97409201D01*
X168134776Y-97423462D01*
X168140211Y-97438196D01*
X168144474Y-97453310D01*
X168147538Y-97468712D01*
X168149383Y-97484307D01*
X168150000Y-97499999D01*
X168149383Y-97515691D01*
X168147538Y-97531286D01*
X168144474Y-97546688D01*
X168140211Y-97561802D01*
X168134776Y-97576536D01*
X168128201Y-97590797D01*
X168120528Y-97604499D01*
X168111803Y-97617556D01*
X168102081Y-97629889D01*
X168091421Y-97641420D01*
X168079890Y-97652080D01*
X168067557Y-97661802D01*
X168054500Y-97670527D01*
X168040798Y-97678200D01*
X168026537Y-97684775D01*
X168011803Y-97690210D01*
X167996689Y-97694473D01*
X167981287Y-97697537D01*
X167965692Y-97699382D01*
X167950000Y-97699999D01*
X167150000Y-97699999D01*
X167150000Y-97299999D01*
X167950000Y-97299999D01*
X167965692Y-97300616D01*
G37*
D13*
X167650000Y-98149999D03*
%TD*%
D12*
%TO.C,U3*%
G36*
X189650000Y-98349999D02*
G01*
X188850000Y-98349999D01*
X188834308Y-98349382D01*
X188818713Y-98347537D01*
X188803311Y-98344473D01*
X188788197Y-98340210D01*
X188773463Y-98334775D01*
X188759202Y-98328200D01*
X188745500Y-98320527D01*
X188732443Y-98311802D01*
X188720110Y-98302080D01*
X188708579Y-98291420D01*
X188697919Y-98279889D01*
X188688197Y-98267556D01*
X188679472Y-98254499D01*
X188671799Y-98240797D01*
X188665224Y-98226536D01*
X188659789Y-98211802D01*
X188655526Y-98196688D01*
X188652462Y-98181286D01*
X188650617Y-98165691D01*
X188650000Y-98149999D01*
X188650617Y-98134307D01*
X188652462Y-98118712D01*
X188655526Y-98103310D01*
X188659789Y-98088196D01*
X188665224Y-98073462D01*
X188671799Y-98059201D01*
X188679472Y-98045499D01*
X188688197Y-98032442D01*
X188697919Y-98020109D01*
X188708579Y-98008578D01*
X188720110Y-97997918D01*
X188732443Y-97988196D01*
X188745500Y-97979471D01*
X188759202Y-97971798D01*
X188773463Y-97965223D01*
X188788197Y-97959788D01*
X188803311Y-97955525D01*
X188818713Y-97952461D01*
X188834308Y-97950616D01*
X188850000Y-97949999D01*
X189650000Y-97949999D01*
X189650000Y-98349999D01*
G37*
G36*
X189650000Y-97699999D02*
G01*
X188850000Y-97699999D01*
X188834308Y-97699382D01*
X188818713Y-97697537D01*
X188803311Y-97694473D01*
X188788197Y-97690210D01*
X188773463Y-97684775D01*
X188759202Y-97678200D01*
X188745500Y-97670527D01*
X188732443Y-97661802D01*
X188720110Y-97652080D01*
X188708579Y-97641420D01*
X188697919Y-97629889D01*
X188688197Y-97617556D01*
X188679472Y-97604499D01*
X188671799Y-97590797D01*
X188665224Y-97576536D01*
X188659789Y-97561802D01*
X188655526Y-97546688D01*
X188652462Y-97531286D01*
X188650617Y-97515691D01*
X188650000Y-97499999D01*
X188650617Y-97484307D01*
X188652462Y-97468712D01*
X188655526Y-97453310D01*
X188659789Y-97438196D01*
X188665224Y-97423462D01*
X188671799Y-97409201D01*
X188679472Y-97395499D01*
X188688197Y-97382442D01*
X188697919Y-97370109D01*
X188708579Y-97358578D01*
X188720110Y-97347918D01*
X188732443Y-97338196D01*
X188745500Y-97329471D01*
X188759202Y-97321798D01*
X188773463Y-97315223D01*
X188788197Y-97309788D01*
X188803311Y-97305525D01*
X188818713Y-97302461D01*
X188834308Y-97300616D01*
X188850000Y-97299999D01*
X189650000Y-97299999D01*
X189650000Y-97699999D01*
G37*
G36*
X189650000Y-97049999D02*
G01*
X188850000Y-97049999D01*
X188834308Y-97049382D01*
X188818713Y-97047537D01*
X188803311Y-97044473D01*
X188788197Y-97040210D01*
X188773463Y-97034775D01*
X188759202Y-97028200D01*
X188745500Y-97020527D01*
X188732443Y-97011802D01*
X188720110Y-97002080D01*
X188708579Y-96991420D01*
X188697919Y-96979889D01*
X188688197Y-96967556D01*
X188679472Y-96954499D01*
X188671799Y-96940797D01*
X188665224Y-96926536D01*
X188659789Y-96911802D01*
X188655526Y-96896688D01*
X188652462Y-96881286D01*
X188650617Y-96865691D01*
X188650000Y-96849999D01*
X188650617Y-96834307D01*
X188652462Y-96818712D01*
X188655526Y-96803310D01*
X188659789Y-96788196D01*
X188665224Y-96773462D01*
X188671799Y-96759201D01*
X188679472Y-96745499D01*
X188688197Y-96732442D01*
X188697919Y-96720109D01*
X188708579Y-96708578D01*
X188720110Y-96697918D01*
X188732443Y-96688196D01*
X188745500Y-96679471D01*
X188759202Y-96671798D01*
X188773463Y-96665223D01*
X188788197Y-96659788D01*
X188803311Y-96655525D01*
X188818713Y-96652461D01*
X188834308Y-96650616D01*
X188850000Y-96649999D01*
X189650000Y-96649999D01*
X189650000Y-97049999D01*
G37*
G36*
X187965692Y-96650616D02*
G01*
X187981287Y-96652461D01*
X187996689Y-96655525D01*
X188011803Y-96659788D01*
X188026537Y-96665223D01*
X188040798Y-96671798D01*
X188054500Y-96679471D01*
X188067557Y-96688196D01*
X188079890Y-96697918D01*
X188091421Y-96708578D01*
X188102081Y-96720109D01*
X188111803Y-96732442D01*
X188120528Y-96745499D01*
X188128201Y-96759201D01*
X188134776Y-96773462D01*
X188140211Y-96788196D01*
X188144474Y-96803310D01*
X188147538Y-96818712D01*
X188149383Y-96834307D01*
X188150000Y-96849999D01*
X188149383Y-96865691D01*
X188147538Y-96881286D01*
X188144474Y-96896688D01*
X188140211Y-96911802D01*
X188134776Y-96926536D01*
X188128201Y-96940797D01*
X188120528Y-96954499D01*
X188111803Y-96967556D01*
X188102081Y-96979889D01*
X188091421Y-96991420D01*
X188079890Y-97002080D01*
X188067557Y-97011802D01*
X188054500Y-97020527D01*
X188040798Y-97028200D01*
X188026537Y-97034775D01*
X188011803Y-97040210D01*
X187996689Y-97044473D01*
X187981287Y-97047537D01*
X187965692Y-97049382D01*
X187950000Y-97049999D01*
X187150000Y-97049999D01*
X187150000Y-96649999D01*
X187950000Y-96649999D01*
X187965692Y-96650616D01*
G37*
G36*
X187965692Y-97300616D02*
G01*
X187981287Y-97302461D01*
X187996689Y-97305525D01*
X188011803Y-97309788D01*
X188026537Y-97315223D01*
X188040798Y-97321798D01*
X188054500Y-97329471D01*
X188067557Y-97338196D01*
X188079890Y-97347918D01*
X188091421Y-97358578D01*
X188102081Y-97370109D01*
X188111803Y-97382442D01*
X188120528Y-97395499D01*
X188128201Y-97409201D01*
X188134776Y-97423462D01*
X188140211Y-97438196D01*
X188144474Y-97453310D01*
X188147538Y-97468712D01*
X188149383Y-97484307D01*
X188150000Y-97499999D01*
X188149383Y-97515691D01*
X188147538Y-97531286D01*
X188144474Y-97546688D01*
X188140211Y-97561802D01*
X188134776Y-97576536D01*
X188128201Y-97590797D01*
X188120528Y-97604499D01*
X188111803Y-97617556D01*
X188102081Y-97629889D01*
X188091421Y-97641420D01*
X188079890Y-97652080D01*
X188067557Y-97661802D01*
X188054500Y-97670527D01*
X188040798Y-97678200D01*
X188026537Y-97684775D01*
X188011803Y-97690210D01*
X187996689Y-97694473D01*
X187981287Y-97697537D01*
X187965692Y-97699382D01*
X187950000Y-97699999D01*
X187150000Y-97699999D01*
X187150000Y-97299999D01*
X187950000Y-97299999D01*
X187965692Y-97300616D01*
G37*
D13*
X187650000Y-98149999D03*
%TD*%
D12*
%TO.C,U2*%
G36*
X209650000Y-98349999D02*
G01*
X208850000Y-98349999D01*
X208834308Y-98349382D01*
X208818713Y-98347537D01*
X208803311Y-98344473D01*
X208788197Y-98340210D01*
X208773463Y-98334775D01*
X208759202Y-98328200D01*
X208745500Y-98320527D01*
X208732443Y-98311802D01*
X208720110Y-98302080D01*
X208708579Y-98291420D01*
X208697919Y-98279889D01*
X208688197Y-98267556D01*
X208679472Y-98254499D01*
X208671799Y-98240797D01*
X208665224Y-98226536D01*
X208659789Y-98211802D01*
X208655526Y-98196688D01*
X208652462Y-98181286D01*
X208650617Y-98165691D01*
X208650000Y-98149999D01*
X208650617Y-98134307D01*
X208652462Y-98118712D01*
X208655526Y-98103310D01*
X208659789Y-98088196D01*
X208665224Y-98073462D01*
X208671799Y-98059201D01*
X208679472Y-98045499D01*
X208688197Y-98032442D01*
X208697919Y-98020109D01*
X208708579Y-98008578D01*
X208720110Y-97997918D01*
X208732443Y-97988196D01*
X208745500Y-97979471D01*
X208759202Y-97971798D01*
X208773463Y-97965223D01*
X208788197Y-97959788D01*
X208803311Y-97955525D01*
X208818713Y-97952461D01*
X208834308Y-97950616D01*
X208850000Y-97949999D01*
X209650000Y-97949999D01*
X209650000Y-98349999D01*
G37*
G36*
X209650000Y-97699999D02*
G01*
X208850000Y-97699999D01*
X208834308Y-97699382D01*
X208818713Y-97697537D01*
X208803311Y-97694473D01*
X208788197Y-97690210D01*
X208773463Y-97684775D01*
X208759202Y-97678200D01*
X208745500Y-97670527D01*
X208732443Y-97661802D01*
X208720110Y-97652080D01*
X208708579Y-97641420D01*
X208697919Y-97629889D01*
X208688197Y-97617556D01*
X208679472Y-97604499D01*
X208671799Y-97590797D01*
X208665224Y-97576536D01*
X208659789Y-97561802D01*
X208655526Y-97546688D01*
X208652462Y-97531286D01*
X208650617Y-97515691D01*
X208650000Y-97499999D01*
X208650617Y-97484307D01*
X208652462Y-97468712D01*
X208655526Y-97453310D01*
X208659789Y-97438196D01*
X208665224Y-97423462D01*
X208671799Y-97409201D01*
X208679472Y-97395499D01*
X208688197Y-97382442D01*
X208697919Y-97370109D01*
X208708579Y-97358578D01*
X208720110Y-97347918D01*
X208732443Y-97338196D01*
X208745500Y-97329471D01*
X208759202Y-97321798D01*
X208773463Y-97315223D01*
X208788197Y-97309788D01*
X208803311Y-97305525D01*
X208818713Y-97302461D01*
X208834308Y-97300616D01*
X208850000Y-97299999D01*
X209650000Y-97299999D01*
X209650000Y-97699999D01*
G37*
G36*
X209650000Y-97049999D02*
G01*
X208850000Y-97049999D01*
X208834308Y-97049382D01*
X208818713Y-97047537D01*
X208803311Y-97044473D01*
X208788197Y-97040210D01*
X208773463Y-97034775D01*
X208759202Y-97028200D01*
X208745500Y-97020527D01*
X208732443Y-97011802D01*
X208720110Y-97002080D01*
X208708579Y-96991420D01*
X208697919Y-96979889D01*
X208688197Y-96967556D01*
X208679472Y-96954499D01*
X208671799Y-96940797D01*
X208665224Y-96926536D01*
X208659789Y-96911802D01*
X208655526Y-96896688D01*
X208652462Y-96881286D01*
X208650617Y-96865691D01*
X208650000Y-96849999D01*
X208650617Y-96834307D01*
X208652462Y-96818712D01*
X208655526Y-96803310D01*
X208659789Y-96788196D01*
X208665224Y-96773462D01*
X208671799Y-96759201D01*
X208679472Y-96745499D01*
X208688197Y-96732442D01*
X208697919Y-96720109D01*
X208708579Y-96708578D01*
X208720110Y-96697918D01*
X208732443Y-96688196D01*
X208745500Y-96679471D01*
X208759202Y-96671798D01*
X208773463Y-96665223D01*
X208788197Y-96659788D01*
X208803311Y-96655525D01*
X208818713Y-96652461D01*
X208834308Y-96650616D01*
X208850000Y-96649999D01*
X209650000Y-96649999D01*
X209650000Y-97049999D01*
G37*
G36*
X207965692Y-96650616D02*
G01*
X207981287Y-96652461D01*
X207996689Y-96655525D01*
X208011803Y-96659788D01*
X208026537Y-96665223D01*
X208040798Y-96671798D01*
X208054500Y-96679471D01*
X208067557Y-96688196D01*
X208079890Y-96697918D01*
X208091421Y-96708578D01*
X208102081Y-96720109D01*
X208111803Y-96732442D01*
X208120528Y-96745499D01*
X208128201Y-96759201D01*
X208134776Y-96773462D01*
X208140211Y-96788196D01*
X208144474Y-96803310D01*
X208147538Y-96818712D01*
X208149383Y-96834307D01*
X208150000Y-96849999D01*
X208149383Y-96865691D01*
X208147538Y-96881286D01*
X208144474Y-96896688D01*
X208140211Y-96911802D01*
X208134776Y-96926536D01*
X208128201Y-96940797D01*
X208120528Y-96954499D01*
X208111803Y-96967556D01*
X208102081Y-96979889D01*
X208091421Y-96991420D01*
X208079890Y-97002080D01*
X208067557Y-97011802D01*
X208054500Y-97020527D01*
X208040798Y-97028200D01*
X208026537Y-97034775D01*
X208011803Y-97040210D01*
X207996689Y-97044473D01*
X207981287Y-97047537D01*
X207965692Y-97049382D01*
X207950000Y-97049999D01*
X207150000Y-97049999D01*
X207150000Y-96649999D01*
X207950000Y-96649999D01*
X207965692Y-96650616D01*
G37*
G36*
X207965692Y-97300616D02*
G01*
X207981287Y-97302461D01*
X207996689Y-97305525D01*
X208011803Y-97309788D01*
X208026537Y-97315223D01*
X208040798Y-97321798D01*
X208054500Y-97329471D01*
X208067557Y-97338196D01*
X208079890Y-97347918D01*
X208091421Y-97358578D01*
X208102081Y-97370109D01*
X208111803Y-97382442D01*
X208120528Y-97395499D01*
X208128201Y-97409201D01*
X208134776Y-97423462D01*
X208140211Y-97438196D01*
X208144474Y-97453310D01*
X208147538Y-97468712D01*
X208149383Y-97484307D01*
X208150000Y-97499999D01*
X208149383Y-97515691D01*
X208147538Y-97531286D01*
X208144474Y-97546688D01*
X208140211Y-97561802D01*
X208134776Y-97576536D01*
X208128201Y-97590797D01*
X208120528Y-97604499D01*
X208111803Y-97617556D01*
X208102081Y-97629889D01*
X208091421Y-97641420D01*
X208079890Y-97652080D01*
X208067557Y-97661802D01*
X208054500Y-97670527D01*
X208040798Y-97678200D01*
X208026537Y-97684775D01*
X208011803Y-97690210D01*
X207996689Y-97694473D01*
X207981287Y-97697537D01*
X207965692Y-97699382D01*
X207950000Y-97699999D01*
X207150000Y-97699999D01*
X207150000Y-97299999D01*
X207950000Y-97299999D01*
X207965692Y-97300616D01*
G37*
D13*
X207650000Y-98149999D03*
%TD*%
D12*
%TO.C,U1*%
G36*
X229650000Y-98349999D02*
G01*
X228850000Y-98349999D01*
X228834308Y-98349382D01*
X228818713Y-98347537D01*
X228803311Y-98344473D01*
X228788197Y-98340210D01*
X228773463Y-98334775D01*
X228759202Y-98328200D01*
X228745500Y-98320527D01*
X228732443Y-98311802D01*
X228720110Y-98302080D01*
X228708579Y-98291420D01*
X228697919Y-98279889D01*
X228688197Y-98267556D01*
X228679472Y-98254499D01*
X228671799Y-98240797D01*
X228665224Y-98226536D01*
X228659789Y-98211802D01*
X228655526Y-98196688D01*
X228652462Y-98181286D01*
X228650617Y-98165691D01*
X228650000Y-98149999D01*
X228650617Y-98134307D01*
X228652462Y-98118712D01*
X228655526Y-98103310D01*
X228659789Y-98088196D01*
X228665224Y-98073462D01*
X228671799Y-98059201D01*
X228679472Y-98045499D01*
X228688197Y-98032442D01*
X228697919Y-98020109D01*
X228708579Y-98008578D01*
X228720110Y-97997918D01*
X228732443Y-97988196D01*
X228745500Y-97979471D01*
X228759202Y-97971798D01*
X228773463Y-97965223D01*
X228788197Y-97959788D01*
X228803311Y-97955525D01*
X228818713Y-97952461D01*
X228834308Y-97950616D01*
X228850000Y-97949999D01*
X229650000Y-97949999D01*
X229650000Y-98349999D01*
G37*
G36*
X229650000Y-97699999D02*
G01*
X228850000Y-97699999D01*
X228834308Y-97699382D01*
X228818713Y-97697537D01*
X228803311Y-97694473D01*
X228788197Y-97690210D01*
X228773463Y-97684775D01*
X228759202Y-97678200D01*
X228745500Y-97670527D01*
X228732443Y-97661802D01*
X228720110Y-97652080D01*
X228708579Y-97641420D01*
X228697919Y-97629889D01*
X228688197Y-97617556D01*
X228679472Y-97604499D01*
X228671799Y-97590797D01*
X228665224Y-97576536D01*
X228659789Y-97561802D01*
X228655526Y-97546688D01*
X228652462Y-97531286D01*
X228650617Y-97515691D01*
X228650000Y-97499999D01*
X228650617Y-97484307D01*
X228652462Y-97468712D01*
X228655526Y-97453310D01*
X228659789Y-97438196D01*
X228665224Y-97423462D01*
X228671799Y-97409201D01*
X228679472Y-97395499D01*
X228688197Y-97382442D01*
X228697919Y-97370109D01*
X228708579Y-97358578D01*
X228720110Y-97347918D01*
X228732443Y-97338196D01*
X228745500Y-97329471D01*
X228759202Y-97321798D01*
X228773463Y-97315223D01*
X228788197Y-97309788D01*
X228803311Y-97305525D01*
X228818713Y-97302461D01*
X228834308Y-97300616D01*
X228850000Y-97299999D01*
X229650000Y-97299999D01*
X229650000Y-97699999D01*
G37*
G36*
X229650000Y-97049999D02*
G01*
X228850000Y-97049999D01*
X228834308Y-97049382D01*
X228818713Y-97047537D01*
X228803311Y-97044473D01*
X228788197Y-97040210D01*
X228773463Y-97034775D01*
X228759202Y-97028200D01*
X228745500Y-97020527D01*
X228732443Y-97011802D01*
X228720110Y-97002080D01*
X228708579Y-96991420D01*
X228697919Y-96979889D01*
X228688197Y-96967556D01*
X228679472Y-96954499D01*
X228671799Y-96940797D01*
X228665224Y-96926536D01*
X228659789Y-96911802D01*
X228655526Y-96896688D01*
X228652462Y-96881286D01*
X228650617Y-96865691D01*
X228650000Y-96849999D01*
X228650617Y-96834307D01*
X228652462Y-96818712D01*
X228655526Y-96803310D01*
X228659789Y-96788196D01*
X228665224Y-96773462D01*
X228671799Y-96759201D01*
X228679472Y-96745499D01*
X228688197Y-96732442D01*
X228697919Y-96720109D01*
X228708579Y-96708578D01*
X228720110Y-96697918D01*
X228732443Y-96688196D01*
X228745500Y-96679471D01*
X228759202Y-96671798D01*
X228773463Y-96665223D01*
X228788197Y-96659788D01*
X228803311Y-96655525D01*
X228818713Y-96652461D01*
X228834308Y-96650616D01*
X228850000Y-96649999D01*
X229650000Y-96649999D01*
X229650000Y-97049999D01*
G37*
G36*
X227965692Y-96650616D02*
G01*
X227981287Y-96652461D01*
X227996689Y-96655525D01*
X228011803Y-96659788D01*
X228026537Y-96665223D01*
X228040798Y-96671798D01*
X228054500Y-96679471D01*
X228067557Y-96688196D01*
X228079890Y-96697918D01*
X228091421Y-96708578D01*
X228102081Y-96720109D01*
X228111803Y-96732442D01*
X228120528Y-96745499D01*
X228128201Y-96759201D01*
X228134776Y-96773462D01*
X228140211Y-96788196D01*
X228144474Y-96803310D01*
X228147538Y-96818712D01*
X228149383Y-96834307D01*
X228150000Y-96849999D01*
X228149383Y-96865691D01*
X228147538Y-96881286D01*
X228144474Y-96896688D01*
X228140211Y-96911802D01*
X228134776Y-96926536D01*
X228128201Y-96940797D01*
X228120528Y-96954499D01*
X228111803Y-96967556D01*
X228102081Y-96979889D01*
X228091421Y-96991420D01*
X228079890Y-97002080D01*
X228067557Y-97011802D01*
X228054500Y-97020527D01*
X228040798Y-97028200D01*
X228026537Y-97034775D01*
X228011803Y-97040210D01*
X227996689Y-97044473D01*
X227981287Y-97047537D01*
X227965692Y-97049382D01*
X227950000Y-97049999D01*
X227150000Y-97049999D01*
X227150000Y-96649999D01*
X227950000Y-96649999D01*
X227965692Y-96650616D01*
G37*
G36*
X227965692Y-97300616D02*
G01*
X227981287Y-97302461D01*
X227996689Y-97305525D01*
X228011803Y-97309788D01*
X228026537Y-97315223D01*
X228040798Y-97321798D01*
X228054500Y-97329471D01*
X228067557Y-97338196D01*
X228079890Y-97347918D01*
X228091421Y-97358578D01*
X228102081Y-97370109D01*
X228111803Y-97382442D01*
X228120528Y-97395499D01*
X228128201Y-97409201D01*
X228134776Y-97423462D01*
X228140211Y-97438196D01*
X228144474Y-97453310D01*
X228147538Y-97468712D01*
X228149383Y-97484307D01*
X228150000Y-97499999D01*
X228149383Y-97515691D01*
X228147538Y-97531286D01*
X228144474Y-97546688D01*
X228140211Y-97561802D01*
X228134776Y-97576536D01*
X228128201Y-97590797D01*
X228120528Y-97604499D01*
X228111803Y-97617556D01*
X228102081Y-97629889D01*
X228091421Y-97641420D01*
X228079890Y-97652080D01*
X228067557Y-97661802D01*
X228054500Y-97670527D01*
X228040798Y-97678200D01*
X228026537Y-97684775D01*
X228011803Y-97690210D01*
X227996689Y-97694473D01*
X227981287Y-97697537D01*
X227965692Y-97699382D01*
X227950000Y-97699999D01*
X227150000Y-97699999D01*
X227150000Y-97299999D01*
X227950000Y-97299999D01*
X227965692Y-97300616D01*
G37*
D13*
X227650000Y-98149999D03*
%TD*%
%TO.C,D10*%
G36*
G01*
X148600000Y-93712500D02*
X148600000Y-93287500D01*
G75*
G02*
X148812500Y-93075000I212500J0D01*
G01*
X149612500Y-93075000D01*
G75*
G02*
X149825000Y-93287500I0J-212500D01*
G01*
X149825000Y-93712500D01*
G75*
G02*
X149612500Y-93925000I-212500J0D01*
G01*
X148812500Y-93925000D01*
G75*
G02*
X148600000Y-93712500I0J212500D01*
G01*
G37*
G36*
G01*
X146975000Y-93712500D02*
X146975000Y-93287500D01*
G75*
G02*
X147187500Y-93075000I212500J0D01*
G01*
X147987500Y-93075000D01*
G75*
G02*
X148200000Y-93287500I0J-212500D01*
G01*
X148200000Y-93712500D01*
G75*
G02*
X147987500Y-93925000I-212500J0D01*
G01*
X147187500Y-93925000D01*
G75*
G02*
X146975000Y-93712500I0J212500D01*
G01*
G37*
%TD*%
%TO.C,D9*%
G36*
G01*
X148600000Y-101712500D02*
X148600000Y-101287500D01*
G75*
G02*
X148812500Y-101075000I212500J0D01*
G01*
X149612500Y-101075000D01*
G75*
G02*
X149825000Y-101287500I0J-212500D01*
G01*
X149825000Y-101712500D01*
G75*
G02*
X149612500Y-101925000I-212500J0D01*
G01*
X148812500Y-101925000D01*
G75*
G02*
X148600000Y-101712500I0J212500D01*
G01*
G37*
G36*
G01*
X146975000Y-101712500D02*
X146975000Y-101287500D01*
G75*
G02*
X147187500Y-101075000I212500J0D01*
G01*
X147987500Y-101075000D01*
G75*
G02*
X148200000Y-101287500I0J-212500D01*
G01*
X148200000Y-101712500D01*
G75*
G02*
X147987500Y-101925000I-212500J0D01*
G01*
X147187500Y-101925000D01*
G75*
G02*
X146975000Y-101712500I0J212500D01*
G01*
G37*
%TD*%
%TO.C,D8*%
G36*
G01*
X168600000Y-93712500D02*
X168600000Y-93287500D01*
G75*
G02*
X168812500Y-93075000I212500J0D01*
G01*
X169612500Y-93075000D01*
G75*
G02*
X169825000Y-93287500I0J-212500D01*
G01*
X169825000Y-93712500D01*
G75*
G02*
X169612500Y-93925000I-212500J0D01*
G01*
X168812500Y-93925000D01*
G75*
G02*
X168600000Y-93712500I0J212500D01*
G01*
G37*
G36*
G01*
X166975000Y-93712500D02*
X166975000Y-93287500D01*
G75*
G02*
X167187500Y-93075000I212500J0D01*
G01*
X167987500Y-93075000D01*
G75*
G02*
X168200000Y-93287500I0J-212500D01*
G01*
X168200000Y-93712500D01*
G75*
G02*
X167987500Y-93925000I-212500J0D01*
G01*
X167187500Y-93925000D01*
G75*
G02*
X166975000Y-93712500I0J212500D01*
G01*
G37*
%TD*%
%TO.C,D7*%
G36*
G01*
X168600000Y-101712500D02*
X168600000Y-101287500D01*
G75*
G02*
X168812500Y-101075000I212500J0D01*
G01*
X169612500Y-101075000D01*
G75*
G02*
X169825000Y-101287500I0J-212500D01*
G01*
X169825000Y-101712500D01*
G75*
G02*
X169612500Y-101925000I-212500J0D01*
G01*
X168812500Y-101925000D01*
G75*
G02*
X168600000Y-101712500I0J212500D01*
G01*
G37*
G36*
G01*
X166975000Y-101712500D02*
X166975000Y-101287500D01*
G75*
G02*
X167187500Y-101075000I212500J0D01*
G01*
X167987500Y-101075000D01*
G75*
G02*
X168200000Y-101287500I0J-212500D01*
G01*
X168200000Y-101712500D01*
G75*
G02*
X167987500Y-101925000I-212500J0D01*
G01*
X167187500Y-101925000D01*
G75*
G02*
X166975000Y-101712500I0J212500D01*
G01*
G37*
%TD*%
%TO.C,D6*%
G36*
G01*
X188787500Y-93712500D02*
X188787500Y-93287500D01*
G75*
G02*
X189000000Y-93075000I212500J0D01*
G01*
X189800000Y-93075000D01*
G75*
G02*
X190012500Y-93287500I0J-212500D01*
G01*
X190012500Y-93712500D01*
G75*
G02*
X189800000Y-93925000I-212500J0D01*
G01*
X189000000Y-93925000D01*
G75*
G02*
X188787500Y-93712500I0J212500D01*
G01*
G37*
G36*
G01*
X187162500Y-93712500D02*
X187162500Y-93287500D01*
G75*
G02*
X187375000Y-93075000I212500J0D01*
G01*
X188175000Y-93075000D01*
G75*
G02*
X188387500Y-93287500I0J-212500D01*
G01*
X188387500Y-93712500D01*
G75*
G02*
X188175000Y-93925000I-212500J0D01*
G01*
X187375000Y-93925000D01*
G75*
G02*
X187162500Y-93712500I0J212500D01*
G01*
G37*
%TD*%
%TO.C,D5*%
G36*
G01*
X188600000Y-101712500D02*
X188600000Y-101287500D01*
G75*
G02*
X188812500Y-101075000I212500J0D01*
G01*
X189612500Y-101075000D01*
G75*
G02*
X189825000Y-101287500I0J-212500D01*
G01*
X189825000Y-101712500D01*
G75*
G02*
X189612500Y-101925000I-212500J0D01*
G01*
X188812500Y-101925000D01*
G75*
G02*
X188600000Y-101712500I0J212500D01*
G01*
G37*
G36*
G01*
X186975000Y-101712500D02*
X186975000Y-101287500D01*
G75*
G02*
X187187500Y-101075000I212500J0D01*
G01*
X187987500Y-101075000D01*
G75*
G02*
X188200000Y-101287500I0J-212500D01*
G01*
X188200000Y-101712500D01*
G75*
G02*
X187987500Y-101925000I-212500J0D01*
G01*
X187187500Y-101925000D01*
G75*
G02*
X186975000Y-101712500I0J212500D01*
G01*
G37*
%TD*%
%TO.C,D4*%
G36*
G01*
X208600000Y-93712500D02*
X208600000Y-93287500D01*
G75*
G02*
X208812500Y-93075000I212500J0D01*
G01*
X209612500Y-93075000D01*
G75*
G02*
X209825000Y-93287500I0J-212500D01*
G01*
X209825000Y-93712500D01*
G75*
G02*
X209612500Y-93925000I-212500J0D01*
G01*
X208812500Y-93925000D01*
G75*
G02*
X208600000Y-93712500I0J212500D01*
G01*
G37*
G36*
G01*
X206975000Y-93712500D02*
X206975000Y-93287500D01*
G75*
G02*
X207187500Y-93075000I212500J0D01*
G01*
X207987500Y-93075000D01*
G75*
G02*
X208200000Y-93287500I0J-212500D01*
G01*
X208200000Y-93712500D01*
G75*
G02*
X207987500Y-93925000I-212500J0D01*
G01*
X207187500Y-93925000D01*
G75*
G02*
X206975000Y-93712500I0J212500D01*
G01*
G37*
%TD*%
%TO.C,D3*%
G36*
G01*
X208600000Y-101712500D02*
X208600000Y-101287500D01*
G75*
G02*
X208812500Y-101075000I212500J0D01*
G01*
X209612500Y-101075000D01*
G75*
G02*
X209825000Y-101287500I0J-212500D01*
G01*
X209825000Y-101712500D01*
G75*
G02*
X209612500Y-101925000I-212500J0D01*
G01*
X208812500Y-101925000D01*
G75*
G02*
X208600000Y-101712500I0J212500D01*
G01*
G37*
G36*
G01*
X206975000Y-101712500D02*
X206975000Y-101287500D01*
G75*
G02*
X207187500Y-101075000I212500J0D01*
G01*
X207987500Y-101075000D01*
G75*
G02*
X208200000Y-101287500I0J-212500D01*
G01*
X208200000Y-101712500D01*
G75*
G02*
X207987500Y-101925000I-212500J0D01*
G01*
X207187500Y-101925000D01*
G75*
G02*
X206975000Y-101712500I0J212500D01*
G01*
G37*
%TD*%
%TO.C,D2*%
G36*
G01*
X228600000Y-93712500D02*
X228600000Y-93287500D01*
G75*
G02*
X228812500Y-93075000I212500J0D01*
G01*
X229612500Y-93075000D01*
G75*
G02*
X229825000Y-93287500I0J-212500D01*
G01*
X229825000Y-93712500D01*
G75*
G02*
X229612500Y-93925000I-212500J0D01*
G01*
X228812500Y-93925000D01*
G75*
G02*
X228600000Y-93712500I0J212500D01*
G01*
G37*
G36*
G01*
X226975000Y-93712500D02*
X226975000Y-93287500D01*
G75*
G02*
X227187500Y-93075000I212500J0D01*
G01*
X227987500Y-93075000D01*
G75*
G02*
X228200000Y-93287500I0J-212500D01*
G01*
X228200000Y-93712500D01*
G75*
G02*
X227987500Y-93925000I-212500J0D01*
G01*
X227187500Y-93925000D01*
G75*
G02*
X226975000Y-93712500I0J212500D01*
G01*
G37*
%TD*%
%TO.C,D1*%
G36*
G01*
X228600000Y-101712500D02*
X228600000Y-101287500D01*
G75*
G02*
X228812500Y-101075000I212500J0D01*
G01*
X229612500Y-101075000D01*
G75*
G02*
X229825000Y-101287500I0J-212500D01*
G01*
X229825000Y-101712500D01*
G75*
G02*
X229612500Y-101925000I-212500J0D01*
G01*
X228812500Y-101925000D01*
G75*
G02*
X228600000Y-101712500I0J212500D01*
G01*
G37*
G36*
G01*
X226975000Y-101712500D02*
X226975000Y-101287500D01*
G75*
G02*
X227187500Y-101075000I212500J0D01*
G01*
X227987500Y-101075000D01*
G75*
G02*
X228200000Y-101287500I0J-212500D01*
G01*
X228200000Y-101712500D01*
G75*
G02*
X227987500Y-101925000I-212500J0D01*
G01*
X227187500Y-101925000D01*
G75*
G02*
X226975000Y-101712500I0J212500D01*
G01*
G37*
%TD*%
M02*
