M48
INCH,TZ
T1C0.0157
T2C0.0295
T3C0.0866
%
G90
G05
T1
X40315Y-39567
X42283Y-39567
X44252Y-39567
X46220Y-39567
X48189Y-39567
X50157Y-39567
X52520Y-36811
X52520Y-39961
X52717Y-38278
X54882Y-36811
X54882Y-39961
X56142Y-38110
X57205Y-36811
X57205Y-39961
X57598Y-38780
X57677Y-38110
X59173Y-40433
X59213Y-37953
X59331Y-36821
X60394Y-38780
X60591Y-38031
X64016Y-37835
X64016Y-38504
X65039Y-36811
X65039Y-39961
X65354Y-37569
X65591Y-37913
X65591Y-38740
X66693Y-37756
X66905Y-40433
X67323Y-36732
X67480Y-39961
X67795Y-38386
X68504Y-38031
X68780Y-38780
X69055Y-39961
X70630Y-39961
X70945Y-37717
X71811Y-38386
X72520Y-37480
X73031Y-36811
X73031Y-39961
X73406Y-37106
X73425Y-37913
X73425Y-38780
X73898Y-37441
X74897Y-40433
X75118Y-36811
X76142Y-36811
X76142Y-38780
X76142Y-39961
X76265Y-38027
X78504Y-36811
X78504Y-39961
X78740Y-37874
X78740Y-38937
X79685Y-38976
X79764Y-37283
X80079Y-39961
X80276Y-37391
X80866Y-36811
X80866Y-39961
X81240Y-37106
X81260Y-36378
X81260Y-37953
X81260Y-38898
X82559Y-37323
X82653Y-40433
X82953Y-36811
X83228Y-39961
X83622Y-36811
X84094Y-38031
X84331Y-38661
X84803Y-39961
X85197Y-36811
X86378Y-36811
X86378Y-39961
X86693Y-37874
X86772Y-38898
X87598Y-37283
X87638Y-39331
X88031Y-37559
X88150Y-36142
X88740Y-36811
X88740Y-39961
X89094Y-37244
X89094Y-38858
X89173Y-37874
X90197Y-39370
X91102Y-36417
X91299Y-39961
X91890Y-38386
X93071Y-38386
T2
X35591Y-34843
X35591Y-35630
X35591Y-36417
X35591Y-37205
X35591Y-37992
X35591Y-38780
X35591Y-39567
X35591Y-40354
X35591Y-41142
X35591Y-41929
X36378Y-34843
X36378Y-35630
X36378Y-36417
X36378Y-37205
X36378Y-37992
X36378Y-38780
X36378Y-39567
X36378Y-40354
X36378Y-41142
X36378Y-41929
T3
X92677Y-36811
X92677Y-39961
T0
M30
