%TF.GenerationSoftware,KiCad,Pcbnew,(5.1.7)-1*%
%TF.CreationDate,2020-11-11T22:14:19+01:00*%
%TF.ProjectId,rgb_sensor_v2,7267625f-7365-46e7-936f-725f76322e6b,rev?*%
%TF.SameCoordinates,Original*%
%TF.FileFunction,Legend,Bot*%
%TF.FilePolarity,Positive*%
%FSLAX46Y46*%
G04 Gerber Fmt 4.6, Leading zero omitted, Abs format (unit mm)*
G04 Created by KiCad (PCBNEW (5.1.7)-1) date 2020-11-11 22:14:19*
%MOMM*%
%LPD*%
G01*
G04 APERTURE LIST*
%ADD10C,0.120000*%
%ADD11C,0.250000*%
%ADD12C,0.150000*%
G04 APERTURE END LIST*
D10*
%TO.C,J1*%
X90010000Y-107340000D02*
X93010000Y-107340000D01*
X93010000Y-107340000D02*
X93010000Y-108560000D01*
X93010000Y-108560000D02*
X83290000Y-108560000D01*
X83290000Y-108560000D02*
X83290000Y-97500000D01*
X90010000Y-87660000D02*
X93010000Y-87660000D01*
X93010000Y-87660000D02*
X93010000Y-86440000D01*
X93010000Y-86440000D02*
X83290000Y-86440000D01*
X83290000Y-86440000D02*
X83290000Y-97500000D01*
X93060000Y-105500000D02*
X93310000Y-105500000D01*
X93310000Y-105500000D02*
X93310000Y-108860000D01*
X93310000Y-108860000D02*
X90810000Y-108860000D01*
D11*
%TO.C,U5*%
X146725000Y-98149999D02*
G75*
G03*
X146725000Y-98149999I-125000J0D01*
G01*
D12*
X147362500Y-98724999D02*
X147362500Y-98737499D01*
X147362500Y-96262499D02*
X147362500Y-96274998D01*
X147362500Y-96262499D02*
X149437500Y-96262499D01*
X149437500Y-98725000D02*
X149437500Y-98737499D01*
X149437500Y-96262499D02*
X149437500Y-96274998D01*
X147362500Y-98737499D02*
X149437500Y-98737499D01*
D11*
%TO.C,U4*%
X166725000Y-98149999D02*
G75*
G03*
X166725000Y-98149999I-125000J0D01*
G01*
D12*
X167362500Y-98724999D02*
X167362500Y-98737499D01*
X167362500Y-96262499D02*
X167362500Y-96274998D01*
X167362500Y-96262499D02*
X169437500Y-96262499D01*
X169437500Y-98725000D02*
X169437500Y-98737499D01*
X169437500Y-96262499D02*
X169437500Y-96274998D01*
X167362500Y-98737499D02*
X169437500Y-98737499D01*
D11*
%TO.C,U3*%
X186725000Y-98149999D02*
G75*
G03*
X186725000Y-98149999I-125000J0D01*
G01*
D12*
X187362500Y-98724999D02*
X187362500Y-98737499D01*
X187362500Y-96262499D02*
X187362500Y-96274998D01*
X187362500Y-96262499D02*
X189437500Y-96262499D01*
X189437500Y-98725000D02*
X189437500Y-98737499D01*
X189437500Y-96262499D02*
X189437500Y-96274998D01*
X187362500Y-98737499D02*
X189437500Y-98737499D01*
D11*
%TO.C,U2*%
X206725000Y-98149999D02*
G75*
G03*
X206725000Y-98149999I-125000J0D01*
G01*
D12*
X207362500Y-98724999D02*
X207362500Y-98737499D01*
X207362500Y-96262499D02*
X207362500Y-96274998D01*
X207362500Y-96262499D02*
X209437500Y-96262499D01*
X209437500Y-98725000D02*
X209437500Y-98737499D01*
X209437500Y-96262499D02*
X209437500Y-96274998D01*
X207362500Y-98737499D02*
X209437500Y-98737499D01*
D11*
%TO.C,U1*%
X226725000Y-98149999D02*
G75*
G03*
X226725000Y-98149999I-125000J0D01*
G01*
D12*
X227362500Y-98724999D02*
X227362500Y-98737499D01*
X227362500Y-96262499D02*
X227362500Y-96274998D01*
X227362500Y-96262499D02*
X229437500Y-96262499D01*
X229437500Y-98725000D02*
X229437500Y-98737499D01*
X229437500Y-96262499D02*
X229437500Y-96274998D01*
X227362500Y-98737499D02*
X229437500Y-98737499D01*
D10*
%TO.C,D10*%
X149200000Y-94185000D02*
X146715000Y-94185000D01*
X146715000Y-94185000D02*
X146715000Y-92815000D01*
X146715000Y-92815000D02*
X149200000Y-92815000D01*
%TO.C,D9*%
X149200000Y-102185000D02*
X146715000Y-102185000D01*
X146715000Y-102185000D02*
X146715000Y-100815000D01*
X146715000Y-100815000D02*
X149200000Y-100815000D01*
%TO.C,D8*%
X169200000Y-94185000D02*
X166715000Y-94185000D01*
X166715000Y-94185000D02*
X166715000Y-92815000D01*
X166715000Y-92815000D02*
X169200000Y-92815000D01*
%TO.C,D7*%
X169200000Y-102185000D02*
X166715000Y-102185000D01*
X166715000Y-102185000D02*
X166715000Y-100815000D01*
X166715000Y-100815000D02*
X169200000Y-100815000D01*
%TO.C,D6*%
X189387500Y-94185000D02*
X186902500Y-94185000D01*
X186902500Y-94185000D02*
X186902500Y-92815000D01*
X186902500Y-92815000D02*
X189387500Y-92815000D01*
%TO.C,D5*%
X189200000Y-102185000D02*
X186715000Y-102185000D01*
X186715000Y-102185000D02*
X186715000Y-100815000D01*
X186715000Y-100815000D02*
X189200000Y-100815000D01*
%TO.C,D4*%
X209200000Y-94185000D02*
X206715000Y-94185000D01*
X206715000Y-94185000D02*
X206715000Y-92815000D01*
X206715000Y-92815000D02*
X209200000Y-92815000D01*
%TO.C,D3*%
X209200000Y-102185000D02*
X206715000Y-102185000D01*
X206715000Y-102185000D02*
X206715000Y-100815000D01*
X206715000Y-100815000D02*
X209200000Y-100815000D01*
%TO.C,D2*%
X229200000Y-94185000D02*
X226715000Y-94185000D01*
X226715000Y-94185000D02*
X226715000Y-92815000D01*
X226715000Y-92815000D02*
X229200000Y-92815000D01*
%TO.C,D1*%
X229200000Y-102185000D02*
X226715000Y-102185000D01*
X226715000Y-102185000D02*
X226715000Y-100815000D01*
X226715000Y-100815000D02*
X229200000Y-100815000D01*
%TO.C,J1*%
D12*
X94747619Y-97833333D02*
X94033333Y-97833333D01*
X93890476Y-97880952D01*
X93795238Y-97976190D01*
X93747619Y-98119047D01*
X93747619Y-98214285D01*
X93747619Y-96833333D02*
X93747619Y-97404761D01*
X93747619Y-97119047D02*
X94747619Y-97119047D01*
X94604761Y-97214285D01*
X94509523Y-97309523D01*
X94461904Y-97404761D01*
%TO.C,U5*%
X149221904Y-98989879D02*
X149221904Y-99799403D01*
X149174285Y-99894641D01*
X149126666Y-99942260D01*
X149031428Y-99989879D01*
X148840952Y-99989879D01*
X148745714Y-99942260D01*
X148698095Y-99894641D01*
X148650476Y-99799403D01*
X148650476Y-98989879D01*
X147698095Y-98989879D02*
X148174285Y-98989879D01*
X148221904Y-99466070D01*
X148174285Y-99418451D01*
X148079047Y-99370832D01*
X147840952Y-99370832D01*
X147745714Y-99418451D01*
X147698095Y-99466070D01*
X147650476Y-99561308D01*
X147650476Y-99799403D01*
X147698095Y-99894641D01*
X147745714Y-99942260D01*
X147840952Y-99989879D01*
X148079047Y-99989879D01*
X148174285Y-99942260D01*
X148221904Y-99894641D01*
%TO.C,U4*%
X169221904Y-98989879D02*
X169221904Y-99799403D01*
X169174285Y-99894641D01*
X169126666Y-99942260D01*
X169031428Y-99989879D01*
X168840952Y-99989879D01*
X168745714Y-99942260D01*
X168698095Y-99894641D01*
X168650476Y-99799403D01*
X168650476Y-98989879D01*
X167745714Y-99323213D02*
X167745714Y-99989879D01*
X167983809Y-98942260D02*
X168221904Y-99656546D01*
X167602857Y-99656546D01*
%TO.C,U3*%
X189221904Y-98989879D02*
X189221904Y-99799403D01*
X189174285Y-99894641D01*
X189126666Y-99942260D01*
X189031428Y-99989879D01*
X188840952Y-99989879D01*
X188745714Y-99942260D01*
X188698095Y-99894641D01*
X188650476Y-99799403D01*
X188650476Y-98989879D01*
X188269523Y-98989879D02*
X187650476Y-98989879D01*
X187983809Y-99370832D01*
X187840952Y-99370832D01*
X187745714Y-99418451D01*
X187698095Y-99466070D01*
X187650476Y-99561308D01*
X187650476Y-99799403D01*
X187698095Y-99894641D01*
X187745714Y-99942260D01*
X187840952Y-99989879D01*
X188126666Y-99989879D01*
X188221904Y-99942260D01*
X188269523Y-99894641D01*
%TO.C,U2*%
X209221904Y-98989879D02*
X209221904Y-99799403D01*
X209174285Y-99894641D01*
X209126666Y-99942260D01*
X209031428Y-99989879D01*
X208840952Y-99989879D01*
X208745714Y-99942260D01*
X208698095Y-99894641D01*
X208650476Y-99799403D01*
X208650476Y-98989879D01*
X208221904Y-99085118D02*
X208174285Y-99037499D01*
X208079047Y-98989879D01*
X207840952Y-98989879D01*
X207745714Y-99037499D01*
X207698095Y-99085118D01*
X207650476Y-99180356D01*
X207650476Y-99275594D01*
X207698095Y-99418451D01*
X208269523Y-99989879D01*
X207650476Y-99989879D01*
%TO.C,U1*%
X229221904Y-98989879D02*
X229221904Y-99799403D01*
X229174285Y-99894641D01*
X229126666Y-99942260D01*
X229031428Y-99989879D01*
X228840952Y-99989879D01*
X228745714Y-99942260D01*
X228698095Y-99894641D01*
X228650476Y-99799403D01*
X228650476Y-98989879D01*
X227650476Y-99989879D02*
X228221904Y-99989879D01*
X227936190Y-99989879D02*
X227936190Y-98989879D01*
X228031428Y-99132737D01*
X228126666Y-99227975D01*
X228221904Y-99275594D01*
%TO.C,D10*%
X149614285Y-95332380D02*
X149614285Y-94332380D01*
X149376190Y-94332380D01*
X149233333Y-94380000D01*
X149138095Y-94475238D01*
X149090476Y-94570476D01*
X149042857Y-94760952D01*
X149042857Y-94903809D01*
X149090476Y-95094285D01*
X149138095Y-95189523D01*
X149233333Y-95284761D01*
X149376190Y-95332380D01*
X149614285Y-95332380D01*
X148090476Y-95332380D02*
X148661904Y-95332380D01*
X148376190Y-95332380D02*
X148376190Y-94332380D01*
X148471428Y-94475238D01*
X148566666Y-94570476D01*
X148661904Y-94618095D01*
X147471428Y-94332380D02*
X147376190Y-94332380D01*
X147280952Y-94380000D01*
X147233333Y-94427619D01*
X147185714Y-94522857D01*
X147138095Y-94713333D01*
X147138095Y-94951428D01*
X147185714Y-95141904D01*
X147233333Y-95237142D01*
X147280952Y-95284761D01*
X147376190Y-95332380D01*
X147471428Y-95332380D01*
X147566666Y-95284761D01*
X147614285Y-95237142D01*
X147661904Y-95141904D01*
X147709523Y-94951428D01*
X147709523Y-94713333D01*
X147661904Y-94522857D01*
X147614285Y-94427619D01*
X147566666Y-94380000D01*
X147471428Y-94332380D01*
%TO.C,D9*%
X149138095Y-103332380D02*
X149138095Y-102332380D01*
X148900000Y-102332380D01*
X148757142Y-102380000D01*
X148661904Y-102475238D01*
X148614285Y-102570476D01*
X148566666Y-102760952D01*
X148566666Y-102903809D01*
X148614285Y-103094285D01*
X148661904Y-103189523D01*
X148757142Y-103284761D01*
X148900000Y-103332380D01*
X149138095Y-103332380D01*
X148090476Y-103332380D02*
X147900000Y-103332380D01*
X147804761Y-103284761D01*
X147757142Y-103237142D01*
X147661904Y-103094285D01*
X147614285Y-102903809D01*
X147614285Y-102522857D01*
X147661904Y-102427619D01*
X147709523Y-102380000D01*
X147804761Y-102332380D01*
X147995238Y-102332380D01*
X148090476Y-102380000D01*
X148138095Y-102427619D01*
X148185714Y-102522857D01*
X148185714Y-102760952D01*
X148138095Y-102856190D01*
X148090476Y-102903809D01*
X147995238Y-102951428D01*
X147804761Y-102951428D01*
X147709523Y-102903809D01*
X147661904Y-102856190D01*
X147614285Y-102760952D01*
%TO.C,D8*%
X169138095Y-95332380D02*
X169138095Y-94332380D01*
X168900000Y-94332380D01*
X168757142Y-94380000D01*
X168661904Y-94475238D01*
X168614285Y-94570476D01*
X168566666Y-94760952D01*
X168566666Y-94903809D01*
X168614285Y-95094285D01*
X168661904Y-95189523D01*
X168757142Y-95284761D01*
X168900000Y-95332380D01*
X169138095Y-95332380D01*
X167995238Y-94760952D02*
X168090476Y-94713333D01*
X168138095Y-94665714D01*
X168185714Y-94570476D01*
X168185714Y-94522857D01*
X168138095Y-94427619D01*
X168090476Y-94380000D01*
X167995238Y-94332380D01*
X167804761Y-94332380D01*
X167709523Y-94380000D01*
X167661904Y-94427619D01*
X167614285Y-94522857D01*
X167614285Y-94570476D01*
X167661904Y-94665714D01*
X167709523Y-94713333D01*
X167804761Y-94760952D01*
X167995238Y-94760952D01*
X168090476Y-94808571D01*
X168138095Y-94856190D01*
X168185714Y-94951428D01*
X168185714Y-95141904D01*
X168138095Y-95237142D01*
X168090476Y-95284761D01*
X167995238Y-95332380D01*
X167804761Y-95332380D01*
X167709523Y-95284761D01*
X167661904Y-95237142D01*
X167614285Y-95141904D01*
X167614285Y-94951428D01*
X167661904Y-94856190D01*
X167709523Y-94808571D01*
X167804761Y-94760952D01*
%TO.C,D7*%
X169138095Y-103332380D02*
X169138095Y-102332380D01*
X168900000Y-102332380D01*
X168757142Y-102380000D01*
X168661904Y-102475238D01*
X168614285Y-102570476D01*
X168566666Y-102760952D01*
X168566666Y-102903809D01*
X168614285Y-103094285D01*
X168661904Y-103189523D01*
X168757142Y-103284761D01*
X168900000Y-103332380D01*
X169138095Y-103332380D01*
X168233333Y-102332380D02*
X167566666Y-102332380D01*
X167995238Y-103332380D01*
%TO.C,D6*%
X189325595Y-95332380D02*
X189325595Y-94332380D01*
X189087500Y-94332380D01*
X188944642Y-94380000D01*
X188849404Y-94475238D01*
X188801785Y-94570476D01*
X188754166Y-94760952D01*
X188754166Y-94903809D01*
X188801785Y-95094285D01*
X188849404Y-95189523D01*
X188944642Y-95284761D01*
X189087500Y-95332380D01*
X189325595Y-95332380D01*
X187897023Y-94332380D02*
X188087500Y-94332380D01*
X188182738Y-94380000D01*
X188230357Y-94427619D01*
X188325595Y-94570476D01*
X188373214Y-94760952D01*
X188373214Y-95141904D01*
X188325595Y-95237142D01*
X188277976Y-95284761D01*
X188182738Y-95332380D01*
X187992261Y-95332380D01*
X187897023Y-95284761D01*
X187849404Y-95237142D01*
X187801785Y-95141904D01*
X187801785Y-94903809D01*
X187849404Y-94808571D01*
X187897023Y-94760952D01*
X187992261Y-94713333D01*
X188182738Y-94713333D01*
X188277976Y-94760952D01*
X188325595Y-94808571D01*
X188373214Y-94903809D01*
%TO.C,D5*%
X189138095Y-103332380D02*
X189138095Y-102332380D01*
X188900000Y-102332380D01*
X188757142Y-102380000D01*
X188661904Y-102475238D01*
X188614285Y-102570476D01*
X188566666Y-102760952D01*
X188566666Y-102903809D01*
X188614285Y-103094285D01*
X188661904Y-103189523D01*
X188757142Y-103284761D01*
X188900000Y-103332380D01*
X189138095Y-103332380D01*
X187661904Y-102332380D02*
X188138095Y-102332380D01*
X188185714Y-102808571D01*
X188138095Y-102760952D01*
X188042857Y-102713333D01*
X187804761Y-102713333D01*
X187709523Y-102760952D01*
X187661904Y-102808571D01*
X187614285Y-102903809D01*
X187614285Y-103141904D01*
X187661904Y-103237142D01*
X187709523Y-103284761D01*
X187804761Y-103332380D01*
X188042857Y-103332380D01*
X188138095Y-103284761D01*
X188185714Y-103237142D01*
%TO.C,D4*%
X209138095Y-95332380D02*
X209138095Y-94332380D01*
X208900000Y-94332380D01*
X208757142Y-94380000D01*
X208661904Y-94475238D01*
X208614285Y-94570476D01*
X208566666Y-94760952D01*
X208566666Y-94903809D01*
X208614285Y-95094285D01*
X208661904Y-95189523D01*
X208757142Y-95284761D01*
X208900000Y-95332380D01*
X209138095Y-95332380D01*
X207709523Y-94665714D02*
X207709523Y-95332380D01*
X207947619Y-94284761D02*
X208185714Y-94999047D01*
X207566666Y-94999047D01*
%TO.C,D3*%
X209138095Y-103332380D02*
X209138095Y-102332380D01*
X208900000Y-102332380D01*
X208757142Y-102380000D01*
X208661904Y-102475238D01*
X208614285Y-102570476D01*
X208566666Y-102760952D01*
X208566666Y-102903809D01*
X208614285Y-103094285D01*
X208661904Y-103189523D01*
X208757142Y-103284761D01*
X208900000Y-103332380D01*
X209138095Y-103332380D01*
X208233333Y-102332380D02*
X207614285Y-102332380D01*
X207947619Y-102713333D01*
X207804761Y-102713333D01*
X207709523Y-102760952D01*
X207661904Y-102808571D01*
X207614285Y-102903809D01*
X207614285Y-103141904D01*
X207661904Y-103237142D01*
X207709523Y-103284761D01*
X207804761Y-103332380D01*
X208090476Y-103332380D01*
X208185714Y-103284761D01*
X208233333Y-103237142D01*
%TO.C,D2*%
X229138095Y-95332380D02*
X229138095Y-94332380D01*
X228900000Y-94332380D01*
X228757142Y-94380000D01*
X228661904Y-94475238D01*
X228614285Y-94570476D01*
X228566666Y-94760952D01*
X228566666Y-94903809D01*
X228614285Y-95094285D01*
X228661904Y-95189523D01*
X228757142Y-95284761D01*
X228900000Y-95332380D01*
X229138095Y-95332380D01*
X228185714Y-94427619D02*
X228138095Y-94380000D01*
X228042857Y-94332380D01*
X227804761Y-94332380D01*
X227709523Y-94380000D01*
X227661904Y-94427619D01*
X227614285Y-94522857D01*
X227614285Y-94618095D01*
X227661904Y-94760952D01*
X228233333Y-95332380D01*
X227614285Y-95332380D01*
%TO.C,D1*%
X229138095Y-103332380D02*
X229138095Y-102332380D01*
X228900000Y-102332380D01*
X228757142Y-102380000D01*
X228661904Y-102475238D01*
X228614285Y-102570476D01*
X228566666Y-102760952D01*
X228566666Y-102903809D01*
X228614285Y-103094285D01*
X228661904Y-103189523D01*
X228757142Y-103284761D01*
X228900000Y-103332380D01*
X229138095Y-103332380D01*
X227614285Y-103332380D02*
X228185714Y-103332380D01*
X227900000Y-103332380D02*
X227900000Y-102332380D01*
X227995238Y-102475238D01*
X228090476Y-102570476D01*
X228185714Y-102618095D01*
%TD*%
M02*
