M48
; DRILL file {KiCad (5.1.7)-1} date 11/05/20 21:41:07
; FORMAT={-:-/ absolute / inch / decimal}
; #@! TF.CreationDate,2020-11-05T21:41:07+01:00
; #@! TF.GenerationSoftware,Kicad,Pcbnew,(5.1.7)-1
; #@! TF.FileFunction,Plated,1,2,PTH
FMAT,2
INCH
T1C0.0157
T2C0.0315
T3C0.0866
%
G90
G05
T1
X4.0315Y-3.9567
X4.2283Y-3.9567
X4.4252Y-3.9567
X4.622Y-3.9567
X4.8189Y-3.9567
X5.0157Y-3.9567
X5.252Y-3.6811
X5.252Y-3.9961
X5.2717Y-3.8278
X5.4882Y-3.6811
X5.4882Y-3.9961
X5.6142Y-3.811
X5.7205Y-3.6811
X5.7205Y-3.9961
X5.7598Y-3.878
X5.7677Y-3.811
X5.9134Y-3.7874
X5.9173Y-4.0433
X5.9331Y-3.6821
X6.0394Y-3.878
X6.0591Y-3.8031
X6.4016Y-3.7835
X6.4016Y-3.8504
X6.5039Y-3.6811
X6.5039Y-3.9961
X6.5354Y-3.7569
X6.5591Y-3.7913
X6.5591Y-3.874
X6.6905Y-4.0433
X6.7323Y-3.6732
X6.748Y-3.9961
X6.7795Y-3.8386
X6.8504Y-3.8031
X6.878Y-3.878
X6.9055Y-3.9961
X7.063Y-3.9961
X7.1811Y-3.8386
X7.252Y-3.748
X7.3031Y-3.6811
X7.3031Y-3.9961
X7.3406Y-3.7106
X7.3425Y-3.7913
X7.3425Y-3.878
X7.4897Y-4.0433
X7.5118Y-3.6811
X7.6142Y-3.6811
X7.6142Y-3.878
X7.6142Y-3.9961
X7.6265Y-3.8027
X7.8504Y-3.6811
X7.8504Y-3.9961
X8.0079Y-3.9961
X8.0276Y-3.7391
X8.0866Y-3.6811
X8.0866Y-3.9961
X8.124Y-3.7106
X8.126Y-3.6378
X8.126Y-3.7953
X8.126Y-3.8898
X8.2653Y-4.0433
X8.2953Y-3.6811
X8.3228Y-3.9961
X8.3622Y-3.6811
X8.4094Y-3.8031
X8.4803Y-3.9961
X8.5197Y-3.6811
X8.6378Y-3.6811
X8.6378Y-3.9961
X8.8031Y-3.7559
X8.815Y-3.6142
X8.874Y-3.6811
X8.874Y-3.9961
X8.9094Y-3.7244
X8.9094Y-3.8858
X8.9173Y-3.7874
X9.0197Y-3.937
X9.1102Y-3.6417
X9.1299Y-3.9961
X9.189Y-3.8386
X9.3071Y-3.8386
T2
X3.5591Y-3.4843
X3.5591Y-3.563
X3.5591Y-3.6417
X3.5591Y-3.7205
X3.5591Y-3.7992
X3.5591Y-3.878
X3.5591Y-3.9567
X3.5591Y-4.0354
X3.5591Y-4.1142
X3.5591Y-4.1929
X3.6378Y-3.4843
X3.6378Y-3.563
X3.6378Y-3.6417
X3.6378Y-3.7205
X3.6378Y-3.7992
X3.6378Y-3.878
X3.6378Y-3.9567
X3.6378Y-4.0354
X3.6378Y-4.1142
X3.6378Y-4.1929
T3
X9.2677Y-3.6811
X9.2677Y-3.9961
T0
M30
